<?xml version="1.0" encoding="UTF-8"?>
<!DOCTYPE svg PUBLIC "-//W3C//DTD SVG 1.1//EN" "http://www.w3.org/Graphics/SVG/1.1/DTD/svg11.dtd">
<svg xmlns="http://www.w3.org/2000/svg" version="1.1" width="512px" height="512px" style="shape-rendering:geometricPrecision; text-rendering:geometricPrecision; image-rendering:optimizeQuality; fill-rule:evenodd; clip-rule:evenodd" xmlns:xlink="http://www.w3.org/1999/xlink">
<g><path style="opacity:0.991" fill="#0b365e" d="M 503.5,76.5 C 383.833,76.5 264.167,76.5 144.5,76.5C 144.333,59.83 144.5,43.1633 145,26.5C 148.048,16.1181 154.881,9.95145 165.5,8C 218.333,7.83333 271.167,7.66667 324,7.5C 378.211,7.34165 432.377,7.84165 486.5,9C 493.667,12.1667 498.833,17.3333 502,24.5C 503.444,41.7772 503.944,59.1106 503.5,76.5 Z"/></g>
<g><path style="opacity:1" fill="#d3342c" d="M 176.5,33.5 C 182.028,32.9999 187.362,33.6666 192.5,35.5C 195.845,39.0847 196.345,43.0847 194,47.5C 193.097,48.7014 191.931,49.5348 190.5,50C 184.719,50.9032 179.053,50.5699 173.5,49C 168.812,42.6251 169.812,37.4585 176.5,33.5 Z"/></g>
<g><path style="opacity:1" fill="#29a468" d="M 218.5,33.5 C 223.959,33.1033 229.292,33.6033 234.5,35C 239.894,40.3233 239.561,45.3233 233.5,50C 228.167,50.6667 222.833,50.6667 217.5,50C 210.671,44.0031 211.004,38.5031 218.5,33.5 Z"/></g>
<g><path style="opacity:0.997" fill="#dbe3e9" d="M 144.5,76.5 C 264.167,76.5 383.833,76.5 503.5,76.5C 503.667,160.501 503.5,244.501 503,328.5C 501.049,339.119 494.882,345.952 484.5,349C 391.167,349.5 297.834,349.667 204.5,349.5C 201.833,349.5 199.167,349.5 196.5,349.5C 193.695,348.681 190.695,348.181 187.5,348C 180.47,341.381 172.137,338.881 162.5,340.5C 162.5,332.167 162.5,323.833 162.5,315.5C 187.691,316.665 204.191,305.332 212,281.5C 216.369,251.117 208.203,224.783 187.5,202.5C 187.945,193.06 187.445,183.726 186,174.5C 183.045,170.723 179.212,169.557 174.5,171C 172.536,172.451 171.203,174.284 170.5,176.5C 169.675,180.647 169.175,184.981 169,189.5C 161.615,185.482 153.781,182.649 145.5,181C 144.944,180.617 144.611,180.117 144.5,179.5C 144.5,145.167 144.5,110.833 144.5,76.5 Z"/></g>
<g><path style="opacity:1" fill="#2da86a" d="M 208.5,118.5 C 265.168,118.333 321.834,118.5 378.5,119C 394.976,123.111 402.142,133.611 400,150.5C 396.624,161.211 389.457,167.711 378.5,170C 342.833,170.333 307.167,170.667 271.5,171C 263.001,175.748 254.668,180.748 246.5,186C 240.559,189.871 235.393,189.038 231,183.5C 229.71,179.27 229.21,174.936 229.5,170.5C 221.083,170.906 212.749,170.406 204.5,169C 189.679,161.881 184.513,150.381 189,134.5C 193.32,126.332 199.82,120.999 208.5,118.5 Z"/></g>
<g><path style="opacity:0.966" fill="#97a7af" d="M 68.5,188.5 C 61.9546,193.268 55.6212,198.268 49.5,203.5C 50.3078,193.91 50.8078,184.244 51,174.5C 55.9484,168.245 61.2818,167.912 67,173.5C 68.3254,178.401 68.8254,183.401 68.5,188.5 Z"/></g>
<g><path style="opacity:1" fill="#98a8b0" d="M 187.5,202.5 C 182.147,198.396 176.647,194.396 171,190.5C 170.501,185.845 170.334,181.179 170.5,176.5C 171.203,174.284 172.536,172.451 174.5,171C 179.212,169.557 183.045,170.723 186,174.5C 187.445,183.726 187.945,193.06 187.5,202.5 Z"/></g>
<g><path style="opacity:1" fill="#2974fd" d="M 267.5,229.5 C 324.501,229.333 381.501,229.5 438.5,230C 453.898,234.394 461.065,244.56 460,260.5C 457.063,271.77 449.897,278.603 438.5,281C 431.508,281.5 424.508,281.666 417.5,281.5C 418.069,286.777 417.235,291.777 415,296.5C 411.912,299.097 408.412,299.931 404.5,299C 395.167,293.333 385.833,287.667 376.5,282C 339.107,281.982 301.773,281.315 264.5,280C 250.429,273.694 244.929,262.861 248,247.5C 249.497,243.835 251.497,240.502 254,237.5C 258.183,234.164 262.683,231.497 267.5,229.5 Z"/></g>
<g><path style="opacity:0.991" fill="#96a6af" d="M 75.5,315.5 C 104.167,315.5 132.833,315.5 161.5,315.5C 161.5,323.833 161.5,332.167 161.5,340.5C 132.833,340.5 104.167,340.5 75.5,340.5C 75.5,332.167 75.5,323.833 75.5,315.5 Z"/></g>
<g><path style="opacity:0.999" fill="#c9d2d7" d="M 170.5,176.5 C 170.334,181.179 170.501,185.845 171,190.5C 176.647,194.396 182.147,198.396 187.5,202.5C 208.203,224.783 216.369,251.117 212,281.5C 204.191,305.332 187.691,316.665 162.5,315.5C 162.5,323.833 162.5,332.167 162.5,340.5C 172.137,338.881 180.47,341.381 187.5,348C 190.695,348.181 193.695,348.681 196.5,349.5C 194.143,349.337 191.81,349.503 189.5,350C 192.164,352.669 193.998,355.836 195,359.5C 195.5,373.163 195.667,386.829 195.5,400.5C 188.053,400.071 180.719,400.571 173.5,402C 171.951,403.214 170.785,404.714 170,406.5C 161.169,442.325 138.669,456.492 102.5,449C 82.8917,441.394 71.3917,427.227 68,406.5C 67.2155,404.714 66.0488,403.214 64.5,402C 57.2806,400.571 49.9472,400.071 42.5,400.5C 42.3334,386.829 42.5001,373.163 43,359.5C 44.3328,355.501 46.1661,351.834 48.5,348.5C 56.0915,341.417 65.0915,338.75 75.5,340.5C 104.167,340.5 132.833,340.5 161.5,340.5C 161.5,332.167 161.5,323.833 161.5,315.5C 132.833,315.5 104.167,315.5 75.5,315.5C 50.6688,317.512 34.1688,306.845 26,283.5C 20.525,252.701 28.3583,226.034 49.5,203.5C 55.6212,198.268 61.9546,193.268 68.5,188.5C 77.9291,183.635 87.9291,180.469 98.5,179C 113.854,178.249 129.188,178.415 144.5,179.5C 144.611,180.117 144.944,180.617 145.5,181C 153.781,182.649 161.615,185.482 169,189.5C 169.175,184.981 169.675,180.647 170.5,176.5 Z"/></g>
<g><path style="opacity:1" fill="#0c375f" d="M 101.5,195.5 C 123.355,192.608 144.021,196.108 163.5,206C 192.458,226.542 201.625,253.709 191,287.5C 186.633,293.434 180.8,296.934 173.5,298C 136.5,298.667 99.5,298.667 62.5,298C 53.0662,294.899 46.5662,288.732 43,279.5C 38.8867,234.816 58.3867,206.816 101.5,195.5 Z"/></g>
<g><path style="opacity:1" fill="#10d8fa" d="M 106.5,264.5 C 114.84,264.334 123.173,264.5 131.5,265C 135.277,267.955 136.443,271.788 135,276.5C 133.891,278.815 132.057,280.315 129.5,281C 122.5,281.667 115.5,281.667 108.5,281C 100.135,276.387 99.4687,270.887 106.5,264.5 Z"/></g>
<g><path style="opacity:1" fill="#10d9fb" d="M 150.5,229.5 C 154.95,229.142 158.45,230.808 161,234.5C 161.667,242.5 161.667,250.5 161,258.5C 160.215,260.286 159.049,261.786 157.5,263C 154.5,263.667 151.5,263.667 148.5,263C 146.513,261.681 145.346,259.848 145,257.5C 144.333,250.167 144.333,242.833 145,235.5C 146.36,232.977 148.193,230.977 150.5,229.5 Z"/></g>
<g><path style="opacity:1" fill="#10d9fb" d="M 82.5,229.5 C 87.0926,229.547 90.5926,231.547 93,235.5C 93.6667,242.833 93.6667,250.167 93,257.5C 91.8771,261.819 89.0438,263.819 84.5,263.5C 80.8226,263.664 78.3226,261.997 77,258.5C 76.3333,250.5 76.3333,242.5 77,234.5C 78.7297,232.598 80.563,230.931 82.5,229.5 Z"/></g>
<g><path style="opacity:0.985" fill="#97a7af" d="M 48.5,348.5 C 46.1661,351.834 44.3328,355.501 43,359.5C 42.5001,373.163 42.3334,386.829 42.5,400.5C 42.3334,413.171 42.5001,425.838 43,438.5C 43.9445,442.494 44.7779,446.494 45.5,450.5C 18.3405,440.886 5.67385,421.553 7.5,392.5C 6.02889,363.64 19.6956,348.973 48.5,348.5 Z"/></g>
<g><path style="opacity:0.986" fill="#97a7af" d="M 196.5,349.5 C 199.167,349.5 201.833,349.5 204.5,349.5C 218.783,353.957 227.283,363.624 230,378.5C 230.667,387.833 230.667,397.167 230,406.5C 226.655,429.009 214.155,443.675 192.5,450.5C 195.211,433.97 196.211,417.304 195.5,400.5C 195.667,386.829 195.5,373.163 195,359.5C 193.998,355.836 192.164,352.669 189.5,350C 191.81,349.503 194.143,349.337 196.5,349.5 Z"/></g>
<g><path style="opacity:1" fill="#13cde1" d="M 113.5,383.5 C 128.139,382.312 135.639,388.979 136,403.5C 131.263,416.785 122.43,420.618 109.5,415C 97.912,402.871 99.2453,392.371 113.5,383.5 Z"/></g>
<g><path style="opacity:0.997" fill="#bcc7ce" d="M 42.5,400.5 C 49.9472,400.071 57.2806,400.571 64.5,402C 66.0488,403.214 67.2155,404.714 68,406.5C 71.3917,427.227 82.8917,441.394 102.5,449C 138.669,456.492 161.169,442.325 170,406.5C 170.785,404.714 171.951,403.214 173.5,402C 180.719,400.571 188.053,400.071 195.5,400.5C 196.211,417.304 195.211,433.97 192.5,450.5C 179.655,484.159 155.155,501.826 119,503.5C 82.8447,501.826 58.3447,484.159 45.5,450.5C 44.7779,446.494 43.9445,442.494 43,438.5C 42.5001,425.838 42.3334,413.171 42.5,400.5 Z"/></g>
</svg>
