<?xml version="1.0" encoding="UTF-8"?>
<!DOCTYPE svg PUBLIC "-//W3C//DTD SVG 1.1//EN" "http://www.w3.org/Graphics/SVG/1.1/DTD/svg11.dtd">
<svg xmlns="http://www.w3.org/2000/svg" version="1.1" width="500px" height="501px" style="shape-rendering:geometricPrecision; text-rendering:geometricPrecision; image-rendering:optimizeQuality; fill-rule:evenodd; clip-rule:evenodd" xmlns:xlink="http://www.w3.org/1999/xlink">
<g><path style="opacity:1" fill="#010101" d="M 58.5,12.5 C 186.167,12.5 313.833,12.5 441.5,12.5C 441.62,13.5862 442.287,14.2528 443.5,14.5C 444.416,14.4573 445.083,14.1239 445.5,13.5C 445.833,13.5 446.167,13.5 446.5,13.5C 447.99,15.2798 449.99,15.9465 452.5,15.5C 453.791,15.2627 454.791,15.596 455.5,16.5C 458.088,18.6246 461.088,19.9579 464.5,20.5C 465.585,22.5869 467.251,23.9202 469.5,24.5C 470.5,26.1667 471.833,27.5 473.5,28.5C 474.167,28.5 474.5,28.8333 474.5,29.5C 475.026,31.2303 476.026,32.5637 477.5,33.5C 477.427,35.0269 478.094,36.0269 479.5,36.5C 479.733,39.5418 480.733,42.2084 482.5,44.5C 482.338,46.5273 482.505,48.5273 483,50.5C 483.383,51.056 483.883,51.3893 484.5,51.5C 485.461,53.2646 485.795,55.2646 485.5,57.5C 484.167,186.5 484.167,315.5 485.5,444.5C 485.5,445.167 485.5,445.833 485.5,446.5C 483.656,448.279 482.99,450.612 483.5,453.5C 483.768,455.099 483.434,456.432 482.5,457.5C 480.659,459.849 479.326,462.515 478.5,465.5C 478.672,466.492 478.338,467.158 477.5,467.5C 475.738,468.262 474.738,469.596 474.5,471.5C 472.833,472.5 471.5,473.833 470.5,475.5C 468.251,476.08 466.585,477.413 465.5,479.5C 465.167,479.5 464.833,479.5 464.5,479.5C 461.515,480.326 458.849,481.659 456.5,483.5C 456.167,483.5 455.833,483.5 455.5,483.5C 451.655,483.288 448.321,484.288 445.5,486.5C 445.167,486.5 444.833,486.5 444.5,486.5C 313.931,485.168 183.264,485.168 52.5,486.5C 52.1667,486.5 51.8333,486.5 51.5,486.5C 48.7491,484.025 45.4158,483.025 41.5,483.5C 39.8984,481.926 37.8984,481.259 35.5,481.5C 34.2905,481.068 33.2905,480.401 32.5,479.5C 29.1294,476.129 25.4627,473.129 21.5,470.5C 21.5,470.167 21.5,469.833 21.5,469.5C 21.4456,467.368 20.4456,466.035 18.5,465.5C 18.5979,463.447 17.9313,461.78 16.5,460.5C 16.821,457.423 15.821,455.09 13.5,453.5C 13.5,453.167 13.5,452.833 13.5,452.5C 14.7944,450.32 14.4611,448.32 12.5,446.5C 11.1753,314.845 11.1753,183.178 12.5,51.5C 14.8506,49.1587 15.8506,46.1587 15.5,42.5C 15.8333,41.8333 16.1667,41.1667 16.5,40.5C 18.588,38.6644 19.9213,36.3311 20.5,33.5C 22.1042,32.713 22.7709,31.3797 22.5,29.5C 26.4627,26.8715 30.1294,23.8715 33.5,20.5C 33.8333,20.5 34.1667,20.5 34.5,20.5C 37.4848,19.6743 40.1515,18.341 42.5,16.5C 42.8333,16.5 43.1667,16.5 43.5,16.5C 48.1538,15.6708 52.8204,14.8375 57.5,14C 58.056,13.6174 58.3893,13.1174 58.5,12.5 Z"/></g>
<g><path style="opacity:0.337" fill="#696969" d="M 58.5,12.5 C 58.3893,13.1174 58.056,13.6174 57.5,14C 52.8204,14.8375 48.1538,15.6708 43.5,16.5C 48.023,13.7841 53.023,12.4508 58.5,12.5 Z"/></g>
<g><path style="opacity:1" fill="#858585" d="M 441.5,12.5 C 443.099,12.2322 444.432,12.5655 445.5,13.5C 445.083,14.1239 444.416,14.4573 443.5,14.5C 442.287,14.2528 441.62,13.5862 441.5,12.5 Z"/></g>
<g><path style="opacity:0.725" fill="#676767" d="M 446.5,13.5 C 448.786,13.595 450.786,14.2616 452.5,15.5C 449.99,15.9465 447.99,15.2798 446.5,13.5 Z"/></g>
<g><path style="opacity:1" fill="#8c8c8c" d="M 455.5,16.5 C 459.165,16.5018 462.165,17.8352 464.5,20.5C 461.088,19.9579 458.088,18.6246 455.5,16.5 Z"/></g>
<g><path style="opacity:1" fill="#8d8d8d" d="M 42.5,16.5 C 40.1515,18.341 37.4848,19.6743 34.5,20.5C 36.2485,17.625 38.9152,16.2917 42.5,16.5 Z"/></g>
<g><path style="opacity:0.463" fill="#808080" d="M 464.5,20.5 C 467.063,20.7313 468.73,22.0646 469.5,24.5C 467.251,23.9202 465.585,22.5869 464.5,20.5 Z"/></g>
<g><path style="opacity:0.008" fill="#cdcdcd" d="M 469.5,24.5 C 472.179,24.5246 473.512,25.858 473.5,28.5C 471.833,27.5 470.5,26.1667 469.5,24.5 Z"/></g>
<g><path style="opacity:0.851" fill="#b0b0b0" d="M 33.5,20.5 C 30.1294,23.8715 26.4627,26.8715 22.5,29.5C 25.2901,25.3717 28.9568,22.3717 33.5,20.5 Z"/></g>
<g><path style="opacity:0.016" fill="#b7b7b7" d="M 474.5,29.5 C 476.912,29.6941 477.912,31.0274 477.5,33.5C 476.026,32.5637 475.026,31.2303 474.5,29.5 Z"/></g>
<g><path style="opacity:0.796" fill="#9d9d9d" d="M 22.5,29.5 C 22.7709,31.3797 22.1042,32.713 20.5,33.5C 20.6596,31.847 21.3263,30.5137 22.5,29.5 Z"/></g>
<g><path style="opacity:0.608" fill="#b3b3b3" d="M 477.5,33.5 C 478.906,33.9731 479.573,34.9731 479.5,36.5C 478.094,36.0269 477.427,35.0269 477.5,33.5 Z"/></g>
<g><path style="opacity:0.78" fill="#979797" d="M 20.5,33.5 C 19.9213,36.3311 18.588,38.6644 16.5,40.5C 16.5548,37.3855 17.8881,35.0522 20.5,33.5 Z"/></g>
<g><path style="opacity:0.72" fill="#a1a1a1" d="M 479.5,36.5 C 481.982,38.5027 482.982,41.1694 482.5,44.5C 480.733,42.2084 479.733,39.5418 479.5,36.5 Z"/></g>
<g><path style="opacity:0.725" fill="#636363" d="M 482.5,44.5 C 483.924,46.5145 484.59,48.8478 484.5,51.5C 483.883,51.3893 483.383,51.056 483,50.5C 482.505,48.5273 482.338,46.5273 482.5,44.5 Z"/></g>
<g><path style="opacity:1" fill="#8d8d8d" d="M 15.5,42.5 C 15.8506,46.1587 14.8506,49.1587 12.5,51.5C 12.9281,48.2154 13.9281,45.2154 15.5,42.5 Z"/></g>
<g><path style="opacity:1" fill="#fdfdfd" d="M 173.5,50.5 C 196.962,47.486 216.796,54.486 233,71.5C 235.207,74.0779 237.04,76.9113 238.5,80C 278.833,80.3333 319.167,80.6667 359.5,81C 367,88.5 374.5,96 382,103.5C 382.667,105.167 382.667,106.833 382,108.5C 373.349,118.318 364.183,127.651 354.5,136.5C 349.493,131.993 344.66,127.326 340,122.5C 334.711,126.787 329.711,131.454 325,136.5C 320.319,131.651 315.485,126.985 310.5,122.5C 305.833,126.833 301.167,131.167 296.5,135.5C 291.515,131.015 286.681,126.349 282,121.5C 275.833,127.667 269.667,133.833 263.5,140C 255.167,140.333 246.833,140.667 238.5,141C 222.148,165.163 199.482,174.496 170.5,169C 142.605,159.075 127.938,139.242 126.5,109.5C 129.303,79.3841 144.97,59.7174 173.5,50.5 Z"/></g>
<g><path style="opacity:0.133" fill="#737373" d="M 485.5,57.5 C 486.833,186.5 486.833,315.5 485.5,444.5C 484.167,315.5 484.167,186.5 485.5,57.5 Z"/></g>
<g><path style="opacity:1" fill="#080808" d="M 154.5,94.5 C 172.683,93.243 179.183,101.243 174,118.5C 167.491,127.042 159.658,128.542 150.5,123C 141.494,111.867 142.827,102.367 154.5,94.5 Z"/></g>
<g><path style="opacity:1" fill="#767676" d="M 314.5,194.5 C 267.81,194.186 221.143,194.52 174.5,195.5C 175.263,194.732 176.263,194.232 177.5,194C 223.335,193.168 269.002,193.335 314.5,194.5 Z"/></g>
<g><path style="opacity:1" fill="#fdfdfd" d="M 314.5,194.5 C 331.349,195.504 342.182,204.171 347,220.5C 353.673,239.351 360.84,258.018 368.5,276.5C 381.212,280.545 389.545,288.879 393.5,301.5C 393.5,330.5 393.5,359.5 393.5,388.5C 385.981,388.175 378.648,388.508 371.5,389.5C 371.666,399.839 371.5,410.172 371,420.5C 366.495,434.295 356.995,439.795 342.5,437C 334.334,433.682 329.334,427.849 327.5,419.5C 327.5,409.5 327.5,399.5 327.5,389.5C 275.167,389.5 222.833,389.5 170.5,389.5C 170.5,399.5 170.5,409.5 170.5,419.5C 165.988,433.438 156.321,439.271 141.5,437C 133.836,434.002 129.003,428.502 127,420.5C 126.5,410.172 126.334,399.839 126.5,389.5C 119.352,388.508 112.019,388.175 104.5,388.5C 104.5,359.833 104.5,331.167 104.5,302.5C 108.018,289.313 116.351,280.647 129.5,276.5C 138.149,254.915 146.649,233.248 155,211.5C 159.259,203.405 165.759,198.071 174.5,195.5C 221.143,194.52 267.81,194.186 314.5,194.5 Z"/></g>
<g><path style="opacity:1" fill="#020202" d="M 343.5,276.5 C 280.664,276.832 217.998,276.499 155.5,275.5C 161.875,258.273 168.042,240.94 174,223.5C 175.833,221 178,218.833 180.5,217C 226.167,216.333 271.833,216.333 317.5,217C 321.039,218.907 323.539,221.74 325,225.5C 331.474,242.425 337.641,259.425 343.5,276.5 Z"/></g>
<g><path style="opacity:1" fill="#999999" d="M 155.5,275.5 C 217.998,276.499 280.664,276.832 343.5,276.5C 280.665,277.832 217.665,277.832 154.5,276.5C 154.624,275.893 154.957,275.56 155.5,275.5 Z"/></g>
<g><path style="opacity:1" fill="#050505" d="M 142.5,300.5 C 164.563,299.985 172.73,310.319 167,331.5C 158.003,344.041 147.336,345.707 135,336.5C 128.552,327.56 127.885,318.226 133,308.5C 135.775,305.22 138.942,302.554 142.5,300.5 Z"/></g>
<g><path style="opacity:1" fill="#070707" d="M 342.5,300.5 C 355.139,298.9 363.972,303.9 369,315.5C 370.493,333.339 362.326,342.172 344.5,342C 330.725,336.615 325.891,326.782 330,312.5C 333.088,307.271 337.255,303.271 342.5,300.5 Z"/></g>
<g><path style="opacity:1" fill="#c4c4c4" d="M 104.5,302.5 C 104.5,331.167 104.5,359.833 104.5,388.5C 112.019,388.175 119.352,388.508 126.5,389.5C 118.833,389.5 111.167,389.5 103.5,389.5C 103.169,360.329 103.502,331.329 104.5,302.5 Z"/></g>
<g><path style="opacity:1" fill="#bebebe" d="M 393.5,301.5 C 394.29,302.609 394.79,303.942 395,305.5C 395.5,333.498 395.667,361.498 395.5,389.5C 387.5,389.5 379.5,389.5 371.5,389.5C 378.648,388.508 385.981,388.175 393.5,388.5C 393.5,359.5 393.5,330.5 393.5,301.5 Z"/></g>
<g><path style="opacity:1" fill="#1c1c1c" d="M 327.5,419.5 C 326.506,410.014 326.173,400.348 326.5,390.5C 274.833,390.5 223.167,390.5 171.5,390.5C 171.827,400.348 171.494,410.014 170.5,419.5C 170.5,409.5 170.5,399.5 170.5,389.5C 222.833,389.5 275.167,389.5 327.5,389.5C 327.5,399.5 327.5,409.5 327.5,419.5 Z"/></g>
<g><path style="opacity:1" fill="#585858" d="M 12.5,446.5 C 14.4611,448.32 14.7944,450.32 13.5,452.5C 12.5386,450.735 12.2053,448.735 12.5,446.5 Z"/></g>
<g><path style="opacity:0.749" fill="#7a7a7a" d="M 485.5,446.5 C 485.59,449.152 484.924,451.485 483.5,453.5C 482.99,450.612 483.656,448.279 485.5,446.5 Z"/></g>
<g><path style="opacity:0.6" fill="#868686" d="M 13.5,453.5 C 15.821,455.09 16.821,457.423 16.5,460.5C 14.7073,458.574 13.7073,456.241 13.5,453.5 Z"/></g>
<g><path style="opacity:0.055" fill="#a0a0a0" d="M 482.5,457.5 C 482.708,461.085 481.375,463.751 478.5,465.5C 479.326,462.515 480.659,459.849 482.5,457.5 Z"/></g>
<g><path style="opacity:0.639" fill="#b7b7b7" d="M 16.5,460.5 C 17.9313,461.78 18.5979,463.447 18.5,465.5C 16.7868,464.365 16.1201,462.698 16.5,460.5 Z"/></g>
<g><path style="opacity:0.882" fill="#939393" d="M 18.5,465.5 C 20.4456,466.035 21.4456,467.368 21.5,469.5C 20.0256,468.564 19.0256,467.23 18.5,465.5 Z"/></g>
<g><path style="opacity:0.322" fill="#8f8f8f" d="M 477.5,467.5 C 477.532,469.619 476.532,470.952 474.5,471.5C 474.738,469.596 475.738,468.262 477.5,467.5 Z"/></g>
<g><path style="opacity:0.157" fill="#a4a4a4" d="M 21.5,470.5 C 25.4627,473.129 29.1294,476.129 32.5,479.5C 27.9568,477.628 24.2901,474.628 21.5,470.5 Z"/></g>
<g><path style="opacity:0.173" fill="#cdcdcd" d="M 474.5,471.5 C 474.167,473.833 472.833,475.167 470.5,475.5C 471.5,473.833 472.833,472.5 474.5,471.5 Z"/></g>
<g><path style="opacity:0.231" fill="#a1a1a1" d="M 470.5,475.5 C 469.415,477.587 467.749,478.92 465.5,479.5C 466.585,477.413 468.251,476.08 470.5,475.5 Z"/></g>
<g><path style="opacity:0.259" fill="#adadad" d="M 464.5,479.5 C 462.751,482.375 460.085,483.708 456.5,483.5C 458.849,481.659 461.515,480.326 464.5,479.5 Z"/></g>
<g><path style="opacity:0.165" fill="#868686" d="M 35.5,481.5 C 37.8984,481.259 39.8984,481.926 41.5,483.5C 39.1016,483.741 37.1016,483.074 35.5,481.5 Z"/></g>
<g><path style="opacity:0.804" fill="#676767" d="M 41.5,483.5 C 45.4158,483.025 48.7491,484.025 51.5,486.5C 47.8379,486.277 44.5046,485.277 41.5,483.5 Z"/></g>
<g><path style="opacity:1" fill="#606060" d="M 455.5,483.5 C 452.548,485.41 449.214,486.41 445.5,486.5C 448.321,484.288 451.655,483.288 455.5,483.5 Z"/></g>
<g><path style="opacity:0.149" fill="#3b3b3b" d="M 444.5,486.5 C 313.833,487.833 183.167,487.833 52.5,486.5C 183.264,485.168 313.931,485.168 444.5,486.5 Z"/></g>
</svg>
