<?xml version="1.0" encoding="UTF-8"?>
<!DOCTYPE svg PUBLIC "-//W3C//DTD SVG 1.1//EN" "http://www.w3.org/Graphics/SVG/1.1/DTD/svg11.dtd">
<svg xmlns="http://www.w3.org/2000/svg" version="1.1" width="1600px" height="1600px" style="shape-rendering:geometricPrecision; text-rendering:geometricPrecision; image-rendering:optimizeQuality; fill-rule:evenodd; clip-rule:evenodd" xmlns:xlink="http://www.w3.org/1999/xlink">
<g><path style="opacity:0.996" fill="#0080cc" d="M 1431.5,472.5 C 1432.49,687.824 1432.82,903.158 1432.5,1118.5C 1432.8,1122.79 1432.14,1126.79 1430.5,1130.5C 1428.27,1136.98 1425.43,1143.31 1422,1149.5C 1350.16,1109.58 1278.16,1069.91 1206,1030.5C 1205.62,1031.06 1205.12,1031.39 1204.5,1031.5C 1204.06,1029.93 1203.06,1028.76 1201.5,1028C 1134.47,991.154 1067.47,954.321 1000.5,917.5C 928.836,878.337 857.503,838.67 786.5,798.5C 721.977,834.926 657.643,871.592 593.5,908.5C 562.672,847.531 558.172,784.531 580,719.5C 606.5,653 653,606.5 719.5,580C 796.046,555.025 867.713,564.691 934.5,609C 960.174,628.171 981.841,651.004 999.5,677.5C 1066.7,639.071 1133.7,600.404 1200.5,561.5C 1133.99,452.026 1038.65,380.526 914.5,347C 753.094,310.768 610.094,346.435 485.5,454C 373.051,560.827 322.884,691.994 335,847.5C 341.928,910.117 360.428,969.117 390.5,1024.5C 321.031,1063.74 251.698,1103.24 182.5,1143C 180.35,1144.59 178.017,1145.26 175.5,1145C 173.686,1142.52 172.019,1140.02 170.5,1137.5C 167.928,1131.54 166.428,1125.21 166,1118.5C 165.333,905.167 165.333,691.833 166,478.5C 168.72,453.204 180.886,434.038 202.5,421C 389.662,316.587 576.662,211.92 763.5,107C 788.481,96.4341 813.147,97.1008 837.5,109C 1026.42,214.266 1215.09,319.933 1403.5,426C 1414.73,435.551 1423.23,447.051 1429,460.5C 1430.15,464.447 1430.99,468.447 1431.5,472.5 Z"/></g>
<g><path style="opacity:1" fill="#fdfdfd" d="M 593.5,908.5 C 632.563,979.007 692.23,1019.84 772.5,1031C 862.85,1038.4 935.35,1006.23 990,934.5C 993.725,928.948 997.225,923.282 1000.5,917.5C 1067.47,954.321 1134.47,991.154 1201.5,1028C 1203.06,1028.76 1204.06,1029.93 1204.5,1031.5C 1136.91,1145.21 1038.91,1219.04 910.5,1253C 758.226,1286.42 621.559,1254.76 500.5,1158C 455.81,1119.84 419.143,1075.34 390.5,1024.5C 360.428,969.117 341.928,910.117 335,847.5C 322.884,691.994 373.051,560.827 485.5,454C 610.094,346.435 753.094,310.768 914.5,347C 1038.65,380.526 1133.99,452.026 1200.5,561.5C 1133.7,600.404 1066.7,639.071 999.5,677.5C 981.841,651.004 960.174,628.171 934.5,609C 867.713,564.691 796.046,555.025 719.5,580C 653,606.5 606.5,653 580,719.5C 558.172,784.531 562.672,847.531 593.5,908.5 Z"/></g>
<g><path style="opacity:0.996" fill="#00539d" d="M 1431.5,472.5 C 1432.32,475.305 1432.82,478.305 1433,481.5C 1433.83,694 1433.67,906.334 1432.5,1118.5C 1432.82,903.158 1432.49,687.824 1431.5,472.5 Z"/></g>
<g><path style="opacity:1" fill="#fdfdfd" d="M 1033.5,699.5 C 1055.5,699.5 1077.5,699.5 1099.5,699.5C 1099.5,721.833 1099.5,744.167 1099.5,766.5C 1121.83,766.5 1144.17,766.5 1166.5,766.5C 1166.5,788.5 1166.5,810.5 1166.5,832.5C 1144.17,832.5 1121.83,832.5 1099.5,832.5C 1099.5,854.833 1099.5,877.167 1099.5,899.5C 1077.17,899.5 1054.83,899.5 1032.5,899.5C 1032.5,877.167 1032.5,854.833 1032.5,832.5C 1010.5,832.5 988.5,832.5 966.5,832.5C 966.5,810.5 966.5,788.5 966.5,766.5C 988.833,766.5 1011.17,766.5 1033.5,766.5C 1033.5,744.167 1033.5,721.833 1033.5,699.5 Z"/></g>
<g><path style="opacity:1" fill="#fdfefd" d="M 1266.5,699.5 C 1288.5,699.5 1310.5,699.5 1332.5,699.5C 1332.5,721.833 1332.5,744.167 1332.5,766.5C 1354.83,766.5 1377.17,766.5 1399.5,766.5C 1399.5,788.5 1399.5,810.5 1399.5,832.5C 1377.17,832.5 1354.83,832.5 1332.5,832.5C 1332.5,854.833 1332.5,877.167 1332.5,899.5C 1310.5,899.5 1288.5,899.5 1266.5,899.5C 1266.5,877.167 1266.5,854.833 1266.5,832.5C 1244.17,832.5 1221.83,832.5 1199.5,832.5C 1199.5,810.5 1199.5,788.5 1199.5,766.5C 1221.83,766.5 1244.17,766.5 1266.5,766.5C 1266.5,744.167 1266.5,721.833 1266.5,699.5 Z"/></g>
<g><path style="opacity:1" fill="#74afd9" d="M 1033.5,699.5 C 1033.5,721.833 1033.5,744.167 1033.5,766.5C 1011.17,766.5 988.833,766.5 966.5,766.5C 988.327,765.503 1010.33,765.169 1032.5,765.5C 1032.17,743.327 1032.5,721.327 1033.5,699.5 Z"/></g>
<g><path style="opacity:1" fill="#58a1d2" d="M 1266.5,699.5 C 1266.5,721.833 1266.5,744.167 1266.5,766.5C 1244.17,766.5 1221.83,766.5 1199.5,766.5C 1221.33,765.503 1243.33,765.169 1265.5,765.5C 1265.17,743.327 1265.5,721.327 1266.5,699.5 Z"/></g>
<g><path style="opacity:1" fill="#58a1d2" d="M 1332.5,699.5 C 1333.5,721.327 1333.83,743.327 1333.5,765.5C 1355.67,765.169 1377.67,765.503 1399.5,766.5C 1377.17,766.5 1354.83,766.5 1332.5,766.5C 1332.5,744.167 1332.5,721.833 1332.5,699.5 Z"/></g>
<g><path style="opacity:0.996" fill="#00549d" d="M 1000.5,917.5 C 997.225,923.282 993.725,928.948 990,934.5C 935.35,1006.23 862.85,1038.4 772.5,1031C 692.23,1019.84 632.563,979.007 593.5,908.5C 657.643,871.592 721.977,834.926 786.5,798.5C 857.503,838.67 928.836,878.337 1000.5,917.5 Z"/></g>
<g><path style="opacity:1" fill="#58a1d2" d="M 1199.5,832.5 C 1221.83,832.5 1244.17,832.5 1266.5,832.5C 1266.5,854.833 1266.5,877.167 1266.5,899.5C 1265.5,877.673 1265.17,855.673 1265.5,833.5C 1243.33,833.831 1221.33,833.497 1199.5,832.5 Z"/></g>
<g><path style="opacity:1" fill="#58a1d2" d="M 1399.5,832.5 C 1377.67,833.497 1355.67,833.831 1333.5,833.5C 1333.83,855.673 1333.5,877.673 1332.5,899.5C 1332.5,877.167 1332.5,854.833 1332.5,832.5C 1354.83,832.5 1377.17,832.5 1399.5,832.5 Z"/></g>
<g><path style="opacity:0.996" fill="#00549d" d="M 390.5,1024.5 C 419.143,1075.34 455.81,1119.84 500.5,1158C 621.559,1254.76 758.226,1286.42 910.5,1253C 1038.91,1219.04 1136.91,1145.21 1204.5,1031.5C 1205.12,1031.39 1205.62,1031.06 1206,1030.5C 1278.16,1069.91 1350.16,1109.58 1422,1149.5C 1425.43,1143.31 1428.27,1136.98 1430.5,1130.5C 1425.51,1151.33 1413.51,1166.83 1394.5,1177C 1209.83,1280.67 1025.17,1384.33 840.5,1488C 813.167,1503.33 785.833,1503.33 758.5,1488C 570.005,1382.25 381.671,1276.25 193.5,1170C 182.828,1161.18 175.161,1150.35 170.5,1137.5C 172.019,1140.02 173.686,1142.52 175.5,1145C 178.017,1145.26 180.35,1144.59 182.5,1143C 251.698,1103.24 321.031,1063.74 390.5,1024.5 Z"/></g>
</svg>
