<?xml version="1.0" encoding="UTF-8"?>
<!DOCTYPE svg PUBLIC "-//W3C//DTD SVG 1.1//EN" "http://www.w3.org/Graphics/SVG/1.1/DTD/svg11.dtd">
<svg xmlns="http://www.w3.org/2000/svg" version="1.1" width="2400px" height="2400px" style="shape-rendering:geometricPrecision; text-rendering:geometricPrecision; image-rendering:optimizeQuality; fill-rule:evenodd; clip-rule:evenodd" xmlns:xlink="http://www.w3.org/1999/xlink">
<g><path style="opacity:0.987" fill="#000000" d="M 755.5,152.5 C 832.833,152.5 910.167,152.5 987.5,152.5C 987.5,185.833 987.5,219.167 987.5,252.5C 943.5,252.5 899.5,252.5 855.5,252.5C 855.5,282.167 855.5,311.833 855.5,341.5C 899.5,341.5 943.5,341.5 987.5,341.5C 987.5,371.833 987.5,402.167 987.5,432.5C 910.167,432.5 832.833,432.5 755.5,432.5C 755.5,339.167 755.5,245.833 755.5,152.5 Z"/></g>
<g><path style="opacity:0.987" fill="#000000" d="M 1084.5,152.5 C 1161.83,152.5 1239.17,152.5 1316.5,152.5C 1316.5,185.833 1316.5,219.167 1316.5,252.5C 1286.16,252.333 1255.83,252.5 1225.5,253C 1255.67,282.5 1285.83,312 1316,341.5C 1316.5,371.832 1316.67,402.165 1316.5,432.5C 1239.17,432.5 1161.83,432.5 1084.5,432.5C 1084.5,402.167 1084.5,371.833 1084.5,341.5C 1114.5,341.667 1144.5,341.5 1174.5,341C 1144.97,311.139 1115.14,281.639 1085,252.5C 1084.5,219.168 1084.33,185.835 1084.5,152.5 Z"/></g>
<g><path style="opacity:0.988" fill="#000000" d="M 1411.5,152.5 C 1488.83,152.5 1566.17,152.5 1643.5,152.5C 1643.5,185.833 1643.5,219.167 1643.5,252.5C 1613.16,252.333 1582.83,252.5 1552.5,253C 1582.67,282.5 1612.83,312 1643,341.5C 1643.5,371.832 1643.67,402.165 1643.5,432.5C 1566.17,432.5 1488.83,432.5 1411.5,432.5C 1411.5,402.167 1411.5,371.833 1411.5,341.5C 1441.5,341.667 1471.5,341.5 1501.5,341C 1471.97,311.139 1442.14,281.639 1412,252.5C 1411.5,219.168 1411.33,185.835 1411.5,152.5 Z"/></g>
<g><path style="opacity:0.998" fill="#2062af" d="M 451.5,565.5 C 950,564.334 1448.67,564.167 1947.5,565C 1900.56,1071.01 1853.56,1577.01 1806.5,2083C 1604.21,2137.66 1401.88,2192.16 1199.5,2246.5C 996.863,2192.22 794.363,2137.55 592,2082.5C 545.424,1576.66 498.59,1070.99 451.5,565.5 Z"/></g>
<g><path style="opacity:1" fill="#2d7dc1" d="M 1199.5,688.5 C 1401.33,687.5 1603.33,687.167 1805.5,687.5C 1805.81,690.385 1805.47,693.052 1804.5,695.5C 1804.5,693.167 1804.5,690.833 1804.5,688.5C 1602.83,688.5 1401.17,688.5 1199.5,688.5 Z"/></g>
<g><path style="opacity:1" fill="#3c9cd7" d="M 1199.5,688.5 C 1401.17,688.5 1602.83,688.5 1804.5,688.5C 1804.5,690.833 1804.5,693.167 1804.5,695.5C 1767.13,1124.85 1729.46,1554.18 1691.5,1983.5C 1534.39,2025.86 1377.39,2068.36 1220.5,2111C 1213.49,2112.67 1206.49,2114.17 1199.5,2115.5C 1199.5,2052.83 1199.5,1990.17 1199.5,1927.5C 1215.57,1923.03 1231.57,1918.36 1247.5,1913.5C 1306.71,1896.54 1365.71,1879.2 1424.5,1861.5C 1432.78,1859.77 1440.78,1857.43 1448.5,1854.5C 1492.29,1842.24 1535.95,1829.57 1579.5,1816.5C 1597,1627.29 1613.67,1437.96 1629.5,1248.5C 1487.17,1247.83 1344.83,1247.17 1202.5,1246.5C 1335.58,1189.69 1468.58,1132.69 1601.5,1075.5C 1615.66,1069.68 1629.66,1063.68 1643.5,1057.5C 1644.5,1057.59 1645.33,1057.25 1646,1056.5C 1651.74,996.284 1657.9,936.118 1664.5,876C 1664.32,874.624 1663.65,873.791 1662.5,873.5C 1508.17,873.5 1353.83,873.5 1199.5,873.5C 1199.5,811.833 1199.5,750.167 1199.5,688.5 Z"/></g>
<g><path style="opacity:1" fill="#dedddc" d="M 1199.5,873.5 C 1199.5,874.167 1199.17,874.5 1198.5,874.5C 1183.83,874.5 1169.17,874.5 1154.5,874.5C 1089.83,874.5 1025.17,874.5 960.5,874.5C 929.833,874.5 899.167,874.5 868.5,874.5C 868.5,935.167 868.5,995.833 868.5,1056.5C 828.5,1056.5 788.5,1056.5 748.5,1056.5C 740.276,995.709 732.609,934.709 725.5,873.5C 883.5,873.5 1041.5,873.5 1199.5,873.5 Z"/></g>
<g><path style="opacity:1" fill="#e1e0df" d="M 960.5,874.5 C 960.5,935.167 960.5,995.833 960.5,1056.5C 929.833,1056.5 899.167,1056.5 868.5,1056.5C 868.5,995.833 868.5,935.167 868.5,874.5C 899.167,874.5 929.833,874.5 960.5,874.5 Z"/></g>
<g><path style="opacity:1" fill="#e5e4e3" d="M 960.5,874.5 C 1025.17,874.5 1089.83,874.5 1154.5,874.5C 1154.5,935.167 1154.5,995.833 1154.5,1056.5C 1089.83,1056.5 1025.17,1056.5 960.5,1056.5C 960.5,995.833 960.5,935.167 960.5,874.5 Z"/></g>
<g><path style="opacity:1" fill="#e8e7e6" d="M 1154.5,874.5 C 1169.17,874.5 1183.83,874.5 1198.5,874.5C 1198.5,935.167 1198.5,995.833 1198.5,1056.5C 1183.83,1056.5 1169.17,1056.5 1154.5,1056.5C 1154.5,995.833 1154.5,935.167 1154.5,874.5 Z"/></g>
<g><path style="opacity:1" fill="#f3f3f2" d="M 1199.5,873.5 C 1353.83,873.5 1508.17,873.5 1662.5,873.5C 1588.34,874.499 1514,874.833 1439.5,874.5C 1376.17,874.5 1312.83,874.5 1249.5,874.5C 1249.4,935.165 1249.4,995.832 1249.5,1056.5C 1240.78,1056.22 1232.11,1056.56 1223.5,1057.5C 1215.35,1056.51 1207.02,1056.17 1198.5,1056.5C 1198.5,995.833 1198.5,935.167 1198.5,874.5C 1199.17,874.5 1199.5,874.167 1199.5,873.5 Z"/></g>
<g><path style="opacity:1" fill="#f7f6f6" d="M 1439.5,874.5 C 1439.5,935.167 1439.5,995.833 1439.5,1056.5C 1507.5,1056.33 1575.5,1056.66 1643.5,1057.5C 1629.66,1063.68 1615.66,1069.68 1601.5,1075.5C 1467.67,1074.5 1333.67,1074.17 1199.5,1074.5C 1199.83,1124.67 1199.5,1174.67 1198.5,1224.5C 1198.5,1217.17 1198.5,1209.83 1198.5,1202.5C 1198.5,1191.83 1198.5,1181.17 1198.5,1170.5C 1198.5,1161.5 1198.5,1152.5 1198.5,1143.5C 1198.5,1133.17 1198.5,1122.83 1198.5,1112.5C 1198.5,1097.5 1198.5,1082.5 1198.5,1067.5C 1199.17,1067.5 1199.5,1067.17 1199.5,1066.5C 1206.6,1064.12 1213.6,1061.45 1220.5,1058.5C 1221.61,1058.44 1222.61,1058.11 1223.5,1057.5C 1232.11,1056.56 1240.78,1056.22 1249.5,1056.5C 1249.4,995.832 1249.4,935.165 1249.5,874.5C 1312.83,874.5 1376.17,874.5 1439.5,874.5 Z"/></g>
<g><path style="opacity:1" fill="#fcfcfb" d="M 1662.5,873.5 C 1663.65,873.791 1664.32,874.624 1664.5,876C 1657.9,936.118 1651.74,996.284 1646,1056.5C 1645.33,1057.25 1644.5,1057.59 1643.5,1057.5C 1575.5,1056.66 1507.5,1056.33 1439.5,1056.5C 1439.5,995.833 1439.5,935.167 1439.5,874.5C 1514,874.833 1588.34,874.499 1662.5,873.5 Z"/></g>
<g><path style="opacity:1" fill="#729ac5" d="M 748.5,1056.5 C 788.5,1056.5 828.5,1056.5 868.5,1056.5C 899.167,1056.5 929.833,1056.5 960.5,1056.5C 1025.17,1056.5 1089.83,1056.5 1154.5,1056.5C 1169.17,1056.5 1183.83,1056.5 1198.5,1056.5C 1207.02,1056.17 1215.35,1056.51 1223.5,1057.5C 1222.61,1058.11 1221.61,1058.44 1220.5,1058.5C 1213.69,1057.51 1206.69,1057.18 1199.5,1057.5C 1049,1057.83 898.666,1057.5 748.5,1056.5 Z"/></g>
<g><path style="opacity:1" fill="#409dd7" d="M 1199.5,1057.5 C 1206.69,1057.18 1213.69,1057.51 1220.5,1058.5C 1213.6,1061.45 1206.6,1064.12 1199.5,1066.5C 1199.5,1063.5 1199.5,1060.5 1199.5,1057.5 Z"/></g>
<g><path style="opacity:1" fill="#fdfefe" d="M 1601.5,1075.5 C 1468.58,1132.69 1335.58,1189.69 1202.5,1246.5C 1201.17,1246.83 1199.83,1247.17 1198.5,1247.5C 1198.5,1241.17 1198.5,1234.83 1198.5,1228.5C 1198.5,1227.17 1198.5,1225.83 1198.5,1224.5C 1199.5,1174.67 1199.83,1124.67 1199.5,1074.5C 1333.67,1074.17 1467.67,1074.5 1601.5,1075.5 Z"/></g>
<g><path style="opacity:1" fill="#d7d9da" d="M 1198.5,1067.5 C 1198.5,1082.5 1198.5,1097.5 1198.5,1112.5C 1162.83,1112.5 1127.17,1112.5 1091.5,1112.5C 1126.99,1097.26 1162.65,1082.26 1198.5,1067.5 Z"/></g>
<g><path style="opacity:1" fill="#dddedf" d="M 1091.5,1112.5 C 1127.17,1112.5 1162.83,1112.5 1198.5,1112.5C 1198.5,1122.83 1198.5,1133.17 1198.5,1143.5C 1137.83,1143.5 1077.17,1143.5 1016.5,1143.5C 1041.18,1132.6 1066.18,1122.27 1091.5,1112.5 Z"/></g>
<g><path style="opacity:1" fill="#e3e4e5" d="M 1016.5,1143.5 C 1077.17,1143.5 1137.83,1143.5 1198.5,1143.5C 1198.5,1152.5 1198.5,1161.5 1198.5,1170.5C 1116.5,1170.5 1034.5,1170.5 952.5,1170.5C 973.535,1160.99 994.868,1151.99 1016.5,1143.5 Z"/></g>
<g><path style="opacity:1" fill="#e9eaeb" d="M 952.5,1170.5 C 1034.5,1170.5 1116.5,1170.5 1198.5,1170.5C 1198.5,1181.17 1198.5,1191.83 1198.5,1202.5C 1090.83,1202.5 983.167,1202.5 875.5,1202.5C 900.778,1191.07 926.445,1180.4 952.5,1170.5 Z"/></g>
<g><path style="opacity:1" fill="#eff0f0" d="M 875.5,1202.5 C 983.167,1202.5 1090.83,1202.5 1198.5,1202.5C 1198.5,1209.83 1198.5,1217.17 1198.5,1224.5C 1198.5,1225.83 1198.5,1227.17 1198.5,1228.5C 1070.17,1228.5 941.833,1228.5 813.5,1228.5C 833.846,1219.27 854.513,1210.6 875.5,1202.5 Z"/></g>
<g><path style="opacity:1" fill="#f4f4f5" d="M 813.5,1228.5 C 941.833,1228.5 1070.17,1228.5 1198.5,1228.5C 1198.5,1234.83 1198.5,1241.17 1198.5,1247.5C 1185.58,1248.48 1172.58,1248.81 1159.5,1248.5C 1100.17,1248.5 1040.83,1248.5 981.5,1248.5C 953.167,1248.5 924.833,1248.5 896.5,1248.5C 852.997,1248.83 809.663,1248.5 766.5,1247.5C 782.06,1240.89 797.726,1234.55 813.5,1228.5 Z"/></g>
<g><path style="opacity:1" fill="#55a8db" d="M 1202.5,1246.5 C 1344.83,1247.17 1487.17,1247.83 1629.5,1248.5C 1568.83,1248.5 1508.17,1248.5 1447.5,1248.5C 1439.5,1248.5 1431.5,1248.5 1423.5,1248.5C 1364.83,1248.5 1306.17,1248.5 1247.5,1248.5C 1231.17,1248.5 1214.83,1248.5 1198.5,1248.5C 1198.5,1248.17 1198.5,1247.83 1198.5,1247.5C 1199.83,1247.17 1201.17,1246.83 1202.5,1246.5 Z"/></g>
<g><path style="opacity:1" fill="#dedddc" d="M 766.5,1247.5 C 809.663,1248.5 852.997,1248.83 896.5,1248.5C 896.5,1308.17 896.5,1367.83 896.5,1427.5C 924.833,1427.5 953.167,1427.5 981.5,1427.5C 991.348,1427.17 1001.01,1427.51 1010.5,1428.5C 933.164,1428.58 855.831,1428.25 778.5,1427.5C 774.231,1368.13 769.565,1308.8 764.5,1249.5C 764.747,1248.29 765.414,1247.62 766.5,1247.5 Z"/></g>
<g><path style="opacity:1" fill="#e1e0df" d="M 896.5,1248.5 C 924.833,1248.5 953.167,1248.5 981.5,1248.5C 981.5,1308.17 981.5,1367.83 981.5,1427.5C 953.167,1427.5 924.833,1427.5 896.5,1427.5C 896.5,1367.83 896.5,1308.17 896.5,1248.5 Z"/></g>
<g><path style="opacity:1" fill="#e5e4e3" d="M 981.5,1248.5 C 1040.83,1248.5 1100.17,1248.5 1159.5,1248.5C 1159.5,1308.5 1159.5,1368.5 1159.5,1428.5C 1109.83,1428.5 1060.17,1428.5 1010.5,1428.5C 1001.01,1427.51 991.348,1427.17 981.5,1427.5C 981.5,1367.83 981.5,1308.17 981.5,1248.5 Z"/></g>
<g><path style="opacity:1" fill="#e8e7e6" d="M 1198.5,1247.5 C 1198.5,1247.83 1198.5,1248.17 1198.5,1248.5C 1198.5,1308.5 1198.5,1368.5 1198.5,1428.5C 1185.5,1428.5 1172.5,1428.5 1159.5,1428.5C 1159.5,1368.5 1159.5,1308.5 1159.5,1248.5C 1172.58,1248.81 1185.58,1248.48 1198.5,1247.5 Z"/></g>
<g><path style="opacity:1" fill="#f3f3f2" d="M 1198.5,1248.5 C 1214.83,1248.5 1231.17,1248.5 1247.5,1248.5C 1247.5,1308.5 1247.5,1368.5 1247.5,1428.5C 1279.67,1428.17 1311.67,1428.5 1343.5,1429.5C 1295.5,1429.5 1247.5,1429.5 1199.5,1429.5C 1199.5,1428.83 1199.17,1428.5 1198.5,1428.5C 1198.5,1368.5 1198.5,1308.5 1198.5,1248.5 Z"/></g>
<g><path style="opacity:1" fill="#f7f6f6" d="M 1247.5,1248.5 C 1306.17,1248.5 1364.83,1248.5 1423.5,1248.5C 1423.5,1308.83 1423.5,1369.17 1423.5,1429.5C 1396.83,1429.5 1370.17,1429.5 1343.5,1429.5C 1311.67,1428.5 1279.67,1428.17 1247.5,1428.5C 1247.5,1368.5 1247.5,1308.5 1247.5,1248.5 Z"/></g>
<g><path style="opacity:1" fill="#f9f9f8" d="M 1423.5,1248.5 C 1431.5,1248.5 1439.5,1248.5 1447.5,1248.5C 1447.17,1450.67 1447.5,1652.67 1448.5,1854.5C 1440.78,1857.43 1432.78,1859.77 1424.5,1861.5C 1423.5,1724.33 1423.17,1587 1423.5,1449.5C 1423.5,1442.83 1423.5,1436.17 1423.5,1429.5C 1423.5,1369.17 1423.5,1308.83 1423.5,1248.5 Z"/></g>
<g><path style="opacity:1" fill="#fcfcfb" d="M 1447.5,1248.5 C 1508.17,1248.5 1568.83,1248.5 1629.5,1248.5C 1613.67,1437.96 1597,1627.29 1579.5,1816.5C 1535.95,1829.57 1492.29,1842.24 1448.5,1854.5C 1447.5,1652.67 1447.17,1450.67 1447.5,1248.5 Z"/></g>
<g><path style="opacity:1" fill="#3c9cd7" d="M 1199.5,1429.5 C 1247.5,1429.5 1295.5,1429.5 1343.5,1429.5C 1370.17,1429.5 1396.83,1429.5 1423.5,1429.5C 1423.5,1436.17 1423.5,1442.83 1423.5,1449.5C 1418.85,1522.38 1414.02,1595.38 1409,1668.5C 1354.96,1683.35 1301.12,1698.68 1247.5,1714.5C 1231.41,1718.42 1215.41,1722.75 1199.5,1727.5C 1199.5,1628.17 1199.5,1528.83 1199.5,1429.5 Z"/></g>
<g><path style="opacity:1" fill="#f6f6f6" d="M 1423.5,1449.5 C 1423.17,1587 1423.5,1724.33 1424.5,1861.5C 1365.71,1879.2 1306.71,1896.54 1247.5,1913.5C 1247.5,1847.17 1247.5,1780.83 1247.5,1714.5C 1301.12,1698.68 1354.96,1683.35 1409,1668.5C 1414.02,1595.38 1418.85,1522.38 1423.5,1449.5 Z"/></g>
<g><path style="opacity:1" fill="#3c73b6" d="M 981.5,1528.5 C 953.167,1528.5 924.833,1528.5 896.5,1528.5C 861.833,1528.5 827.167,1528.5 792.5,1528.5C 792.5,1529.83 792.5,1531.17 792.5,1532.5C 791.549,1531.08 791.216,1529.41 791.5,1527.5C 855.002,1527.17 918.336,1527.5 981.5,1528.5 Z"/></g>
<g><path style="opacity:1" fill="#dededc" d="M 896.5,1528.5 C 896.169,1631.9 896.502,1735.24 897.5,1838.5C 870.604,1830.73 843.771,1822.73 817,1814.5C 808.562,1720.52 800.395,1626.52 792.5,1532.5C 792.5,1531.17 792.5,1529.83 792.5,1528.5C 827.167,1528.5 861.833,1528.5 896.5,1528.5 Z"/></g>
<g><path style="opacity:1" fill="#e1e0df" d="M 896.5,1528.5 C 924.833,1528.5 953.167,1528.5 981.5,1528.5C 982.2,1532.8 982.533,1537.13 982.5,1541.5C 981.501,1648.67 981.167,1756 981.5,1863.5C 953.484,1855.16 925.484,1846.83 897.5,1838.5C 896.502,1735.24 896.169,1631.9 896.5,1528.5 Z"/></g>
<g><path style="opacity:1" fill="#e4e4e3" d="M 982.5,1541.5 C 986.365,1586.72 990.365,1631.88 994.5,1677C 1050.8,1690.57 1106.8,1704.74 1162.5,1719.5C 1161.5,1719.5 1160.5,1719.5 1159.5,1719.5C 1159.5,1784.83 1159.5,1850.17 1159.5,1915.5C 1100.08,1898.48 1040.75,1881.15 981.5,1863.5C 981.167,1756 981.501,1648.67 982.5,1541.5 Z"/></g>
<g><path style="opacity:1" fill="#f4f3f2" d="M 1247.5,1714.5 C 1247.5,1780.83 1247.5,1847.17 1247.5,1913.5C 1231.57,1918.36 1215.57,1923.03 1199.5,1927.5C 1199.17,1927.5 1198.83,1927.5 1198.5,1927.5C 1198.5,1860.83 1198.5,1794.17 1198.5,1727.5C 1198.83,1727.5 1199.17,1727.5 1199.5,1727.5C 1215.41,1722.75 1231.41,1718.42 1247.5,1714.5 Z"/></g>
<g><path style="opacity:1" fill="#e7e7e6" d="M 1162.5,1719.5 C 1174.36,1722.76 1186.36,1725.43 1198.5,1727.5C 1198.5,1794.17 1198.5,1860.83 1198.5,1927.5C 1185.33,1923.96 1172.33,1919.96 1159.5,1915.5C 1159.5,1850.17 1159.5,1784.83 1159.5,1719.5C 1160.5,1719.5 1161.5,1719.5 1162.5,1719.5 Z"/></g>
</svg>
