<?xml version="1.0" encoding="UTF-8"?>
<svg version="1.1" xmlns="http://www.w3.org/2000/svg" width="1316" height="1126">
<path d="M0 0 C5.14507619 1.48957605 9.47722317 3.74006395 14.0625 6.4375 C15.17806274 7.09359253 15.17806274 7.09359253 16.31616211 7.76293945 C23.54747504 12.13707375 29.75168377 17.34427164 36 23 C37.45678199 24.25180764 38.91489453 25.50207047 40.375 26.75 C41.58863785 27.82738745 42.79735505 28.91035525 44 30 C44.81791016 30.73669922 44.81791016 30.73669922 45.65234375 31.48828125 C67.73772883 52.43042287 84.0676683 83.82952405 88 114 C90.10426686 113.85561965 92.20840769 113.70940226 94.3125 113.5625 C95.48425781 113.48128906 96.65601563 113.40007812 97.86328125 113.31640625 C100.04066498 113.16108997 102.2079722 112.97818906 104.37915039 112.75048828 C142.38592539 108.82303867 184.7514745 112.10651308 216 136 C218.01983412 137.64487063 220.01185876 139.31658874 222 141 C217.60854075 159.87557048 208.49211682 175.37330788 196 190 C195.32582031 190.80824219 194.65164063 191.61648438 193.95703125 192.44921875 C169.22808772 221.14200023 131.33270133 237.06859673 94 240 C89.31416203 240.24591639 84.62721644 240.41041457 79.9375 240.5625 C78.69033203 240.60568359 77.44316406 240.64886719 76.15820312 240.69335938 C73.10555909 240.79862296 70.05284477 240.90075941 67 241 C66.66379639 241.81339844 66.32759277 242.62679687 65.98120117 243.46484375 C59.03596872 260.23432031 51.95225212 276.90391871 44.24365234 293.34082031 C43.06310392 295.86507109 41.89868647 298.39612757 40.73828125 300.9296875 C23.06669792 339.2484137 0.35018616 376.78967623 -27 409 C-27.89381311 410.06721955 -28.78701115 411.13495443 -29.6796875 412.203125 C-35.31642947 418.92970909 -41.08085256 425.5194692 -47 432 C-47.86753906 432.97195313 -48.73507812 433.94390625 -49.62890625 434.9453125 C-115.12623447 507.82486083 -208.35044776 550.96348767 -347.25 577.75 C-348.03370972 577.85123169 -348.81741943 577.95246338 -349.62487793 578.0567627 C-376.04975462 581.42645251 -402.41207222 582.38013006 -429.01755905 582.31805801 C-431.47485164 582.31241421 -433.93213732 582.30959605 -436.38943481 582.30697632 C-459.71183301 582.27082619 -482.83273006 581.93419643 -506 579 C-507.44344001 578.8259776 -508.88696487 578.65265778 -510.33056641 578.47998047 C-567.75475591 571.5224791 -629.48177483 557.68028314 -675 520 C-675.57733887 519.5241748 -676.15467773 519.04834961 -676.74951172 518.55810547 C-687.73160791 509.45526677 -697.89360048 499.91030248 -706.71044922 488.64453125 C-707.62859458 487.47364387 -708.55275454 486.30746216 -709.48095703 485.14453125 C-761.95123955 419.34256315 -782.82362859 329.16358088 -783.29516602 246.2980957 C-783.30679635 244.88197934 -783.32741807 243.46591041 -783.35668945 242.05004883 C-783.59926615 230.20444618 -782.56424114 219.68035262 -773.98828125 210.71875 C-765.19338992 203.11609344 -755.87622666 201.69865526 -744.65115547 201.74946022 C-743.50922786 201.74666254 -742.36730025 201.74386487 -741.19076878 201.74098241 C-738.02054775 201.73522221 -734.85048069 201.73840633 -731.68026666 201.74533385 C-728.23120597 201.75065047 -724.78216358 201.74432038 -721.33310497 201.73944318 C-715.28747181 201.73247859 -709.24187391 201.73286554 -703.19623947 201.73804665 C-694.20526869 201.74569212 -685.21432881 201.74182889 -676.22335835 201.73542418 C-661.09276191 201.72489162 -645.96217662 201.72306813 -630.8315773 201.72560501 C-609.1974054 201.72902293 -587.56326144 201.71565697 -565.92909705 201.69883054 C-557.24410266 201.6921494 -548.55910787 201.68601051 -539.87411308 201.67987633 C-538.90913717 201.67919233 -537.94416125 201.67850834 -536.94994364 201.67780361 C-513.97558275 201.66162206 -491.00122012 201.65078993 -468.02685547 201.64160156 C-467.02159099 201.64119553 -466.01632651 201.64078949 -464.98059947 201.64037116 C-441.54590449 201.630951 -418.11121046 201.62407994 -394.67651367 201.62164307 C-393.66977413 201.6215365 -392.66303459 201.62142994 -391.62578779 201.62132015 C-386.54974122 201.62078701 -381.47369465 201.62027226 -376.39764808 201.61975877 C-375.3944924 201.61965656 -374.39133671 201.61955435 -373.35778237 201.61944905 C-371.33302407 201.61924349 -369.30826576 201.61904093 -367.28350746 201.61884138 C-333.78453309 201.615456 -300.28558666 201.59850244 -266.78662682 201.56673984 C-262.04921737 201.56226688 -257.31180777 201.55797695 -252.57439804 201.55381393 C-251.64209939 201.55299348 -250.70980075 201.55217302 -249.74925063 201.5513277 C-234.78145825 201.53860877 -219.81370232 201.54056093 -204.84590807 201.54844838 C-189.78063568 201.55615567 -174.71542361 201.54966262 -159.65016319 201.52880932 C-150.7148663 201.51689814 -141.77973034 201.51599508 -132.84443777 201.53130184 C-126.85674779 201.54045522 -120.8691825 201.53485233 -114.8815101 201.51785937 C-111.48208803 201.50862248 -108.08323794 201.50752455 -104.68378974 201.52012999 C-74.69933019 201.62315541 -46.47198993 197.20586492 -19 185 C-19.50789062 184.01902344 -20.01578125 183.03804687 -20.5390625 182.02734375 C-40.7281662 142.63397068 -44.4795898 101.38346037 -30.97460938 58.87109375 C-23.64646827 37.28318309 -13.15030615 18.48416865 0 0 Z " fill="#2496ED" transform="translate(995,138)"/>
<path d="M0 0 C1.19367188 -0.01675781 2.38734375 -0.03351562 3.6171875 -0.05078125 C10.02948955 0.61329903 13.94334955 3.56576165 18.125 8.3125 C22.13535487 14.04157838 22.27306438 19.41512928 22.25871277 26.24029541 C22.26097833 27.03294918 22.26324388 27.82560295 22.26557809 28.64227653 C22.27190283 31.29571223 22.27108967 33.94909666 22.27026367 36.60253906 C22.27325634 38.50670437 22.27665912 40.41086906 22.28044128 42.31503296 C22.28928013 47.48927027 22.29161951 52.66349104 22.29225707 57.83773518 C22.29296829 61.07602675 22.2951041 64.31431414 22.29775429 67.55260468 C22.3070113 78.86710374 22.31108922 90.18159102 22.31030273 101.49609375 C22.30970367 112.01195463 22.3202209 122.52776392 22.3360464 133.04361176 C22.34917246 142.09103963 22.35448443 151.13845075 22.35384732 160.18588805 C22.35359358 165.58044862 22.3563754 170.97496345 22.36702538 176.36951447 C22.37679043 181.4551892 22.37672861 186.54077533 22.36950874 191.6264534 C22.36847286 193.48020941 22.37076554 195.33397118 22.3768692 197.18771744 C22.42248812 212.01905814 22.0609138 227.0477322 17.5625 241.3125 C17.3049292 242.14152832 17.0473584 242.97055664 16.78198242 243.82470703 C7.79388737 271.30566995 -13.05675386 294.89922913 -38.73925781 308.02880859 C-66.43551667 321.48014348 -98.10940665 323.19077174 -127.46484375 314.21484375 C-140.12020217 309.68959438 -151.79808468 303.20190005 -161.875 294.3125 C-162.68195313 293.63703125 -163.48890625 292.9615625 -164.3203125 292.265625 C-185.05819284 274.45315098 -198.39996234 250.52892438 -201.875 223.3125 C-202.73752879 206.51757732 -203.09415182 189.44752492 -197.875 173.3125 C-197.50117188 172.15492188 -197.12734375 170.99734375 -196.7421875 169.8046875 C-188.56085914 146.8861319 -171.87428001 125.01992948 -150.875 112.3125 C-149.97910156 111.73371094 -149.08320313 111.15492188 -148.16015625 110.55859375 C-122.84928439 94.82848144 -91.85186535 91.94002017 -63.09765625 98.125 C-47.64942411 101.95118753 -34.25817005 108.33648955 -21.875 118.3125 C-21.86913376 117.05240112 -21.86326752 115.79230225 -21.85722351 114.49401855 C-21.7999548 102.60574028 -21.72717118 90.7176442 -21.63928509 78.8295517 C-21.59460062 72.718087 -21.55534001 66.60668867 -21.52856445 60.49511719 C-21.50251266 54.59463429 -21.46209635 48.69440706 -21.41181374 42.79408264 C-21.39515783 40.54552903 -21.38363563 38.2969312 -21.37738609 36.04832458 C-21.36773139 32.89327332 -21.33965466 29.73887427 -21.30737305 26.58398438 C-21.30880814 25.65897125 -21.31024323 24.73395813 -21.3117218 23.78091431 C-21.21904862 17.35609446 -20.4526165 11.41042424 -16.19140625 6.2890625 C-15.61261719 5.84304688 -15.03382813 5.39703125 -14.4375 4.9375 C-13.86128906 4.47601562 -13.28507813 4.01453125 -12.69140625 3.5390625 C-8.33660397 0.59840032 -5.32929512 0.01719127 0 0 Z M-143.375 162.09375 C-155.29988354 177.08042796 -161.5475814 195.03135328 -159.875 214.3125 C-157.76930348 229.71917955 -151.87487387 242.46867776 -141.875 254.3125 C-141.33359375 254.96734375 -140.7921875 255.6221875 -140.234375 256.296875 C-128.65415815 269.04681072 -110.77048721 276.20682518 -93.875 277.3125 C-73.56714859 277.66658561 -56.096217 270.88586157 -41.21875 256.78125 C-27.54730536 242.38066164 -20.2983853 225.36808116 -20.453125 205.42358398 C-21.05159295 189.09367713 -27.42964466 174.73722632 -37.875 162.3125 C-38.49117188 161.49523437 -39.10734375 160.67796875 -39.7421875 159.8359375 C-50.09594062 147.5858926 -67.35828195 139.66098868 -83.15576172 138.08496094 C-106.32455381 136.56804188 -127.676903 144.62961709 -143.375 162.09375 Z " fill="#2496ED" transform="translate(201.875,806.6875)"/>
<path d="M0 0 C1.99891173 1.91861971 3.96842959 3.86292534 5.9375 5.8125 C6.61167969 6.42609375 7.28585937 7.0396875 7.98046875 7.671875 C25.64599957 24.00339548 36.0175029 50.81741689 37.26171875 74.35546875 C37.32768143 76.40342176 37.38619358 78.45162742 37.4375 80.5 C37.48044189 81.47453125 37.52338379 82.4490625 37.56762695 83.453125 C37.63353462 90.69680877 35.82446679 95.41279751 30.9375 100.8125 C25.2447733 105.33567162 19.35046322 105.9317654 12.29997253 105.97071838 C11.64641558 105.97565636 10.99285864 105.98059434 10.31949693 105.98568195 C8.13772372 106.00099437 5.95597979 106.0094005 3.77416992 106.01782227 C2.20694727 106.02740572 0.63972718 106.03741607 -0.92749023 106.04782104 C-5.17704222 106.07482558 -9.42660527 106.09585921 -13.67619538 106.11582303 C-18.11916757 106.13771007 -22.56210585 106.16508545 -27.00505066 106.19187927 C-35.41615782 106.24176942 -43.82728383 106.28672189 -52.23842782 106.32990164 C-61.81516749 106.37930546 -71.39187314 106.43421192 -80.96857989 106.48958123 C-100.66652155 106.60334481 -120.36449571 106.71019608 -140.0625 106.8125 C-138.82419432 109.35880854 -137.57839491 111.90097899 -136.328125 114.44140625 C-135.98217285 115.15478149 -135.6362207 115.86815674 -135.27978516 116.60314941 C-127.6899486 131.96332329 -114.83072295 142.32583686 -99.0625 148.8125 C-80.74009989 154.99267464 -61.75514604 154.21361185 -44.01953125 146.40234375 C-37.62802908 142.96596147 -32.04246298 138.34248397 -26.52734375 133.66015625 C-20.28039189 128.97741738 -13.62367794 128.91757797 -6.0625 129.8125 C-0.05668628 132.09773101 4.31244041 136.30331334 7.015625 142.140625 C9.04017436 148.0083867 8.74414937 154.55509223 6.625 160.375 C-1.05877172 175.31714431 -21.89866545 185.45561936 -37.0625 190.8125 C-59.43348449 197.82181615 -86.54837844 199.16503063 -109.0625 191.8125 C-110.21878906 191.43867187 -111.37507812 191.06484375 -112.56640625 190.6796875 C-140.73789352 180.63507221 -163.96383238 159.18831553 -176.9375 132.375 C-189.44789528 105.36843242 -190.90728625 72.53528996 -180.62890625 44.4921875 C-168.16670713 15.21689681 -146.56672782 -8.0017805 -117.07275391 -20.3828125 C-78.29101539 -35.90681179 -30.78965915 -28.65944436 0 0 Z M-127.8125 38.6875 C-134.42652256 46.31816561 -137.84498952 53.15996856 -141.0625 62.8125 C-97.5025 62.8125 -53.9425 62.8125 -9.0625 62.8125 C-10.97396306 51.34372166 -18.02071127 42.89538816 -26.0625 34.8125 C-26.72636719 34.11382813 -27.39023438 33.41515625 -28.07421875 32.6953125 C-40.23600112 20.78834843 -57.74797308 15.07025718 -74.4375 14.5 C-95.38133562 14.72233371 -113.51601257 23.48707493 -127.8125 38.6875 Z " fill="#2496ED" transform="translate(1088.0625,930.1875)"/>
<path d="M0 0 C5.65239053 4.09798313 10.15505026 8.80297026 11.5 15.8125 C11.60104558 17.95788443 11.64621031 20.10611609 11.65821838 22.25384521 C11.66562535 23.22064834 11.66562535 23.22064834 11.67318195 24.20698285 C11.68852602 26.364223 11.69690915 28.52143346 11.70532227 30.67871094 C11.71490322 32.22608195 11.72491343 33.77345036 11.73532104 35.32081604 C11.76235259 39.52084177 11.78337164 43.72087873 11.80332303 47.92094326 C11.82519337 52.3105365 11.85257694 56.70009524 11.87937927 61.08966064 C11.92929197 69.40163608 11.97423609 77.71363068 12.01740164 86.02564359 C12.06678616 95.48869878 12.12169979 104.95171934 12.17708123 114.41474104 C12.29087944 133.88062854 12.3977232 153.34654872 12.5 172.8125 C13.14437012 172.39214478 13.78874023 171.97178955 14.45263672 171.53869629 C17.4267032 169.59863045 20.40085118 167.6586896 23.375 165.71875 C24.38820313 165.0577832 25.40140625 164.39681641 26.4453125 163.71582031 C32.79308201 159.57552834 39.14437847 155.44072777 45.5 151.3125 C52.67162026 146.65340577 59.83756415 141.98570171 67 137.3125 C75.04077227 132.06644772 83.0848794 126.82560159 91.13696289 121.59692383 C95.33949026 118.86794991 99.53932858 116.1349943 103.734375 113.39453125 C118.69043746 103.62978321 118.69043746 103.62978321 125.875 99.125 C126.83148437 98.52300781 127.78796875 97.92101562 128.7734375 97.30078125 C134.91645258 93.94764551 140.99051276 92.53391873 147.80078125 94.46484375 C154.30450092 97.01167851 158.62072321 100.88017768 161.640625 107.19921875 C163.51806384 112.9083396 163.02992256 118.82529041 161.5 124.5625 C156.57226151 132.57007504 148.00052472 137.26677078 140.1875 142.125 C137.96203406 143.52763946 135.73778686 144.93199605 133.515625 146.33984375 C132.9437999 146.70156677 132.37197479 147.06328979 131.78282166 147.43597412 C125.26034719 151.57552665 118.8504227 155.88104639 112.4375 160.1875 C103.99179218 165.85192807 95.50541612 171.42401591 86.84375 176.75390625 C82.02758472 179.71899866 77.26398724 182.76435562 72.5 185.8125 C76.67374217 190.73537538 80.95072503 195.55094857 85.27734375 200.33984375 C87.20325581 202.48237861 89.10825278 204.63984368 91 206.8125 C93.63689636 209.84004767 96.31016569 212.83187279 99 215.8125 C102.26390848 219.42926345 105.48790949 223.07639608 108.6875 226.75 C110.77211164 229.12214429 112.88428644 231.46806065 115 233.8125 C118.26390848 237.42926345 121.48790949 241.07639608 124.6875 244.75 C126.77211164 247.12214429 128.88428644 249.46806065 131 251.8125 C134.2658146 255.43137564 137.49305031 259.07933385 140.69140625 262.7578125 C142.74664777 265.09270891 144.84243033 267.38829534 146.9375 269.6875 C163.23591397 287.82470939 163.23591397 287.82470939 162.8515625 299.3203125 C161.93713695 305.80257362 158.47327385 310.66810513 153.5 314.8125 C148.6262436 318.34597339 143.72667172 318.23653878 137.9140625 318.40625 C130.15094856 317.05614323 124.98250934 311.70685271 119.9375 306 C119.37377686 305.37762451 118.81005371 304.75524902 118.22924805 304.11401367 C116.64197256 302.35615708 115.06798759 300.58756015 113.5 298.8125 C112.82710937 298.05195312 112.15421875 297.29140625 111.4609375 296.5078125 C110.38238747 295.27591412 109.30798769 294.04036663 108.23828125 292.80078125 C106.02743511 290.27197072 103.76403557 287.79377436 101.5 285.3125 C98.04671847 281.52587002 94.63900949 277.7077368 91.27734375 273.83984375 C89.20640513 271.47760827 87.10487152 269.14454147 85 266.8125 C81.73609152 263.19573655 78.51209051 259.54860392 75.3125 255.875 C73.22788836 253.50285571 71.11571356 251.15693935 69 248.8125 C66.31016569 245.83187279 63.63689636 242.84004767 61 239.8125 C57.65290649 235.97182588 54.25004128 232.18349281 50.8359375 228.40234375 C49.25375379 226.64818355 47.6757465 224.89024893 46.1015625 223.12890625 C45.32554687 222.26136719 44.54953125 221.39382813 43.75 220.5 C42.70585938 219.33017578 42.70585938 219.33017578 41.640625 218.13671875 C39.32676881 215.62441139 36.92971778 213.21248347 34.5 210.8125 C31.39544344 212.77021576 28.29142254 214.7287792 25.1875 216.6875 C24.30642578 217.24308594 23.42535156 217.79867188 22.51757812 218.37109375 C21.67001953 218.90605469 20.82246094 219.44101563 19.94921875 219.9921875 C19.16893311 220.48444824 18.38864746 220.97670898 17.5847168 221.48388672 C15.87637895 222.57262949 14.1855497 223.6888002 12.5 224.8125 C12.19919012 227.25363374 12.0934862 229.44524227 12.11523438 231.88916016 C12.1098616 232.61787323 12.10448883 233.3465863 12.09895325 234.09738159 C12.08915633 235.68300344 12.08623687 237.26867902 12.08930969 238.85432816 C12.09378085 241.36891507 12.07980486 243.88279547 12.06091309 246.39730835 C12.02406306 251.74402711 12.0104257 257.09067297 12 262.4375 C11.98790512 268.61367371 11.96619239 274.78950574 11.91999817 280.96552658 C11.90648396 283.4338315 11.91059043 285.90169857 11.91540527 288.37002563 C11.90605553 289.89984683 11.89588443 291.4296633 11.88476562 292.95947266 C11.89091385 293.63822449 11.89706207 294.31697632 11.90339661 295.01629639 C11.82832662 300.94290822 10.49436933 306.46184703 6.59765625 311.0546875 C5.92605469 311.59351563 5.25445313 312.13234375 4.5625 312.6875 C3.89347656 313.24179688 3.22445312 313.79609375 2.53515625 314.3671875 C-3.49165174 318.64726227 -9.24243855 318.65458548 -16.5 317.8125 C-22.19054444 315.70119928 -26.09513877 311.71950589 -29.5 306.8125 C-32.07343298 301.11152898 -31.78203369 295.45635732 -31.76069641 289.32510376 C-31.76452196 288.16180931 -31.76834751 286.99851487 -31.77228898 285.79996908 C-31.78081278 282.57947422 -31.7803889 279.35912529 -31.77610838 276.13862658 C-31.77363993 272.66205173 -31.78265683 269.18550363 -31.79014587 265.7089386 C-31.80289174 258.90111575 -31.80468669 252.09333235 -31.80234561 245.28549959 C-31.80056211 239.75128618 -31.80231279 234.21708475 -31.80657005 228.68287277 C-31.80716524 227.89501754 -31.80776043 227.10716231 -31.80837366 226.29543268 C-31.80958542 224.69486273 -31.81079955 223.09429279 -31.81201603 221.49372284 C-31.82289121 206.48514713 -31.82072923 191.47659389 -31.81463119 176.46801691 C-31.80946247 162.74210561 -31.8207163 149.01626529 -31.83972941 135.29036804 C-31.8591084 121.19209802 -31.86736367 107.09386159 -31.86360615 92.99557817 C-31.86169415 85.08229065 -31.86418158 77.16906354 -31.87832069 69.2557869 C-31.89023628 62.51883963 -31.89163744 55.78198995 -31.87953053 49.04504134 C-31.87364295 45.609093 -31.87253886 42.17332314 -31.88453293 38.7373867 C-31.89496867 35.00937984 -31.88692444 31.28185302 -31.8742218 27.55386353 C-31.88159609 26.47233871 -31.88897037 25.3908139 -31.89656812 24.2765156 C-31.84301224 16.80782498 -31.12914092 10.84612414 -26.0625 5 C-18.31561253 -1.61319662 -9.96252151 -3.38014123 0 0 Z " fill="#2496ED" transform="translate(734.5,808.1875)"/>
<path d="M0 0 C22.2803696 19.77056528 37.91481533 45.63428733 39.84667969 75.90869141 C40.9739917 111.27750607 33.04862027 139.16991328 8.62548828 165.44238281 C-10.48956858 185.07021318 -36.76314852 197.94887492 -64.36669922 198.64550781 C-99.6502907 199.05321792 -127.04728006 189.97728197 -152.87451172 165.31738281 C-174.98211273 142.57993562 -184.95058367 114.12569571 -184.52685547 82.59082031 C-183.64516783 51.33098582 -170.32761542 25.93614558 -148.90966797 3.90722656 C-108.75450888 -33.97625964 -42.0022887 -36.12170634 0 0 Z M-124.49951172 40.56738281 C-137.75935914 56.18930831 -142.8997534 75.18157926 -141.37451172 95.44238281 C-138.93582476 114.61428247 -128.65659075 130.0203937 -114.06201172 142.25488281 C-98.82500707 153.40324578 -80.71949315 158.21324528 -62.00439453 155.84057617 C-42.80483278 152.81451044 -25.96005085 141.36985313 -14.50341797 125.91894531 C-3.70853794 110.0864546 -0.15436633 91.2646013 -3.62060547 72.55175781 C-8.31110437 53.20648773 -20.2987175 37.13501965 -36.93701172 26.31738281 C-66.23788389 9.34653604 -101.65300442 16.70645531 -124.49951172 40.56738281 Z " fill="#2496ED" transform="translate(428.37451171875,927.5576171875)"/>
<path d="M0 0 C4.72053254 4.42305288 7.9176099 8.72739837 8.55859375 15.28515625 C8.6987892 21.78087889 8.05451273 27.23925128 3.55078125 32.19140625 C-2.46383104 37.68399559 -6.87016261 39.40145763 -14.94921875 39.5703125 C-21.12749654 38.7375881 -25.85807497 35.5310187 -30.76953125 31.89453125 C-46.68183869 20.527606 -64.32908232 15.7841606 -83.73828125 18.5 C-100.79884362 21.64807996 -117.40744 31.04688235 -127.64453125 45.20703125 C-138.34767698 61.7574532 -143.55020463 79.76713126 -139.9609375 99.51953125 C-137.28223741 111.92141169 -132.02021498 122.66805811 -123.64453125 132.20703125 C-122.77054688 133.22216797 -122.77054688 133.22216797 -121.87890625 134.2578125 C-110.10172665 146.99992909 -92.79800636 154.08447318 -75.64453125 155.20703125 C-57.81990783 155.51781956 -44.08819761 150.3506748 -29.64453125 140.20703125 C-22.45568127 135.45925494 -17.28738392 133.40134159 -8.64453125 134.20703125 C-2.20630605 136.28035801 2.61181348 139.41718283 6.23046875 145.20703125 C8.4017743 151.1846616 8.62585029 158.53704012 6.546875 164.54296875 C-2.93755701 181.1489293 -25.41928565 190.43032421 -42.8671875 195.34765625 C-72.77701853 202.15237479 -104.78394965 199.04149163 -131.19677734 182.87841797 C-137.87077623 178.59748641 -143.79793676 173.54174879 -149.64453125 168.20703125 C-150.37027344 167.56378906 -151.09601562 166.92054688 -151.84375 166.2578125 C-172.86887521 146.5974013 -183.21755365 118.68780253 -184.52124023 90.46386719 C-185.51878673 59.17240876 -174.81033664 31.09135294 -153.55078125 8.14453125 C-112.78024767 -33.29437174 -44.95658776 -38.08011113 0 0 Z " fill="#2496ED" transform="translate(672.64453125,927.79296875)"/>
<path d="M0 0 C5.53329649 5.53329649 6.90558565 10.65566356 7.25 18.25 C8.06339844 17.693125 8.87679688 17.13625 9.71484375 16.5625 C38.68929338 -2.89257039 70.63766843 -8.7106185 104.91455078 -2.25488281 C115.83399285 0.10570742 125.75324692 4.89467557 132.25 14.25 C134.80206033 19.35412065 134.02327487 27.39109234 132.56640625 32.77734375 C129.95230241 38.42858069 126.09088755 41.92425248 120.4375 44.5625 C111.35773757 46.52088013 104.54146636 44.33326233 96.01953125 41.44140625 C78.83632765 36.01044553 59.35993894 38.67873001 43.5 46.8125 C27.36357535 55.67290999 16.23443884 69.90656258 10.25 87.25 C8.41895938 93.76643662 7.96016366 99.93078581 7.97875977 106.67578125 C7.97091965 108.17762466 7.97091965 108.17762466 7.96292114 109.70980835 C7.95273435 111.86880947 7.9469101 114.02783479 7.94503975 116.18685913 C7.94135569 119.60946966 7.92457421 123.03179571 7.90428162 126.4543457 C7.84905733 136.18012192 7.81818261 145.9059388 7.79370117 155.63183594 C7.77779226 161.59453503 7.74754348 167.5570298 7.70893669 173.5196228 C7.69732205 175.78410671 7.69135665 178.04862718 7.69125557 180.31314087 C7.69106266 183.48371637 7.67273465 186.6537308 7.65063477 189.82421875 C7.65521194 190.75019867 7.65978912 191.67617859 7.664505 192.63021851 C7.57110966 201.09517089 5.84265879 208.55991234 -0.1015625 214.80859375 C-5.44417197 219.48021198 -10.95200847 219.80408837 -17.81640625 219.58984375 C-23.18805658 218.96756202 -26.83058274 217.29961843 -30.53515625 213.34375 C-35.21882027 207.40889441 -35.89906507 203.03295136 -35.89717102 195.53375244 C-35.90084771 194.75193722 -35.9045244 193.97012199 -35.9083125 193.16461539 C-35.91933401 190.54235413 -35.92319056 187.92013251 -35.92700195 185.29785156 C-35.93326771 183.41863886 -35.93991461 181.5394274 -35.94691467 179.66021729 C-35.96794233 173.48702861 -35.97831516 167.31383973 -35.98828125 161.140625 C-35.99232915 159.01476783 -35.99644608 156.8889108 -36.00063133 154.76305389 C-36.01967935 144.77631502 -36.03391178 134.78958353 -36.0422433 124.80282998 C-36.0520177 113.27712013 -36.07834424 101.75160223 -36.11874419 90.22596002 C-36.14890536 81.31542302 -36.16371214 72.40494106 -36.16702431 63.49435401 C-36.16937459 58.17321489 -36.1783325 52.85228093 -36.20348549 47.53119659 C-36.22677142 42.52428607 -36.23099727 37.51771572 -36.22072411 32.51076508 C-36.22022878 30.67579517 -36.22654823 28.84080848 -36.24028015 27.00588989 C-36.25801621 24.49491501 -36.25088513 21.98515878 -36.23774719 19.47418213 C-36.24871644 18.75315127 -36.25968568 18.0321204 -36.27098733 17.28924012 C-36.19268007 11.06296811 -34.06267877 5.98508585 -30.0390625 1.2265625 C-20.41911208 -6.58682446 -10.26838224 -6.53442506 0 0 Z " fill="#2496ED" transform="translate(1182.75,906.75)"/>
<path d="M0 0 C1.35670303 0.00371613 1.35670303 0.00371613 2.74081421 0.00750732 C3.6921373 0.00239639 4.64346039 -0.00271454 5.62361145 -0.00798035 C8.78001125 -0.02192283 11.93619385 -0.02091607 15.09262085 -0.01861572 C17.27976056 -0.02250012 19.46689951 -0.02683425 21.65403748 -0.03160095 C26.24320926 -0.03907321 30.83230412 -0.03876462 35.42147827 -0.0335083 C41.31099675 -0.02771263 47.20020085 -0.04464232 53.08966732 -0.06785297 C57.60802562 -0.08256397 62.12630775 -0.0834656 66.64468575 -0.08034325 C68.81646917 -0.08085779 70.98825671 -0.08612042 73.16001701 -0.09615517 C76.19366935 -0.10845106 79.22670349 -0.101769 82.26034546 -0.09014893 C83.16278992 -0.09779266 84.06523438 -0.1054364 84.99502563 -0.11331177 C86.23375679 -0.1027903 86.23375679 -0.1027903 87.49751282 -0.09205627 C88.2148355 -0.09222402 88.93215818 -0.09239176 89.67121792 -0.09256458 C92.12432577 0.3927705 93.00822018 1.36851428 94.5652771 3.28216553 C96.04411767 6.99897441 95.71300293 11.05728555 95.71054077 15.00067139 C95.71389938 15.77350967 95.717258 16.54634796 95.72071838 17.34260559 C95.73020734 19.89408989 95.73217038 22.44550844 95.73324585 24.99700928 C95.73645956 26.77293423 95.73982372 28.54885893 95.74333191 30.32478333 C95.74931781 34.04617934 95.75117233 37.76755215 95.75057983 41.48895264 C95.75047817 46.25491081 95.76413684 51.02072014 95.78135204 55.78664303 C95.79247533 59.45409325 95.79449895 63.12150749 95.79397011 66.78897285 C95.79514948 68.54602128 95.79956885 70.30307066 95.80730247 72.06010246 C95.81711017 74.51826258 95.81422143 76.97609971 95.80819702 79.43426514 C95.81381653 80.15806366 95.81943604 80.88186218 95.82522583 81.62759399 C95.79419326 86.61579114 95.33832181 90.25379268 92.00300598 94.06941223 C88.25623643 95.93340423 84.69221263 95.70792222 80.56161499 95.68621826 C79.65222672 95.69308151 78.74283844 95.69994476 77.80589294 95.70701599 C74.79974759 95.72531757 71.79412246 95.72144163 68.78793335 95.71575928 C66.69812347 95.72031952 64.6083151 95.72562462 62.51850891 95.73164368 C58.13795887 95.74058143 53.75759108 95.73814411 49.37704468 95.72821045 C43.76343241 95.7167211 38.1504492 95.73692863 32.53691959 95.76612759 C28.2209117 95.78447414 23.90505497 95.78420017 19.58901787 95.77849007 C17.51936396 95.77833666 15.44969994 95.78439716 13.38008308 95.79678154 C10.48576532 95.81166 7.59261498 95.80103735 4.69833374 95.78387451 C3.84362488 95.79354248 2.98891602 95.80321045 2.10830688 95.81317139 C-1.8947322 95.76346775 -3.95570763 95.57576353 -7.44303894 93.43830872 C-11.01128889 89.57541783 -10.58303309 85.55172475 -10.57998657 80.58538818 C-10.58334518 79.80294235 -10.5867038 79.02049652 -10.59016418 78.21434021 C-10.59967135 75.62495338 -10.60161722 73.03563123 -10.60269165 70.44622803 C-10.60590452 68.64645358 -10.60926862 66.84667941 -10.61277771 65.04690552 C-10.61876848 61.27245478 -10.62061768 57.49802694 -10.62002563 53.72357178 C-10.61992404 48.88920446 -10.63357324 44.05498412 -10.65079784 39.22065163 C-10.66192178 35.50258715 -10.66394472 31.78455815 -10.66341591 28.06647873 C-10.66459555 26.28431059 -10.66901641 24.50214153 -10.67674828 22.71998978 C-10.68655555 20.22579945 -10.68366718 17.73192749 -10.67764282 15.23773193 C-10.68326233 14.50301163 -10.68888184 13.76829132 -10.69467163 13.01130676 C-10.64182365 4.39226362 -9.0537535 0.07793929 0 0 Z " fill="#2496ED" transform="translate(675.4347229003906,-0.28216552734375)"/>
<path d="M0 0 C0.89354691 0.00247742 1.78709381 0.00495483 2.7077179 0.00750732 C3.64768112 0.00239639 4.58764435 -0.00271454 5.55609131 -0.00798035 C8.67521973 -0.02192381 11.79412834 -0.02091584 14.9132843 -0.01861572 C17.07560814 -0.0225004 19.23793122 -0.02683459 21.4002533 -0.03160095 C25.93815074 -0.03907366 30.4759704 -0.03876454 35.01387024 -0.0335083 C40.83378957 -0.02771612 46.6533904 -0.04463365 52.47325706 -0.06785297 C56.94104377 -0.08257495 61.40875355 -0.08346404 65.87656021 -0.08034325 C68.02239741 -0.08085736 70.16823882 -0.08611186 72.31405258 -0.09615517 C75.31397511 -0.10847065 78.31327434 -0.10175682 81.31318665 -0.09014893 C82.20268509 -0.09779266 83.09218353 -0.1054364 84.00863647 -0.11331177 C87.53208555 -0.08312718 89.98458652 -0.04886036 93.16026306 1.55543518 C96.46878881 5.41661022 95.78813897 10.15023844 95.78511047 15.00067139 C95.78846909 15.77350967 95.7918277 16.54634796 95.79528809 17.34260559 C95.80477704 19.89408989 95.80674008 22.44550844 95.80781555 24.99700928 C95.81102926 26.77293423 95.81439342 28.54885893 95.81790161 30.32478333 C95.82388752 34.04617934 95.82574203 37.76755215 95.82514954 41.48895264 C95.82504788 46.25491081 95.83870655 51.02072014 95.85592175 55.78664303 C95.86704503 59.45409325 95.86906865 63.12150749 95.86853981 66.78897285 C95.86971918 68.54602128 95.87413855 70.30307066 95.88187218 72.06010246 C95.89167987 74.51826258 95.88879113 76.97609971 95.88276672 79.43426514 C95.88838623 80.15806366 95.89400574 80.88186218 95.89979553 81.62759399 C95.86876296 86.61579114 95.41289152 90.25379268 92.07757568 94.06941223 C88.33080613 95.93340423 84.76678233 95.70792222 80.63618469 95.68621826 C79.72679642 95.69308151 78.81740814 95.69994476 77.88046265 95.70701599 C74.87431729 95.72531757 71.86869217 95.72144163 68.86250305 95.71575928 C66.77269317 95.72031952 64.6828848 95.72562462 62.59307861 95.73164368 C58.21252857 95.74058143 53.83216078 95.73814411 49.45161438 95.72821045 C43.83800212 95.7167211 38.22501891 95.73692863 32.6114893 95.76612759 C28.2954814 95.78447414 23.97962467 95.78420017 19.66358757 95.77849007 C17.59393367 95.77833666 15.52426964 95.78439716 13.45465279 95.79678154 C10.56033503 95.81166 7.66718468 95.80103735 4.77290344 95.78387451 C3.91819458 95.79354248 3.06348572 95.80321045 2.18287659 95.81317139 C-1.8201625 95.76346775 -3.88113793 95.57576353 -7.36846924 93.43830872 C-10.93671918 89.57541783 -10.50846339 85.55172475 -10.50541687 80.58538818 C-10.50877548 79.80294235 -10.51213409 79.02049652 -10.51559448 78.21434021 C-10.52510165 75.62495338 -10.52704751 73.03563123 -10.52812195 70.44622803 C-10.53133482 68.64645358 -10.53469892 66.84667941 -10.53820801 65.04690552 C-10.54419878 61.27245478 -10.54604797 57.49802694 -10.54545593 53.72357178 C-10.54535434 48.88920446 -10.55900353 44.05498412 -10.57622814 39.22065163 C-10.58735208 35.50258715 -10.58937501 31.78455815 -10.58884621 28.06647873 C-10.59002584 26.28431059 -10.59444671 24.50214153 -10.60217857 22.71998978 C-10.61198585 20.22579945 -10.60909748 17.73192749 -10.60307312 15.23773193 C-10.60869263 14.50301163 -10.61431213 13.76829132 -10.62010193 13.01130676 C-10.56763423 4.45428498 -9.01019179 0.07850475 0 0 Z " fill="#2496ED" transform="translate(675.3601531982422,226.71783447265625)"/>
<path d="M0 0 C0.90924225 -0.00671722 1.8184845 -0.01343445 2.75527954 -0.02035522 C5.76675859 -0.0393827 8.77801533 -0.04326185 11.78955078 -0.04541016 C13.88078911 -0.0518349 15.97202652 -0.05856302 18.06326294 -0.06558228 C22.44974858 -0.07756702 26.83615539 -0.08126188 31.22265625 -0.08007812 C36.84411541 -0.0798749 42.46506923 -0.10717581 48.08640862 -0.14162254 C52.4066907 -0.16385803 56.72685054 -0.16791669 61.04718399 -0.16685867 C63.11963772 -0.16921973 65.19209456 -0.17807155 67.26449203 -0.19352341 C70.16366724 -0.21311488 73.06174469 -0.20737208 75.9609375 -0.1953125 C77.24535736 -0.21217102 77.24535736 -0.21217102 78.5557251 -0.22937012 C82.52159092 -0.18744083 84.6375705 0.01110976 88.11917114 2.07089233 C91.85686249 6.23844311 91.26269394 10.61426511 91.27099609 15.99316406 C91.27844345 17.15001205 91.27844345 17.15001205 91.28604126 18.33023071 C91.30062421 20.87690123 91.30745802 23.42350947 91.31298828 25.97021484 C91.31874242 27.74374391 91.32450013 29.51727296 91.33026123 31.290802 C91.34075987 35.00799855 91.34661014 38.72517353 91.35009766 42.44238281 C91.3555834 47.19933829 91.37961791 51.9560077 91.40806961 56.71287346 C91.42671574 60.37607653 91.43190262 64.03921091 91.43343353 67.70245743 C91.43645556 69.45589895 91.4444689 71.2093394 91.45761871 72.96273422 C91.47472254 75.41841015 91.47278872 77.87338981 91.46630859 80.32910156 C91.47552338 81.04930481 91.48473816 81.76950806 91.49423218 82.51153564 C91.45593267 87.15768891 90.57272072 90.34910194 88.10986328 94.29052734 C84.72033911 95.98528943 80.86303391 95.4469454 77.13378906 95.45166016 C76.20357941 95.45662506 75.27336975 95.46158997 74.31497192 95.46670532 C71.22836577 95.48134688 68.141811 95.48813211 65.05517578 95.49365234 C62.91527301 95.49940196 60.77537026 95.50515971 58.63546753 95.51092529 C54.14467122 95.52144083 49.65389284 95.52727994 45.16308594 95.53076172 C39.40372108 95.53624896 33.64459234 95.56027968 27.88530159 95.58873367 C23.46384993 95.60734053 19.04245538 95.6125646 14.62096786 95.6140976 C12.49745263 95.61712884 10.37393851 95.62517318 8.25046158 95.63828278 C5.28169951 95.65530306 2.31351738 95.65347284 -0.65527344 95.64697266 C-1.53542114 95.65618744 -2.41556885 95.66540222 -3.3223877 95.67489624 C-6.82679467 95.65081262 -9.24664146 95.61609763 -12.40481567 94.01824951 C-15.73630027 90.14307396 -15.04385808 85.35445385 -15.05126953 80.48022461 C-15.05623444 79.69763275 -15.06119934 78.91504089 -15.0663147 78.10873413 C-15.08089725 75.52479162 -15.08773091 72.94091046 -15.09326172 70.35693359 C-15.0990153 68.55858865 -15.104773 66.76024372 -15.11053467 64.9618988 C-15.12103277 61.19342768 -15.12688359 57.42497782 -15.13037109 53.65649414 C-15.1358609 48.82993995 -15.15990427 44.00366713 -15.18834305 39.17720127 C-15.20697167 35.4634265 -15.21217509 31.74971957 -15.21370697 28.03590202 C-15.21673226 26.25651444 -15.22475664 24.47712801 -15.23789215 22.69778633 C-15.25496152 20.20838114 -15.25307069 17.7196647 -15.24658203 15.23022461 C-15.25579681 14.49707535 -15.2650116 13.76392609 -15.27450562 13.00856018 C-15.23846095 8.59038405 -14.62751596 5.78990897 -11.89013672 2.29052734 C-7.95079265 -0.33570204 -4.57269444 -0.00481742 0 0 Z " fill="#2496ED" transform="translate(679.89013671875,112.70947265625)"/>
<path d="M0 0 C0.94025528 -0.00700928 1.88051056 -0.01401855 2.84925842 -0.02124023 C5.95774861 -0.0388475 9.06532865 -0.02718754 12.17382812 -0.01367188 C14.33329442 -0.016366 16.49275954 -0.02024775 18.65222168 -0.02526855 C23.17825875 -0.03116732 27.70398009 -0.02258825 32.22998047 -0.00390625 C38.03428021 0.01888324 43.83784014 0.00576222 49.64211273 -0.01819611 C54.10135482 -0.0326437 58.56042123 -0.0280528 63.01966858 -0.01768494 C65.15991808 -0.01501479 67.30018349 -0.01829749 69.44041443 -0.02760315 C72.4307587 -0.03775139 75.41990156 -0.02229131 78.41015625 0 C79.73969078 -0.01214539 79.73969078 -0.01214539 81.09608459 -0.02453613 C84.76552099 0.02619205 87.06068764 0.13424146 90.25267029 2.03309631 C92.31209468 5.5559377 92.27164544 8.81843886 92.23852539 12.78686523 C92.25144875 14.0339048 92.25144875 14.0339048 92.26463318 15.30613708 C92.28732512 18.05271593 92.28054827 20.79827706 92.27148438 23.54492188 C92.2767188 25.45537113 92.28299461 27.36581779 92.29026794 29.27626038 C92.3006783 33.28024455 92.29610196 37.28387348 92.28149414 41.2878418 C92.26431136 46.41735879 92.2877919 51.54575514 92.32298374 56.67514706 C92.34495235 60.6206046 92.34351747 64.56579382 92.33521843 68.51129341 C92.3343985 70.40232128 92.3412699 72.29336877 92.35598946 74.18433952 C92.37342434 76.82989068 92.35890265 79.47342617 92.33618164 82.11889648 C92.35371994 83.28875092 92.35371994 83.28875092 92.37161255 84.48223877 C92.30635509 88.21962407 91.80780407 90.36146709 89.74119568 93.50205994 C85.57194122 96.26980791 82.40124781 96.22211192 77.49609375 96.16455078 C76.11716194 96.17769318 76.11716194 96.17769318 74.71037292 96.19110107 C71.67687541 96.21307664 68.64484001 96.19854861 65.61132812 96.18164062 C63.50052613 96.18500928 61.38972602 96.18986231 59.27893066 96.19613647 C54.85715245 96.20350533 50.43587958 96.19280154 46.01416016 96.16943359 C40.34771756 96.14094623 34.68245903 96.15735007 29.01605988 96.18729591 C24.65797004 96.2053683 20.30016069 96.19961104 15.94206238 96.18665695 C13.85287842 96.1833228 11.76366894 96.18741033 9.67451477 96.19905472 C6.75367844 96.21176211 3.83475632 96.19238748 0.9140625 96.16455078 C0.05157394 96.17467194 -0.81091461 96.18479309 -1.69953918 96.19522095 C-5.81660609 96.12257064 -7.8253883 95.82927668 -11.33103943 93.50205994 C-13.84643961 89.67944514 -13.99244883 86.54952874 -13.92602539 82.11889648 C-13.93318069 81.28578445 -13.940336 80.45267242 -13.94770813 79.59431458 C-13.96457901 76.8481212 -13.94520444 74.10356387 -13.92382812 71.35742188 C-13.9246569 69.44600795 -13.92711659 67.53459409 -13.93113708 65.6231842 C-13.93399387 61.62088523 -13.9193041 57.61914625 -13.8918457 53.61694336 C-13.85774005 48.48633354 -13.86378992 43.35672351 -13.88250828 38.22606564 C-13.8930746 34.2806413 -13.88414418 30.33544976 -13.86912346 26.39004707 C-13.86394004 24.49821222 -13.86442539 22.60635307 -13.87066841 20.71452141 C-13.87611712 18.07143698 -13.85575833 15.42978629 -13.82836914 12.78686523 C-13.83489502 12.00493805 -13.8414209 11.22301086 -13.84814453 10.41738892 C-13.79067698 7.15711166 -13.49961917 4.86773233 -11.84251404 2.03309631 C-7.97075861 -0.27014353 -4.42872833 -0.04045673 0 0 Z " fill="#2496ED" transform="translate(556.294921875,226.482421875)"/>
<path d="M0 0 C0.94025528 -0.00700928 1.88051056 -0.01401855 2.84925842 -0.02124023 C5.95774861 -0.0388475 9.06532865 -0.02718754 12.17382812 -0.01367188 C14.33329442 -0.016366 16.49275954 -0.02024775 18.65222168 -0.02526855 C23.17825875 -0.03116732 27.70398009 -0.02258825 32.22998047 -0.00390625 C38.03428021 0.01888324 43.83784014 0.00576222 49.64211273 -0.01819611 C54.10135482 -0.0326437 58.56042123 -0.0280528 63.01966858 -0.01768494 C65.15991808 -0.01501479 67.30018349 -0.01829749 69.44041443 -0.02760315 C72.4307587 -0.03775139 75.41990156 -0.02229131 78.41015625 0 C79.73969078 -0.01214539 79.73969078 -0.01214539 81.09608459 -0.02453613 C84.76552099 0.02619205 87.06068764 0.13424146 90.25267029 2.03309631 C92.31209468 5.5559377 92.27164544 8.81843886 92.23852539 12.78686523 C92.25144875 14.0339048 92.25144875 14.0339048 92.26463318 15.30613708 C92.28732512 18.05271593 92.28054827 20.79827706 92.27148438 23.54492188 C92.2767188 25.45537113 92.28299461 27.36581779 92.29026794 29.27626038 C92.3006783 33.28024455 92.29610196 37.28387348 92.28149414 41.2878418 C92.26431136 46.41735879 92.2877919 51.54575514 92.32298374 56.67514706 C92.34495235 60.6206046 92.34351747 64.56579382 92.33521843 68.51129341 C92.3343985 70.40232128 92.3412699 72.29336877 92.35598946 74.18433952 C92.37342434 76.82989068 92.35890265 79.47342617 92.33618164 82.11889648 C92.35371994 83.28875092 92.35371994 83.28875092 92.37161255 84.48223877 C92.30635509 88.21962407 91.80780407 90.36146709 89.74119568 93.50205994 C85.57194122 96.26980791 82.40124781 96.22211192 77.49609375 96.16455078 C76.11716194 96.17769318 76.11716194 96.17769318 74.71037292 96.19110107 C71.67687541 96.21307664 68.64484001 96.19854861 65.61132812 96.18164062 C63.50052613 96.18500928 61.38972602 96.18986231 59.27893066 96.19613647 C54.85715245 96.20350533 50.43587958 96.19280154 46.01416016 96.16943359 C40.34771756 96.14094623 34.68245903 96.15735007 29.01605988 96.18729591 C24.65797004 96.2053683 20.30016069 96.19961104 15.94206238 96.18665695 C13.85287842 96.1833228 11.76366894 96.18741033 9.67451477 96.19905472 C6.75367844 96.21176211 3.83475632 96.19238748 0.9140625 96.16455078 C0.05157394 96.17467194 -0.81091461 96.18479309 -1.69953918 96.19522095 C-5.81660609 96.12257064 -7.8253883 95.82927668 -11.33103943 93.50205994 C-13.84643961 89.67944514 -13.99244883 86.54952874 -13.92602539 82.11889648 C-13.93318069 81.28578445 -13.940336 80.45267242 -13.94770813 79.59431458 C-13.96457901 76.8481212 -13.94520444 74.10356387 -13.92382812 71.35742188 C-13.9246569 69.44600795 -13.92711659 67.53459409 -13.93113708 65.6231842 C-13.93399387 61.62088523 -13.9193041 57.61914625 -13.8918457 53.61694336 C-13.85774005 48.48633354 -13.86378992 43.35672351 -13.88250828 38.22606564 C-13.8930746 34.2806413 -13.88414418 30.33544976 -13.86912346 26.39004707 C-13.86394004 24.49821222 -13.86442539 22.60635307 -13.87066841 20.71452141 C-13.87611712 18.07143698 -13.85575833 15.42978629 -13.82836914 12.78686523 C-13.83489502 12.00493805 -13.8414209 11.22301086 -13.84814453 10.41738892 C-13.79067698 7.15711166 -13.49961917 4.86773233 -11.84251404 2.03309631 C-7.97075861 -0.27014353 -4.42872833 -0.04045673 0 0 Z " fill="#2496ED" transform="translate(432.294921875,226.482421875)"/>
<path d="M0 0 C0.94025528 -0.00861557 1.88051056 -0.01723114 2.84925842 -0.02610779 C5.95772821 -0.04881341 9.06529991 -0.04202071 12.17382812 -0.03295898 C14.33329538 -0.03819229 16.49276034 -0.04446769 18.65222168 -0.05174255 C23.17825069 -0.0621551 27.70396546 -0.05757252 32.22998047 -0.04296875 C38.03439111 -0.02577457 43.83781249 -0.04928018 49.64211273 -0.08445835 C54.10136494 -0.10640161 58.56037928 -0.10499836 63.01966858 -0.09669304 C65.15992824 -0.09587194 67.30020509 -0.1027655 69.44041443 -0.11746407 C72.43095013 -0.13485408 75.41969323 -0.12041355 78.41015625 -0.09765625 C79.2965126 -0.10934845 80.18286896 -0.12104065 81.09608459 -0.13308716 C85.09686461 -0.07103755 87.05217672 0.01543635 90.25267029 2.55470276 C92.10669753 6.35712886 92.27368304 9.68163823 92.23852539 13.82446289 C92.25144875 15.05709114 92.25144875 15.05709114 92.26463318 16.31462097 C92.28728385 19.0233027 92.28055664 21.73094916 92.27148438 24.43969727 C92.27672009 26.32629707 92.28299638 28.21289425 92.29026794 30.0994873 C92.30067026 34.05041842 92.29611269 38.00098932 92.28149414 41.9519043 C92.26429989 47.01301652 92.28781021 52.07299416 92.32298374 57.1339798 C92.34495104 61.02882397 92.34351801 64.92339632 92.33521843 68.81828308 C92.33439867 70.68419134 92.34126678 72.5501195 92.35598946 74.41596985 C92.37342499 77.02549885 92.35890307 79.6329846 92.33618164 82.24243164 C92.35371994 83.3959034 92.35371994 83.3959034 92.37161255 84.57267761 C92.30589349 88.28529467 91.79714588 90.39384879 89.74119568 93.51119995 C85.57232292 96.28793425 82.40519199 96.23802734 77.49609375 96.18041992 C76.11716194 96.19356232 76.11716194 96.19356232 74.71037292 96.20697021 C71.67687541 96.22894578 68.64484001 96.21441776 65.61132812 96.19750977 C63.50052613 96.20087842 61.38972602 96.20573145 59.27893066 96.21200562 C54.85715245 96.21937447 50.43587958 96.20867068 46.01416016 96.18530273 C40.34771756 96.15681537 34.68245903 96.17321921 29.01605988 96.20316505 C24.65797004 96.22123744 20.30016069 96.21548018 15.94206238 96.20252609 C13.85287842 96.19919194 11.76366894 96.20327947 9.67451477 96.21492386 C6.75367844 96.22763126 3.83475632 96.20825662 0.9140625 96.18041992 C0.05157394 96.19054108 -0.81091461 96.20066223 -1.69953918 96.21109009 C-5.81660609 96.13843978 -7.8253883 95.84514582 -11.33103943 93.51792908 C-13.84643961 89.69531428 -13.99244883 86.56539788 -13.92602539 82.13476562 C-13.93318069 81.30165359 -13.940336 80.46854156 -13.94770813 79.61018372 C-13.96457901 76.86399034 -13.94520444 74.11943301 -13.92382812 71.37329102 C-13.9246569 69.46187709 -13.92711659 67.55046323 -13.93113708 65.63905334 C-13.93399387 61.63675437 -13.9193041 57.63501539 -13.8918457 53.6328125 C-13.85774005 48.50220268 -13.86378992 43.37259265 -13.88250828 38.24193478 C-13.8930746 34.29651044 -13.88414418 30.3513189 -13.86912346 26.40591621 C-13.86394004 24.51408136 -13.86442539 22.62222221 -13.87066841 20.73039055 C-13.87611712 18.08730612 -13.85575833 15.44565543 -13.82836914 12.80273438 C-13.83489502 12.02080719 -13.8414209 11.23888 -13.84814453 10.43325806 C-13.79068199 7.17326512 -13.49998808 4.88409249 -11.84251404 2.04995728 C-7.97218964 -0.25393806 -4.42836596 -0.03260425 0 0 Z " fill="#2496ED" transform="translate(310.294921875,226.466552734375)"/>
<path d="M0 0 C0.94025528 -0.0071553 1.88051056 -0.01431061 2.84925842 -0.02168274 C5.95794225 -0.03859437 9.06518899 -0.0191523 12.17382812 0.00219727 C14.33329386 0.0013688 16.49275953 -0.00108975 18.65222168 -0.00511169 C23.17833433 -0.00797139 27.7039526 0.00674875 32.22998047 0.03417969 C38.03430519 0.06826233 43.8377457 0.06224565 49.64211273 0.04351711 C54.1013731 0.0329532 58.56042738 0.0418795 63.01966858 0.05690193 C65.15991097 0.06208865 67.30017484 0.06159603 69.44041443 0.05535698 C72.43079981 0.04991226 75.4199155 0.07025664 78.41015625 0.09765625 C79.2965126 0.09113037 80.18286896 0.08460449 81.09608459 0.07788086 C84.76425612 0.13508886 87.06246577 0.24857445 90.25267029 2.14761353 C92.31254592 5.66982015 92.27164226 8.932346 92.23852539 12.90039062 C92.25144875 14.14743019 92.25144875 14.14743019 92.26463318 15.41966248 C92.28732512 18.16624132 92.28054827 20.91180245 92.27148438 23.65844727 C92.2767188 25.56889652 92.28299461 27.47934318 92.29026794 29.38978577 C92.3006783 33.39376994 92.29610196 37.39739887 92.28149414 41.40136719 C92.26431136 46.53088418 92.2877919 51.65928053 92.32298374 56.78867245 C92.34495235 60.73412999 92.34351747 64.67931921 92.33521843 68.6248188 C92.3343985 70.51584667 92.3412699 72.40689416 92.35598946 74.29786491 C92.37342434 76.94341607 92.35890265 79.58695156 92.33618164 82.23242188 C92.35371994 83.40227631 92.35371994 83.40227631 92.37161255 84.59576416 C92.30635509 88.33314946 91.80780407 90.47499248 89.74119568 93.61558533 C85.57194122 96.3833333 82.40124781 96.33563731 77.49609375 96.27807617 C76.11716194 96.29121857 76.11716194 96.29121857 74.71037292 96.30462646 C71.67687541 96.32660203 68.64484001 96.31207401 65.61132812 96.29516602 C63.50052613 96.29853467 61.38972602 96.3033877 59.27893066 96.30966187 C54.85715245 96.31703072 50.43587958 96.30632693 46.01416016 96.28295898 C40.34771756 96.25447162 34.68245903 96.27087546 29.01605988 96.3008213 C24.65797004 96.31889369 20.30016069 96.31313643 15.94206238 96.30018234 C13.85287842 96.29684819 11.76366894 96.30093572 9.67451477 96.31258011 C6.75367844 96.32528751 3.83475632 96.30591287 0.9140625 96.27807617 C0.05157394 96.28819733 -0.81091461 96.29831848 -1.69953918 96.30874634 C-5.82120295 96.23601491 -7.82441398 95.94449169 -11.33103943 93.6088562 C-13.83139306 89.81767473 -13.99288277 86.73721318 -13.92602539 82.34008789 C-13.93318069 81.51833572 -13.940336 80.69658356 -13.94770813 79.84992981 C-13.9645792 77.14100079 -13.94520278 74.43373048 -13.92382812 71.72485352 C-13.92465697 69.83825544 -13.92711696 67.95165745 -13.93113708 66.06506348 C-13.93399399 62.1140363 -13.91930442 58.16357634 -13.8918457 54.21264648 C-13.85776309 49.15163277 -13.86378214 44.09163324 -13.88250828 39.03057098 C-13.89308377 35.13571745 -13.88413545 31.24109935 -13.86912346 27.3462677 C-13.86394522 25.48037923 -13.8644191 23.61446613 -13.87066841 21.74858093 C-13.87612729 19.13922376 -13.85572493 16.53131159 -13.82836914 13.92211914 C-13.83489502 13.15313797 -13.8414209 12.3841568 -13.84814453 11.59187317 C-13.78739032 8.17874655 -13.3430889 5.72988931 -11.84251404 2.65235901 C-8.03718614 -0.36678198 -4.73249612 -0.06242781 0 0 Z " fill="#2496ED" transform="translate(802.294921875,226.368896484375)"/>
<path d="M0 0 C1.37893181 -0.0131424 1.37893181 -0.0131424 2.78572083 -0.02655029 C5.81921834 -0.04852586 8.85125374 -0.03399783 11.88476562 -0.01708984 C13.99556762 -0.0204585 16.10636773 -0.02531153 18.21716309 -0.03158569 C22.6389413 -0.03895454 27.06021417 -0.02825076 31.48193359 -0.00488281 C37.14837619 0.02360455 42.81363472 0.00720071 48.48003387 -0.02274513 C52.83812371 -0.04081751 57.19593306 -0.03506026 61.55403137 -0.02210617 C63.64321533 -0.01877202 65.73242481 -0.02285955 67.82157898 -0.03450394 C70.74241531 -0.04721133 73.66133743 -0.0278367 76.58203125 0 C77.44451981 -0.01012115 78.30700836 -0.02024231 79.19563293 -0.03067017 C83.3172967 0.04206126 85.32050773 0.33358448 88.82713318 2.66921997 C91.32748681 6.46040144 91.48897652 9.54086299 91.42211914 13.93798828 C91.42927444 14.75974045 91.43642975 15.58149261 91.44380188 16.42814636 C91.46067295 19.13707538 91.44129653 21.8443457 91.41992188 24.55322266 C91.42075072 26.43982073 91.42321071 28.32641873 91.42723083 30.2130127 C91.43008774 34.16403988 91.41539817 38.11449984 91.38793945 42.06542969 C91.35385684 47.1264434 91.35987589 52.18644293 91.37860203 57.24750519 C91.38917752 61.14235872 91.3802292 65.03697682 91.36521721 68.93180847 C91.36003897 70.79769695 91.36051285 72.66361004 91.36676216 74.52949524 C91.37222104 77.13885241 91.35181868 79.74676458 91.32446289 82.35595703 C91.33098877 83.1249382 91.33751465 83.89391937 91.34423828 84.686203 C91.28348407 88.09932962 90.83918265 90.54818687 89.33860779 93.62571716 C85.53327989 96.64485815 82.22858987 96.34050399 77.49609375 96.27807617 C76.08571083 96.28880913 76.08571083 96.28880913 74.64683533 96.29975891 C71.5381515 96.31667054 68.43090476 96.29722847 65.32226562 96.27587891 C63.16279989 96.27670737 61.00333422 96.27916592 58.84387207 96.28318787 C54.31775942 96.28604757 49.79214115 96.27132742 45.26611328 96.24389648 C39.46178856 96.20981384 33.65834805 96.21583052 27.85398102 96.23455906 C23.39472065 96.24512297 18.93566637 96.23619668 14.47642517 96.22117424 C12.33618278 96.21598752 10.19591891 96.21648014 8.05567932 96.22271919 C5.06529394 96.22816391 2.07617825 96.20781953 -0.9140625 96.18041992 C-2.24359703 96.19020874 -2.24359703 96.19020874 -3.59999084 96.20019531 C-7.26816237 96.14298731 -9.56637202 96.02950173 -12.75657654 94.13046265 C-14.81645217 90.60825602 -14.77554851 87.34573017 -14.74243164 83.37768555 C-14.75104721 82.54632584 -14.75966278 81.71496613 -14.76853943 80.8584137 C-14.79123137 78.11183485 -14.78445452 75.36627373 -14.77539062 72.61962891 C-14.78062505 70.70917965 -14.78690086 68.79873299 -14.79417419 66.88829041 C-14.80458455 62.88430623 -14.80000821 58.8806773 -14.78540039 54.87670898 C-14.76821761 49.74719199 -14.79169815 44.61879564 -14.82688999 39.48940372 C-14.8488586 35.54394618 -14.84742372 31.59875696 -14.83912468 27.65325737 C-14.83830475 25.7622295 -14.84517615 23.87118202 -14.85989571 21.98021126 C-14.87733059 19.3346601 -14.8628089 16.69112461 -14.84008789 14.0456543 C-14.85178009 13.26575134 -14.86347229 12.48584839 -14.8755188 11.68231201 C-14.81026134 7.94492672 -14.31171032 5.80308369 -12.24510193 2.66249084 C-8.07584747 -0.10525713 -4.90515406 -0.05756114 0 0 Z " fill="#2496ED" transform="translate(557.208984375,112.35302734375)"/>
<path d="M0 0 C1.37893181 -0.0131424 1.37893181 -0.0131424 2.78572083 -0.02655029 C5.81921834 -0.04852586 8.85125374 -0.03399783 11.88476562 -0.01708984 C13.99556762 -0.0204585 16.10636773 -0.02531153 18.21716309 -0.03158569 C22.6389413 -0.03895454 27.06021417 -0.02825076 31.48193359 -0.00488281 C37.14837619 0.02360455 42.81363472 0.00720071 48.48003387 -0.02274513 C52.83812371 -0.04081751 57.19593306 -0.03506026 61.55403137 -0.02210617 C63.64321533 -0.01877202 65.73242481 -0.02285955 67.82157898 -0.03450394 C70.74241531 -0.04721133 73.66133743 -0.0278367 76.58203125 0 C77.44451981 -0.01012115 78.30700836 -0.02024231 79.19563293 -0.03067017 C83.3172967 0.04206126 85.32050773 0.33358448 88.82713318 2.66921997 C91.32748681 6.46040144 91.48897652 9.54086299 91.42211914 13.93798828 C91.42927444 14.75974045 91.43642975 15.58149261 91.44380188 16.42814636 C91.46067295 19.13707538 91.44129653 21.8443457 91.41992188 24.55322266 C91.42075072 26.43982073 91.42321071 28.32641873 91.42723083 30.2130127 C91.43008774 34.16403988 91.41539817 38.11449984 91.38793945 42.06542969 C91.35385684 47.1264434 91.35987589 52.18644293 91.37860203 57.24750519 C91.38917752 61.14235872 91.3802292 65.03697682 91.36521721 68.93180847 C91.36003897 70.79769695 91.36051285 72.66361004 91.36676216 74.52949524 C91.37222104 77.13885241 91.35181868 79.74676458 91.32446289 82.35595703 C91.33098877 83.1249382 91.33751465 83.89391937 91.34423828 84.686203 C91.2834889 88.09905876 90.8394727 90.54762509 89.33860779 93.62472534 C85.53477613 96.64416011 82.22832445 96.34798186 77.49609375 96.29394531 C76.55583847 96.30270691 75.61558319 96.31146851 74.64683533 96.32049561 C71.53817628 96.34250589 68.43093918 96.32793068 65.32226562 96.31103516 C63.16279833 96.31440281 61.00333287 96.319255 58.84387207 96.32553101 C54.31776892 96.33290457 49.7921591 96.32218085 45.26611328 96.29882812 C39.46166977 96.27034056 33.65838211 96.28674187 27.85398102 96.31669044 C23.39470699 96.33475007 18.93570743 96.32901142 14.47642517 96.31605148 C12.33617517 96.3127138 10.19590032 96.31681723 8.05567932 96.32844925 C5.06509308 96.34113558 2.07638376 96.32181124 -0.9140625 96.29394531 C-1.80041885 96.30406647 -2.68677521 96.31418762 -3.59999084 96.32461548 C-7.59962181 96.25549928 -9.55777616 96.16389372 -12.75657654 93.62472534 C-14.61097346 89.8228074 -14.77758646 86.49844743 -14.74243164 82.35595703 C-14.75104721 81.53420486 -14.75966278 80.7124527 -14.76853943 79.86579895 C-14.7911901 77.15711722 -14.78446289 74.44947076 -14.77539062 71.74072266 C-14.78062634 69.85412285 -14.78690263 67.96752567 -14.79417419 66.08093262 C-14.80457651 62.1300015 -14.80001894 58.1794306 -14.78540039 54.22851562 C-14.76820614 49.1674034 -14.79171646 44.10742576 -14.82688999 39.04644012 C-14.84885729 35.15159595 -14.84742426 31.2570236 -14.83912468 27.36213684 C-14.83830492 25.49622859 -14.84517303 23.63030042 -14.85989571 21.76445007 C-14.87733124 19.15492107 -14.86280932 16.54743533 -14.84008789 13.93798828 C-14.85178009 13.16900711 -14.86347229 12.40002594 -14.8755188 11.60774231 C-14.80979974 7.89512525 -14.30105213 5.78657113 -12.24510193 2.66921997 C-8.07622917 -0.10751432 -4.90909824 -0.05760742 0 0 Z " fill="#2496ED" transform="translate(433.208984375,112.35302734375)"/>
<path d="M0 0 C3.38261913 2.25507942 6.09172903 4.15755385 7.8125 7.875 C8.72581151 12.81924276 9.00657095 17.58570503 6.6328125 22.13671875 C3.89727254 25.5171658 1.14195549 27.94725954 -3.1875 28.875 C-8.82210206 29.32219064 -12.33656044 29.07221016 -17.1875 25.875 C-21.31462836 21.41323961 -22.50329995 18.04705257 -22.40234375 11.93359375 C-21.92879167 7.39610378 -19.96475298 4.593959 -16.6875 1.5625 C-11.42951678 -1.98663867 -5.82786516 -2.05689359 0 0 Z M-16.1875 7.875 C-17.75221233 11.00442465 -17.88451958 14.48582223 -17.1875 17.875 C-15.8675 19.195 -14.5475 20.515 -13.1875 21.875 C-12.8575 16.925 -12.5275 11.975 -12.1875 6.875 C-3.4375 6.75 -3.4375 6.75 -1.1875 7.875 C-1.0625 12.625 -1.0625 12.625 -2.1875 14.875 C-1.58171747 16.89427511 -0.91830266 18.89753397 -0.1875 20.875 C0.4725 20.875 1.1325 20.875 1.8125 20.875 C4.04494396 16.54143232 4.07054803 13.57171265 2.8125 8.875 C-0.1896795 5.33396777 -2.295598 3.13298664 -6.9375 2.5 C-11.4628858 3.0221599 -12.9546103 4.71729378 -16.1875 7.875 Z M-8.1875 9.875 C-8.1875 10.865 -8.1875 11.855 -8.1875 12.875 C-7.1975 12.545 -6.2075 12.215 -5.1875 11.875 C-5.1875 11.215 -5.1875 10.555 -5.1875 9.875 C-6.1775 9.875 -7.1675 9.875 -8.1875 9.875 Z M-9.1875 15.875 C-9.1875 17.855 -9.1875 19.835 -9.1875 21.875 C-10.5075 22.205 -11.8275 22.535 -13.1875 22.875 C-10.3653917 24.79403365 -9.05848068 24.86610212 -5.5625 24.625 C-2.13477116 24.18018815 -2.13477116 24.18018815 -0.1875 21.875 C-1.5075 21.875 -2.8275 21.875 -4.1875 21.875 C-4.8475 19.895 -5.5075 17.915 -6.1875 15.875 C-7.1775 15.875 -8.1675 15.875 -9.1875 15.875 Z " fill="#2496ED" transform="translate(1246.1875,1096.125)"/>
</svg>
