<?xml version="1.0" encoding="UTF-8"?>
<!DOCTYPE svg PUBLIC "-//W3C//DTD SVG 1.1//EN" "http://www.w3.org/Graphics/SVG/1.1/DTD/svg11.dtd">
<svg xmlns="http://www.w3.org/2000/svg" version="1.1" width="2048px" height="2048px" style="shape-rendering:geometricPrecision; text-rendering:geometricPrecision; image-rendering:optimizeQuality; fill-rule:evenodd; clip-rule:evenodd" xmlns:xlink="http://www.w3.org/1999/xlink">
<g><path style="opacity:0.999" fill="#5c2d91" d="M 978.5,-0.5 C 1008.5,-0.5 1038.5,-0.5 1068.5,-0.5C 1331.76,14.5073 1557.43,113.341 1745.5,296C 1931.34,484.929 2032.01,712.429 2047.5,978.5C 2047.5,1008.5 2047.5,1038.5 2047.5,1068.5C 2032.36,1333.02 1932.7,1559.35 1748.5,1747.5C 1747.47,1747.1 1747.31,1746.44 1748,1745.5C 1752.2,1741.63 1756.03,1737.47 1759.5,1733C 1576.3,1549.97 1393.3,1366.8 1210.5,1183.5C 1251.5,1183.5 1292.5,1183.5 1333.5,1183.5C 1333.5,1162.17 1333.5,1140.83 1333.5,1119.5C 1270.83,1119.5 1208.17,1119.5 1145.5,1119.5C 1128.5,1101.83 1111.17,1084.5 1093.5,1067.5C 1093.5,1017.5 1093.5,967.5 1093.5,917.5C 1163.5,917.5 1233.5,917.5 1303.5,917.5C 1303.5,896.833 1303.5,876.167 1303.5,855.5C 1233.5,855.5 1163.5,855.5 1093.5,855.5C 1093.5,791.167 1093.5,726.833 1093.5,662.5C 1168.83,662.5 1244.17,662.5 1319.5,662.5C 1319.5,641.5 1319.5,620.5 1319.5,599.5C 1220.67,599.167 1122,599.501 1023.5,600.5C 1023.5,732.5 1023.5,864.5 1023.5,996.5C 973.167,946.5 922.833,896.5 872.5,846.5C 872.5,764.167 872.5,681.833 872.5,599.5C 849.5,599.5 826.5,599.5 803.5,599.5C 803.5,658.5 803.5,717.5 803.5,776.5C 640.201,613.701 477.035,450.701 314,287.5C 308.839,291.661 304.006,296.161 299.5,301C 298.255,301.791 296.922,302.291 295.5,302.5C 458.932,139.118 655.932,40.9518 886.5,8C 917.229,4.16284 947.896,1.3295 978.5,-0.5 Z"/></g>
<g><path style="opacity:1" fill="#6d429c" d="M 803.5,776.5 C 803.167,864.335 803.501,952.002 804.5,1039.5C 804.475,1056.56 805.475,1073.56 807.5,1090.5C 807.167,1092.17 806.833,1093.83 806.5,1095.5C 701.916,930.664 597.083,765.997 492,601.5C 462.24,600.505 432.407,600.171 402.5,600.5C 402.5,794.833 402.5,989.167 402.5,1183.5C 425.167,1183.5 447.833,1183.5 470.5,1183.5C 470.667,1027.83 470.5,872.166 470,716.5C 469.665,704.789 468.831,693.123 467.5,681.5C 468.5,681.5 469.5,681.5 470.5,681.5C 475.072,694.916 481.239,707.583 489,719.5C 588.697,873.699 688.197,1028.03 787.5,1182.5C 815.492,1183.5 843.492,1183.83 871.5,1183.5C 872.5,1071.33 872.833,959.001 872.5,846.5C 922.833,896.5 973.167,946.5 1023.5,996.5C 1023.5,1058.83 1023.5,1121.17 1023.5,1183.5C 1085.83,1183.5 1148.17,1183.5 1210.5,1183.5C 1393.3,1366.8 1576.3,1549.97 1759.5,1733C 1756.03,1737.47 1752.2,1741.63 1748,1745.5C 1747.31,1746.44 1747.47,1747.1 1748.5,1747.5C 1736.53,1759.14 1724.53,1770.81 1712.5,1782.5C 1529,1945.36 1314,2033.69 1067.5,2047.5C 1038.17,2047.5 1008.83,2047.5 979.5,2047.5C 703.759,2031.52 470.259,1924.85 279,1727.5C 106.727,1541.85 13.5604,1321.85 -0.5,1067.5C -0.5,1037.83 -0.5,1008.17 -0.5,978.5C 13.2065,732.549 101.54,518.216 264.5,335.5C 266.587,334.415 267.92,332.749 268.5,330.5C 277.5,321.167 286.5,311.833 295.5,302.5C 296.922,302.291 298.255,301.791 299.5,301C 304.006,296.161 308.839,291.661 314,287.5C 477.035,450.701 640.201,613.701 803.5,776.5 Z"/></g>
<g><path style="opacity:0.231" fill="#c3b0d6" d="M 268.5,330.5 C 267.92,332.749 266.587,334.415 264.5,335.5C 264.5,335.167 264.5,334.833 264.5,334.5C 265.5,332.833 266.833,331.5 268.5,330.5 Z"/></g>
<g><path style="opacity:0.098" fill="#fefefe" d="M 264.5,334.5 C 264.5,334.833 264.5,335.167 264.5,335.5C 101.54,518.216 13.2065,732.549 -0.5,978.5C -0.5,921.5 -0.5,864.5 -0.5,807.5C 40.9235,644.628 116.423,500.294 226,374.5C 238.158,360.516 250.992,347.183 264.5,334.5 Z"/></g>
<g><path style="opacity:1" fill="#fefefe" d="M 804.5,1039.5 C 804.5,893.167 804.5,746.833 804.5,600.5C 826.833,600.5 849.167,600.5 871.5,600.5C 871.5,794.833 871.5,989.167 871.5,1183.5C 843.492,1183.83 815.492,1183.5 787.5,1182.5C 688.197,1028.03 588.697,873.699 489,719.5C 481.239,707.583 475.072,694.916 470.5,681.5C 469.5,681.5 468.5,681.5 467.5,681.5C 468.831,693.123 469.665,704.789 470,716.5C 470.5,872.166 470.667,1027.83 470.5,1183.5C 447.833,1183.5 425.167,1183.5 402.5,1183.5C 402.5,989.167 402.5,794.833 402.5,600.5C 432.407,600.171 462.24,600.505 492,601.5C 597.083,765.997 701.916,930.664 806.5,1095.5C 806.833,1093.83 807.167,1092.17 807.5,1090.5C 805.475,1073.56 804.475,1056.56 804.5,1039.5 Z"/></g>
<g><path style="opacity:1" fill="#fefefe" d="M 1023.5,600.5 C 1121.83,600.5 1220.17,600.5 1318.5,600.5C 1318.5,620.833 1318.5,641.167 1318.5,661.5C 1243.33,661.167 1168.33,661.501 1093.5,662.5C 1093.5,726.833 1093.5,791.167 1093.5,855.5C 1163.5,855.5 1233.5,855.5 1303.5,855.5C 1303.5,876.167 1303.5,896.833 1303.5,917.5C 1233.5,917.5 1163.5,917.5 1093.5,917.5C 1093.5,967.5 1093.5,1017.5 1093.5,1067.5C 1093.5,1084.83 1093.5,1102.17 1093.5,1119.5C 1110.83,1119.5 1128.17,1119.5 1145.5,1119.5C 1208.17,1119.5 1270.83,1119.5 1333.5,1119.5C 1333.5,1140.83 1333.5,1162.17 1333.5,1183.5C 1292.5,1183.5 1251.5,1183.5 1210.5,1183.5C 1148.17,1183.5 1085.83,1183.5 1023.5,1183.5C 1023.5,1121.17 1023.5,1058.83 1023.5,996.5C 1023.5,864.5 1023.5,732.5 1023.5,600.5 Z"/></g>
<g><path style="opacity:1" fill="#ab92c6" d="M 1023.5,600.5 C 1122,599.501 1220.67,599.167 1319.5,599.5C 1319.5,620.5 1319.5,641.5 1319.5,662.5C 1244.17,662.5 1168.83,662.5 1093.5,662.5C 1168.33,661.501 1243.33,661.167 1318.5,661.5C 1318.5,641.167 1318.5,620.833 1318.5,600.5C 1220.17,600.5 1121.83,600.5 1023.5,600.5 Z"/></g>
<g><path style="opacity:1" fill="#fefffe" d="M 1791.5,661.5 C 1734.83,661.5 1678.17,661.5 1621.5,661.5C 1621.5,835.5 1621.5,1009.5 1621.5,1183.5C 1599.17,1183.5 1576.83,1183.5 1554.5,1183.5C 1554.5,1009.5 1554.5,835.5 1554.5,661.5C 1498.5,661.5 1442.5,661.5 1386.5,661.5C 1386.5,641.167 1386.5,620.833 1386.5,600.5C 1521.5,600.5 1656.5,600.5 1791.5,600.5C 1791.5,620.833 1791.5,641.167 1791.5,661.5 Z"/></g>
<g><path style="opacity:1" fill="#cdbedd" d="M 1386.5,661.5 C 1442.5,661.5 1498.5,661.5 1554.5,661.5C 1554.5,835.5 1554.5,1009.5 1554.5,1183.5C 1553.5,1010 1553.17,836.334 1553.5,662.5C 1497.66,662.832 1442,662.499 1386.5,661.5 Z"/></g>
<g><path style="opacity:1" fill="#9d81bd" d="M 1791.5,661.5 C 1735.34,662.499 1679,662.832 1622.5,662.5C 1622.83,836.334 1622.5,1010 1621.5,1183.5C 1621.5,1009.5 1621.5,835.5 1621.5,661.5C 1678.17,661.5 1734.83,661.5 1791.5,661.5 Z"/></g>
<g><path style="opacity:1" fill="#baa6d0" d="M 872.5,846.5 C 872.833,959.001 872.5,1071.33 871.5,1183.5C 871.5,989.167 871.5,794.833 871.5,600.5C 849.167,600.5 826.833,600.5 804.5,600.5C 804.5,746.833 804.5,893.167 804.5,1039.5C 803.501,952.002 803.167,864.335 803.5,776.5C 803.5,717.5 803.5,658.5 803.5,599.5C 826.5,599.5 849.5,599.5 872.5,599.5C 872.5,681.833 872.5,764.167 872.5,846.5 Z"/></g>
<g><path style="opacity:1" fill="#6c419b" d="M 1093.5,1067.5 C 1111.17,1084.5 1128.5,1101.83 1145.5,1119.5C 1128.17,1119.5 1110.83,1119.5 1093.5,1119.5C 1093.5,1102.17 1093.5,1084.83 1093.5,1067.5 Z"/></g>
<g><path style="opacity:0.101" fill="#fefefe" d="M -0.5,1067.5 C 13.5604,1321.85 106.727,1541.85 279,1727.5C 470.259,1924.85 703.759,2031.52 979.5,2047.5C 903.5,2047.5 827.5,2047.5 751.5,2047.5C 503.528,1983.33 305.028,1847.67 156,1640.5C 83.0476,1535.57 30.8809,1420.91 -0.5,1296.5C -0.5,1220.17 -0.5,1143.83 -0.5,1067.5 Z"/></g>
<g><path style="opacity:1" fill="#fefdfe" d="M 226.5,1100.5 C 254.318,1098.14 272.484,1110.14 281,1136.5C 283.815,1162.71 272.982,1180.55 248.5,1190C 219.589,1194.96 200.755,1183.46 192,1155.5C 189.047,1127.98 200.547,1109.64 226.5,1100.5 Z"/></g>
<g><path style="opacity:1" fill="#f0f0f1" d="M 835.5,1330.5 C 835.828,1341.01 835.494,1351.35 834.5,1361.5C 800.06,1344.19 764.727,1342.02 728.5,1355C 696.989,1371.19 677.489,1396.69 670,1431.5C 662.071,1470.42 669.737,1505.75 693,1537.5C 718.754,1563.97 749.921,1573.8 786.5,1567C 803.868,1564.88 820.035,1559.38 835,1550.5C 835.832,1560.52 835.666,1570.52 834.5,1580.5C 803.629,1594.64 771.296,1599.48 737.5,1595C 679.261,1581.76 645.428,1545.59 636,1486.5C 627.813,1432.72 643.313,1387.22 682.5,1350C 721.256,1320.2 764.59,1311.2 812.5,1323C 820.356,1325.04 828.023,1327.54 835.5,1330.5 Z"/></g>
<g><path style="opacity:1" fill="#ac95c5" d="M 835.5,1330.5 C 836.823,1341.01 836.823,1351.67 835.5,1362.5C 834.893,1362.38 834.56,1362.04 834.5,1361.5C 835.494,1351.35 835.828,1341.01 835.5,1330.5 Z"/></g>
<g><path style="opacity:1" fill="#f0f0f1" d="M 952.5,1393.5 C 979.364,1389.73 1004.03,1395.23 1026.5,1410C 1045.62,1426.05 1057.12,1446.55 1061,1471.5C 1065.12,1500.63 1060.12,1527.97 1046,1553.5C 1020.74,1588.69 986.571,1602.19 943.5,1594C 903.716,1582.55 880.55,1556.38 874,1515.5C 867.997,1479.9 876.331,1448.24 899,1420.5C 914.375,1406.56 932.209,1397.56 952.5,1393.5 Z"/></g>
<g><path style="opacity:1" fill="#f1f0f1" d="M 1306.5,1394.5 C 1359.46,1391.28 1389.96,1415.95 1398,1468.5C 1398.5,1480.16 1398.67,1491.83 1398.5,1503.5C 1353.5,1503.5 1308.5,1503.5 1263.5,1503.5C 1262.95,1521.68 1268.12,1538.02 1279,1552.5C 1299.25,1570.49 1322.42,1575.32 1348.5,1567C 1361.69,1563.32 1373.53,1557.15 1384,1548.5C 1384.67,1558.17 1384.67,1567.83 1384,1577.5C 1364.1,1590.3 1342.27,1596.3 1318.5,1595.5C 1269.98,1594.17 1241.15,1569.5 1232,1521.5C 1223.47,1478.44 1234.97,1441.94 1266.5,1412C 1278.6,1403.11 1291.93,1397.28 1306.5,1394.5 Z"/></g>
<g><path style="opacity:1" fill="#f1f1f1" d="M 1210.5,1398.5 C 1210.83,1409.01 1210.49,1419.35 1209.5,1429.5C 1181.06,1418.6 1160.89,1427.27 1149,1455.5C 1146.22,1462.27 1144.22,1469.27 1143,1476.5C 1142.5,1514.83 1142.33,1553.17 1142.5,1591.5C 1131.83,1591.5 1121.17,1591.5 1110.5,1591.5C 1110.5,1527.5 1110.5,1463.5 1110.5,1399.5C 1121.17,1399.5 1131.83,1399.5 1142.5,1399.5C 1142.33,1412.17 1142.5,1424.84 1143,1437.5C 1147.96,1423.41 1156.46,1411.91 1168.5,1403C 1181.86,1396.11 1195.86,1394.61 1210.5,1398.5 Z"/></g>
<g><path style="opacity:1" fill="#b09bc7" d="M 1210.5,1398.5 C 1211.82,1409.01 1211.82,1419.67 1210.5,1430.5C 1209.89,1430.38 1209.56,1430.04 1209.5,1429.5C 1210.49,1419.35 1210.83,1409.01 1210.5,1398.5 Z"/></g>
<g><path style="opacity:1" fill="#6d429c" d="M 958.5,1420.5 C 999.907,1418.73 1023.74,1438.4 1030,1479.5C 1033.68,1505.1 1028.68,1528.76 1015,1550.5C 998.951,1566.96 979.451,1573.46 956.5,1570C 928.857,1563.02 912.023,1545.52 906,1517.5C 900.08,1489.31 905.414,1463.65 922,1440.5C 932.215,1430.08 944.381,1423.42 958.5,1420.5 Z"/></g>
<g><path style="opacity:1" fill="#6d429c" d="M 1359.5,1477.5 C 1327.5,1477.5 1295.5,1477.5 1263.5,1477.5C 1263.5,1476.5 1263.5,1475.5 1263.5,1474.5C 1267.45,1451.39 1279.95,1434.72 1301,1424.5C 1333.68,1415.71 1355.02,1427.38 1365,1459.5C 1366.24,1465.43 1366.74,1471.43 1366.5,1477.5C 1364.17,1477.5 1361.83,1477.5 1359.5,1477.5 Z"/></g>
<g><path style="opacity:1" fill="#d2c8dd" d="M 1263.5,1474.5 C 1263.5,1475.5 1263.5,1476.5 1263.5,1477.5C 1295.5,1477.5 1327.5,1477.5 1359.5,1477.5C 1327.34,1478.5 1295,1478.83 1262.5,1478.5C 1262.23,1476.9 1262.57,1475.57 1263.5,1474.5 Z"/></g>
<g><path style="opacity:0.098" fill="#fefefe" d="M 1712.5,1782.5 C 1594.79,1898.41 1456.46,1981.24 1297.5,2031C 1278.08,2036.64 1258.75,2042.14 1239.5,2047.5C 1182.17,2047.5 1124.83,2047.5 1067.5,2047.5C 1314,2033.69 1529,1945.36 1712.5,1782.5 Z"/></g>
</svg>
