<?xml version="1.0" encoding="UTF-8"?>
<!DOCTYPE svg PUBLIC "-//W3C//DTD SVG 1.1//EN" "http://www.w3.org/Graphics/SVG/1.1/DTD/svg11.dtd">
<svg xmlns="http://www.w3.org/2000/svg" version="1.1" width="465px" height="465px" style="shape-rendering:geometricPrecision; text-rendering:geometricPrecision; image-rendering:optimizeQuality; fill-rule:evenodd; clip-rule:evenodd" xmlns:xlink="http://www.w3.org/1999/xlink">
<g><path style="opacity:0.62" fill="#919597" d="M 56.5,72.5 C 56.5,72.8333 56.5,73.1667 56.5,73.5C 48.5,73.5 40.5,73.5 32.5,73.5C 32.5,73.1667 32.5,72.8333 32.5,72.5C 40.5,71.1667 48.5,71.1667 56.5,72.5 Z"/></g>
<g><path style="opacity:0.102" fill="#e3e4e5" d="M 56.5,73.5 C 56.5,73.1667 56.5,72.8333 56.5,72.5C 71.837,72.3334 87.1703,72.5001 102.5,73C 108.175,74.1866 112.175,77.3533 114.5,82.5C 111.11,78.2859 106.777,75.4525 101.5,74C 86.5037,73.5001 71.5037,73.3334 56.5,73.5 Z"/></g>
<g><path style="opacity:0.032" fill="#f3f3f4" d="M 32.5,72.5 C 32.5,72.8333 32.5,73.1667 32.5,73.5C 22.1667,73.5 11.8333,73.5 1.5,73.5C 1.5,107.5 1.5,141.5 1.5,175.5C 0.501654,141.337 0.16832,107.004 0.5,72.5C 11.1667,72.5 21.8333,72.5 32.5,72.5 Z"/></g>
<g><path style="opacity:1" fill="#0c659a" d="M 32.5,73.5 C 40.5,73.5 48.5,73.5 56.5,73.5C 71.5037,73.3334 86.5037,73.5001 101.5,74C 106.777,75.4525 111.11,78.2859 114.5,82.5C 114.427,84.0269 115.094,85.0269 116.5,85.5C 117.275,90.7968 117.608,96.1301 117.5,101.5C 116.01,108.323 112.01,112.99 105.5,115.5C 95.4921,115.964 85.4921,116.631 75.5,117.5C 75.6236,118.107 75.9569,118.44 76.5,118.5C 82.7981,124.297 88.9648,130.297 95,136.5C 97.352,134.97 99.5187,133.303 101.5,131.5C 136.639,111.28 173.305,108.113 211.5,122C 213.879,122.716 215.879,123.883 217.5,125.5C 204.87,135.129 193.537,146.129 183.5,158.5C 174.513,157.615 165.513,157.448 156.5,158C 151.843,158.412 147.509,159.579 143.5,161.5C 111.949,172.57 92.9487,194.57 86.5,227.5C 85.0033,231.223 84.3367,235.223 84.5,239.5C 84.2942,243.469 84.9608,247.135 86.5,250.5C 88.1222,261.076 91.4555,271.076 96.5,280.5C 96.427,282.027 97.0937,283.027 98.5,283.5C 98.427,285.027 99.0937,286.027 100.5,286.5C 100.427,288.027 101.094,289.027 102.5,289.5C 109.038,299.373 117.705,306.707 128.5,311.5C 145.244,321.123 163.244,323.956 182.5,320C 202.538,316.409 218.538,306.576 230.5,290.5C 231.167,289.167 231.833,289.167 232.5,290.5C 235.379,295.873 239.712,299.707 245.5,302C 252.661,304.237 259.994,305.404 267.5,305.5C 269.385,307.053 270.385,309.053 270.5,311.5C 254.617,334.709 233.284,350.709 206.5,359.5C 202.896,359.049 199.896,360.049 197.5,362.5C 195.958,363.301 194.292,363.634 192.5,363.5C 189.721,363.279 187.054,363.612 184.5,364.5C 176.4,366.333 168.067,366.667 159.5,365.5C 156.713,364.523 153.713,364.19 150.5,364.5C 150.167,364.5 149.833,364.5 149.5,364.5C 147.735,363.539 145.735,363.205 143.5,363.5C 138.675,363.126 134.008,362.126 129.5,360.5C 126.691,358.103 123.358,356.77 119.5,356.5C 114.749,355.29 110.416,353.29 106.5,350.5C 106.027,349.094 105.027,348.427 103.5,348.5C 102.508,348.672 101.842,348.338 101.5,347.5C 101.027,346.094 100.027,345.427 98.5,345.5C 98.0269,344.094 97.0269,343.427 95.5,343.5C 94.4154,341.413 92.7488,340.08 90.5,339.5C 88.5956,339.262 87.2623,338.262 86.5,336.5C 85.4154,334.413 83.7488,333.08 81.5,332.5C 77.8333,329.5 74.5,326.167 71.5,322.5C 71.4456,320.368 70.4456,319.035 68.5,318.5C 58.0464,306.264 50.7131,292.264 46.5,276.5C 46.7406,274.102 46.0739,272.102 44.5,270.5C 43.962,268.883 43.6287,267.216 43.5,265.5C 43.678,261.878 43.0114,258.544 41.5,255.5C 41.5,254.5 41.5,253.5 41.5,252.5C 41.4283,241.817 41.7616,231.15 42.5,220.5C 42.7135,215.317 43.7135,210.317 45.5,205.5C 47.0739,203.898 47.7406,201.898 47.5,199.5C 49.3727,192.764 52.0394,186.43 55.5,180.5C 56.9063,180.027 57.573,179.027 57.5,177.5C 57.6596,175.847 58.3263,174.514 59.5,173.5C 60.9063,173.027 61.573,172.027 61.5,170.5C 63.5195,169.462 63.8528,168.128 62.5,166.5C 59.5,164.167 56.8333,161.5 54.5,158.5C 54.5123,155.858 53.179,154.525 50.5,154.5C 50.5123,151.858 49.179,150.525 46.5,150.5C 46.2172,149.711 45.7172,149.044 45,148.5C 44.5002,157.16 44.3336,165.827 44.5,174.5C 42.6614,181.671 38.3281,186.671 31.5,189.5C 25.1308,189.653 18.7974,189.32 12.5,188.5C 11.7377,186.738 10.4044,185.738 8.5,185.5C 4.69268,183.225 2.35935,179.892 1.5,175.5C 1.5,141.5 1.5,107.5 1.5,73.5C 11.8333,73.5 22.1667,73.5 32.5,73.5 Z"/></g>
<g><path style="opacity:0.192" fill="#c9d1d5" d="M 114.5,82.5 C 115.906,82.9731 116.573,83.9731 116.5,85.5C 115.094,85.0269 114.427,84.0269 114.5,82.5 Z"/></g>
<g><path style="opacity:0.814" fill="#93abbb" d="M 116.5,85.5 C 118.053,88.7184 119.053,92.2184 119.5,96C 119.299,98.1114 118.633,99.9448 117.5,101.5C 117.608,96.1301 117.275,90.7968 116.5,85.5 Z"/></g>
<g><path style="opacity:0.071" fill="#e5e7e9" d="M 217.5,125.5 C 215.879,123.883 213.879,122.716 211.5,122C 173.305,108.113 136.639,111.28 101.5,131.5C 117.166,121.108 134.5,114.941 153.5,113C 176.007,110.665 197.507,114.165 218,123.5C 218.692,124.437 218.525,125.103 217.5,125.5 Z"/></g>
<g><path style="opacity:0.071" fill="#e0ced8" d="M 281.5,113.5 C 290.349,113.174 299.016,113.507 307.5,114.5C 275.584,111.779 246.584,119.613 220.5,138C 212.194,145.294 204.194,152.794 196.5,160.5C 212.992,139.224 234.325,124.724 260.5,117C 267.363,114.967 274.363,113.801 281.5,113.5 Z"/></g>
<g><path style="opacity:1" fill="#fd67c3" d="M 307.5,114.5 C 332.94,117.416 355.607,126.749 375.5,142.5C 377.569,145.573 380.236,147.906 383.5,149.5C 385.766,153.436 388.766,156.769 392.5,159.5C 392.738,161.404 393.738,162.738 395.5,163.5C 395.738,165.404 396.738,166.738 398.5,167.5C 398.427,169.027 399.094,170.027 400.5,170.5C 400.427,172.027 401.094,173.027 402.5,173.5C 403.674,174.514 404.34,175.847 404.5,177.5C 405.659,181.151 407.326,184.485 409.5,187.5C 411.403,190.53 412.737,193.863 413.5,197.5C 413.259,199.898 413.926,201.898 415.5,203.5C 415.5,203.833 415.5,204.167 415.5,204.5C 415.41,207.152 416.076,209.485 417.5,211.5C 423.975,241.349 420.475,270.016 407,297.5C 404.64,302.24 401.807,306.574 398.5,310.5C 397.475,310.897 397.308,311.563 398,312.5C 401.333,315.833 404.667,319.167 408,322.5C 415.369,315.298 422.536,307.965 429.5,300.5C 440.744,294.38 451.077,295.713 460.5,304.5C 460.427,306.027 461.094,307.027 462.5,307.5C 463.167,308.167 463.833,308.833 464.5,309.5C 464.5,314.833 464.5,320.167 464.5,325.5C 457.214,335.12 449.214,344.12 440.5,352.5C 439.475,352.897 439.308,353.563 440,354.5C 446.702,361.369 453.535,368.036 460.5,374.5C 460.427,376.027 461.094,377.027 462.5,377.5C 463.167,378.167 463.833,378.833 464.5,379.5C 464.5,384.833 464.5,390.167 464.5,395.5C 462.229,400.771 458.562,404.771 453.5,407.5C 447.536,408.307 441.536,408.64 435.5,408.5C 433.407,407.955 431.407,407.122 429.5,406C 422.652,398.985 415.652,392.152 408.5,385.5C 400.316,393.185 391.983,400.685 383.5,408C 368.746,413.203 358.246,408.703 352,394.5C 351.502,391.518 351.335,388.518 351.5,385.5C 352.924,383.485 353.59,381.152 353.5,378.5C 353.328,377.508 353.662,376.842 354.5,376.5C 356.262,375.738 357.262,374.404 357.5,372.5C 364.298,366.203 370.965,359.703 377.5,353C 376.956,352.283 376.289,351.783 375.5,351.5C 372.52,348.856 369.52,346.189 366.5,343.5C 334.225,364.922 299.225,370.922 261.5,361.5C 261.047,360.542 260.381,359.708 259.5,359C 256.522,358.304 253.522,357.804 250.5,357.5C 248.421,357.029 246.421,356.363 244.5,355.5C 247.313,351.533 250.979,348.366 255.5,346C 258.371,343.297 261.038,340.464 263.5,337.5C 265.749,336.92 267.415,335.587 268.5,333.5C 270.58,331.427 272.246,329.093 273.5,326.5C 275.587,325.415 276.92,323.749 277.5,321.5C 302.882,325.147 325.882,319.314 346.5,304C 351.102,299.906 355.102,295.406 358.5,290.5C 360.262,289.738 361.262,288.404 361.5,286.5C 362.906,286.027 363.573,285.027 363.5,283.5C 365.25,282.341 366.25,280.674 366.5,278.5C 383.657,240.625 377.657,206.958 348.5,177.5C 348.027,176.094 347.027,175.427 345.5,175.5C 343.611,174.396 341.945,173.063 340.5,171.5C 340.027,170.094 339.027,169.427 337.5,169.5C 333.849,168.341 330.515,166.674 327.5,164.5C 327.047,163.542 326.381,162.708 325.5,162C 322.522,161.304 319.522,160.804 316.5,160.5C 285.737,153.976 258.737,161.31 235.5,182.5C 222.938,175.052 209.938,168.385 196.5,162.5C 195.227,161.743 195.227,161.077 196.5,160.5C 204.194,152.794 212.194,145.294 220.5,138C 246.584,119.613 275.584,111.779 307.5,114.5 Z"/></g>
<g><path style="opacity:0.713" fill="#58839d" d="M 105.5,115.5 C 102.493,117.175 99.1595,117.841 95.5,117.5C 88.9779,117.177 82.6446,117.51 76.5,118.5C 75.9569,118.44 75.6236,118.107 75.5,117.5C 85.4921,116.631 95.4921,115.964 105.5,115.5 Z"/></g>
<g><path style="opacity:0.007" fill="#eeeff0" d="M 76.5,118.5 C 82.6446,117.51 88.9779,117.177 95.5,117.5C 90.3491,118.327 85.0158,118.827 79.5,119C 84.5,124 89.5,129 94.5,134C 96.7154,133.244 99.0488,132.411 101.5,131.5C 99.5187,133.303 97.352,134.97 95,136.5C 88.9648,130.297 82.7981,124.297 76.5,118.5 Z"/></g>
<g><path style="opacity:0.082" fill="#e7dee3" d="M 281.5,113.5 C 317.05,109.553 348.384,119.22 375.5,142.5C 355.607,126.749 332.94,117.416 307.5,114.5C 299.016,113.507 290.349,113.174 281.5,113.5 Z"/></g>
<g><path style="opacity:0.004" fill="#e7dfe4" d="M 375.5,142.5 C 378.764,144.094 381.431,146.427 383.5,149.5C 380.236,147.906 377.569,145.573 375.5,142.5 Z"/></g>
<g><path style="opacity:0.969" fill="#7a9ab5" d="M 46.5,150.5 C 49.179,150.525 50.5123,151.858 50.5,154.5C 48.8333,153.5 47.5,152.167 46.5,150.5 Z"/></g>
<g><path style="opacity:0.973" fill="#7798b4" d="M 50.5,154.5 C 53.179,154.525 54.5123,155.858 54.5,158.5C 52.8333,157.5 51.5,156.167 50.5,154.5 Z"/></g>
<g><path style="opacity:0.295" fill="#c0c8cc" d="M 46.5,150.5 C 45.8333,158.5 45.1667,166.5 44.5,174.5C 44.3336,165.827 44.5002,157.16 45,148.5C 45.7172,149.044 46.2172,149.711 46.5,150.5 Z"/></g>
<g><path style="opacity:0.11" fill="#e2d3db" d="M 383.5,149.5 C 387.234,152.231 390.234,155.564 392.5,159.5C 388.766,156.769 385.766,153.436 383.5,149.5 Z"/></g>
<g><path style="opacity:0.008" fill="#d6dbde" d="M 183.5,158.5 C 175.346,158.734 167.013,158.901 158.5,159C 153.46,159.678 148.46,160.511 143.5,161.5C 147.509,159.579 151.843,158.412 156.5,158C 165.513,157.448 174.513,157.615 183.5,158.5 Z"/></g>
<g><path style="opacity:0.984" fill="#e485bd" d="M 316.5,160.5 C 319.522,160.804 322.522,161.304 325.5,162C 326.381,162.708 327.047,163.542 327.5,164.5C 323.605,163.538 319.939,162.204 316.5,160.5 Z"/></g>
<g><path style="opacity:0.396" fill="#d6c2ce" d="M 392.5,159.5 C 394.262,160.262 395.262,161.596 395.5,163.5C 393.738,162.738 392.738,161.404 392.5,159.5 Z"/></g>
<g><path style="opacity:0.392" fill="#d9c3d0" d="M 395.5,163.5 C 397.262,164.262 398.262,165.596 398.5,167.5C 396.738,166.738 395.738,165.404 395.5,163.5 Z"/></g>
<g><path style="opacity:0.141" fill="#dadee0" d="M 62.5,166.5 C 63.8528,168.128 63.5195,169.462 61.5,170.5C 61.8333,169.167 62.1667,167.833 62.5,166.5 Z"/></g>
<g><path style="opacity:0.169" fill="#ded5da" d="M 398.5,167.5 C 399.906,167.973 400.573,168.973 400.5,170.5C 399.094,170.027 398.427,169.027 398.5,167.5 Z"/></g>
<g><path style="opacity:0.49" fill="#d4a8c1" d="M 337.5,169.5 C 339.027,169.427 340.027,170.094 340.5,171.5C 338.973,171.573 337.973,170.906 337.5,169.5 Z"/></g>
<g><path style="opacity:0.094" fill="#dee1e3" d="M 61.5,170.5 C 61.573,172.027 60.9063,173.027 59.5,173.5C 59.427,171.973 60.0937,170.973 61.5,170.5 Z"/></g>
<g><path style="opacity:0.106" fill="#e6dfe3" d="M 400.5,170.5 C 401.906,170.973 402.573,171.973 402.5,173.5C 401.094,173.027 400.427,172.027 400.5,170.5 Z"/></g>
<g><path style="opacity:0.796" fill="#daa6c4" d="M 345.5,175.5 C 347.027,175.427 348.027,176.094 348.5,177.5C 346.973,177.573 345.973,176.906 345.5,175.5 Z"/></g>
<g><path style="opacity:0.141" fill="#ced5d9" d="M 57.5,177.5 C 57.573,179.027 56.9063,180.027 55.5,180.5C 55.427,178.973 56.0937,177.973 57.5,177.5 Z"/></g>
<g><path style="opacity:0.09" fill="#e3d4dd" d="M 404.5,177.5 C 407.207,180.247 408.873,183.58 409.5,187.5C 407.326,184.485 405.659,181.151 404.5,177.5 Z"/></g>
<g><path style="opacity:0.729" fill="#9eb2c0" d="M 8.5,185.5 C 10.4044,185.738 11.7377,186.738 12.5,188.5C 10.5956,188.262 9.26231,187.262 8.5,185.5 Z"/></g>
<g><path style="opacity:0.056" fill="#e4d8df" d="M 314.5,193.5 C 305.237,189.755 295.903,189.588 286.5,193C 284.63,195.04 282.63,196.873 280.5,198.5C 282.962,192.921 287.295,189.755 293.5,189C 300.024,187.989 306.357,188.655 312.5,191C 313.381,191.708 314.047,192.542 314.5,193.5 Z"/></g>
<g><path style="opacity:0.873" fill="#7e9eb8" d="M 12.5,188.5 C 18.7974,189.32 25.1308,189.653 31.5,189.5C 25.0074,192.365 18.6741,192.031 12.5,188.5 Z"/></g>
<g><path style="opacity:0.772" fill="#84a2b5" d="M 186.5,203.5 C 185.622,199.664 184.956,195.664 184.5,191.5C 174.167,191.5 163.833,191.5 153.5,191.5C 153.5,191.167 153.5,190.833 153.5,190.5C 163.987,189.506 174.654,189.172 185.5,189.5C 186.314,194.119 186.647,198.786 186.5,203.5 Z"/></g>
<g><path style="opacity:1" fill="#fc69c3" d="M 314.5,193.5 C 314.833,194.5 315.5,195.167 316.5,195.5C 317.584,198.004 318.917,200.337 320.5,202.5C 322.228,208.238 322.895,214.238 322.5,220.5C 316.69,221.49 310.69,221.823 304.5,221.5C 304.79,217.064 304.29,212.73 303,208.5C 299.914,206.78 297.581,207.447 296,210.5C 295.194,228.21 295.361,245.877 296.5,263.5C 296.414,264.496 296.748,265.329 297.5,266C 302.338,267.328 304.671,265.494 304.5,260.5C 305.488,255.36 305.821,250.026 305.5,244.5C 303.833,244.5 302.167,244.5 300.5,244.5C 300.5,239.5 300.5,234.5 300.5,229.5C 307.5,229.5 314.5,229.5 321.5,229.5C 321.5,246.833 321.5,264.167 321.5,281.5C 319.167,281.5 316.833,281.5 314.5,281.5C 313.463,280.07 312.796,278.403 312.5,276.5C 311.377,275.243 310.711,275.576 310.5,277.5C 308.807,280.682 306.141,282.348 302.5,282.5C 297.463,282.587 292.463,282.254 287.5,281.5C 287.027,280.094 286.027,279.427 284.5,279.5C 279.804,274.951 277.304,269.284 277,262.5C 276.333,244.5 276.333,226.5 277,208.5C 277.302,204.755 278.469,201.422 280.5,198.5C 282.63,196.873 284.63,195.04 286.5,193C 295.903,189.588 305.237,189.755 314.5,193.5 Z"/></g>
<g><path style="opacity:1" fill="#16679b" d="M 153.5,191.5 C 163.833,191.5 174.167,191.5 184.5,191.5C 184.956,195.664 185.622,199.664 186.5,203.5C 189.211,224.958 191.211,246.624 192.5,268.5C 192.307,272.566 192.64,276.566 193.5,280.5C 194.895,281.648 194.728,282.648 193,283.5C 187.067,282.852 181.234,282.186 175.5,281.5C 175.5,276.833 175.5,272.167 175.5,267.5C 171.5,267.5 167.5,267.5 163.5,267.5C 163.5,271.5 163.5,275.5 163.5,279.5C 163.688,281.103 163.188,282.437 162,283.5C 156.593,282.527 151.093,282.193 145.5,282.5C 145.5,278.833 145.5,275.167 145.5,271.5C 145.185,267.629 145.518,263.962 146.5,260.5C 147.983,253.721 148.65,246.721 148.5,239.5C 148.187,235.958 148.521,232.625 149.5,229.5C 150.936,223.053 151.603,216.386 151.5,209.5C 151.5,209.167 151.5,208.833 151.5,208.5C 152.737,203.04 153.404,197.373 153.5,191.5 Z M 168.5,220.5 C 170.406,230.63 171.739,240.964 172.5,251.5C 170.5,251.5 168.5,251.5 166.5,251.5C 167.078,241.16 167.745,230.826 168.5,220.5 Z"/></g>
<g><path style="opacity:0.004" fill="#f2f0f1" d="M 314.5,193.5 C 315.833,193.5 316.5,194.167 316.5,195.5C 315.5,195.167 314.833,194.5 314.5,193.5 Z"/></g>
<g><path style="opacity:0.6" fill="#b7c4ca" d="M 153.5,190.5 C 153.5,190.833 153.5,191.167 153.5,191.5C 153.404,197.373 152.737,203.04 151.5,208.5C 151.388,202.274 152.054,196.274 153.5,190.5 Z"/></g>
<g><path style="opacity:0.086" fill="#d2d8db" d="M 250.5,206.5 C 242.24,200.029 233.24,198.862 223.5,203C 221.266,205.063 219.266,207.229 217.5,209.5C 220.544,202.125 226.211,198.458 234.5,198.5C 239.695,198.463 244.361,199.963 248.5,203C 249.823,203.816 250.489,204.983 250.5,206.5 Z"/></g>
<g><path style="opacity:1" fill="#1e699c" d="M 250.5,206.5 C 255.466,218.419 252.633,228.419 242,236.5C 241.805,237.819 241.972,239.153 242.5,240.5C 242.312,242.103 242.812,243.437 244,244.5C 245.269,243.095 245.769,241.429 245.5,239.5C 247.67,238.162 249.336,236.328 250.5,234C 251.928,233.421 253.262,233.588 254.5,234.5C 254.427,236.027 255.094,237.027 256.5,237.5C 256.427,239.027 257.094,240.027 258.5,240.5C 258.833,241.833 259.167,243.167 259.5,244.5C 255.647,248.673 252.647,253.34 250.5,258.5C 249.322,260.338 249.655,262.005 251.5,263.5C 255.084,269.422 257.584,275.755 259,282.5C 258.667,282.833 258.333,283.167 258,283.5C 252.22,282.853 246.387,282.186 240.5,281.5C 240.137,280.817 239.804,280.15 239.5,279.5C 239.214,277.067 238.548,277.067 237.5,279.5C 237.027,280.906 236.027,281.573 234.5,281.5C 229.537,282.254 224.537,282.587 219.5,282.5C 215.246,281.415 212.413,278.748 211,274.5C 208.412,267.608 207.912,260.608 209.5,253.5C 210.924,251.485 211.59,249.152 211.5,246.5C 212.674,245.486 213.34,244.153 213.5,242.5C 214.906,242.027 215.573,241.027 215.5,239.5C 217.148,238.19 218.814,236.857 220.5,235.5C 221.776,234.386 221.776,233.386 220.5,232.5C 215.476,225.271 214.476,217.604 217.5,209.5C 219.266,207.229 221.266,205.063 223.5,203C 233.24,198.862 242.24,200.029 250.5,206.5 Z M 237.5,213.5 C 238.232,216.068 238.232,218.734 237.5,221.5C 236.883,221.611 236.383,221.944 236,222.5C 235.722,221.584 235.222,220.918 234.5,220.5C 234.338,218.473 234.505,216.473 235,214.5C 235.671,213.748 236.504,213.414 237.5,213.5 Z M 228.5,252.5 C 229.871,256.779 231.538,260.946 233.5,265C 232.748,265.671 232.414,266.504 232.5,267.5C 230.661,268.752 228.828,268.752 227,267.5C 226.333,263.167 226.333,258.833 227,254.5C 227.278,253.584 227.778,252.918 228.5,252.5 Z"/></g>
<g><path style="opacity:0.067" fill="#e1d0da" d="M 316.5,195.5 C 319.112,197.052 320.445,199.386 320.5,202.5C 318.917,200.337 317.584,198.004 316.5,195.5 Z"/></g>
<g><path style="opacity:0.894" fill="#dcaac7" d="M 413.5,197.5 C 414.738,199.214 415.405,201.214 415.5,203.5C 413.926,201.898 413.259,199.898 413.5,197.5 Z"/></g>
<g><path style="opacity:0.698" fill="#aebec8" d="M 47.5,199.5 C 47.7406,201.898 47.0739,203.898 45.5,205.5C 45.595,203.214 46.2616,201.214 47.5,199.5 Z"/></g>
<g><path style="opacity:0.624" fill="#d3a5c0" d="M 415.5,204.5 C 416.924,206.515 417.59,208.848 417.5,211.5C 416.076,209.485 415.41,207.152 415.5,204.5 Z"/></g>
<g><path style="opacity:0.106" fill="#bac7ce" d="M 237.5,213.5 C 236.504,213.414 235.671,213.748 235,214.5C 234.505,216.473 234.338,218.473 234.5,220.5C 233.371,218.372 233.204,216.039 234,213.5C 235.292,212.209 236.458,212.209 237.5,213.5 Z"/></g>
<g><path style="opacity:0.014" fill="#d5dbdf" d="M 168.5,206.5 C 169.29,207.609 169.79,208.942 170,210.5C 171.438,224.817 172.605,239.151 173.5,253.5C 170.833,253.5 168.167,253.5 165.5,253.5C 166.074,237.802 167.074,222.135 168.5,206.5 Z M 168.5,220.5 C 167.745,230.826 167.078,241.16 166.5,251.5C 168.5,251.5 170.5,251.5 172.5,251.5C 171.739,240.964 170.406,230.63 168.5,220.5 Z"/></g>
<g><path style="opacity:0.006" fill="#d3dade" d="M 237.5,213.5 C 238.649,213.791 239.316,214.624 239.5,216C 239.299,218.111 238.633,219.945 237.5,221.5C 238.232,218.734 238.232,216.068 237.5,213.5 Z"/></g>
<g><path style="opacity:0.624" fill="#b7c4cc" d="M 151.5,209.5 C 151.603,216.386 150.936,223.053 149.5,229.5C 149.521,222.626 150.187,215.959 151.5,209.5 Z"/></g>
<g><path style="opacity:0.427" fill="#c1a8b7" d="M 322.5,220.5 C 323.043,220.56 323.376,220.893 323.5,221.5C 317.012,222.817 310.678,222.817 304.5,221.5C 310.69,221.823 316.69,221.49 322.5,220.5 Z"/></g>
<g><path style="opacity:0.941" fill="#87a1b6" d="M 234.5,220.5 C 235.222,220.918 235.722,221.584 236,222.5C 236.383,221.944 236.883,221.611 237.5,221.5C 235.686,225.643 234.686,225.31 234.5,220.5 Z"/></g>
<g><path style="opacity:0.042" fill="#e1d6dd" d="M 322.5,229.5 C 322.167,229.5 321.833,229.5 321.5,229.5C 314.5,229.5 307.5,229.5 300.5,229.5C 300.167,229.5 299.833,229.5 299.5,229.5C 302.938,228.177 306.771,227.51 311,227.5C 315.229,227.51 319.062,228.177 322.5,229.5 Z"/></g>
<g><path style="opacity:0.086" fill="#cfd7db" d="M 254.5,234.5 C 253.262,233.588 251.928,233.421 250.5,234C 249.336,236.328 247.67,238.162 245.5,239.5C 246.905,236.025 249.238,233.359 252.5,231.5C 253.919,232.005 254.585,233.005 254.5,234.5 Z"/></g>
<g><path style="opacity:0.204" fill="#c9d0d4" d="M 254.5,234.5 C 255.906,234.973 256.573,235.973 256.5,237.5C 255.094,237.027 254.427,236.027 254.5,234.5 Z"/></g>
<g><path style="opacity:0.141" fill="#d8dee2" d="M 42.5,220.5 C 41.7616,231.15 41.4283,241.817 41.5,252.5C 40.8343,248.514 40.501,244.347 40.5,240C 40.3534,233.269 41.0201,226.769 42.5,220.5 Z"/></g>
<g><path style="opacity:0.106" fill="#e7e9ea" d="M 220.5,232.5 C 221.776,233.386 221.776,234.386 220.5,235.5C 218.814,236.857 217.148,238.19 215.5,239.5C 216.811,236.865 218.478,234.531 220.5,232.5 Z"/></g>
<g><path style="opacity:0.557" fill="#96aebe" d="M 86.5,227.5 C 85.3279,235.178 85.3279,242.844 86.5,250.5C 84.9608,247.135 84.2942,243.469 84.5,239.5C 84.3367,235.223 85.0033,231.223 86.5,227.5 Z"/></g>
<g><path style="opacity:0.161" fill="#d2d7da" d="M 256.5,237.5 C 257.906,237.973 258.573,238.973 258.5,240.5C 257.094,240.027 256.427,239.027 256.5,237.5 Z"/></g>
<g><path style="opacity:0.208" fill="#ced3d7" d="M 215.5,239.5 C 215.573,241.027 214.906,242.027 213.5,242.5C 213.427,240.973 214.094,239.973 215.5,239.5 Z"/></g>
<g><path style="opacity:0.941" fill="#94acbf" d="M 245.5,239.5 C 245.769,241.429 245.269,243.095 244,244.5C 242.812,243.437 242.312,242.103 242.5,240.5C 243.117,240.611 243.617,240.944 244,241.5C 244.278,240.584 244.778,239.918 245.5,239.5 Z"/></g>
<g><path style="opacity:0.055" fill="#e3e6e8" d="M 258.5,240.5 C 260.519,241.538 260.853,242.872 259.5,244.5C 259.167,243.167 258.833,241.833 258.5,240.5 Z"/></g>
<g><path style="opacity:0.055" fill="#d5dadd" d="M 213.5,242.5 C 213.34,244.153 212.674,245.486 211.5,246.5C 211.229,244.62 211.896,243.287 213.5,242.5 Z"/></g>
<g><path style="opacity:0.716" fill="#c482aa" d="M 299.5,229.5 C 299.833,229.5 300.167,229.5 300.5,229.5C 300.5,234.5 300.5,239.5 300.5,244.5C 302.167,244.5 303.833,244.5 305.5,244.5C 305.821,250.026 305.488,255.36 304.5,260.5C 304.5,255.5 304.5,250.5 304.5,245.5C 302.833,245.5 301.167,245.5 299.5,245.5C 299.5,240.167 299.5,234.833 299.5,229.5 Z"/></g>
<g><path style="opacity:0.439" fill="#a7b7c1" d="M 211.5,246.5 C 211.59,249.152 210.924,251.485 209.5,253.5C 209.41,250.848 210.076,248.515 211.5,246.5 Z"/></g>
<g><path style="opacity:0.907" fill="#dc66ae" d="M 321.5,229.5 C 321.833,229.5 322.167,229.5 322.5,229.5C 322.5,247.167 322.5,264.833 322.5,282.5C 319.615,282.806 316.948,282.473 314.5,281.5C 316.833,281.5 319.167,281.5 321.5,281.5C 321.5,264.167 321.5,246.833 321.5,229.5 Z"/></g>
<g><path style="opacity:0.006" fill="#e4e7e9" d="M 228.5,252.5 C 227.778,252.918 227.278,253.584 227,254.5C 226.333,258.833 226.333,263.167 227,267.5C 228.828,268.752 230.661,268.752 232.5,267.5C 230.862,270.874 228.696,271.207 226,268.5C 225.333,263.5 225.333,258.5 226,253.5C 226.919,250.598 227.752,250.265 228.5,252.5 Z"/></g>
<g><path style="opacity:0.475" fill="#c2ccd1" d="M 148.5,239.5 C 148.65,246.721 147.983,253.721 146.5,260.5C 146.578,253.3 147.245,246.3 148.5,239.5 Z"/></g>
<g><path style="opacity:0.098" fill="#bdc8ce" d="M 250.5,258.5 C 251.038,260.117 251.371,261.784 251.5,263.5C 249.655,262.005 249.322,260.338 250.5,258.5 Z"/></g>
<g><path style="opacity:0.007" fill="#e3e6e9" d="M 41.5,255.5 C 43.0114,258.544 43.678,261.878 43.5,265.5C 42.2154,262.411 41.5488,259.078 41.5,255.5 Z"/></g>
<g><path style="opacity:0.2" fill="#ded1d9" d="M 304.5,260.5 C 304.671,265.494 302.338,267.328 297.5,266C 296.748,265.329 296.414,264.496 296.5,263.5C 300.291,265.949 302.958,264.949 304.5,260.5 Z"/></g>
<g><path style="opacity:0.112" fill="#e0e3e5" d="M 175.5,281.5 C 174.676,277.688 174.176,273.688 174,269.5C 170.943,268.549 167.777,268.216 164.5,268.5C 164.815,272.371 164.482,276.038 163.5,279.5C 163.5,275.5 163.5,271.5 163.5,267.5C 167.5,267.5 171.5,267.5 175.5,267.5C 175.5,272.167 175.5,276.833 175.5,281.5 Z"/></g>
<g><path style="opacity:0.416" fill="#b9c6cd" d="M 44.5,270.5 C 46.0739,272.102 46.7406,274.102 46.5,276.5C 45.2616,274.786 44.595,272.786 44.5,270.5 Z"/></g>
<g><path style="opacity:0.141" fill="#ddcfd7" d="M 312.5,276.5 C 311.833,276.833 311.167,277.167 310.5,277.5C 310.711,275.576 311.377,275.243 312.5,276.5 Z"/></g>
<g><path style="opacity:0.631" fill="#b9c7cf" d="M 192.5,268.5 C 193.271,271.846 193.938,275.346 194.5,279C 194.43,279.765 194.097,280.265 193.5,280.5C 192.64,276.566 192.307,272.566 192.5,268.5 Z"/></g>
<g><path style="opacity:0.008" fill="#d3d9dc" d="M 239.5,279.5 C 238.833,279.5 238.167,279.5 237.5,279.5C 238.548,277.067 239.214,277.067 239.5,279.5 Z"/></g>
<g><path style="opacity:0.408" fill="#c8d0d5" d="M 145.5,271.5 C 145.5,275.167 145.5,278.833 145.5,282.5C 144.469,283.38 143.802,282.88 143.5,281C 144.05,277.676 144.717,274.509 145.5,271.5 Z"/></g>
<g><path style="opacity:0.463" fill="#d6b1c6" d="M 284.5,279.5 C 286.027,279.427 287.027,280.094 287.5,281.5C 285.973,281.573 284.973,280.906 284.5,279.5 Z"/></g>
<g><path style="opacity:0.071" fill="#e5dce1" d="M 366.5,278.5 C 366.25,280.674 365.25,282.341 363.5,283.5C 363.75,281.326 364.75,279.659 366.5,278.5 Z"/></g>
<g><path style="opacity:0.118" fill="#d9dde0" d="M 96.5,280.5 C 97.9063,280.973 98.573,281.973 98.5,283.5C 97.0937,283.027 96.427,282.027 96.5,280.5 Z"/></g>
<g><path style="opacity:0.902" fill="#7c9db5" d="M 234.5,281.5 C 233.063,282.725 231.396,283.725 229.5,284.5C 227.037,284.413 224.537,284.413 222,284.5C 221.005,283.934 220.172,283.267 219.5,282.5C 224.537,282.587 229.537,282.254 234.5,281.5 Z"/></g>
<g><path style="opacity:0.841" fill="#cb88af" d="M 287.5,281.5 C 292.463,282.254 297.463,282.587 302.5,282.5C 300.696,283.162 298.696,283.495 296.5,283.5C 293.186,283.657 290.186,282.991 287.5,281.5 Z"/></g>
<g><path style="opacity:0.114" fill="#e1e4e4" d="M 98.5,283.5 C 99.9063,283.973 100.573,284.973 100.5,286.5C 99.0937,286.027 98.427,285.027 98.5,283.5 Z"/></g>
<g><path style="opacity:0.184" fill="#dfd6dc" d="M 363.5,283.5 C 363.573,285.027 362.906,286.027 361.5,286.5C 361.427,284.973 362.094,283.973 363.5,283.5 Z"/></g>
<g><path style="opacity:0.188" fill="#d2d7da" d="M 100.5,286.5 C 101.906,286.973 102.573,287.973 102.5,289.5C 101.094,289.027 100.427,288.027 100.5,286.5 Z"/></g>
<g><path style="opacity:0.361" fill="#d9c6d1" d="M 361.5,286.5 C 361.262,288.404 360.262,289.738 358.5,290.5C 358.738,288.596 359.738,287.262 361.5,286.5 Z"/></g>
<g><path style="opacity:0.184" fill="#dee1e3" d="M 102.5,289.5 C 107.298,293.797 111.965,298.297 116.5,303C 120.742,305.61 124.742,308.443 128.5,311.5C 117.705,306.707 109.038,299.373 102.5,289.5 Z"/></g>
<g><path style="opacity:0.051" fill="#e9e2e6" d="M 460.5,304.5 C 451.077,295.713 440.744,294.38 429.5,300.5C 431.12,298.016 433.453,296.516 436.5,296C 444.119,294.451 451.119,295.784 457.5,300C 459.141,301.129 460.141,302.629 460.5,304.5 Z"/></g>
<g><path style="opacity:0.086" fill="#dadee1" d="M 232.5,290.5 C 241.638,300.164 252.971,304.664 266.5,304C 267.056,304.383 267.389,304.883 267.5,305.5C 259.994,305.404 252.661,304.237 245.5,302C 239.712,299.707 235.379,295.873 232.5,290.5 Z"/></g>
<g><path style="opacity:0.008" fill="#dadfe2" d="M 267.5,305.5 C 271.191,306.336 272.191,308.336 270.5,311.5C 270.385,309.053 269.385,307.053 267.5,305.5 Z"/></g>
<g><path style="opacity:0.208" fill="#dccdd6" d="M 460.5,304.5 C 461.906,304.973 462.573,305.973 462.5,307.5C 461.094,307.027 460.427,306.027 460.5,304.5 Z"/></g>
<g><path style="opacity:0.2" fill="#e2d7dd" d="M 429.5,300.5 C 422.536,307.965 415.369,315.298 408,322.5C 404.667,319.167 401.333,315.833 398,312.5C 397.308,311.563 397.475,310.897 398.5,310.5C 401.462,313.964 404.629,317.297 408,320.5C 414.756,313.239 421.922,306.572 429.5,300.5 Z"/></g>
<g><path style="opacity:0.067" fill="#dee2e3" d="M 230.5,290.5 C 218.538,306.576 202.538,316.409 182.5,320C 163.244,323.956 145.244,321.123 128.5,311.5C 167.41,327.936 201.41,320.936 230.5,290.5 Z"/></g>
<g><path style="opacity:0.047" fill="#e5dde2" d="M 358.5,290.5 C 355.102,295.406 351.102,299.906 346.5,304C 325.882,319.314 302.882,325.147 277.5,321.5C 277.415,320.005 278.081,319.005 279.5,318.5C 310.874,323.486 337.207,314.153 358.5,290.5 Z"/></g>
<g><path style="opacity:0.561" fill="#9eb3c2" d="M 68.5,318.5 C 70.4456,319.035 71.4456,320.368 71.5,322.5C 70.0256,321.564 69.0256,320.23 68.5,318.5 Z"/></g>
<g><path style="opacity:0.114" fill="#e3d8de" d="M 277.5,321.5 C 276.92,323.749 275.587,325.415 273.5,326.5C 274.08,324.251 275.413,322.585 277.5,321.5 Z"/></g>
<g><path style="opacity:0.137" fill="#e3d9df" d="M 273.5,326.5 C 272.246,329.093 270.58,331.427 268.5,333.5C 268.167,333.5 267.833,333.5 267.5,333.5C 268.757,330.573 270.757,328.239 273.5,326.5 Z"/></g>
<g><path style="opacity:0.702" fill="#a6b9c6" d="M 81.5,332.5 C 83.7488,333.08 85.4154,334.413 86.5,336.5C 84.2512,335.92 82.5846,334.587 81.5,332.5 Z"/></g>
<g><path style="opacity:0.827" fill="#db9fc2" d="M 267.5,333.5 C 267.833,333.5 268.167,333.5 268.5,333.5C 267.415,335.587 265.749,336.92 263.5,337.5C 264.5,335.833 265.833,334.5 267.5,333.5 Z"/></g>
<g><path style="opacity:0.914" fill="#89a3b7" d="M 90.5,339.5 C 92.7488,340.08 94.4154,341.413 95.5,343.5C 93.2512,342.92 91.5846,341.587 90.5,339.5 Z"/></g>
<g><path style="opacity:0.51" fill="#96acba" d="M 95.5,343.5 C 97.0269,343.427 98.0269,344.094 98.5,345.5C 96.9731,345.573 95.9731,344.906 95.5,343.5 Z"/></g>
<g><path style="opacity:0.373" fill="#a8b9c3" d="M 98.5,345.5 C 100.027,345.427 101.027,346.094 101.5,347.5C 99.9731,347.573 98.9731,346.906 98.5,345.5 Z"/></g>
<g><path style="opacity:0.125" fill="#e2dce0" d="M 263.5,337.5 C 261.038,340.464 258.371,343.297 255.5,346C 250.979,348.366 247.313,351.533 244.5,355.5C 243.209,354.458 243.209,353.292 244.5,352C 251.253,347.634 257.586,342.801 263.5,337.5 Z"/></g>
<g><path style="opacity:0.298" fill="#b1bfc8" d="M 103.5,348.5 C 105.027,348.427 106.027,349.094 106.5,350.5C 104.973,350.573 103.973,349.906 103.5,348.5 Z"/></g>
<g><path style="opacity:0.337" fill="#dfd6db" d="M 440.5,352.5 C 447.558,359.554 454.225,366.888 460.5,374.5C 453.535,368.036 446.702,361.369 440,354.5C 439.308,353.563 439.475,352.897 440.5,352.5 Z"/></g>
<g><path style="opacity:0.906" fill="#8fa8bb" d="M 119.5,356.5 C 123.358,356.77 126.691,358.103 129.5,360.5C 125.851,359.733 122.518,358.4 119.5,356.5 Z"/></g>
<g><path style="opacity:0.976" fill="#e58ac0" d="M 250.5,357.5 C 253.522,357.804 256.522,358.304 259.5,359C 260.381,359.708 261.047,360.542 261.5,361.5C 257.605,360.538 253.939,359.204 250.5,357.5 Z"/></g>
<g><path style="opacity:0.941" fill="#92aac0" d="M 206.5,359.5 C 203.785,361.072 200.785,362.072 197.5,362.5C 199.896,360.049 202.896,359.049 206.5,359.5 Z"/></g>
<g><path style="opacity:0.388" fill="#afbdc5" d="M 143.5,363.5 C 145.735,363.205 147.735,363.539 149.5,364.5C 147.444,365.161 145.444,364.828 143.5,363.5 Z"/></g>
<g><path style="opacity:0.055" fill="#e0e4e6" d="M 192.5,363.5 C 190.316,364.266 187.982,364.933 185.5,365.5C 184.893,365.376 184.56,365.043 184.5,364.5C 187.054,363.612 189.721,363.279 192.5,363.5 Z"/></g>
<g><path style="opacity:0.694" fill="#91a9b7" d="M 150.5,364.5 C 153.713,364.19 156.713,364.523 159.5,365.5C 156.361,366.338 153.361,366.005 150.5,364.5 Z"/></g>
<g><path style="opacity:0.122" fill="#edebec" d="M 375.5,351.5 C 376.289,351.783 376.956,352.283 377.5,353C 370.965,359.703 364.298,366.203 357.5,372.5C 363.5,365.5 369.5,358.5 375.5,351.5 Z"/></g>
<g><path style="opacity:0.396" fill="#d6c3ce" d="M 357.5,372.5 C 357.262,374.404 356.262,375.738 354.5,376.5C 354.738,374.596 355.738,373.262 357.5,372.5 Z"/></g>
<g><path style="opacity:0.204" fill="#ddcdd7" d="M 460.5,374.5 C 461.906,374.973 462.573,375.973 462.5,377.5C 461.094,377.027 460.427,376.027 460.5,374.5 Z"/></g>
<g><path style="opacity:0.686" fill="#d299bb" d="M 353.5,378.5 C 353.59,381.152 352.924,383.485 351.5,385.5C 351.41,382.848 352.076,380.515 353.5,378.5 Z"/></g>
<g><path style="opacity:0.916" fill="#e595c3" d="M 453.5,407.5 C 447.659,410.981 441.659,411.314 435.5,408.5C 441.536,408.64 447.536,408.307 453.5,407.5 Z"/></g>
</svg>
