<?xml version="1.0" encoding="UTF-8"?>
<!DOCTYPE svg PUBLIC "-//W3C//DTD SVG 1.1//EN" "http://www.w3.org/Graphics/SVG/1.1/DTD/svg11.dtd">
<svg xmlns="http://www.w3.org/2000/svg" version="1.1" width="400px" height="300px" style="shape-rendering:geometricPrecision; text-rendering:geometricPrecision; image-rendering:optimizeQuality; fill-rule:evenodd; clip-rule:evenodd" xmlns:xlink="http://www.w3.org/1999/xlink">
<g><path style="opacity:0.79" fill="#42a5f5" d="M 226.5,-0.5 C 258.167,-0.5 289.833,-0.5 321.5,-0.5C 256.188,65.479 190.521,131.146 124.5,196.5C 108.847,181.347 93.3472,166.014 78,150.5C 77.3333,149.833 77.3333,149.167 78,148.5C 127.701,98.9654 177.201,49.2987 226.5,-0.5 Z"/></g>
<g><path style="opacity:0.874" fill="#43a4f4" d="M 241.5,218.5 C 239.973,218.427 238.973,219.094 238.5,220.5C 236.167,222.167 234.167,224.167 232.5,226.5C 227.5,230.833 222.833,235.5 218.5,240.5C 210.167,248.167 202.167,256.167 194.5,264.5C 193.833,264.5 193.5,264.833 193.5,265.5C 177.66,250.494 162.327,234.994 147.5,219C 173.793,191.707 200.459,164.707 227.5,138C 258.833,137.333 290.167,137.333 321.5,138C 294.632,164.701 267.965,191.535 241.5,218.5 Z"/></g>
<g><path style="opacity:0.992" fill="#134798" d="M 244.5,222.5 C 246.167,223.5 247.5,224.833 248.5,226.5C 247.869,233.113 247.202,239.779 246.5,246.5C 244.805,247.174 243.138,247.841 241.5,248.5C 241.334,242.158 241.5,235.825 242,229.5C 242.379,226.97 243.213,224.637 244.5,222.5 Z"/></g>
<g><path style="opacity:0.992" fill="#0d46a1" d="M 248.5,226.5 C 273.167,250.5 297.5,274.833 321.5,299.5C 289.833,299.5 258.167,299.5 226.5,299.5C 215.5,288.167 204.5,276.833 193.5,265.5C 193.5,264.833 193.833,264.5 194.5,264.5C 201.172,262.165 207.838,259.832 214.5,257.5C 218.127,256.679 221.46,255.346 224.5,253.5C 226.5,253.167 228.5,252.833 230.5,252.5C 234.009,250.774 237.675,249.441 241.5,248.5C 243.138,247.841 244.805,247.174 246.5,246.5C 247.202,239.779 247.869,233.113 248.5,226.5 Z"/></g>
<g><path style="opacity:1" fill="#17458c" d="M 241.5,218.5 C 242.5,219.833 243.5,221.167 244.5,222.5C 243.213,224.637 242.379,226.97 242,229.5C 241.5,235.825 241.334,242.158 241.5,248.5C 237.675,249.441 234.009,250.774 230.5,252.5C 229.175,241.25 232.175,231.417 239.5,223C 238.748,222.329 238.414,221.496 238.5,220.5C 238.973,219.094 239.973,218.427 241.5,218.5 Z"/></g>
<g><path style="opacity:1" fill="#15386e" d="M 232.5,226.5 C 233.043,226.56 233.376,226.893 233.5,227.5C 231.374,231.711 229.541,236.044 228,240.5C 227.667,239.833 227.333,239.167 227,238.5C 224.856,243.258 224.023,248.258 224.5,253.5C 221.46,255.346 218.127,256.679 214.5,257.5C 215.258,252.058 216.925,246.891 219.5,242C 219.43,241.235 219.097,240.735 218.5,240.5C 222.833,235.5 227.5,230.833 232.5,226.5 Z"/></g>
<g><path style="opacity:1" fill="#173f7e" d="M 238.5,220.5 C 238.414,221.496 238.748,222.329 239.5,223C 232.175,231.417 229.175,241.25 230.5,252.5C 228.5,252.833 226.5,253.167 224.5,253.5C 224.023,248.258 224.856,243.258 227,238.5C 227.333,239.167 227.667,239.833 228,240.5C 229.541,236.044 231.374,231.711 233.5,227.5C 233.376,226.893 233.043,226.56 232.5,226.5C 234.167,224.167 236.167,222.167 238.5,220.5 Z"/></g>
<g><path style="opacity:1" fill="#09234a" d="M 218.5,240.5 C 219.097,240.735 219.43,241.235 219.5,242C 216.925,246.891 215.258,252.058 214.5,257.5C 207.838,259.832 201.172,262.165 194.5,264.5C 202.167,256.167 210.167,248.167 218.5,240.5 Z"/></g>
</svg>
