<?xml version="1.0" encoding="UTF-8"?>
<!DOCTYPE svg PUBLIC "-//W3C//DTD SVG 1.1//EN" "http://www.w3.org/Graphics/SVG/1.1/DTD/svg11.dtd">
<svg xmlns="http://www.w3.org/2000/svg" version="1.1" width="3000px" height="2903px" style="shape-rendering:geometricPrecision; text-rendering:geometricPrecision; image-rendering:optimizeQuality; fill-rule:evenodd; clip-rule:evenodd" xmlns:xlink="http://www.w3.org/1999/xlink">
<g><path style="opacity:0.997" fill="#ff8080" d="M 1483.5,14.5 C 1527.5,12.6665 1566.5,25.4998 1600.5,53C 1814.35,266.68 2028.01,480.514 2241.5,694.5C 2109.19,826.473 1976.86,958.473 1844.5,1090.5C 1799.54,1047.04 1755.04,1003.04 1711,958.5C 1736.99,878.48 1723.66,805.814 1671,740.5C 1613.78,678.872 1543.62,655.372 1460.5,670C 1450.41,672.702 1440.41,675.368 1430.5,678C 1319.65,566.653 1208.99,455.153 1098.5,343.5C 1196.65,245.513 1294.99,147.68 1393.5,50C 1420.1,29.532 1450.1,17.6986 1483.5,14.5 Z"/></g>
<g><path style="opacity:0.995" fill="#ff8080" d="M 969.5,472.5 C 1081.08,582.583 1192.25,693.25 1303,804.5C 1299.22,818.635 1295.88,832.968 1293,847.5C 1282.65,938.948 1314.82,1011.11 1389.5,1064C 1396.18,1068.34 1403.18,1072.17 1410.5,1075.5C 1411.67,1167.83 1411.83,1260.16 1411,1352.5C 1190.83,1132.33 970.667,912.167 750.5,692C 823.701,618.965 896.701,545.799 969.5,472.5 Z"/></g>
<g><path style="opacity:0.998" fill="#8dd35e" d="M 2296.5,729.5 C 2297.24,729.369 2297.91,729.536 2298.5,730C 2500.33,931.833 2702.17,1133.67 2904,1335.5C 2962.67,1404.14 2977.67,1481.47 2949,1567.5C 2938.73,1593.74 2924.4,1617.4 2906,1638.5C 2709.32,1835.35 2512.49,2032.01 2315.5,2228.5C 2103.85,2017.35 1892.35,1806.01 1681,1594.5C 1637.72,1542.46 1624.39,1483.46 1641,1417.5C 1648.73,1391.03 1661.4,1367.37 1679,1346.5C 1705.99,1318.35 1733.49,1290.68 1761.5,1263.5C 1814.82,1316.32 1867.99,1369.32 1921,1422.5C 1895.15,1503.06 1908.81,1576.06 1962,1641.5C 2023.36,1706.17 2097.52,1728 2184.5,1707C 2250.12,1686.71 2296.96,1645.21 2325,1582.5C 2354.27,1505.88 2345.27,1434.21 2298,1367.5C 2253.87,1312.27 2196.2,1283.6 2125,1281.5C 2099.13,1281.67 2074.13,1286.34 2050,1295.5C 1996.83,1242.33 1943.67,1189.17 1890.5,1136C 2026.03,1000.63 2161.37,865.132 2296.5,729.5 Z"/></g>
<g><path style="opacity:0.998" fill="#80b3ff" d="M 700.5,740.5 C 897.466,937.632 1094.3,1134.97 1291,1332.5C 1339.98,1394.36 1351.32,1462.7 1325,1537.5C 1315.6,1559.98 1302.93,1580.32 1287,1598.5C 1084.99,1800.68 882.82,2002.68 680.5,2204.5C 479.208,2006.04 278.375,1807.04 78,1607.5C 33.8145,1552.07 22.4812,1490.4 44,1422.5C 52.3177,1399.88 64.3177,1379.55 80,1361.5C 287.035,1154.63 493.868,947.632 700.5,740.5 Z"/></g>
<g><path style="opacity:0.973" fill="#ff8080" d="M 1612.5,1115.5 C 1647.3,1149.8 1681.97,1184.3 1716.5,1219C 1681.96,1253.37 1647.63,1287.87 1613.5,1322.5C 1612.5,1253.5 1612.17,1184.5 1612.5,1115.5 Z"/></g>
<g><path style="opacity:0.998" fill="#ffe680" d="M 1621.5,2902.5 C 1545.17,2902.5 1468.83,2902.5 1392.5,2902.5C 1177.37,2686.87 962.035,2471.37 746.5,2256C 956.167,2046.33 1165.83,1836.67 1375.5,1627C 1387.89,1619.98 1398.72,1621.81 1408,1632.5C 1409.28,1634.72 1410.28,1637.05 1411,1639.5C 1411.83,1733.84 1411.67,1828.17 1410.5,1922.5C 1348.11,1956.53 1311.28,2008.86 1300,2079.5C 1292.44,2157.18 1318.61,2220.68 1378.5,2270C 1440.49,2314.84 1507.83,2324.84 1580.5,2300C 1650.52,2271.97 1694.02,2221.14 1711,2147.5C 1724.38,2068.3 1701.55,2001.8 1642.5,1948C 1633.26,1940.8 1623.76,1933.97 1614,1927.5C 1613.17,1843.5 1613.33,1759.5 1614.5,1675.5C 1820.36,1881.19 2025.69,2087.36 2230.5,2294C 2027.67,2497 1824.67,2699.83 1621.5,2902.5 Z"/></g>
</svg>
