<?xml version="1.0" encoding="UTF-8"?>
<!DOCTYPE svg PUBLIC "-//W3C//DTD SVG 1.1//EN" "http://www.w3.org/Graphics/SVG/1.1/DTD/svg11.dtd">
<svg xmlns="http://www.w3.org/2000/svg" version="1.1" width="518px" height="518px" style="shape-rendering:geometricPrecision; text-rendering:geometricPrecision; image-rendering:optimizeQuality; fill-rule:evenodd; clip-rule:evenodd" xmlns:xlink="http://www.w3.org/1999/xlink">
<g><path style="opacity:0.918" fill="#e11d20" d="M 287.5,37.5 C 289.592,37.5614 291.092,38.5614 292,40.5C 297.052,49.1453 298.718,58.4786 297,68.5C 295.91,74.0127 294.244,79.346 292,84.5C 288.255,90.9515 283.922,96.9515 279,102.5C 267.37,112.961 255.703,123.627 244,134.5C 240.526,139.342 237.86,144.675 236,150.5C 235.333,153.833 235.333,157.167 236,160.5C 240.453,173.266 247.12,184.599 256,194.5C 256.977,197.788 258.477,200.788 260.5,203.5C 259.833,203.833 259.167,204.167 258.5,204.5C 246.181,195.347 235.347,184.681 226,172.5C 222.434,167.363 219.934,161.696 218.5,155.5C 216.887,148.122 217.887,141.122 221.5,134.5C 223.847,130.995 226.347,127.662 229,124.5C 234.017,120.905 238.517,116.739 242.5,112C 247.799,108.345 253.133,104.678 258.5,101C 265.993,93.507 273.493,86.007 281,78.5C 287.242,67.95 289.908,56.6167 289,44.5C 287.648,42.4062 287.148,40.0728 287.5,37.5 Z"/></g>
<g><path style="opacity:0.947" fill="#e11d20" d="M 324.5,98.5 C 325.586,98.62 326.253,99.2867 326.5,100.5C 326.167,101.167 325.833,101.833 325.5,102.5C 311.501,110.837 298.168,120.17 285.5,130.5C 283.87,133.298 282.037,135.965 280,138.5C 276.862,144.224 276.695,150.057 279.5,156C 283.641,161.815 287.807,167.648 292,173.5C 295.411,184.469 293.577,194.302 286.5,203C 283.526,205.638 280.526,208.305 277.5,211C 267.516,216.476 266.016,215.31 273,207.5C 275.007,204.066 276.507,200.4 277.5,196.5C 275.258,188.572 271.091,181.905 265,176.5C 253.706,155.948 256.873,138.115 274.5,123C 289.144,112.724 305.144,105.224 322.5,100.5C 323.713,100.253 324.38,99.5862 324.5,98.5 Z"/></g>
<g><path style="opacity:0.885" fill="#096eb6" d="M 335.5,201.5 C 341.509,201.334 347.509,201.501 353.5,202C 361.662,203.97 367.162,208.804 370,216.5C 370.667,221.167 370.667,225.833 370,230.5C 366.443,237.037 361.943,242.871 356.5,248C 352.046,250.424 347.546,252.924 343,255.5C 336.535,257.651 330.035,259.651 323.5,261.5C 322.5,261.167 321.5,260.833 320.5,260.5C 329.407,254.444 338.24,248.11 347,241.5C 351.602,236.131 354.768,229.965 356.5,223C 355.142,217.231 352.142,212.564 347.5,209C 340.494,207.567 333.494,207.067 326.5,207.5C 328.749,204.219 331.749,202.219 335.5,201.5 Z"/></g>
<g><path style="opacity:0.886" fill="#096eb6" d="M 210.5,203.5 C 215.544,203.173 220.544,203.506 225.5,204.5C 216.334,207.753 207.168,211.086 198,214.5C 196.124,215.619 195.291,217.286 195.5,219.5C 207.664,220.717 219.831,222.051 232,223.5C 262.367,222.287 292.533,219.287 322.5,214.5C 323.833,215.5 323.833,216.5 322.5,217.5C 317.692,219.737 313.026,222.237 308.5,225C 269.413,231.624 230.079,233.291 190.5,230C 184.458,228.72 178.458,227.054 172.5,225C 171.506,223.671 170.506,222.338 169.5,221C 170.5,219.5 171.5,218 172.5,216.5C 184.521,210.002 197.187,205.669 210.5,203.5 Z"/></g>
<g><path style="opacity:0.923" fill="#096eb6" d="M 210.5,237.5 C 211.497,237.47 212.164,237.97 212.5,239C 211.574,241.262 210.241,243.262 208.5,245C 212.705,247.756 217.372,249.256 222.5,249.5C 238.488,251.777 254.488,251.944 270.5,250C 279.703,248.251 289.036,246.751 298.5,245.5C 303.262,248.06 307.928,250.893 312.5,254C 312.095,254.945 311.428,255.612 310.5,256C 276.872,264.952 243.039,266.452 209,260.5C 205.975,258.952 202.808,257.785 199.5,257C 194.857,254.928 193.357,251.428 195,246.5C 196.5,245.667 197.667,244.5 198.5,243C 202.372,240.68 206.372,238.847 210.5,237.5 Z"/></g>
<g><path style="opacity:0.937" fill="#0a6eb6" d="M 215.5,270.5 C 217.308,270.491 218.975,270.991 220.5,272C 219.167,273.333 217.833,274.667 216.5,276C 219.607,277.691 222.941,278.858 226.5,279.5C 246.954,282.523 267.287,281.856 287.5,277.5C 289.709,277.604 291.876,277.937 294,278.5C 297.025,280.734 300.359,282.401 304,283.5C 305.301,284.098 306.135,285.098 306.5,286.5C 304.402,288.055 302.069,289.388 299.5,290.5C 270.173,299.525 240.84,299.691 211.5,291C 209.167,289.5 206.833,288 204.5,286.5C 203.345,283.554 203.179,280.554 204,277.5C 207.729,274.684 211.562,272.35 215.5,270.5 Z"/></g>
<g><path style="opacity:0.903" fill="#096eb6" d="M 177.5,292.5 C 183.176,292.334 188.843,292.501 194.5,293C 195.357,293.689 196.023,294.522 196.5,295.5C 188.213,296.654 180.213,298.82 172.5,302C 171.132,303.34 169.799,304.674 168.5,306C 168.833,306.5 169.167,307 169.5,307.5C 174.185,308.941 178.851,310.441 183.5,312C 236.168,319.173 288.501,317.673 340.5,307.5C 344.818,306.345 348.484,304.178 351.5,301C 350.971,299.441 350.304,297.941 349.5,296.5C 356.339,295.52 358.839,298.52 357,305.5C 350.069,311.382 342.069,315.382 333,317.5C 292.617,326.128 251.784,328.962 210.5,326C 190.754,324.582 171.088,321.915 151.5,318C 144.889,313.18 144.889,308.18 151.5,303C 159.311,298.596 167.645,295.596 176.5,294C 177.056,293.617 177.389,293.117 177.5,292.5 Z"/></g>
<g><path style="opacity:0.842" fill="#096eb6" d="M 368.5,311.5 C 369.693,311.97 370.36,312.97 370.5,314.5C 370.333,315.5 370.167,316.5 370,317.5C 367.622,320.833 364.789,323.667 361.5,326C 343.04,333.953 323.707,338.453 303.5,339.5C 277.175,340.602 250.842,340.768 224.5,340C 213.79,338.657 203.123,336.99 192.5,335C 190.045,334.606 188.045,333.44 186.5,331.5C 188.167,331.167 189.833,330.833 191.5,330.5C 241.772,337.261 291.605,335.261 341,324.5C 347.736,322.528 354.236,320.028 360.5,317C 363.091,314.883 365.758,313.05 368.5,311.5 Z"/></g>
<g><path style="opacity:0.908" fill="#e01e21" d="M 154.5,359.5 C 160.5,359.5 166.5,359.5 172.5,359.5C 172.833,388.508 172.5,417.508 171.5,446.5C 171.284,462.712 163.618,473.712 148.5,479.5C 144.569,477.375 141.902,474.208 140.5,470C 140.833,469.167 141.167,468.333 141.5,467.5C 148.508,463.983 152.675,458.316 154,450.5C 154.5,420.168 154.667,389.835 154.5,359.5 Z"/></g>
<g><path style="opacity:0.455" fill="#e21c1f" d="M 364.5,381.5 C 367.711,381.012 370.544,381.679 373,383.5C 373.71,382.027 374.876,381.36 376.5,381.5C 376.5,384.167 376.5,386.833 376.5,389.5C 372.833,389.5 369.167,389.5 365.5,389.5C 365.425,386.794 365.092,384.127 364.5,381.5 Z"/></g>
<g><path style="opacity:0.917" fill="#e11e20" d="M 197.5,382.5 C 205.507,382.334 213.507,382.5 221.5,383C 226.476,384.643 230.643,387.477 234,391.5C 235.036,394.753 235.703,398.086 236,401.5C 236.5,419.164 236.667,436.83 236.5,454.5C 232.167,454.5 227.833,454.5 223.5,454.5C 223.725,452.284 222.892,450.617 221,449.5C 213.084,455.015 204.25,456.849 194.5,455C 188.31,453.615 183.81,450.115 181,444.5C 180.333,438.5 180.333,432.5 181,426.5C 182.723,423.664 184.556,420.831 186.5,418C 197.089,412.535 208.422,410.035 220.5,410.5C 221.499,403.378 218.832,398.378 212.5,395.5C 207.869,394.338 203.202,394.172 198.5,395C 194.804,396.412 190.971,397.578 187,398.5C 186.5,398.167 186,397.833 185.5,397.5C 185.102,394.269 184.102,391.269 182.5,388.5C 187.245,385.619 192.245,383.619 197.5,382.5 Z M 207.5,422.5 C 211.833,422.5 216.167,422.5 220.5,422.5C 220.827,427.214 220.493,431.88 219.5,436.5C 215.5,439.75 211,442.084 206,443.5C 200.511,442.182 197.344,438.849 196.5,433.5C 197.726,427.373 201.393,423.706 207.5,422.5 Z"/></g>
<g><path style="opacity:0.922" fill="#e11e21" d="M 326.5,382.5 C 334.507,382.334 342.507,382.5 350.5,383C 357.629,384.963 362.296,389.463 364.5,396.5C 365.5,415.822 365.833,435.155 365.5,454.5C 360.833,454.5 356.167,454.5 351.5,454.5C 351.662,452.473 351.495,450.473 351,448.5C 341.142,455.455 330.309,457.288 318.5,454C 309.15,447.471 306.15,438.638 309.5,427.5C 314.418,417.697 322.418,412.364 333.5,411.5C 338.456,410.506 343.456,410.173 348.5,410.5C 348.766,406.395 348.266,402.395 347,398.5C 343.4,395.602 339.233,394.268 334.5,394.5C 327.506,395.829 320.506,397.163 313.5,398.5C 313.105,394.815 312.938,391.148 313,387.5C 317.346,385.133 321.846,383.466 326.5,382.5 Z M 336.5,422.5 C 340.5,422.5 344.5,422.5 348.5,422.5C 348.897,427.959 348.397,433.292 347,438.5C 342.801,440.067 338.634,441.734 334.5,443.5C 328.436,442.604 325.436,439.104 325.5,433C 326.178,426.28 329.844,422.78 336.5,422.5 Z"/></g>
<g><path style="opacity:0.915" fill="#e11e21" d="M 242.5,383.5 C 248.5,383.5 254.5,383.5 260.5,383.5C 266.072,400.227 271.072,417.227 275.5,434.5C 280.895,417.772 284.895,400.772 287.5,383.5C 293.167,383.5 298.833,383.5 304.5,383.5C 301.099,407.76 294.265,431.093 284,453.5C 277.256,454.479 270.422,454.812 263.5,454.5C 256.201,430.908 249.201,407.241 242.5,383.5 Z"/></g>
</svg>
