<?xml version="1.0" encoding="UTF-8"?>
<!DOCTYPE svg PUBLIC "-//W3C//DTD SVG 1.1//EN" "http://www.w3.org/Graphics/SVG/1.1/DTD/svg11.dtd">
<svg xmlns="http://www.w3.org/2000/svg" version="1.1" width="325px" height="317px" style="shape-rendering:geometricPrecision; text-rendering:geometricPrecision; image-rendering:optimizeQuality; fill-rule:evenodd; clip-rule:evenodd" xmlns:xlink="http://www.w3.org/1999/xlink">
<g><path style="opacity:0.068" fill="#fafaf9" d="M 162.5,-0.5 C 163.5,-0.5 164.5,-0.5 165.5,-0.5C 165.232,2.1194 165.565,4.6194 166.5,7C 165.845,8.4866 164.845,9.65327 163.5,10.5C 162.511,6.89272 162.177,3.22605 162.5,-0.5 Z"/></g>
<g><path style="opacity:0.074" fill="#fbf5f3" d="M 154.5,40.5 C 155.41,42.0188 156.243,43.6854 157,45.5C 156.984,39.3886 155.984,33.3886 154,27.5C 153.505,29.4727 153.338,31.4727 153.5,33.5C 151.95,25.8449 150.617,18.0116 149.5,10C 149.833,8.83333 150.167,7.66667 150.5,6.5C 151.086,6.70931 151.586,7.04265 152,7.5C 154.898,19.8245 157.731,32.1579 160.5,44.5C 159.988,47.3507 158.321,48.6841 155.5,48.5C 154.908,45.8728 154.575,43.2062 154.5,40.5 Z"/></g>
<g><path style="opacity:0.06" fill="#fbf7f5" d="M 124.5,16.5 C 127.848,17.8006 130.348,20.134 132,23.5C 136.416,31.3333 141.082,38.9999 146,46.5C 147.106,50.8965 145.606,52.2298 141.5,50.5C 137.253,42.3381 132.753,34.3381 128,26.5C 126.132,23.3949 124.965,20.0615 124.5,16.5 Z"/></g>
<g><path style="opacity:0.065" fill="#faf5f4" d="M 200.5,16.5 C 201.5,16.5 202.5,16.5 203.5,16.5C 203.66,18.1992 203.494,19.8659 203,21.5C 197.633,30.7061 192.466,40.0394 187.5,49.5C 186.15,50.9501 184.484,51.6168 182.5,51.5C 182.298,49.0108 182.798,46.6775 184,44.5C 189.775,35.2761 195.275,25.9428 200.5,16.5 Z"/></g>
<g><path style="opacity:0.062" fill="#fbf7f6" d="M 212.5,23.5 C 213.675,23.281 214.675,23.6143 215.5,24.5C 209.123,34.7136 201.79,44.2136 193.5,53C 190.679,53.5065 189.512,52.3398 190,49.5C 197.336,40.6661 204.836,31.9994 212.5,23.5 Z"/></g>
<g><path style="opacity:0.042" fill="#f8e2da" d="M 164.5,24.5 C 165.458,24.9528 166.292,25.6195 167,26.5C 167.667,31.1667 167.667,35.8333 167,40.5C 166.121,43.3463 164.454,44.013 162,42.5C 161.46,36.186 162.293,30.186 164.5,24.5 Z"/></g>
<g><path style="opacity:0.616" fill="#eac3b7" d="M 173.5,21.5 C 174.023,29.1039 173.189,36.7706 171,44.5C 170.505,42.5273 170.338,40.5273 170.5,38.5C 171.115,32.7574 172.115,27.0908 173.5,21.5 Z"/></g>
<g><path style="opacity:0.062" fill="#fbf6f5" d="M 170.5,38.5 C 170.338,40.5273 170.505,42.5273 171,44.5C 173.189,36.7706 174.023,29.1039 173.5,21.5C 174.081,16.2436 175.414,11.2436 177.5,6.5C 178.72,6.88691 179.387,7.72024 179.5,9C 177.574,20.8116 175.741,32.6449 174,44.5C 173.072,48.1546 171.405,48.8213 169,46.5C 168.807,43.6363 169.307,40.9696 170.5,38.5 Z"/></g>
<g><path style="opacity:0.071" fill="#fbf8f8" d="M 206.5,46.5 C 205.04,48.4628 203.373,50.2962 201.5,52C 206.016,50.0352 210.016,47.0352 213.5,43C 212.906,42.5357 212.239,42.369 211.5,42.5C 213.902,39.7845 216.568,37.2845 219.5,35C 221.025,33.9914 222.692,33.4914 224.5,33.5C 224.649,34.552 224.483,35.552 224,36.5C 217.167,42.6667 210.333,48.8333 203.5,55C 202.207,55.49 200.873,55.6567 199.5,55.5C 199.897,51.0919 202.23,48.0919 206.5,46.5 Z"/></g>
<g><path style="opacity:0.061" fill="#faf5f3" d="M 142.5,29.5 C 140.034,23.9378 138.034,18.1045 136.5,12C 136.68,9.75857 137.513,9.25857 139,10.5C 144.249,22.4981 149.082,34.6648 153.5,47C 152.499,49.5021 150.833,50.0021 148.5,48.5C 146.092,42.2761 144.092,35.9428 142.5,29.5 Z"/></g>
<g><path style="opacity:0.651" fill="#f3c7b9" d="M 154.5,40.5 C 153.631,38.283 153.298,35.9496 153.5,33.5C 153.338,31.4727 153.505,29.4727 154,27.5C 155.984,33.3886 156.984,39.3886 157,45.5C 156.243,43.6854 155.41,42.0188 154.5,40.5 Z"/></g>
<g><path style="opacity:0.698" fill="#f5b8a4" d="M 180.5,34.5 C 180.5,34.1667 180.5,33.8333 180.5,33.5C 181.65,32.1498 182.317,32.3164 182.5,34C 181.197,38.2429 179.697,42.4095 178,46.5C 177.833,46 177.667,45.5 177.5,45C 178.811,41.5693 179.811,38.0693 180.5,34.5 Z"/></g>
<g><path style="opacity:0.053" fill="#fbf9f8" d="M 112.5,23.5 C 113.93,23.4208 115.264,23.7542 116.5,24.5C 123.481,32.649 130.648,40.649 138,48.5C 139.254,52.1114 138.088,53.6114 134.5,53C 128,45.1667 121.5,37.3333 115,29.5C 113.441,27.7834 112.608,25.7834 112.5,23.5 Z"/></g>
<g><path style="opacity:0.718" fill="#f6baa6" d="M 142.5,29.5 C 142.351,28.448 142.517,27.448 143,26.5C 145.964,33.0629 148.297,39.7296 150,46.5C 147.467,40.7739 144.967,35.1072 142.5,29.5 Z"/></g>
<g><path style="opacity:0.058" fill="#faf5f3" d="M 180.5,34.5 C 179.811,38.0693 178.811,41.5693 177.5,45C 177.667,45.5 177.833,46 178,46.5C 179.697,42.4095 181.197,38.2429 182.5,34C 182.317,32.3164 181.65,32.1498 180.5,33.5C 183.25,25.2468 186.584,17.2468 190.5,9.5C 191.5,9.83333 192.167,10.5 192.5,11.5C 188.658,24.1931 184.325,36.6931 179.5,49C 178.207,49.49 176.873,49.6567 175.5,49.5C 175.792,43.9563 177.459,38.9563 180.5,34.5 Z"/></g>
<g><path style="opacity:0.675" fill="#f8c8b9" d="M 121.5,33.5 C 126.134,38.3051 130.634,43.3051 135,48.5C 135.667,49.1667 135.667,49.8333 135,50.5C 129.882,45.2273 125.382,39.5607 121.5,33.5 Z"/></g>
<g><path style="opacity:0.714" fill="#f7bda9" d="M 134.5,33.5 C 138.398,37.9705 141.232,42.9705 143,48.5C 139.636,43.7699 136.803,38.7699 134.5,33.5 Z"/></g>
<g><path style="opacity:0.71" fill="#f9beab" d="M 188.5,39.5 C 189.043,39.56 189.376,39.8933 189.5,40.5C 188.162,43.1756 186.829,45.8422 185.5,48.5C 185.167,48.1667 184.833,47.8333 184.5,47.5C 185.847,44.8068 187.18,42.1401 188.5,39.5 Z"/></g>
<g><path style="opacity:0.066" fill="#fbf7f6" d="M 230.5,43.5 C 231.497,43.4701 232.164,43.9701 232.5,45C 231.561,46.9439 230.227,48.6106 228.5,50C 223.999,52.4159 219.666,55.0825 215.5,58C 214.207,58.49 212.873,58.6567 211.5,58.5C 211.215,56.712 211.548,55.0453 212.5,53.5C 218.794,50.5033 224.794,47.17 230.5,43.5 Z"/></g>
<g><path style="opacity:0.741" fill="#f8c3b1" d="M 199.5,40.5 C 200.525,40.8966 200.692,41.5632 200,42.5C 197.957,44.208 196.29,46.208 195,48.5C 194.163,50.0074 192.996,50.5074 191.5,50C 194.002,46.6675 196.668,43.5008 199.5,40.5 Z"/></g>
<g><path style="opacity:0.522" fill="#f7dbd2" d="M 211.5,42.5 C 212.239,42.369 212.906,42.5357 213.5,43C 210.016,47.0352 206.016,50.0352 201.5,52C 203.373,50.2962 205.04,48.4628 206.5,46.5C 207.585,44.4131 209.251,43.0798 211.5,42.5 Z"/></g>
<g><path style="opacity:0.04" fill="#fbf8f8" d="M 104.5,33.5 C 113.303,38.4461 121.47,44.4461 129,51.5C 129.611,55.0876 128.111,56.2542 124.5,55C 118,49.1667 111.5,43.3333 105,37.5C 104.51,36.2068 104.343,34.8734 104.5,33.5 Z"/></g>
<g><path style="opacity:0.645" fill="#f9cdbe" d="M 116.5,45.5 C 116.897,44.475 117.563,44.3083 118.5,45C 121.167,47.3333 123.833,49.6667 126.5,52C 122.817,50.6407 119.483,48.474 116.5,45.5 Z"/></g>
<g><path style="opacity:0.061" fill="#fbf6f4" d="M 95.5,43.5 C 102.726,46.4462 109.726,49.9462 116.5,54C 117.995,57.8406 116.661,59.174 112.5,58C 106.996,54.7487 101.662,51.2487 96.5,47.5C 95.7542,46.2638 95.4208,44.9305 95.5,43.5 Z"/></g>
<g><path style="opacity:0.049" fill="#fdfdfd" d="M 93.5,57.5 C 97.1262,56.8607 98.9595,58.194 99,61.5C 97.1316,62.6719 95.2983,62.5053 93.5,61C 92.3157,59.8545 92.3157,58.6879 93.5,57.5 Z"/></g>
<g><path style="opacity:0.051" fill="#fcfcfb" d="M 230.5,57.5 C 232.665,57.1159 234.332,57.7826 235.5,59.5C 234.061,61.5531 232.061,62.5531 229.5,62.5C 229.366,60.7085 229.699,59.0418 230.5,57.5 Z"/></g>
<g><path style="opacity:0.051" fill="#eef6f6" d="M 204.5,83.5 C 206.467,83.2606 208.301,83.5939 210,84.5C 211.736,94.1245 212.736,103.791 213,113.5C 196.942,125.223 180.609,136.557 164,147.5C 148.08,136.79 132.247,125.957 116.5,115C 115.193,113.057 115.193,111.223 116.5,109.5C 116.263,110.791 116.596,111.791 117.5,112.5C 132.312,122.41 146.979,132.577 161.5,143C 162.448,143.483 163.448,143.649 164.5,143.5C 179.786,133.388 194.952,123.054 210,112.5C 210.156,103.423 209.323,94.4231 207.5,85.5C 192.833,89.8333 178.167,94.1667 163.5,98.5C 149.227,93.9644 134.893,89.6311 120.5,85.5C 120.567,86.9587 120.234,88.2921 119.5,89.5C 119.167,89.5 118.833,89.5 118.5,89.5C 117.961,86.305 118.961,83.805 121.5,82C 111.5,78.6667 101.5,75.3333 91.5,72C 89.9632,70.8904 89.2965,69.3904 89.5,67.5C 114.46,61.6767 139.46,56.01 164.5,50.5C 187.045,55.0533 209.379,60.3866 231.5,66.5C 231.023,67.4776 230.357,68.3109 229.5,69C 233.486,69.4988 237.486,69.6655 241.5,69.5C 241.67,70.8221 241.337,71.9887 240.5,73C 238.782,73.346 237.115,73.846 235.5,74.5C 234.808,73.9747 234.308,73.3081 234,72.5C 231.413,74.1958 228.579,75.1958 225.5,75.5C 225.052,80.0408 225.719,84.3741 227.5,88.5C 226.954,89.7722 226.621,91.1055 226.5,92.5C 227.265,96.7252 228.265,100.892 229.5,105C 228.296,111.106 224.629,113.439 218.5,112C 217.299,111.097 216.465,109.931 216,108.5C 218.275,98.158 219.275,87.8246 219,77.5C 214.046,79.4337 209.213,81.4337 204.5,83.5 Z M 159.5,66.5 C 162.518,66.3354 165.518,66.502 168.5,67C 173.214,68.056 173.547,69.7226 169.5,72C 164.468,73.4125 160.135,72.4125 156.5,69C 157.571,68.1482 158.571,67.3149 159.5,66.5 Z M 204.5,83.5 C 194.784,87.4054 184.784,90.7387 174.5,93.5C 184.086,89.1937 194.086,85.8603 204.5,83.5 Z M 174.5,93.5 C 171.458,94.9099 168.291,96.2432 165,97.5C 163.933,96.8095 162.766,96.3095 161.5,96C 165.87,95.2629 170.204,94.4296 174.5,93.5 Z"/></g>
<g><path style="opacity:0.606" fill="#cbf0ef" d="M 223.5,65.5 C 225.103,65.3118 226.437,65.8118 227.5,67C 209.329,67.8287 191.329,67.662 173.5,66.5C 190.342,66.8298 207.008,66.4965 223.5,65.5 Z"/></g>
<g><path style="opacity:1" fill="#29c1bf" d="M 164.5,52.5 C 184.212,56.6782 203.878,61.0115 223.5,65.5C 207.008,66.4965 190.342,66.8298 173.5,66.5C 170.528,64.3502 167.195,63.3502 163.5,63.5C 164.423,59.9359 164.756,56.2693 164.5,52.5 Z"/></g>
<g><path style="opacity:1" fill="#1f9b99" d="M 164.5,52.5 C 164.756,56.2693 164.423,59.9359 163.5,63.5C 155.639,63.1495 153.306,66.3161 156.5,73C 158.74,73.977 161.073,74.477 163.5,74.5C 164.455,80.4093 164.789,86.4093 164.5,92.5C 140.37,84.9566 116.37,77.1233 92.5,69C 116.318,62.5447 140.318,57.0447 164.5,52.5 Z"/></g>
<g><path style="opacity:0.851" fill="#70d9d7" d="M 223.5,73.5 C 206.294,72.1882 188.961,72.1882 171.5,73.5C 171.611,72.8826 171.944,72.3826 172.5,72C 190.833,71.3333 209.167,71.3333 227.5,72C 226.255,72.7914 224.922,73.2914 223.5,73.5 Z"/></g>
<g><path style="opacity:1" fill="#21c0be" d="M 223.5,73.5 C 222.481,79.8736 222.481,86.2069 223.5,92.5C 224.502,96.5059 225.502,100.506 226.5,104.5C 225.744,109.317 223.078,110.651 218.5,108.5C 217.283,102.836 217.95,97.3357 220.5,92C 219.024,89.651 219.19,87.4844 221,85.5C 221.499,81.8484 221.665,78.1817 221.5,74.5C 202.518,80.4938 183.518,86.4938 164.5,92.5C 164.789,86.4093 164.455,80.4093 163.5,74.5C 166.206,74.4249 168.873,74.0916 171.5,73.5C 188.961,72.1882 206.294,72.1882 223.5,73.5 Z"/></g>
<g><path style="opacity:0.075" fill="#fcfbfb" d="M 236.5,81.5 C 242.959,83.7755 242.626,85.4422 235.5,86.5C 235.366,84.7085 235.699,83.0418 236.5,81.5 Z"/></g>
<g><path style="opacity:0.06" fill="#faf1ef" d="M 87.5,82.5 C 96.5,82.5 105.5,82.5 114.5,82.5C 114.714,84.1439 114.38,85.6439 113.5,87C 105.088,87.7868 96.7548,87.2868 88.5,85.5C 87.8728,84.5832 87.5394,83.5832 87.5,82.5 Z"/></g>
<g><path style="opacity:1" fill="#1b9a98" d="M 163.5,98.5 C 164.483,113.422 164.816,128.422 164.5,143.5C 163.448,143.649 162.448,143.483 161.5,143C 146.979,132.577 132.312,122.41 117.5,112.5C 118.167,104.833 118.833,97.1667 119.5,89.5C 120.234,88.2921 120.567,86.9587 120.5,85.5C 134.893,89.6311 149.227,93.9644 163.5,98.5 Z"/></g>
<g><path style="opacity:1" fill="#21bfbd" d="M 164.5,143.5 C 164.816,128.422 164.483,113.422 163.5,98.5C 178.167,94.1667 192.833,89.8333 207.5,85.5C 209.323,94.4231 210.156,103.423 210,112.5C 194.952,123.054 179.786,133.388 164.5,143.5 Z"/></g>
<g><path style="opacity:0.083" fill="#faf4f1" d="M 107.5,91.5 C 109.5,91.5 111.5,91.5 113.5,91.5C 113.714,93.1439 113.38,94.6439 112.5,96C 104.599,98.0341 96.5987,99.0341 88.5,99C 87.1667,98 87.1667,97 88.5,96C 95.0061,94.6701 101.339,93.1701 107.5,91.5 Z"/></g>
<g><path style="opacity:0.58" fill="#bfd7d6" d="M 118.5,89.5 C 118.833,89.5 119.167,89.5 119.5,89.5C 118.833,97.1667 118.167,104.833 117.5,112.5C 116.596,111.791 116.263,110.791 116.5,109.5C 116.838,102.797 117.505,96.1299 118.5,89.5 Z"/></g>
<g><path style="opacity:1" fill="#21639a" d="M 246.5,122.5 C 221.378,126.934 200.211,138.601 183,157.5C 180.417,160.997 178.084,164.664 176,168.5C 175.184,169.823 174.017,170.489 172.5,170.5C 176.92,161.235 182.753,152.902 190,145.5C 206.694,130.562 225.194,118.229 245.5,108.5C 246.493,113.12 246.827,117.786 246.5,122.5 Z"/></g>
<g><path style="opacity:1" fill="#1f629b" d="M 82.5,109.5 C 82.8333,109.5 83.1667,109.5 83.5,109.5C 109.449,120.385 131.283,136.718 149,158.5C 153.43,165.012 156.43,172.012 158,179.5C 156.519,178.529 155.685,177.196 155.5,175.5C 153.172,168.854 149.339,163.187 144,158.5C 139.579,152.746 134.412,147.579 128.5,143C 114.744,132.96 99.4104,126.46 82.5,123.5C 82.5,118.833 82.5,114.167 82.5,109.5 Z"/></g>
<g><path style="opacity:0.496" fill="#a4b3be" d="M 80.5,108.5 C 81.791,108.263 82.791,108.596 83.5,109.5C 83.1667,109.5 82.8333,109.5 82.5,109.5C 81.5098,115.645 81.1765,121.978 81.5,128.5C 81.1667,128.5 80.8333,128.5 80.5,128.5C 80.5,121.833 80.5,115.167 80.5,108.5 Z"/></g>
<g><path style="opacity:1" fill="#1f74ba" d="M 246.5,122.5 C 246.586,126.319 245.919,129.985 244.5,133.5C 229.416,138.922 214.75,145.422 200.5,153C 190.098,159.57 180.765,167.403 172.5,176.5C 172.046,174.741 172.046,172.741 172.5,170.5C 174.017,170.489 175.184,169.823 176,168.5C 178.084,164.664 180.417,160.997 183,157.5C 200.211,138.601 221.378,126.934 246.5,122.5 Z"/></g>
<g><path style="opacity:1" fill="#2577bb" d="M 82.5,109.5 C 82.5,114.167 82.5,118.833 82.5,123.5C 99.4104,126.46 114.744,132.96 128.5,143C 134.412,147.579 139.579,152.746 144,158.5C 149.339,163.187 153.172,168.854 155.5,175.5C 135.646,156.07 112.312,142.57 85.5,135C 83.7682,133.028 82.4348,130.861 81.5,128.5C 81.1765,121.978 81.5098,115.645 82.5,109.5 Z"/></g>
<g><path style="opacity:0.054" fill="#ecf2f8" d="M 248.5,130.5 C 247.476,134.362 245.143,137.195 241.5,139C 212.001,147.035 187.334,162.535 167.5,185.5C 166.212,183.701 166.212,182.035 167.5,180.5C 168.167,181.833 168.833,181.833 169.5,180.5C 170.5,179.167 171.5,177.833 172.5,176.5C 180.765,167.403 190.098,159.57 200.5,153C 214.75,145.422 229.416,138.922 244.5,133.5C 245.637,132.211 246.97,131.211 248.5,130.5 Z"/></g>
<g><path style="opacity:0.153" fill="#e0e6ec" d="M 248.5,130.5 C 246.97,131.211 245.637,132.211 244.5,133.5C 245.919,129.985 246.586,126.319 246.5,122.5C 246.827,117.786 246.493,113.12 245.5,108.5C 225.194,118.229 206.694,130.562 190,145.5C 182.753,152.902 176.92,161.235 172.5,170.5C 171.19,173.399 169.857,176.399 168.5,179.5C 168.624,180.107 168.957,180.44 169.5,180.5C 168.833,181.833 168.167,181.833 167.5,180.5C 170.293,169.246 175.46,159.246 183,150.5C 201.452,130.698 223.285,116.032 248.5,106.5C 248.5,114.5 248.5,122.5 248.5,130.5 Z"/></g>
<g><path style="opacity:0.051" fill="#eaf0f6" d="M 240.5,141.5 C 241.15,141.804 241.817,142.137 242.5,142.5C 243.664,148.807 243.831,155.141 243,161.5C 242.215,163.286 241.049,164.786 239.5,166C 225.658,170.059 211.992,174.725 198.5,180C 187.595,185.286 177.929,192.286 169.5,201C 166.909,201.301 166.075,200.134 167,197.5C 176.167,179 190,165.167 208.5,156C 218.901,150.295 229.567,145.461 240.5,141.5 Z"/></g>
<g><path style="opacity:1" fill="#2175ba" d="M 240.5,154.5 C 240.5,156.167 240.5,157.833 240.5,159.5C 239.883,161.229 238.883,162.729 237.5,164C 216.463,168.117 197.13,176.117 179.5,188C 176.37,190.128 173.537,192.628 171,195.5C 171.51,191.483 173.343,188.15 176.5,185.5C 182.294,180.877 187.961,176.044 193.5,171C 207.594,160.803 223.261,155.303 240.5,154.5 Z"/></g>
<g><path style="opacity:0.776" fill="#90b3d0" d="M 240.5,159.5 C 240.5,157.833 240.5,156.167 240.5,154.5C 240.5,151.5 240.5,148.5 240.5,145.5C 239.167,145.5 237.833,145.5 236.5,145.5C 237.641,144.661 238.974,143.994 240.5,143.5C 241.815,148.986 241.815,154.32 240.5,159.5 Z"/></g>
<g><path style="opacity:1" fill="#28679e" d="M 236.5,145.5 C 237.833,145.5 239.167,145.5 240.5,145.5C 240.5,148.5 240.5,151.5 240.5,154.5C 223.261,155.303 207.594,160.803 193.5,171C 187.961,176.044 182.294,180.877 176.5,185.5C 183.023,176.478 191.023,168.978 200.5,163C 211.848,155.826 223.848,149.993 236.5,145.5 Z"/></g>
<g><path style="opacity:0.075" fill="#eef2f6" d="M 80.5,128.5 C 80.8333,128.5 81.1667,128.5 81.5,128.5C 82.4348,130.861 83.7682,133.028 85.5,135C 112.312,142.57 135.646,156.07 155.5,175.5C 155.685,177.196 156.519,178.529 158,179.5C 156.43,172.012 153.43,165.012 149,158.5C 131.283,136.718 109.449,120.385 83.5,109.5C 82.791,108.596 81.791,108.263 80.5,108.5C 81.2039,106.656 82.5372,106.156 84.5,107C 107.775,117.614 128.275,132.114 146,150.5C 153.86,159.886 159.36,170.552 162.5,182.5C 162.473,184.704 161.473,185.538 159.5,185C 140.116,161.976 115.783,146.642 86.5,139C 82.5714,136.647 80.5714,133.147 80.5,128.5 Z"/></g>
<g><path style="opacity:0.043" fill="#eaf0f4" d="M 86.5,161.5 C 85.346,155.013 85.1794,148.346 86,141.5C 112.704,149.175 135.371,163.175 154,183.5C 157.34,188.175 160.173,193.175 162.5,198.5C 161.833,199.833 160.833,200.833 159.5,201.5C 141.415,183.791 119.748,172.958 94.5,169C 90.6561,167.653 87.9894,165.153 86.5,161.5 Z"/></g>
<g><path style="opacity:1" fill="#2576bb" d="M 87.5,153.5 C 112.378,157.359 133.712,168.026 151.5,185.5C 154.657,188.15 156.49,191.483 157,195.5C 138.989,179.855 118.155,170.021 94.5,166C 91.8936,165.208 89.8936,163.708 88.5,161.5C 87.612,158.946 87.2786,156.279 87.5,153.5 Z"/></g>
<g><path style="opacity:0.733" fill="#9abad4" d="M 90.5,145.5 C 89.5,145.5 88.5,145.5 87.5,145.5C 87.5,148.167 87.5,150.833 87.5,153.5C 87.2786,156.279 87.612,158.946 88.5,161.5C 87.8333,161.5 87.1667,161.5 86.5,161.5C 86.5,155.833 86.5,150.167 86.5,144.5C 88.099,144.232 89.4324,144.566 90.5,145.5 Z"/></g>
<g><path style="opacity:1" fill="#20639c" d="M 90.5,145.5 C 108.222,151.696 124.556,160.529 139.5,172C 144.102,176.094 148.102,180.594 151.5,185.5C 133.712,168.026 112.378,157.359 87.5,153.5C 87.5,150.833 87.5,148.167 87.5,145.5C 88.5,145.5 89.5,145.5 90.5,145.5 Z"/></g>
<g><path style="opacity:0.957" fill="#5d91bd" d="M 172.5,170.5 C 172.046,172.741 172.046,174.741 172.5,176.5C 171.5,177.833 170.5,179.167 169.5,180.5C 168.957,180.44 168.624,180.107 168.5,179.5C 169.857,176.399 171.19,173.399 172.5,170.5 Z"/></g>
<g><path style="opacity:0.054" fill="#eaf0f5" d="M 211.5,177.5 C 212.496,177.414 213.329,177.748 214,178.5C 215.711,184.694 214.211,189.86 209.5,194C 197.361,197.265 186.028,202.265 175.5,209C 173.833,210.667 172.167,212.333 170.5,214C 169.216,214.684 168.049,214.517 167,213.5C 169.088,205.541 173.588,199.041 180.5,194C 190.038,186.899 200.371,181.399 211.5,177.5 Z"/></g>
<g><path style="opacity:1" fill="#2777bb" d="M 211.5,185.5 C 211.5,185.833 211.5,186.167 211.5,186.5C 211.141,188.371 210.141,189.871 208.5,191C 198.794,193.681 189.46,197.347 180.5,202C 176.908,204.713 173.408,207.547 170,210.5C 171.728,205.579 174.894,201.579 179.5,198.5C 180.873,198.657 182.207,198.49 183.5,198C 187.005,194.478 191.005,191.811 195.5,190C 200.949,188.673 206.282,187.173 211.5,185.5 Z"/></g>
<g><path style="opacity:1" fill="#1f66a1" d="M 211.5,182.5 C 211.5,183.5 211.5,184.5 211.5,185.5C 206.282,187.173 200.949,188.673 195.5,190C 191.005,191.811 187.005,194.478 183.5,198C 182.207,198.49 180.873,198.657 179.5,198.5C 183.326,194.01 187.993,190.677 193.5,188.5C 197.728,187.414 202.062,185.581 206.5,183C 208.134,182.506 209.801,182.34 211.5,182.5 Z"/></g>
<g><path style="opacity:0.976" fill="#497caa" d="M 210.5,180.5 C 211.338,180.842 211.672,181.508 211.5,182.5C 209.801,182.34 208.134,182.506 206.5,183C 202.062,185.581 197.728,187.414 193.5,188.5C 198.473,184.515 204.14,181.848 210.5,180.5 Z"/></g>
<g><path style="opacity:0.776" fill="#9dbbd5" d="M 210.5,180.5 C 210.56,179.957 210.893,179.624 211.5,179.5C 212.797,181.973 212.797,184.307 211.5,186.5C 211.5,186.167 211.5,185.833 211.5,185.5C 211.5,184.5 211.5,183.5 211.5,182.5C 211.672,181.508 211.338,180.842 210.5,180.5 Z"/></g>
<g><path style="opacity:0.048" fill="#edf1f6" d="M 114.5,177.5 C 126.75,181.125 138.084,186.625 148.5,194C 154.375,199.095 159.042,205.095 162.5,212C 161.687,213.885 160.353,214.551 158.5,214C 152.516,208.671 145.849,204.337 138.5,201C 131.747,198.86 125.08,196.527 118.5,194C 116.951,192.786 115.785,191.286 115,189.5C 114.501,185.514 114.334,181.514 114.5,177.5 Z"/></g>
<g><path style="opacity:0.998" fill="#21659d" d="M 119.5,181.5 C 125.992,183.695 131.992,186.695 137.5,190.5C 136.735,190.923 135.902,191.257 135,191.5C 129.426,188.808 123.593,186.808 117.5,185.5C 117.157,183.517 117.824,182.183 119.5,181.5 Z"/></g>
<g><path style="opacity:1" fill="#2e78b9" d="M 117.5,180.5 C 118.492,180.328 119.158,180.662 119.5,181.5C 117.824,182.183 117.157,183.517 117.5,185.5C 123.593,186.808 129.426,188.808 135,191.5C 135.902,191.257 136.735,190.923 137.5,190.5C 144.642,194.126 150.809,199.126 156,205.5C 157.289,207.055 157.956,208.721 158,210.5C 147.023,201.283 134.523,195.117 120.5,192C 118.616,190.951 117.282,189.451 116.5,187.5C 116.198,184.941 116.532,182.607 117.5,180.5 Z"/></g>
<g><path style="opacity:0.742" fill="#9cbad3" d="M 117.5,180.5 C 116.532,182.607 116.198,184.941 116.5,187.5C 115.2,184.976 115.2,182.309 116.5,179.5C 117.107,179.624 117.44,179.957 117.5,180.5 Z"/></g>
<g><path style="opacity:0.075" fill="#ecf1f5" d="M 281.5,261.5 C 287.358,261.822 293.025,261.489 298.5,260.5C 299.451,259.081 299.784,257.415 299.5,255.5C 295.833,255.5 292.167,255.5 288.5,255.5C 288.5,253.167 288.5,250.833 288.5,248.5C 291.833,248.5 295.167,248.5 298.5,248.5C 298.5,246.833 298.5,245.167 298.5,243.5C 295.713,242.523 292.713,242.19 289.5,242.5C 289.5,240.5 289.5,238.5 289.5,236.5C 292.833,236.5 296.167,236.5 299.5,236.5C 299.784,234.585 299.451,232.919 298.5,231.5C 293.167,231.5 287.833,231.5 282.5,231.5C 282.167,231.5 281.833,231.5 281.5,231.5C 287.75,229.541 294.416,228.874 301.5,229.5C 301.777,232.448 301.444,235.281 300.5,238C 297.518,238.498 294.518,238.665 291.5,238.5C 291.5,239.5 291.5,240.5 291.5,241.5C 294.518,241.335 297.518,241.502 300.5,242C 301.833,244.667 301.833,247.333 300.5,250C 297.518,250.498 294.518,250.665 291.5,250.5C 291.5,251.5 291.5,252.5 291.5,253.5C 294.518,253.335 297.518,253.502 300.5,254C 301.444,256.719 301.777,259.552 301.5,262.5C 294.646,262.824 287.979,262.491 281.5,261.5 Z"/></g>
<g><path style="opacity:1" fill="#2a7abd" d="M 58.5,244.5 C 59.0978,249.813 59.4312,255.146 59.5,260.5C 57.8333,260.5 56.1667,260.5 54.5,260.5C 54.4184,254.766 53.7517,249.099 52.5,243.5C 51.8933,243.624 51.56,243.957 51.5,244.5C 49.2903,249.959 46.7903,255.292 44,260.5C 43.228,260.355 42.5613,260.022 42,259.5C 36.4556,237.975 33.6222,238.308 33.5,260.5C 31.8333,260.5 30.1667,260.5 28.5,260.5C 28.6256,251.491 28.959,242.491 29.5,233.5C 31.6353,231.631 34.3019,230.964 37.5,231.5C 38.9294,237.029 40.9294,242.363 43.5,247.5C 46.3902,242.863 48.7236,237.863 50.5,232.5C 52.7427,231.526 55.076,231.192 57.5,231.5C 58.1995,235.798 58.5328,240.131 58.5,244.5 Z"/></g>
<g><path style="opacity:1" fill="#2c7abd" d="M 282.5,231.5 C 287.833,231.5 293.167,231.5 298.5,231.5C 298.5,232.833 298.5,234.167 298.5,235.5C 294.958,235.187 291.625,235.521 288.5,236.5C 288.5,238.833 288.5,241.167 288.5,243.5C 291.833,243.5 295.167,243.5 298.5,243.5C 298.5,245.167 298.5,246.833 298.5,248.5C 295.167,248.5 291.833,248.5 288.5,248.5C 288.5,250.833 288.5,253.167 288.5,255.5C 292.167,255.5 295.833,255.5 299.5,255.5C 299.784,257.415 299.451,259.081 298.5,260.5C 293.167,260.5 287.833,260.5 282.5,260.5C 282.5,250.833 282.5,241.167 282.5,231.5 Z"/></g>
<g><path style="opacity:0.846" fill="#79add6" d="M 298.5,231.5 C 299.451,232.919 299.784,234.585 299.5,236.5C 296.167,236.5 292.833,236.5 289.5,236.5C 289.167,236.5 288.833,236.5 288.5,236.5C 291.625,235.521 294.958,235.187 298.5,235.5C 298.5,234.167 298.5,232.833 298.5,231.5 Z"/></g>
<g><path style="opacity:0.141" fill="#e7eef3" d="M 64.5,229.5 C 68.1817,229.335 71.8484,229.501 75.5,230C 77.0456,232.257 78.7123,234.424 80.5,236.5C 82.3271,234.5 83.9938,232.333 85.5,230C 89.1516,229.501 92.8183,229.335 96.5,229.5C 93.7989,235.893 90.2989,241.893 86,247.5C 85.5007,252.489 85.3341,257.489 85.5,262.5C 82.1667,262.5 78.8333,262.5 75.5,262.5C 75.6659,257.489 75.4993,252.489 75,247.5C 70.7011,241.893 67.2011,235.893 64.5,229.5 Z"/></g>
<g><path style="opacity:1" fill="#2e7cbe" d="M 67.5,231.5 C 69.924,231.192 72.2573,231.526 74.5,232.5C 75.86,235.228 77.6934,237.561 80,239.5C 82.4685,237.358 84.6351,234.858 86.5,232C 88.8333,231.333 91.1667,231.333 93.5,232C 90.3333,236.5 87.1667,241 84,245.5C 83.5007,250.489 83.3341,255.489 83.5,260.5C 81.5,260.5 79.5,260.5 77.5,260.5C 77.6658,255.821 77.4992,251.155 77,246.5C 73.312,241.782 70.1454,236.782 67.5,231.5 Z"/></g>
<g><path style="opacity:0.063" fill="#e8eef3" d="M 125.5,229.5 C 130.179,229.334 134.845,229.501 139.5,230C 143.04,230.329 144.206,232.162 143,235.5C 141.203,241.097 137.869,242.097 133,238.5C 126.576,239.587 124.243,243.254 126,249.5C 129.79,253.854 134.123,254.521 139,251.5C 145.439,256.564 144.939,260.398 137.5,263C 121.492,264.658 113.992,257.491 115,241.5C 116.936,236.068 120.436,232.068 125.5,229.5 Z"/></g>
<g><path style="opacity:1" fill="#2a7abd" d="M 129.5,230.5 C 133.054,230.15 136.388,230.816 139.5,232.5C 140.748,234.597 140.248,236.264 138,237.5C 127.775,234.423 122.775,238.09 123,248.5C 126.665,255.097 132.165,257.263 139.5,255C 140.38,256.356 140.714,257.856 140.5,259.5C 122.623,263.116 115.123,256.116 118,238.5C 120.913,234.406 124.746,231.74 129.5,230.5 Z"/></g>
<g><path style="opacity:0.604" fill="#c0d0dd" d="M 28.5,233.5 C 28.8333,233.5 29.1667,233.5 29.5,233.5C 28.959,242.491 28.6256,251.491 28.5,260.5C 30.1667,260.5 31.8333,260.5 33.5,260.5C 31.3926,261.468 29.0593,261.802 26.5,261.5C 26.8658,252.143 27.5325,242.81 28.5,233.5 Z"/></g>
<g><path style="opacity:0.073" fill="#eef2f6" d="M 52.5,254.5 C 53.1667,256.5 53.8333,258.5 54.5,260.5C 56.2646,261.461 58.2646,261.795 60.5,261.5C 60.6657,257.154 60.499,252.821 60,248.5C 59.79,246.942 59.29,245.609 58.5,244.5C 58.5328,240.131 58.1995,235.798 57.5,231.5C 55.076,231.192 52.7427,231.526 50.5,232.5C 48.7236,237.863 46.3902,242.863 43.5,247.5C 40.9294,242.363 38.9294,237.029 37.5,231.5C 34.3019,230.964 31.6353,231.631 29.5,233.5C 29.1667,233.5 28.8333,233.5 28.5,233.5C 28.5,232.167 28.5,230.833 28.5,229.5C 32.1667,229.5 35.8333,229.5 39.5,229.5C 40.6927,233.911 42.1927,238.244 44,242.5C 46.1162,238.661 47.9495,234.661 49.5,230.5C 53.0447,229.209 56.5447,229.209 60,230.5C 61.1047,241.151 61.938,251.817 62.5,262.5C 59.1667,262.5 55.8333,262.5 52.5,262.5C 52.5,259.833 52.5,257.167 52.5,254.5 Z"/></g>
<g><path style="opacity:0.618" fill="#c0d7ea" d="M 288.5,236.5 C 288.833,236.5 289.167,236.5 289.5,236.5C 289.5,238.5 289.5,240.5 289.5,242.5C 292.713,242.19 295.713,242.523 298.5,243.5C 295.167,243.5 291.833,243.5 288.5,243.5C 288.5,241.167 288.5,238.833 288.5,236.5 Z"/></g>
<g><path style="opacity:0.066" fill="#dee7f0" d="M 219.5,229.5 C 224.844,229.334 230.177,229.501 235.5,230C 240.757,231.15 243.424,234.483 243.5,240C 243.248,243.931 241.581,247.097 238.5,249.5C 241.261,253.35 244.261,257.017 247.5,260.5C 247.291,261.086 246.957,261.586 246.5,262C 239.059,264.355 233.559,262.188 230,255.5C 229.764,257.764 229.264,259.931 228.5,262C 225.518,262.498 222.518,262.665 219.5,262.5C 219.5,251.5 219.5,240.5 219.5,229.5 Z M 229.5,238.5 C 230.5,238.5 231.5,238.5 232.5,238.5C 232.778,240.346 232.111,241.68 230.5,242.5C 229.571,241.311 229.238,239.978 229.5,238.5 Z"/></g>
<g><path style="opacity:1" fill="#2678bd" d="M 221.5,231.5 C 226.179,231.334 230.845,231.501 235.5,232C 240.143,234.072 241.643,237.572 240,242.5C 238.485,244.677 236.985,246.844 235.5,249C 237.577,252.915 240.244,256.415 243.5,259.5C 241.235,260.647 238.902,260.814 236.5,260C 233.658,256.328 230.658,252.828 227.5,249.5C 226.511,253.107 226.177,256.774 226.5,260.5C 224.833,260.5 223.167,260.5 221.5,260.5C 221.5,250.833 221.5,241.167 221.5,231.5 Z M 229.5,238.5 C 229.238,239.978 229.571,241.311 230.5,242.5C 232.111,241.68 232.778,240.346 232.5,238.5C 231.5,238.5 230.5,238.5 229.5,238.5 Z"/></g>
<g><path style="opacity:0.668" fill="#b2cee5" d="M 231.5,236.5 C 230.167,236.5 228.833,236.5 227.5,236.5C 227.5,238.833 227.5,241.167 227.5,243.5C 229.167,243.5 230.833,243.5 232.5,243.5C 230.735,244.461 228.735,244.795 226.5,244.5C 226.5,241.5 226.5,238.5 226.5,235.5C 228.415,235.216 230.081,235.549 231.5,236.5 Z"/></g>
<g><path style="opacity:0.05" fill="#f1f4f8" d="M 231.5,236.5 C 233.722,236.559 234.722,237.725 234.5,240C 234.613,241.699 233.947,242.866 232.5,243.5C 230.833,243.5 229.167,243.5 227.5,243.5C 227.5,241.167 227.5,238.833 227.5,236.5C 228.833,236.5 230.167,236.5 231.5,236.5 Z M 229.5,238.5 C 229.238,239.978 229.571,241.311 230.5,242.5C 232.111,241.68 232.778,240.346 232.5,238.5C 231.5,238.5 230.5,238.5 229.5,238.5 Z"/></g>
<g><path style="opacity:0.445" fill="#bac5ce" d="M 281.5,231.5 C 281.833,231.5 282.167,231.5 282.5,231.5C 282.5,241.167 282.5,250.833 282.5,260.5C 287.833,260.5 293.167,260.5 298.5,260.5C 293.025,261.489 287.358,261.822 281.5,261.5C 281.5,251.5 281.5,241.5 281.5,231.5 Z"/></g>
<g><path style="opacity:0.046" fill="#e7edf3" d="M 51.5,244.5 C 52.4682,246.607 52.8016,248.941 52.5,251.5C 50.3759,254.665 48.7092,258.165 47.5,262C 45.1902,262.497 42.8568,262.663 40.5,262.5C 39.8404,258.687 38.6738,255.021 37,251.5C 36.7537,254.89 36.2537,258.223 35.5,261.5C 32.3553,262.803 29.3553,262.803 26.5,261.5C 29.0593,261.802 31.3926,261.468 33.5,260.5C 33.6222,238.308 36.4556,237.975 42,259.5C 42.5613,260.022 43.228,260.355 44,260.5C 46.7903,255.292 49.2903,249.959 51.5,244.5 Z"/></g>
<g><path style="opacity:0.461" fill="#bad0e4" d="M 58.5,244.5 C 59.29,245.609 59.79,246.942 60,248.5C 60.499,252.821 60.6657,257.154 60.5,261.5C 58.2646,261.795 56.2646,261.461 54.5,260.5C 56.1667,260.5 57.8333,260.5 59.5,260.5C 59.4312,255.146 59.0978,249.813 58.5,244.5 Z"/></g>
<g><path style="opacity:0.05" fill="#e7eef4" d="M 258.5,229.5 C 262.514,229.334 266.514,229.501 270.5,230C 275.128,231.785 275.795,234.618 272.5,238.5C 271.672,239.415 270.672,240.081 269.5,240.5C 267.368,238.883 265.035,238.383 262.5,239C 265.796,240.995 269.13,242.995 272.5,245C 277.94,253.498 275.94,259.498 266.5,263C 259.571,264.634 253.904,262.801 249.5,257.5C 250.811,254.865 252.478,252.531 254.5,250.5C 257.079,251.706 259.579,253.039 262,254.5C 262.925,253.953 263.758,253.287 264.5,252.5C 261.995,250.747 259.329,249.247 256.5,248C 250.721,241.067 251.388,234.901 258.5,229.5 Z"/></g>
<g><path style="opacity:1" fill="#2a7abd" d="M 261.5,230.5 C 265.351,230.455 268.684,231.621 271.5,234C 271.22,235.395 270.553,236.562 269.5,237.5C 267.043,235.775 264.377,235.275 261.5,236C 260.426,236.739 259.759,237.739 259.5,239C 263.662,242.017 267.829,245.184 272,248.5C 273.724,253.731 272.224,257.565 267.5,260C 263.5,260.667 259.5,260.667 255.5,260C 253.59,259.592 252.59,258.425 252.5,256.5C 252.434,254.734 253.268,253.734 255,253.5C 258.566,255.536 262.232,255.869 266,254.5C 266.667,253.167 266.667,251.833 266,250.5C 263.079,248.288 259.912,246.455 256.5,245C 252.536,237.952 254.202,233.118 261.5,230.5 Z"/></g>
<g><path style="opacity:0.008" fill="#e6edf2" d="M 203.5,249.5 C 203.5,250.5 203.5,251.5 203.5,252.5C 199.949,256.694 196.782,256.361 194,251.5C 193.5,244.842 193.334,238.175 193.5,231.5C 191.735,230.539 189.735,230.205 187.5,230.5C 187.175,238.019 187.508,245.352 188.5,252.5C 188.544,256.09 190.211,258.59 193.5,260C 197.956,260.867 202.289,260.534 206.5,259C 208.049,257.786 209.215,256.286 210,254.5C 210.5,246.841 210.666,239.174 210.5,231.5C 208.393,230.532 206.059,230.198 203.5,230.5C 206.565,229.182 209.731,229.182 213,230.5C 213.839,239.22 213.505,247.887 212,256.5C 209.141,261.432 204.807,263.765 199,263.5C 193.34,263.952 189.34,261.619 187,256.5C 186.5,247.506 186.334,238.506 186.5,229.5C 189.833,229.5 193.167,229.5 196.5,229.5C 196.334,237.174 196.5,244.841 197,252.5C 200.505,254.255 202.672,253.255 203.5,249.5 Z"/></g>
<g><path style="opacity:0.816" fill="#7eadd3" d="M 193.5,231.5 C 191.833,231.5 190.167,231.5 188.5,231.5C 188.5,238.5 188.5,245.5 188.5,252.5C 187.508,245.352 187.175,238.019 187.5,230.5C 189.735,230.205 191.735,230.539 193.5,231.5 Z"/></g>
<g><path style="opacity:0.486" fill="#adbfcd" d="M 203.5,230.5 C 206.059,230.198 208.393,230.532 210.5,231.5C 208.5,231.5 206.5,231.5 204.5,231.5C 204.825,238.687 204.491,245.687 203.5,252.5C 203.5,251.5 203.5,250.5 203.5,249.5C 203.5,243.167 203.5,236.833 203.5,230.5 Z"/></g>
<g><path style="opacity:1" fill="#2578bc" d="M 193.5,231.5 C 193.334,238.175 193.5,244.842 194,251.5C 196.782,256.361 199.949,256.694 203.5,252.5C 204.491,245.687 204.825,238.687 204.5,231.5C 206.5,231.5 208.5,231.5 210.5,231.5C 210.666,239.174 210.5,246.841 210,254.5C 209.215,256.286 208.049,257.786 206.5,259C 202.289,260.534 197.956,260.867 193.5,260C 190.211,258.59 188.544,256.09 188.5,252.5C 188.5,245.5 188.5,238.5 188.5,231.5C 190.167,231.5 191.833,231.5 193.5,231.5 Z"/></g>
<g><path style="opacity:0.643" fill="#a0c1dd" d="M 51.5,244.5 C 51.56,243.957 51.8933,243.624 52.5,243.5C 53.7517,249.099 54.4184,254.766 54.5,260.5C 53.8333,258.5 53.1667,256.5 52.5,254.5C 52.5,253.5 52.5,252.5 52.5,251.5C 52.8016,248.941 52.4682,246.607 51.5,244.5 Z"/></g>
<g><path style="opacity:0.075" fill="#e5ecf2" d="M 157.5,229.5 C 175.112,227.609 182.612,235.276 180,252.5C 174.998,262.504 167.165,265.67 156.5,262C 148.081,256.183 145.581,248.35 149,238.5C 150.688,234.315 153.521,231.315 157.5,229.5 Z M 162.5,238.5 C 170.185,240.204 172.185,244.537 168.5,251.5C 162.265,255.113 158.932,253.279 158.5,246C 157.957,242.403 159.291,239.903 162.5,238.5 Z"/></g>
<g><path style="opacity:1" fill="#2b7abe" d="M 160.5,230.5 C 175.349,230.847 180.849,238.18 177,252.5C 172.652,260.108 166.152,262.608 157.5,260C 149.599,254.282 147.432,246.782 151,237.5C 153.529,234.115 156.696,231.782 160.5,230.5 Z M 162.5,238.5 C 159.291,239.903 157.957,242.403 158.5,246C 158.932,253.279 162.265,255.113 168.5,251.5C 172.185,244.537 170.185,240.204 162.5,238.5 Z"/></g>
<g><path style="opacity:0.094" fill="#e0e9f1" d="M 159.5,236.5 C 170.538,235.896 174.371,240.896 171,251.5C 165.091,257.348 160.091,256.681 156,249.5C 154.668,244.415 155.835,240.081 159.5,236.5 Z M 162.5,238.5 C 159.291,239.903 157.957,242.403 158.5,246C 158.932,253.279 162.265,255.113 168.5,251.5C 172.185,244.537 170.185,240.204 162.5,238.5 Z"/></g>
<g><path style="opacity:0.306" fill="#ecf3f3" d="M 220.5,273.5 C 223.97,272.875 226.804,273.875 229,276.5C 231.37,273.263 234.203,272.763 237.5,275C 235.667,277.5 233.833,280 232,282.5C 231.502,285.482 231.335,288.482 231.5,291.5C 229.833,291.5 228.167,291.5 226.5,291.5C 227.345,285.514 225.512,280.514 221,276.5C 220.517,275.552 220.351,274.552 220.5,273.5 Z"/></g>
<g><path style="opacity:0.367" fill="#cbdad9" d="M 166.5,273.5 C 166.5,273.833 166.5,274.167 166.5,274.5C 164.167,274.5 161.833,274.5 159.5,274.5C 159.5,279.5 159.5,284.5 159.5,289.5C 162.167,289.5 164.833,289.5 167.5,289.5C 164.713,290.477 161.713,290.81 158.5,290.5C 158.5,284.833 158.5,279.167 158.5,273.5C 161.167,273.5 163.833,273.5 166.5,273.5 Z"/></g>
<g><path style="opacity:0.777" fill="#75d4d3" d="M 166.5,274.5 C 171.645,277.559 172.812,281.893 170,287.5C 169.292,288.381 168.458,289.047 167.5,289.5C 164.833,289.5 162.167,289.5 159.5,289.5C 159.5,284.5 159.5,279.5 159.5,274.5C 161.833,274.5 164.167,274.5 166.5,274.5 Z M 163.5,278.5 C 168.654,279.268 169.654,281.768 166.5,286C 165.552,286.483 164.552,286.649 163.5,286.5C 163.5,283.833 163.5,281.167 163.5,278.5 Z"/></g>
<g><path style="opacity:0.057" fill="#eff6f6" d="M 115.5,278.5 C 118.678,272.556 123.345,271.223 129.5,274.5C 130.754,276.259 130.421,277.759 128.5,279C 126.189,278.845 123.856,278.845 121.5,279C 119.006,281.244 119.006,283.577 121.5,286C 123.809,286.756 125.809,286.256 127.5,284.5C 129.942,285.384 130.775,287.051 130,289.5C 123.952,293.906 118.952,292.906 115,286.5C 114.199,283.633 114.366,280.966 115.5,278.5 Z"/></g>
<g><path style="opacity:0.871" fill="#74d5d4" d="M 115.5,278.5 C 118.41,275.049 122.077,273.882 126.5,275C 127.696,275.654 127.696,276.154 126.5,276.5C 121.338,274.749 118.338,276.582 117.5,282C 118.823,288.163 122.156,289.663 127.5,286.5C 128.604,287.631 128.271,288.465 126.5,289C 118.539,290.209 114.872,286.709 115.5,278.5 Z"/></g>
<g><path style="opacity:0.043" fill="#edf5f5" d="M 161.5,275.5 C 169.631,276.242 171.631,280.242 167.5,287.5C 165.591,288.348 163.591,288.682 161.5,288.5C 161.5,284.167 161.5,279.833 161.5,275.5 Z M 163.5,278.5 C 163.5,281.167 163.5,283.833 163.5,286.5C 164.552,286.649 165.552,286.483 166.5,286C 169.654,281.768 168.654,279.268 163.5,278.5 Z"/></g>
<g><path style="opacity:0.89" fill="#6ad2d0" d="M 223.5,274.5 C 225.388,275.94 227.055,277.606 228.5,279.5C 229.99,277.874 231.49,276.208 233,274.5C 232.874,277.098 231.874,279.431 230,281.5C 229,292.167 228,292.167 227,281.5C 225.121,279.473 223.954,277.14 223.5,274.5 Z"/></g>
<g><path style="opacity:0.044" fill="#f4f9f9" d="M 189.5,273.5 C 191.344,274.204 191.844,275.537 191,277.5C 188.931,278.264 186.764,278.764 184.5,279C 186.81,279.497 189.143,279.663 191.5,279.5C 191.714,281.144 191.38,282.644 190.5,284C 182.78,285.394 183.114,286.228 191.5,286.5C 191.5,288.167 191.5,289.833 191.5,291.5C 187.298,291.817 183.298,291.483 179.5,290.5C 181.099,290.768 182.432,290.434 183.5,289.5C 185.527,289.662 187.527,289.495 189.5,289C 187.19,288.503 184.857,288.337 182.5,288.5C 182.5,286.5 182.5,284.5 182.5,282.5C 190.5,281.833 190.5,281.167 182.5,280.5C 182.5,278.833 182.5,277.167 182.5,275.5C 185.059,275.802 187.393,275.468 189.5,274.5C 189.5,274.167 189.5,273.833 189.5,273.5 Z"/></g>
<g><path style="opacity:0.843" fill="#6bd1d0" d="M 189.5,274.5 C 187.393,275.468 185.059,275.802 182.5,275.5C 182.5,277.167 182.5,278.833 182.5,280.5C 190.5,281.167 190.5,281.833 182.5,282.5C 182.5,284.5 182.5,286.5 182.5,288.5C 184.857,288.337 187.19,288.503 189.5,289C 187.527,289.495 185.527,289.662 183.5,289.5C 182.5,289.5 181.5,289.5 180.5,289.5C 180.5,284.5 180.5,279.5 180.5,274.5C 183.5,274.5 186.5,274.5 189.5,274.5 Z"/></g>
<g><path style="opacity:0.073" fill="#ecf3f3" d="M 197.5,273.5 C 199.527,273.338 201.527,273.505 203.5,274C 204.304,275.771 205.471,277.271 207,278.5C 208.529,277.271 209.696,275.771 210.5,274C 212.473,273.505 214.473,273.338 216.5,273.5C 216.666,279.176 216.499,284.843 216,290.5C 214.644,291.38 213.144,291.714 211.5,291.5C 211.665,288.482 211.498,285.482 211,282.5C 208.778,287.228 206.111,287.561 203,283.5C 202.503,286.146 202.336,288.813 202.5,291.5C 200.833,291.5 199.167,291.5 197.5,291.5C 197.5,285.5 197.5,279.5 197.5,273.5 Z"/></g>
<g><path style="opacity:0.902" fill="#70d3d2" d="M 198.5,274.5 C 201.77,276.101 204.437,278.434 206.5,281.5C 208.156,279.54 209.823,277.54 211.5,275.5C 212.325,274.614 213.325,274.281 214.5,274.5C 214.827,279.544 214.494,284.544 213.5,289.5C 212.833,285.833 212.167,282.167 211.5,278.5C 210.167,280.5 208.5,282.167 206.5,283.5C 204.5,282.167 202.833,280.5 201.5,278.5C 200.833,282.167 200.167,285.833 199.5,289.5C 198.506,284.544 198.173,279.544 198.5,274.5 Z"/></g>
<g><path style="opacity:0.432" fill="#c2d3d3" d="M 189.5,273.5 C 189.5,273.833 189.5,274.167 189.5,274.5C 186.5,274.5 183.5,274.5 180.5,274.5C 180.5,279.5 180.5,284.5 180.5,289.5C 181.5,289.5 182.5,289.5 183.5,289.5C 182.432,290.434 181.099,290.768 179.5,290.5C 179.5,284.833 179.5,279.167 179.5,273.5C 182.833,273.5 186.167,273.5 189.5,273.5 Z"/></g>
<g><path style="opacity:0.061" fill="#edf5f5" d="M 97.5,273.5 C 99.7925,273.244 101.959,273.577 104,274.5C 106.069,279.541 108.236,284.541 110.5,289.5C 109.829,290.946 108.662,291.612 107,291.5C 104.829,289.802 102.662,288.135 100.5,286.5C 98.5998,287.447 97.2665,288.947 96.5,291C 94.8659,291.494 93.1992,291.66 91.5,291.5C 93.2928,285.455 95.2928,279.455 97.5,273.5 Z"/></g>
<g><path style="opacity:0.894" fill="#67d1d0" d="M 99.5,274.5 C 100.496,274.414 101.329,274.748 102,275.5C 103.833,279.833 105.667,284.167 107.5,288.5C 107.167,288.833 106.833,289.167 106.5,289.5C 104.662,284.653 101.329,283.32 96.5,285.5C 96.0234,286.931 95.3567,288.264 94.5,289.5C 94.1667,289 93.8333,288.5 93.5,288C 95.4097,283.429 97.4097,278.929 99.5,274.5 Z"/></g>
<g><path style="opacity:0.094" fill="#e6f6f6" d="M 99.5,278.5 C 102.084,279.048 103.084,280.715 102.5,283.5C 101.167,283.5 99.8333,283.5 98.5,283.5C 98.366,281.708 98.6993,280.042 99.5,278.5 Z"/></g>
<g><path style="opacity:0.057" fill="#ecf5f5" d="M 141.5,273.5 C 143.604,273.201 145.604,273.534 147.5,274.5C 150.305,279.917 152.305,285.584 153.5,291.5C 151.801,291.66 150.134,291.494 148.5,291C 145.996,285.222 143.329,285.055 140.5,290.5C 138.955,291.452 137.288,291.785 135.5,291.5C 136.497,285.175 138.497,279.175 141.5,273.5 Z"/></g>
<g><path style="opacity:0.056" fill="#f4f8f8" d="M 166.5,274.5 C 166.5,274.167 166.5,273.833 166.5,273.5C 171.904,273.91 174.57,276.91 174.5,282.5C 172.302,291.263 166.968,293.929 158.5,290.5C 161.713,290.81 164.713,290.477 167.5,289.5C 168.458,289.047 169.292,288.381 170,287.5C 172.812,281.893 171.645,277.559 166.5,274.5 Z"/></g>
<g><path style="opacity:0.902" fill="#60cfce" d="M 142.5,274.5 C 143.675,274.281 144.675,274.614 145.5,275.5C 147.735,280.034 149.235,284.7 150,289.5C 148.242,285.203 145.075,283.703 140.5,285C 139.707,286.085 139.04,287.252 138.5,288.5C 137.998,289.521 137.332,289.688 136.5,289C 138.727,284.257 140.727,279.424 142.5,274.5 Z"/></g>
<g><path style="opacity:0.112" fill="#e5f5f5" d="M 142.5,278.5 C 143.5,278.5 144.5,278.5 145.5,278.5C 145.5,280.167 145.5,281.833 145.5,283.5C 144.167,283.5 142.833,283.5 141.5,283.5C 141.629,281.784 141.962,280.117 142.5,278.5 Z"/></g>
</svg>
