<?xml version="1.0" encoding="UTF-8"?>
<!DOCTYPE svg PUBLIC "-//W3C//DTD SVG 1.1//EN" "http://www.w3.org/Graphics/SVG/1.1/DTD/svg11.dtd">
<svg xmlns="http://www.w3.org/2000/svg" version="1.1" width="475px" height="475px" style="shape-rendering:geometricPrecision; text-rendering:geometricPrecision; image-rendering:optimizeQuality; fill-rule:evenodd; clip-rule:evenodd" xmlns:xlink="http://www.w3.org/1999/xlink">
<g><path style="opacity:0.149" fill="#c9a7d2" d="M 282.5,82.5 C 282.59,85.1522 281.924,87.4855 280.5,89.5C 280.171,86.7718 280.837,84.4385 282.5,82.5 Z"/></g>
<g><path style="opacity:0.337" fill="#ceafd6" d="M 274.5,87.5 C 274.263,90.6473 273.43,93.6473 272,96.5C 271.623,97.9423 270.79,98.9423 269.5,99.5C 270.796,95.2613 272.462,91.2613 274.5,87.5 Z"/></g>
<g><path style="opacity:0.294" fill="#c59ed0" d="M 280.5,89.5 C 280.59,92.1522 279.924,94.4855 278.5,96.5C 278.41,93.8478 279.076,91.5145 280.5,89.5 Z"/></g>
<g><path style="opacity:0.071" fill="#c399ce" d="M 278.5,97.5 C 278.405,99.7857 277.738,101.786 276.5,103.5C 276.259,101.102 276.926,99.1016 278.5,97.5 Z"/></g>
<g><path style="opacity:0.071" fill="#c298ce" d="M 269.5,99.5 C 269.267,102.542 268.267,105.208 266.5,107.5C 266.733,104.458 267.733,101.792 269.5,99.5 Z"/></g>
<g><path style="opacity:0.412" fill="#c6a1d1" d="M 276.5,103.5 C 276.277,107.162 275.277,110.495 273.5,113.5C 273.723,109.838 274.723,106.505 276.5,103.5 Z"/></g>
<g><path style="opacity:0.208" fill="#aa66be" d="M 129.5,129.5 C 127.259,128.7 126.259,127.034 126.5,124.5C 125.5,124.5 124.5,124.5 123.5,124.5C 123.649,123.448 123.483,122.448 123,121.5C 120.161,122.844 117.327,123.178 114.5,122.5C 117.384,120.473 120.55,118.806 124,117.5C 126.884,120.972 128.718,124.972 129.5,129.5 Z"/></g>
<g><path style="opacity:0.557" fill="#b47ac4" d="M 256.5,127.5 C 257.448,129.672 257.115,131.672 255.5,133.5C 255.662,131.473 255.495,129.473 255,127.5C 254.617,126.944 254.117,126.611 253.5,126.5C 252.962,124.883 252.629,123.216 252.5,121.5C 241.833,121.5 231.167,121.5 220.5,121.5C 220.5,122.5 220.5,123.5 220.5,124.5C 221.873,124.343 223.207,124.51 224.5,125C 226.333,128.167 228.833,130.667 232,132.5C 232.49,133.793 232.657,135.127 232.5,136.5C 232.5,137.167 232.167,137.5 231.5,137.5C 228.877,131.38 224.377,127.046 218,124.5C 217.28,122.888 217.446,121.388 218.5,120C 229.833,119.333 241.167,119.333 252.5,120C 254.495,122.157 255.828,124.657 256.5,127.5 Z"/></g>
<g><path style="opacity:0.6" fill="#a75ebd" d="M 424.5,125.5 C 422.436,125.687 420.436,126.187 418.5,127C 416.963,128.707 415.296,130.207 413.5,131.5C 415.418,127.088 418.751,124.254 423.5,123C 413.816,122.168 404.149,122.335 394.5,123.5C 393.163,126.578 391.163,128.911 388.5,130.5C 390.097,126.811 392.097,123.311 394.5,120C 404.833,119.333 415.167,119.333 425.5,120C 427.078,122.339 426.745,124.172 424.5,125.5 Z"/></g>
<g><path style="opacity:1" fill="#aa53c4" d="M 129.5,129.5 C 129.196,130.15 128.863,130.817 128.5,131.5C 129.232,135.349 130.398,139.016 132,142.5C 135.968,149.549 139.468,156.882 142.5,164.5C 142.957,165.298 143.624,165.631 144.5,165.5C 146.685,169.213 148.352,173.213 149.5,177.5C 149.196,178.15 148.863,178.817 148.5,179.5C 151.236,185.378 153.569,191.378 155.5,197.5C 154.833,198.167 154.167,198.833 153.5,199.5C 152.833,199.5 152.167,199.5 151.5,199.5C 149.473,199.338 147.473,199.505 145.5,200C 142.765,201.915 139.765,203.082 136.5,203.5C 132.704,193.895 128.871,184.229 125,174.5C 124.329,173.748 123.496,173.414 122.5,173.5C 123.108,170.938 122.942,168.271 122,165.5C 118.882,160.928 116.549,155.928 115,150.5C 114.329,149.748 113.496,149.414 112.5,149.5C 112.5,149.167 112.5,148.833 112.5,148.5C 113.043,148.44 113.376,148.107 113.5,147.5C 112.311,146.571 110.978,146.238 109.5,146.5C 110.729,140.378 109.729,134.545 106.5,129C 108.348,126.907 110.681,125.574 113.5,125C 114.252,124.329 114.586,123.496 114.5,122.5C 117.327,123.178 120.161,122.844 123,121.5C 123.483,122.448 123.649,123.448 123.5,124.5C 124.5,124.5 125.5,124.5 126.5,124.5C 126.259,127.034 127.259,128.7 129.5,129.5 Z"/></g>
<g><path style="opacity:1" fill="#aa53c3" d="M 253.5,126.5 C 254.795,130.346 254.295,134.013 252,137.5C 249.988,142.173 247.988,146.84 246,151.5C 245.329,150.748 244.496,150.414 243.5,150.5C 243.443,149.391 243.11,148.391 242.5,147.5C 241.817,145.824 240.483,145.157 238.5,145.5C 238.665,149.182 238.499,152.848 238,156.5C 237.667,156.167 237.333,155.833 237,155.5C 236.827,151.459 236.327,147.459 235.5,143.5C 235.062,140.705 234.062,138.372 232.5,136.5C 232.657,135.127 232.49,133.793 232,132.5C 228.833,130.667 226.333,128.167 224.5,125C 223.207,124.51 221.873,124.343 220.5,124.5C 220.5,123.5 220.5,122.5 220.5,121.5C 231.167,121.5 241.833,121.5 252.5,121.5C 252.629,123.216 252.962,124.883 253.5,126.5 Z"/></g>
<g><path style="opacity:0.294" fill="#c59fd0" d="M 261.5,119.5 C 261.598,121.553 260.931,123.22 259.5,124.5C 259.402,122.447 260.069,120.78 261.5,119.5 Z"/></g>
<g><path style="opacity:1" fill="#aa52c4" d="M 413.5,131.5 C 413.08,133.094 412.414,134.594 411.5,136C 411.645,136.772 411.978,137.439 412.5,138C 409.663,140.519 408.996,143.519 410.5,147C 408.737,150.243 408.071,153.743 408.5,157.5C 407.093,205.678 407.259,254.012 409,302.5C 409.383,303.056 409.883,303.389 410.5,303.5C 411.736,305.611 413.236,307.611 415,309.5C 415.383,308.944 415.883,308.611 416.5,308.5C 416.721,309.735 417.388,310.735 418.5,311.5C 404.5,312.833 390.5,312.833 376.5,311.5C 379.441,310.227 381.774,308.227 383.5,305.5C 388.234,304.209 392.901,303.209 397.5,302.5C 399.745,302.459 400.412,301.625 399.5,300C 395.644,299.823 391.977,299.323 388.5,298.5C 391.436,296.745 394.269,294.745 397,292.5C 402.435,282.755 399.602,279.088 388.5,281.5C 388.5,235.5 388.5,189.5 388.5,143.5C 386.097,143.393 384.264,144.393 383,146.5C 381.254,150.327 379.254,153.993 377,157.5C 376.308,156.975 375.808,156.308 375.5,155.5C 380.041,147.584 384.707,139.751 389.5,132C 388.944,131.617 388.611,131.117 388.5,130.5C 391.163,128.911 393.163,126.578 394.5,123.5C 404.149,122.335 413.816,122.168 423.5,123C 418.751,124.254 415.418,127.088 413.5,131.5 Z"/></g>
<g><path style="opacity:1" fill="#ab64c0" d="M 253.5,126.5 C 254.117,126.611 254.617,126.944 255,127.5C 255.495,129.473 255.662,131.473 255.5,133.5C 253.628,137.262 252.295,141.262 251.5,145.5C 249.5,148.5 247.5,151.5 245.5,154.5C 244.833,153.167 244.167,151.833 243.5,150.5C 244.496,150.414 245.329,150.748 246,151.5C 247.988,146.84 249.988,142.173 252,137.5C 254.295,134.013 254.795,130.346 253.5,126.5 Z"/></g>
<g><path style="opacity:0.988" fill="#ddc8e3" d="M 270.5,124.5 C 269.943,129.165 268.61,133.498 266.5,137.5C 266.157,132.509 267.49,128.176 270.5,124.5 Z"/></g>
<g><path style="opacity:1" fill="#a860bd" d="M 232.5,136.5 C 234.062,138.372 235.062,140.705 235.5,143.5C 236.327,147.459 236.827,151.459 237,155.5C 237.333,155.833 237.667,156.167 238,156.5C 238.499,152.848 238.665,149.182 238.5,145.5C 240.483,145.157 241.817,145.824 242.5,147.5C 241.186,149.915 240.519,152.748 240.5,156C 240.502,159.021 240.836,161.854 241.5,164.5C 239.895,167.378 238.561,170.378 237.5,173.5C 236.5,174.167 235.5,174.833 234.5,175.5C 234.5,169.167 234.5,162.833 234.5,156.5C 235.638,153.696 235.805,150.696 235,147.5C 234.465,144.031 233.298,141.031 231.5,138.5C 231.5,138.167 231.5,137.833 231.5,137.5C 232.167,137.5 232.5,137.167 232.5,136.5 Z"/></g>
<g><path style="opacity:1" fill="#a95cc0" d="M 261.5,138.5 C 259.945,144.978 258.278,151.311 256.5,157.5C 255.686,159.781 254.352,161.781 252.5,163.5C 251.516,160.572 251.183,157.572 251.5,154.5C 253.666,151.162 254.999,147.495 255.5,143.5C 256.167,143.5 256.5,143.167 256.5,142.5C 258.007,140.711 259.34,138.711 260.5,136.5C 261.298,136.957 261.631,137.624 261.5,138.5 Z"/></g>
<g><path style="opacity:1" fill="#aa53c3" d="M 264.5,146.5 C 266.578,147.743 268.412,149.41 270,151.5C 273.284,157.232 276.451,163.066 279.5,169C 278.944,170.011 278.278,170.844 277.5,171.5C 272.57,172.648 267.57,173.315 262.5,173.5C 261.167,173.5 259.833,173.5 258.5,173.5C 260.512,167.656 262.345,161.656 264,155.5C 264.498,152.518 264.665,149.518 264.5,146.5 Z"/></g>
<g><path style="opacity:1" fill="#ac67c0" d="M 264.5,146.5 C 264.665,149.518 264.498,152.518 264,155.5C 262.345,161.656 260.512,167.656 258.5,173.5C 259.833,173.5 261.167,173.5 262.5,173.5C 260.735,174.461 258.735,174.795 256.5,174.5C 258.799,164.97 261.465,155.636 264.5,146.5 Z"/></g>
<g><path style="opacity:0.294" fill="#c195cd" d="M 242.5,147.5 C 243.11,148.391 243.443,149.391 243.5,150.5C 242.883,150.389 242.383,150.056 242,149.5C 241.186,154.02 241.353,158.354 242.5,162.5C 242.167,163.167 241.833,163.833 241.5,164.5C 240.836,161.854 240.502,159.021 240.5,156C 240.519,152.748 241.186,149.915 242.5,147.5 Z"/></g>
<g><path style="opacity:0.412" fill="#bc8cca" d="M 231.5,138.5 C 233.298,141.031 234.465,144.031 235,147.5C 235.805,150.696 235.638,153.696 234.5,156.5C 233.871,150.428 232.871,144.428 231.5,138.5 Z"/></g>
<g><path style="opacity:1" fill="#f0e6f2" d="M 255.5,143.5 C 254.999,147.495 253.666,151.162 251.5,154.5C 250.186,157.128 248.853,159.795 247.5,162.5C 247.443,163.609 247.11,164.609 246.5,165.5C 243.888,168.546 241.888,172.046 240.5,176C 241.424,178.79 243.091,179.29 245.5,177.5C 247.167,178.167 248.833,178.833 250.5,179.5C 246.418,179.344 242.418,179.844 238.5,181C 236.859,182.129 235.859,183.629 235.5,185.5C 235.5,185.833 235.5,186.167 235.5,186.5C 234.094,186.973 233.427,187.973 233.5,189.5C 232.226,192.76 230.56,195.76 228.5,198.5C 226.412,200.336 225.079,202.669 224.5,205.5C 219.814,214.211 214.147,222.211 207.5,229.5C 202.146,233.887 197.48,238.887 193.5,244.5C 192.167,245.833 190.833,247.167 189.5,248.5C 187.596,248.738 186.262,249.738 185.5,251.5C 183.761,252.434 182.095,252.434 180.5,251.5C 182.188,250.479 183.521,249.145 184.5,247.5C 185.861,245.473 187.527,243.806 189.5,242.5C 192.394,241.118 194.894,239.118 197,236.5C 199.741,233.271 202.241,229.938 204.5,226.5C 213.261,214.641 221.261,202.308 228.5,189.5C 230.818,187.815 231.818,185.481 231.5,182.5C 227.239,182.898 223.239,183.898 219.5,185.5C 214.404,185.044 209.738,186.044 205.5,188.5C 192.792,191.511 180.125,194.844 167.5,198.5C 164.784,198.678 162.117,199.178 159.5,200C 154.399,201.519 149.732,203.686 145.5,206.5C 145.167,206.5 144.833,206.5 144.5,206.5C 141.515,207.326 138.849,208.659 136.5,210.5C 134.95,211.441 133.284,212.107 131.5,212.5C 131.167,212.5 130.833,212.5 130.5,212.5C 130.5,211.833 130.5,211.167 130.5,210.5C 130.5,210.167 130.5,209.833 130.5,209.5C 131.671,208.655 133.005,207.989 134.5,207.5C 140.084,204.54 145.751,201.873 151.5,199.5C 152.167,199.5 152.833,199.5 153.5,199.5C 163.005,196.795 172.338,193.795 181.5,190.5C 196.161,186.165 211.161,182.832 226.5,180.5C 232.361,181.412 236.027,179.079 237.5,173.5C 238.561,170.378 239.895,167.378 241.5,164.5C 241.833,163.833 242.167,163.167 242.5,162.5C 242.94,159.62 243.94,156.954 245.5,154.5C 247.5,151.5 249.5,148.5 251.5,145.5C 251.351,146.552 251.517,147.552 252,148.5C 253.286,146.817 254.453,145.151 255.5,143.5 Z"/></g>
<g><path style="opacity:0.992" fill="#af75c0" d="M 265.5,142.5 C 271.833,150.489 277.167,159.156 281.5,168.5C 281.5,169.5 281.5,170.5 281.5,171.5C 280.167,171.5 278.833,171.5 277.5,171.5C 278.278,170.844 278.944,170.011 279.5,169C 276.451,163.066 273.284,157.232 270,151.5C 268.412,149.41 266.578,147.743 264.5,146.5C 264.232,144.901 264.566,143.568 265.5,142.5 Z"/></g>
<g><path style="opacity:1" fill="#a760bc" d="M 388.5,130.5 C 388.611,131.117 388.944,131.617 389.5,132C 384.707,139.751 380.041,147.584 375.5,155.5C 375.808,156.308 376.308,156.975 377,157.5C 379.254,153.993 381.254,150.327 383,146.5C 384.264,144.393 386.097,143.393 388.5,143.5C 388.5,189.5 388.5,235.5 388.5,281.5C 399.602,279.088 402.435,282.755 397,292.5C 394.269,294.745 391.436,296.745 388.5,298.5C 391.518,294.983 394.685,291.65 398,288.5C 398.667,287.167 398.667,285.833 398,284.5C 392.87,282.995 388.037,283.662 383.5,286.5C 383.783,285.711 384.283,285.044 385,284.5C 385.667,238.833 385.667,193.167 385,147.5C 368.807,174.563 352.641,201.563 336.5,228.5C 336.343,227.127 336.51,225.793 337,224.5C 341.077,219.353 343.744,213.687 345,207.5C 342.417,210.997 340.084,214.664 338,218.5C 337.329,219.252 336.496,219.586 335.5,219.5C 340.8,209.853 346.134,200.187 351.5,190.5C 352.167,190.5 352.5,190.167 352.5,189.5C 356.316,186.516 359.65,183.016 362.5,179C 362.164,177.97 361.497,177.47 360.5,177.5C 369.106,161.269 378.439,145.603 388.5,130.5 Z"/></g>
<g><path style="opacity:0.939" fill="#a662bb" d="M 129.5,129.5 C 134.484,141.436 139.484,153.436 144.5,165.5C 143.624,165.631 142.957,165.298 142.5,164.5C 139.468,156.882 135.968,149.549 132,142.5C 130.398,139.016 129.232,135.349 128.5,131.5C 128.863,130.817 129.196,130.15 129.5,129.5 Z"/></g>
<g><path style="opacity:1" fill="#b378c4" d="M 251.5,154.5 C 251.183,157.572 251.516,160.572 252.5,163.5C 254.352,161.781 255.686,159.781 256.5,157.5C 256.435,160.428 255.768,163.095 254.5,165.5C 253.391,165.443 252.391,165.11 251.5,164.5C 250.21,163.942 249.377,162.942 249,161.5C 248.617,162.056 248.117,162.389 247.5,162.5C 248.853,159.795 250.186,157.128 251.5,154.5 Z"/></g>
<g><path style="opacity:0.6" fill="#a258b8" d="M 408.5,157.5 C 409.195,206.296 409.862,254.963 410.5,303.5C 409.883,303.389 409.383,303.056 409,302.5C 407.259,254.012 407.093,205.678 408.5,157.5 Z"/></g>
<g><path style="opacity:0.114" fill="#ad6cc0" d="M 424.5,125.5 C 415.961,130.55 411.461,138.216 411,148.5C 410.333,197.5 410.333,246.5 411,295.5C 411.389,300.517 413.223,304.85 416.5,308.5C 415.883,308.611 415.383,308.944 415,309.5C 413.236,307.611 411.736,305.611 410.5,303.5C 409.862,254.963 409.195,206.296 408.5,157.5C 408.071,153.743 408.737,150.243 410.5,147C 408.996,143.519 409.663,140.519 412.5,138C 411.978,137.439 411.645,136.772 411.5,136C 412.414,134.594 413.08,133.094 413.5,131.5C 415.296,130.207 416.963,128.707 418.5,127C 420.436,126.187 422.436,125.687 424.5,125.5 Z"/></g>
<g><path style="opacity:0.753" fill="#a762bb" d="M 112.5,149.5 C 113.496,149.414 114.329,149.748 115,150.5C 116.549,155.928 118.882,160.928 122,165.5C 122.942,168.271 123.108,170.938 122.5,173.5C 118.206,165.966 114.873,157.966 112.5,149.5 Z"/></g>
<g><path style="opacity:0.969" fill="#ebddee" d="M 329.5,164.5 C 333.182,164.335 336.848,164.501 340.5,165C 339.833,165.333 339.167,165.667 338.5,166C 327.273,166.875 316.273,168.375 305.5,170.5C 298.831,171.5 292.164,172.5 285.5,173.5C 277.11,174.509 268.777,175.843 260.5,177.5C 259.167,177.5 257.833,177.5 256.5,177.5C 256.918,176.778 257.584,176.278 258.5,176C 257.584,175.722 256.918,175.222 256.5,174.5C 258.735,174.795 260.735,174.461 262.5,173.5C 267.57,173.315 272.57,172.648 277.5,171.5C 278.833,171.5 280.167,171.5 281.5,171.5C 281.5,170.5 281.5,169.5 281.5,168.5C 282.552,169.53 283.886,170.197 285.5,170.5C 300.116,168.064 314.783,166.064 329.5,164.5 Z"/></g>
<g><path style="opacity:0.071" fill="#c59fd0" d="M 329.5,164.5 C 333.298,163.517 337.298,163.183 341.5,163.5C 341.67,164.822 341.337,165.989 340.5,167C 328.868,168.563 317.201,169.73 305.5,170.5C 316.273,168.375 327.273,166.875 338.5,166C 339.167,165.667 339.833,165.333 340.5,165C 336.848,164.501 333.182,164.335 329.5,164.5 Z"/></g>
<g><path style="opacity:0.294" fill="#c49cd0" d="M 342.5,183.5 C 346.549,183.216 350.049,181.55 353,178.5C 353.494,176.866 353.66,175.199 353.5,173.5C 351.143,173.337 348.81,173.503 346.5,174C 347.563,175.188 348.897,175.688 350.5,175.5C 350.301,179.713 348.301,181.046 344.5,179.5C 344.624,178.893 344.957,178.56 345.5,178.5C 345.719,177.325 345.386,176.325 344.5,175.5C 342.814,176.857 341.148,178.19 339.5,179.5C 341.597,174.521 345.43,171.854 351,171.5C 354.739,171.905 356.073,173.905 355,177.5C 352.371,182.564 348.204,184.564 342.5,183.5 Z M 345.5,178.5 C 349.948,175.884 350.281,176.218 346.5,179.5C 345.893,179.376 345.56,179.043 345.5,178.5 Z"/></g>
<g><path style="opacity:0.294" fill="#c59ed0" d="M 251.5,164.5 C 252.391,165.11 253.391,165.443 254.5,165.5C 254.186,168.947 253.352,172.28 252,175.5C 249.913,176.397 247.746,177.064 245.5,177.5C 243.091,179.29 241.424,178.79 240.5,176C 241.888,172.046 243.888,168.546 246.5,165.5C 245.246,169.176 243.579,172.676 241.5,176C 250.385,176.95 253.718,173.117 251.5,164.5 Z"/></g>
<g><path style="opacity:1" fill="#a75ebd" d="M 285.5,173.5 C 285.5,174.167 285.5,174.833 285.5,175.5C 278.998,176.777 272.331,177.61 265.5,178C 265.043,178.414 264.709,178.914 264.5,179.5C 266.544,180.065 268.21,181.065 269.5,182.5C 266.487,182.893 263.82,182.226 261.5,180.5C 260.662,180.158 260.328,179.492 260.5,178.5C 260.5,178.167 260.5,177.833 260.5,177.5C 268.777,175.843 277.11,174.509 285.5,173.5 Z"/></g>
<g><path style="opacity:1" fill="#aa53c4" d="M 285.5,175.5 C 287.667,179.34 288.001,183.34 286.5,187.5C 286.167,187.5 285.833,187.5 285.5,187.5C 284.044,185.291 282.544,182.957 281,180.5C 277.302,183.409 274.135,186.742 271.5,190.5C 269.319,189.463 269.319,188.13 271.5,186.5C 271.457,185.584 271.124,184.917 270.5,184.5C 270.167,183.833 269.833,183.167 269.5,182.5C 268.21,181.065 266.544,180.065 264.5,179.5C 264.709,178.914 265.043,178.414 265.5,178C 272.331,177.61 278.998,176.777 285.5,175.5 Z"/></g>
<g><path style="opacity:1" fill="#f3ebf5" d="M 342.5,183.5 C 342.229,185.38 342.896,186.713 344.5,187.5C 344.611,188.117 344.944,188.617 345.5,189C 343.527,189.495 341.527,189.662 339.5,189.5C 336.729,190.633 333.896,191.633 331,192.5C 328.695,192.516 327.028,191.516 326,189.5C 324.223,191.79 322.056,193.457 319.5,194.5C 316.518,194.896 313.851,194.229 311.5,192.5C 310.893,192.624 310.56,192.957 310.5,193.5C 308.419,196.318 305.752,196.985 302.5,195.5C 301.297,192.84 301.297,190.173 302.5,187.5C 302.631,186.761 302.464,186.094 302,185.5C 299.295,188.036 296.795,190.703 294.5,193.5C 293.974,195.23 292.974,196.564 291.5,197.5C 289.517,197.843 288.183,197.176 287.5,195.5C 287.751,193.83 288.418,192.33 289.5,191C 288.833,190.333 288.167,190.333 287.5,191C 283.247,195.083 279.247,199.249 275.5,203.5C 274.094,203.027 273.427,202.027 273.5,200.5C 273.961,198.45 274.628,196.45 275.5,194.5C 272.884,193.805 270.884,194.805 269.5,197.5C 272.026,200.522 272.693,203.855 271.5,207.5C 266.538,212.273 260.871,213.939 254.5,212.5C 254.461,211.417 254.127,210.417 253.5,209.5C 255.475,206.195 257.809,203.195 260.5,200.5C 261.141,199.518 261.807,198.518 262.5,197.5C 261.544,195.925 260.877,194.258 260.5,192.5C 260.065,189.162 260.732,186.162 262.5,183.5C 265.157,183.162 267.49,183.829 269.5,185.5C 267.674,185.92 265.674,185.92 263.5,185.5C 263.338,187.527 263.505,189.527 264,191.5C 264.383,192.056 264.883,192.389 265.5,192.5C 265.415,193.995 266.081,194.995 267.5,195.5C 268.901,194.479 270.235,193.479 271.5,192.5C 276.442,191.555 278.775,188.555 278.5,183.5C 279.5,183.5 280.5,183.5 281.5,183.5C 281.768,186.119 281.435,188.619 280.5,191C 282.772,190.923 284.438,189.757 285.5,187.5C 285.833,187.5 286.167,187.5 286.5,187.5C 288.719,185.394 291.385,184.394 294.5,184.5C 294.898,188.957 296.564,188.957 299.5,184.5C 299.833,183.5 300.5,182.833 301.5,182.5C 303.117,181.962 304.784,181.629 306.5,181.5C 306.167,184.833 305.833,188.167 305.5,191.5C 307.698,191.88 309.365,191.213 310.5,189.5C 312.177,187.46 313.844,185.46 315.5,183.5C 318.167,181.5 320.5,179.167 322.5,176.5C 323.967,176.106 325.467,175.773 327,175.5C 328.662,175.388 329.829,176.054 330.5,177.5C 327.783,177.974 325.45,178.974 323.5,180.5C 323.167,181.5 322.5,182.167 321.5,182.5C 319.358,184.765 317.691,187.432 316.5,190.5C 318.24,191.809 319.573,191.476 320.5,189.5C 321.512,188.128 322.512,186.795 323.5,185.5C 325.148,184.19 326.814,182.857 328.5,181.5C 330.018,183.621 331.018,185.954 331.5,188.5C 335.599,186.736 338.266,183.736 339.5,179.5C 341.148,178.19 342.814,176.857 344.5,175.5C 345.386,176.325 345.719,177.325 345.5,178.5C 344.957,178.56 344.624,178.893 344.5,179.5C 348.301,181.046 350.301,179.713 350.5,175.5C 348.897,175.688 347.563,175.188 346.5,174C 348.81,173.503 351.143,173.337 353.5,173.5C 353.66,175.199 353.494,176.866 353,178.5C 350.049,181.55 346.549,183.216 342.5,183.5 Z M 345.5,178.5 C 345.56,179.043 345.893,179.376 346.5,179.5C 350.281,176.218 349.948,175.884 345.5,178.5 Z M 323.5,185.5 C 322.512,186.795 321.512,188.128 320.5,189.5C 319.761,189.631 319.094,189.464 318.5,189C 319.914,187.007 320.914,184.84 321.5,182.5C 322.5,182.167 323.167,181.5 323.5,180.5C 324.847,179.972 326.181,179.805 327.5,180C 325.536,181.451 324.203,183.284 323.5,185.5 Z M 265.5,192.5 C 264.677,190.545 264.51,188.545 265,186.5C 266.039,188.746 267.206,190.913 268.5,193C 267.423,193.47 266.423,193.303 265.5,192.5 Z M 263.5,202.5 C 265.176,203.183 265.843,204.517 265.5,206.5C 264.22,207.931 262.553,208.598 260.5,208.5C 259.508,208.672 258.842,208.338 258.5,207.5C 260.5,206.167 262.167,204.5 263.5,202.5 Z"/></g>
<g><path style="opacity:1" fill="#e7d6eb" d="M 360.5,177.5 C 361.497,177.47 362.164,177.97 362.5,179C 359.65,183.016 356.316,186.516 352.5,189.5C 351.833,189.5 351.5,189.833 351.5,190.5C 349.304,190.59 347.137,190.923 345,191.5C 342.889,191.299 341.055,190.633 339.5,189.5C 341.527,189.662 343.527,189.495 345.5,189C 344.944,188.617 344.611,188.117 344.5,187.5C 346.927,187.477 349.26,186.977 351.5,186C 355.027,183.638 358.027,180.804 360.5,177.5 Z"/></g>
<g><path style="opacity:0.545" fill="#ccaad6" d="M 237.5,173.5 C 236.027,179.079 232.361,181.412 226.5,180.5C 228.74,179.736 231.073,178.902 233.5,178C 234.252,177.329 234.586,176.496 234.5,175.5C 235.5,174.833 236.5,174.167 237.5,173.5 Z"/></g>
<g><path style="opacity:0.545" fill="#c9a6d3" d="M 256.5,177.5 C 257.833,177.5 259.167,177.5 260.5,177.5C 260.5,177.833 260.5,178.167 260.5,178.5C 258.856,178.286 257.356,178.62 256,179.5C 255.276,183.427 254.109,187.094 252.5,190.5C 253.013,186.447 253.846,182.447 255,178.5C 255.383,177.944 255.883,177.611 256.5,177.5 Z"/></g>
<g><path style="opacity:0.686" fill="#cba9d4" d="M 322.5,176.5 C 320.5,179.167 318.167,181.5 315.5,183.5C 316.833,180.167 319.167,177.833 322.5,176.5 Z"/></g>
<g><path style="opacity:0.071" fill="#c59dd0" d="M 331.5,188.5 C 331.018,185.954 330.018,183.621 328.5,181.5C 326.814,182.857 325.148,184.19 323.5,185.5C 324.203,183.284 325.536,181.451 327.5,180C 326.181,179.805 324.847,179.972 323.5,180.5C 325.45,178.974 327.783,177.974 330.5,177.5C 329.829,176.054 328.662,175.388 327,175.5C 325.467,175.773 323.967,176.106 322.5,176.5C 323.492,174.974 324.992,174.307 327,174.5C 328.436,174.559 329.769,174.892 331,175.5C 330.901,179.728 331.068,184.061 331.5,188.5 Z"/></g>
<g><path style="opacity:1" fill="#a960be" d="M 285.5,187.5 C 284.438,189.757 282.772,190.923 280.5,191C 281.435,188.619 281.768,186.119 281.5,183.5C 280.5,183.5 279.5,183.5 278.5,183.5C 278.775,188.555 276.442,191.555 271.5,192.5C 269.707,192.116 268.707,190.95 268.5,189C 269.707,187.7 270.374,186.2 270.5,184.5C 271.124,184.917 271.457,185.584 271.5,186.5C 269.319,188.13 269.319,189.463 271.5,190.5C 274.135,186.742 277.302,183.409 281,180.5C 282.544,182.957 284.044,185.291 285.5,187.5 Z"/></g>
<g><path style="opacity:1" fill="#b174c3" d="M 285.5,175.5 C 287.39,177.59 289.057,179.923 290.5,182.5C 291.949,183.172 293.282,183.839 294.5,184.5C 291.385,184.394 288.719,185.394 286.5,187.5C 288.001,183.34 287.667,179.34 285.5,175.5 Z"/></g>
<g><path style="opacity:0.149" fill="#c6a2d1" d="M 228.5,189.5 C 228.905,187.35 229.405,185.35 230,183.5C 226.636,184.739 223.136,185.406 219.5,185.5C 223.239,183.898 227.239,182.898 231.5,182.5C 231.818,185.481 230.818,187.815 228.5,189.5 Z"/></g>
<g><path style="opacity:1" fill="#a756bf" d="M 238.5,183.5 C 239.496,198.324 239.829,213.324 239.5,228.5C 238.5,228.5 237.5,228.5 236.5,228.5C 236.828,216.655 236.495,204.988 235.5,193.5C 235.5,191.167 235.5,188.833 235.5,186.5C 235.5,186.167 235.5,185.833 235.5,185.5C 236.5,184.833 237.5,184.167 238.5,183.5 Z"/></g>
<g><path style="opacity:0.22" fill="#c6a0d1" d="M 321.5,182.5 C 320.914,184.84 319.914,187.007 318.5,189C 319.094,189.464 319.761,189.631 320.5,189.5C 319.573,191.476 318.24,191.809 316.5,190.5C 317.691,187.432 319.358,184.765 321.5,182.5 Z"/></g>
<g><path style="opacity:0.686" fill="#ceafd6" d="M 294.5,184.5 C 295.222,184.918 295.722,185.584 296,186.5C 296.816,185.177 297.983,184.511 299.5,184.5C 296.564,188.957 294.898,188.957 294.5,184.5 Z"/></g>
<g><path style="opacity:0.071" fill="#c299ce" d="M 219.5,185.5 C 215.058,186.99 210.391,187.99 205.5,188.5C 209.738,186.044 214.404,185.044 219.5,185.5 Z"/></g>
<g><path style="opacity:0.22" fill="#caaad3" d="M 235.5,186.5 C 235.5,188.833 235.5,191.167 235.5,193.5C 234.854,206.212 235.52,218.545 237.5,230.5C 236.486,231.674 235.153,232.34 233.5,232.5C 234.822,218.069 234.822,203.735 233.5,189.5C 233.427,187.973 234.094,186.973 235.5,186.5 Z"/></g>
<g><path style="opacity:0.071" fill="#c59fd0" d="M 250.5,179.5 C 249.532,185.032 248.199,190.366 246.5,195.5C 246.8,190.499 247.8,185.665 249.5,181C 247.101,180.289 244.768,180.456 242.5,181.5C 241.204,198.192 241.204,212.859 242.5,225.5C 243.434,226.568 243.768,227.901 243.5,229.5C 242.5,229.5 241.5,229.5 240.5,229.5C 240.667,213.497 240.5,197.497 240,181.5C 239.283,182.044 238.783,182.711 238.5,183.5C 237.5,184.167 236.5,184.833 235.5,185.5C 235.859,183.629 236.859,182.129 238.5,181C 242.418,179.844 246.418,179.344 250.5,179.5 Z"/></g>
<g><path style="opacity:0.859" fill="#d2b3da" d="M 262.5,183.5 C 260.732,186.162 260.065,189.162 260.5,192.5C 258.076,190.08 257.909,187.413 260,184.5C 260.671,183.748 261.504,183.414 262.5,183.5 Z"/></g>
<g><path style="opacity:0.957" fill="#bb89ca" d="M 261.5,180.5 C 263.82,182.226 266.487,182.893 269.5,182.5C 269.833,183.167 270.167,183.833 270.5,184.5C 270.374,186.2 269.707,187.7 268.5,189C 268.707,190.95 269.707,192.116 271.5,192.5C 270.235,193.479 268.901,194.479 267.5,195.5C 266.081,194.995 265.415,193.995 265.5,192.5C 264.883,192.389 264.383,192.056 264,191.5C 263.505,189.527 263.338,187.527 263.5,185.5C 265.674,185.92 267.674,185.92 269.5,185.5C 267.49,183.829 265.157,183.162 262.5,183.5C 261.89,182.609 261.557,181.609 261.5,180.5 Z M 265.5,192.5 C 266.423,193.303 267.423,193.47 268.5,193C 267.206,190.913 266.039,188.746 265,186.5C 264.51,188.545 264.677,190.545 265.5,192.5 Z"/></g>
<g><path style="opacity:0.071" fill="#c399cf" d="M 302.5,187.5 C 300.086,188.911 298.419,190.911 297.5,193.5C 296.5,193.5 295.5,193.5 294.5,193.5C 296.795,190.703 299.295,188.036 302,185.5C 302.464,186.094 302.631,186.761 302.5,187.5 Z"/></g>
<g><path style="opacity:0.939" fill="#a562b9" d="M 149.5,177.5 C 152.147,183.757 154.814,190.09 157.5,196.5C 157.158,197.338 156.492,197.672 155.5,197.5C 153.569,191.378 151.236,185.378 148.5,179.5C 148.863,178.817 149.196,178.15 149.5,177.5 Z"/></g>
<g><path style="opacity:0.91" fill="#d9c2df" d="M 310.5,189.5 C 309.365,191.213 307.698,191.88 305.5,191.5C 305.833,188.167 306.167,184.833 306.5,181.5C 304.784,181.629 303.117,181.962 301.5,182.5C 302.918,180.292 304.918,179.458 307.5,180C 308.424,183.195 308.09,186.361 306.5,189.5C 307.7,190.292 309.033,190.292 310.5,189.5 Z"/></g>
<g><path style="opacity:0.455" fill="#c7a2d2" d="M 310.5,193.5 C 310.56,192.957 310.893,192.624 311.5,192.5C 313.851,194.229 316.518,194.896 319.5,194.5C 316.373,195.96 313.373,195.627 310.5,193.5 Z"/></g>
<g><path style="opacity:0.412" fill="#ba85c9" d="M 181.5,190.5 C 172.338,193.795 163.005,196.795 153.5,199.5C 154.167,198.833 154.833,198.167 155.5,197.5C 156.492,197.672 157.158,197.338 157.5,196.5C 165.431,194.184 173.431,192.184 181.5,190.5 Z"/></g>
<g><path style="opacity:0.966" fill="#b178c2" d="M 273.5,200.5 C 272.363,199.211 271.03,198.211 269.5,197.5C 270.884,194.805 272.884,193.805 275.5,194.5C 274.628,196.45 273.961,198.45 273.5,200.5 Z"/></g>
<g><path style="opacity:1" fill="#aa65be" d="M 287.5,195.5 C 286.209,196.542 286.209,197.708 287.5,199C 289.14,199.348 290.473,198.848 291.5,197.5C 292.974,196.564 293.974,195.23 294.5,193.5C 295.5,193.5 296.5,193.5 297.5,193.5C 303.495,203.83 309.495,214.164 315.5,224.5C 314.5,224.5 313.5,224.5 312.5,224.5C 311.341,221.338 310.008,218.171 308.5,215C 304.751,208.303 300.418,202.137 295.5,196.5C 294.019,197.48 292.685,198.647 291.5,200C 289.527,200.495 287.527,200.662 285.5,200.5C 285.762,199.022 285.429,197.689 284.5,196.5C 282.851,198.65 281.018,200.65 279,202.5C 278.666,204.847 278.833,207.181 279.5,209.5C 277.178,208.198 275.845,206.198 275.5,203.5C 279.247,199.249 283.247,195.083 287.5,191C 288.167,190.333 288.833,190.333 289.5,191C 288.418,192.33 287.751,193.83 287.5,195.5 Z"/></g>
<g><path style="opacity:1" fill="#aa52c4" d="M 315.5,224.5 C 316.992,230.481 319.825,235.814 324,240.5C 327.581,235.672 330.915,230.672 334,225.5C 335.128,223.655 335.628,221.655 335.5,219.5C 336.496,219.586 337.329,219.252 338,218.5C 340.084,214.664 342.417,210.997 345,207.5C 343.744,213.687 341.077,219.353 337,224.5C 336.51,225.793 336.343,227.127 336.5,228.5C 335.504,228.414 334.671,228.748 334,229.5C 328.525,239.474 322.859,249.141 317,258.5C 316.196,259.804 315.029,260.471 313.5,260.5C 311.171,259.002 309.337,257.002 308,254.5C 299.365,239.702 290.532,225.035 281.5,210.5C 281.043,209.702 280.376,209.369 279.5,209.5C 278.833,207.181 278.666,204.847 279,202.5C 281.018,200.65 282.851,198.65 284.5,196.5C 285.429,197.689 285.762,199.022 285.5,200.5C 287.527,200.662 289.527,200.495 291.5,200C 292.685,198.647 294.019,197.48 295.5,196.5C 300.418,202.137 304.751,208.303 308.5,215C 310.008,218.171 311.341,221.338 312.5,224.5C 313.5,224.5 314.5,224.5 315.5,224.5 Z"/></g>
<g><path style="opacity:1" fill="#e1c0e9" d="M 287.5,195.5 C 288.183,197.176 289.517,197.843 291.5,197.5C 290.473,198.848 289.14,199.348 287.5,199C 286.209,197.708 286.209,196.542 287.5,195.5 Z"/></g>
<g><path style="opacity:0.988" fill="#dbc4e1" d="M 251.5,194.5 C 251.118,199.092 250.118,203.425 248.5,207.5C 247.839,202.607 248.839,198.274 251.5,194.5 Z"/></g>
<g><path style="opacity:0.737" fill="#bc88ca" d="M 167.5,198.5 C 164.945,199.461 162.612,200.794 160.5,202.5C 159.883,202.389 159.383,202.056 159,201.5C 154.548,203.31 150.048,204.976 145.5,206.5C 149.732,203.686 154.399,201.519 159.5,200C 162.117,199.178 164.784,198.678 167.5,198.5 Z"/></g>
<g><path style="opacity:0.992" fill="#a864bc" d="M 122.5,173.5 C 123.496,173.414 124.329,173.748 125,174.5C 128.871,184.229 132.704,193.895 136.5,203.5C 139.765,203.082 142.765,201.915 145.5,200C 147.473,199.505 149.473,199.338 151.5,199.5C 145.751,201.873 140.084,204.54 134.5,207.5C 134.611,206.883 134.944,206.383 135.5,206C 131.301,195.104 126.968,184.271 122.5,173.5 Z"/></g>
<g><path style="opacity:0.22" fill="#cbabd4" d="M 228.5,198.5 C 227.921,201.331 226.588,203.664 224.5,205.5C 225.079,202.669 226.412,200.336 228.5,198.5 Z"/></g>
<g><path style="opacity:1" fill="#aa53c3" d="M 160.5,202.5 C 161.787,205.406 162.787,208.406 163.5,211.5C 162.2,214.76 163.2,217.26 166.5,219C 166.167,219.333 165.833,219.667 165.5,220C 169.143,229.265 172.976,238.432 177,247.5C 177.494,249.134 177.66,250.801 177.5,252.5C 172.281,256.277 166.615,259.277 160.5,261.5C 158.738,257.634 157.238,253.634 156,249.5C 155.502,247.456 154.335,246.122 152.5,245.5C 153.275,243.612 153.275,241.612 152.5,239.5C 136.5,239.5 120.5,239.5 104.5,239.5C 104.5,238.833 104.5,238.167 104.5,237.5C 119.504,237.667 134.504,237.5 149.5,237C 149.833,236.667 150.167,236.333 150.5,236C 146.627,227.37 142.96,218.703 139.5,210C 141.134,209.506 142.801,209.34 144.5,209.5C 144.5,208.5 144.5,207.5 144.5,206.5C 144.833,206.5 145.167,206.5 145.5,206.5C 150.048,204.976 154.548,203.31 159,201.5C 159.383,202.056 159.883,202.389 160.5,202.5 Z"/></g>
<g><path style="opacity:0.149" fill="#ccadd4" d="M 263.5,202.5 C 262.167,204.5 260.5,206.167 258.5,207.5C 259.167,204.833 260.833,203.167 263.5,202.5 Z"/></g>
<g><path style="opacity:0.027" fill="#bf93cc" d="M 265.5,206.5 C 265.843,204.517 265.176,203.183 263.5,202.5C 264.008,200.767 264.841,200.434 266,201.5C 266.78,203.387 266.613,205.054 265.5,206.5 Z"/></g>
<g><path style="opacity:0.294" fill="#c69fd1" d="M 260.5,200.5 C 257.809,203.195 255.475,206.195 253.5,209.5C 254.127,210.417 254.461,211.417 254.5,212.5C 252.623,211.341 252.123,209.674 253,207.5C 254.736,204.261 257.236,201.927 260.5,200.5 Z"/></g>
<g><path style="opacity:0.294" fill="#c092cc" d="M 258.5,207.5 C 258.842,208.338 259.508,208.672 260.5,208.5C 259.614,209.776 258.614,209.776 257.5,208.5C 257.624,207.893 257.957,207.56 258.5,207.5 Z"/></g>
<g><path style="opacity:0.886" fill="#a263b5" d="M 240.5,229.5 C 239.609,230.11 238.609,230.443 237.5,230.5C 235.52,218.545 234.854,206.212 235.5,193.5C 236.495,204.988 236.828,216.655 236.5,228.5C 237.5,228.5 238.5,228.5 239.5,228.5C 239.829,213.324 239.496,198.324 238.5,183.5C 238.783,182.711 239.283,182.044 240,181.5C 240.5,197.497 240.667,213.497 240.5,229.5 Z"/></g>
<g><path style="opacity:1" fill="#a75ebd" d="M 114.5,122.5 C 114.586,123.496 114.252,124.329 113.5,125C 110.681,125.574 108.348,126.907 106.5,129C 109.729,134.545 110.729,140.378 109.5,146.5C 110.978,146.238 112.311,146.571 113.5,147.5C 113.376,148.107 113.043,148.44 112.5,148.5C 100.259,177.528 87.9253,206.695 75.5,236C 83.1594,236.5 90.8261,236.666 98.5,236.5C 98.5,237.5 98.5,238.5 98.5,239.5C 98.5,239.833 98.5,240.167 98.5,240.5C 92.6356,240.572 86.8023,240.572 81,240.5C 78.723,241.117 76.5563,241.784 74.5,242.5C 70.6935,251.251 66.6935,259.918 62.5,268.5C 62.0461,266.741 62.0461,264.741 62.5,262.5C 61.5,262.5 60.5,262.5 59.5,262.5C 59.7709,264.38 59.1042,265.713 57.5,266.5C 74.3575,224.598 91.0242,182.598 107.5,140.5C 106.449,136.513 105.116,132.68 103.5,129C 103.833,128.167 104.167,127.333 104.5,126.5C 107.855,125.154 111.188,123.82 114.5,122.5 Z"/></g>
<g><path style="opacity:0.6" fill="#ab68be" d="M 144.5,206.5 C 144.5,207.5 144.5,208.5 144.5,209.5C 142.801,209.34 141.134,209.506 139.5,210C 142.96,218.703 146.627,227.37 150.5,236C 150.167,236.333 149.833,236.667 149.5,237C 134.504,237.5 119.504,237.667 104.5,237.5C 104.025,234.687 105.025,232.687 107.5,231.5C 107.297,233.044 106.63,234.378 105.5,235.5C 119.822,236.666 134.155,236.833 148.5,236C 144.853,227.213 140.853,218.713 136.5,210.5C 138.849,208.659 141.515,207.326 144.5,206.5 Z"/></g>
<g><path style="opacity:0.341" fill="#b479c5" d="M 130.5,209.5 C 130.5,209.833 130.5,210.167 130.5,210.5C 128.5,211.167 126.5,211.833 124.5,212.5C 125.911,210.461 127.911,209.461 130.5,209.5 Z"/></g>
<g><path style="opacity:0.463" fill="#b780c7" d="M 124.5,212.5 C 121.554,215.313 118.221,217.646 114.5,219.5C 117.057,216.208 120.391,213.874 124.5,212.5 Z"/></g>
<g><path style="opacity:1" fill="#f5eff6" d="M 282.5,82.5 C 280.837,84.4385 280.171,86.7718 280.5,89.5C 279.076,91.5145 278.41,93.8478 278.5,96.5C 278.5,96.8333 278.5,97.1667 278.5,97.5C 276.926,99.1016 276.259,101.102 276.5,103.5C 274.723,106.505 273.723,109.838 273.5,113.5C 273.074,117.427 272.074,121.093 270.5,124.5C 267.49,128.176 266.157,132.509 266.5,137.5C 266.634,139.292 266.301,140.958 265.5,142.5C 264.566,143.568 264.232,144.901 264.5,146.5C 261.465,155.636 258.799,164.97 256.5,174.5C 256.918,175.222 257.584,175.722 258.5,176C 257.584,176.278 256.918,176.778 256.5,177.5C 255.883,177.611 255.383,177.944 255,178.5C 253.846,182.447 253.013,186.447 252.5,190.5C 252.768,192.099 252.434,193.432 251.5,194.5C 248.839,198.274 247.839,202.607 248.5,207.5C 247.557,214.144 247.391,220.811 248,227.5C 248.383,228.056 248.883,228.389 249.5,228.5C 250.32,234.797 250.653,241.131 250.5,247.5C 249.797,253.645 248.464,259.645 246.5,265.5C 243.987,269.378 242.654,273.711 242.5,278.5C 241.522,280.456 240.522,282.456 239.5,284.5C 239.5,284.833 239.5,285.167 239.5,285.5C 236.745,290.757 234.745,296.423 233.5,302.5C 233.5,303.5 233.5,304.5 233.5,305.5C 231.935,307.509 230.935,309.843 230.5,312.5C 229.662,312.842 229.328,313.508 229.5,314.5C 229.396,316.703 228.73,318.703 227.5,320.5C 225.528,323.084 224.528,326.084 224.5,329.5C 221.887,332.645 220.221,336.311 219.5,340.5C 217.707,342.426 216.707,344.759 216.5,347.5C 212.788,356.245 209.121,364.911 205.5,373.5C 204.542,373.953 203.708,374.619 203,375.5C 202.667,375.167 202.333,374.833 202,374.5C 202.135,372.575 202.302,370.575 202.5,368.5C 205.043,362.86 207.376,357.194 209.5,351.5C 215.192,341.101 219.525,330.101 222.5,318.5C 223.569,313.521 225.235,308.854 227.5,304.5C 232.672,292.647 236.672,280.314 239.5,267.5C 240.11,266.609 240.443,265.609 240.5,264.5C 241.612,262.401 242.279,260.067 242.5,257.5C 244.835,249.993 245.668,242.326 245,234.5C 243.855,233.316 242.688,233.316 241.5,234.5C 240.209,234.263 239.209,234.596 238.5,235.5C 237.833,235.5 237.167,235.5 236.5,235.5C 234.658,237.052 232.991,238.718 231.5,240.5C 227.859,243.805 224.192,247.138 220.5,250.5C 215.5,253.5 211.5,257.5 208.5,262.5C 207.833,263.833 206.833,264.833 205.5,265.5C 202.757,267.239 200.757,269.573 199.5,272.5C 199.262,274.404 198.262,275.738 196.5,276.5C 194.738,277.262 193.738,278.596 193.5,280.5C 192.026,281.436 191.026,282.77 190.5,284.5C 183.769,292.947 177.769,301.947 172.5,311.5C 171.094,311.973 170.427,312.973 170.5,314.5C 169.59,317.992 167.924,320.992 165.5,323.5C 161.329,327.16 158.662,331.826 157.5,337.5C 153.9,342.405 150.9,342.239 148.5,337C 149.883,327.867 151.216,318.7 152.5,309.5C 153.82,306.72 154.32,303.72 154,300.5C 153.283,301.044 152.783,301.711 152.5,302.5C 152.5,302.833 152.5,303.167 152.5,303.5C 140.169,327.497 128.336,351.83 117,376.5C 114.214,378.184 112.38,377.517 111.5,374.5C 112.545,370.284 113.878,366.284 115.5,362.5C 119.889,354.364 123.223,345.697 125.5,336.5C 127.826,329.177 130.159,321.844 132.5,314.5C 134.37,311.191 135.37,307.525 135.5,303.5C 136.558,302.4 137.392,301.066 138,299.5C 138.498,296.183 138.665,292.85 138.5,289.5C 138.5,289.167 138.5,288.833 138.5,288.5C 139.954,285.282 140.621,281.782 140.5,278C 140.672,274.523 140.006,271.356 138.5,268.5C 131.32,268.663 124.32,267.663 117.5,265.5C 115.608,263.202 113.275,262.535 110.5,263.5C 109.995,261.231 108.662,259.897 106.5,259.5C 100.825,254.478 98.1583,248.145 98.5,240.5C 98.5,240.167 98.5,239.833 98.5,239.5C 100.216,235.74 102.216,232.073 104.5,228.5C 107.231,224.766 110.564,221.766 114.5,219.5C 118.221,217.646 121.554,215.313 124.5,212.5C 126.5,211.833 128.5,211.167 130.5,210.5C 130.5,211.167 130.5,211.833 130.5,212.5C 128.611,213.604 126.945,214.937 125.5,216.5C 121.458,217.851 118.125,220.185 115.5,223.5C 112.167,224.833 109.833,227.167 108.5,230.5C 108.5,231.167 108.167,231.5 107.5,231.5C 105.025,232.687 104.025,234.687 104.5,237.5C 103.223,238.694 102.556,240.36 102.5,242.5C 102.445,246.056 103.278,249.389 105,252.5C 106.451,254.464 108.284,255.797 110.5,256.5C 111.262,258.262 112.596,259.262 114.5,259.5C 114.833,259.5 115.167,259.5 115.5,259.5C 119.667,258.9 123.833,258.234 128,257.5C 131.925,258.198 135.758,259.198 139.5,260.5C 141.611,262.631 143.944,264.298 146.5,265.5C 148.483,265.157 149.817,265.824 150.5,267.5C 150.167,267.5 149.833,267.5 149.5,267.5C 147.833,267.5 146.167,267.5 144.5,267.5C 145.631,277.532 145.298,287.532 143.5,297.5C 142.903,301.619 141.903,305.619 140.5,309.5C 138.838,311.224 137.838,313.391 137.5,316C 137.833,316.5 138.167,317 138.5,317.5C 139.855,314.789 141.189,312.122 142.5,309.5C 145.08,303.332 148.414,297.665 152.5,292.5C 154.419,290.478 156.586,290.144 159,291.5C 158.944,299.844 158.444,308.177 157.5,316.5C 157.599,319.237 157.265,321.904 156.5,324.5C 155.402,325.601 155.235,326.934 156,328.5C 160.873,323.135 164.706,317.135 167.5,310.5C 168.11,308.566 169.11,306.899 170.5,305.5C 173.521,302.794 175.521,299.461 176.5,295.5C 181.068,289.377 185.401,283.044 189.5,276.5C 193.536,272.466 197.202,268.132 200.5,263.5C 203.243,261.761 205.243,259.427 206.5,256.5C 207.167,255.167 208.167,254.167 209.5,253.5C 213.252,250.959 216.585,247.959 219.5,244.5C 223.413,239.555 228.08,235.555 233.5,232.5C 235.153,232.34 236.486,231.674 237.5,230.5C 238.609,230.443 239.609,230.11 240.5,229.5C 241.5,229.5 242.5,229.5 243.5,229.5C 243.768,227.901 243.434,226.568 242.5,225.5C 242.154,215.241 243.487,205.241 246.5,195.5C 248.199,190.366 249.532,185.032 250.5,179.5C 248.833,178.833 247.167,178.167 245.5,177.5C 247.746,177.064 249.913,176.397 252,175.5C 253.352,172.28 254.186,168.947 254.5,165.5C 255.768,163.095 256.435,160.428 256.5,157.5C 258.278,151.311 259.945,144.978 261.5,138.5C 262.404,137.791 262.737,136.791 262.5,135.5C 263.038,133.883 263.371,132.216 263.5,130.5C 264.167,130.5 264.5,130.167 264.5,129.5C 264.5,129.167 264.5,128.833 264.5,128.5C 265.645,125.927 266.145,123.261 266,120.5C 262.546,127.738 259.379,135.072 256.5,142.5C 256.5,143.167 256.167,143.5 255.5,143.5C 254.453,145.151 253.286,146.817 252,148.5C 251.517,147.552 251.351,146.552 251.5,145.5C 252.295,141.262 253.628,137.262 255.5,133.5C 257.115,131.672 257.448,129.672 256.5,127.5C 257.728,126.694 258.728,125.694 259.5,124.5C 260.931,123.22 261.598,121.553 261.5,119.5C 263.212,115.422 264.879,111.422 266.5,107.5C 268.267,105.208 269.267,102.542 269.5,99.5C 270.79,98.9423 271.623,97.9423 272,96.5C 273.43,93.6473 274.263,90.6473 274.5,87.5C 275.967,81.9283 278.3,76.7617 281.5,72C 283.319,71.2172 284.652,71.7172 285.5,73.5C 284.635,76.6619 283.635,79.6619 282.5,82.5 Z M 136.5,210.5 C 140.853,218.713 144.853,227.213 148.5,236C 134.155,236.833 119.822,236.666 105.5,235.5C 106.63,234.378 107.297,233.044 107.5,231.5C 108.167,231.5 108.5,231.167 108.5,230.5C 111.167,228.5 113.5,226.167 115.5,223.5C 119.192,221.656 122.525,219.323 125.5,216.5C 128.198,216.155 130.198,214.822 131.5,212.5C 133.284,212.107 134.95,211.441 136.5,210.5 Z M 263.5,130.5 C 263.371,132.216 263.038,133.883 262.5,135.5C 261.322,133.662 261.655,131.995 263.5,130.5 Z M 242.5,257.5 C 241.508,250.018 241.175,242.352 241.5,234.5C 242.688,233.316 243.855,233.316 245,234.5C 245.668,242.326 244.835,249.993 242.5,257.5 Z M 150.5,242.5 C 151.167,243.5 151.833,244.5 152.5,245.5C 154.214,251.263 156.214,256.93 158.5,262.5C 154.385,263.51 150.385,264.51 146.5,265.5C 143.944,264.298 141.611,262.631 139.5,260.5C 136.236,257.91 132.402,256.577 128,256.5C 123.515,256.692 119.348,257.692 115.5,259.5C 115.167,259.5 114.833,259.5 114.5,259.5C 113.738,257.738 112.404,256.738 110.5,256.5C 106.12,252.412 103.954,247.412 104,241.5C 119.422,242.491 134.922,242.824 150.5,242.5 Z M 121.5,262.5 C 126.17,261.097 130.836,261.43 135.5,263.5C 135.631,264.239 135.464,264.906 135,265.5C 130.541,264.428 126.041,263.428 121.5,262.5 Z M 159.5,265.5 C 162.018,269.707 164.351,274.041 166.5,278.5C 166.5,278.833 166.5,279.167 166.5,279.5C 169.065,284.628 171.065,289.962 172.5,295.5C 172.982,296.416 173.315,297.416 173.5,298.5C 172.233,300.703 171.233,303.037 170.5,305.5C 169.11,306.899 168.11,308.566 167.5,310.5C 164.022,315.434 160.522,320.434 157,325.5C 156.601,325.272 156.435,324.938 156.5,324.5C 157.265,321.904 157.599,319.237 157.5,316.5C 159.3,309.211 160.633,301.711 161.5,294C 159.168,287.368 156.168,286.868 152.5,292.5C 148.414,297.665 145.08,303.332 142.5,309.5C 141.604,310.506 140.938,310.506 140.5,309.5C 141.903,305.619 142.903,301.619 143.5,297.5C 146.328,288.421 146.995,279.088 145.5,269.5C 146.949,268.828 148.282,268.161 149.5,267.5C 149.833,267.5 150.167,267.5 150.5,267.5C 153.63,267.3 156.63,266.634 159.5,265.5 Z"/></g>
<g><path style="opacity:0.294" fill="#c69fd1" d="M 204.5,226.5 C 202.241,229.938 199.741,233.271 197,236.5C 194.894,239.118 192.394,241.118 189.5,242.5C 194.046,236.744 199.046,231.41 204.5,226.5 Z"/></g>
<g><path style="opacity:0.027" fill="#be90cb" d="M 115.5,223.5 C 113.5,226.167 111.167,228.5 108.5,230.5C 109.833,227.167 112.167,224.833 115.5,223.5 Z"/></g>
<g><path style="opacity:0.071" fill="#bc8cca" d="M 125.5,216.5 C 122.525,219.323 119.192,221.656 115.5,223.5C 118.125,220.185 121.458,217.851 125.5,216.5 Z"/></g>
<g><path style="opacity:0.027" fill="#ba87c9" d="M 130.5,212.5 C 130.833,212.5 131.167,212.5 131.5,212.5C 130.198,214.822 128.198,216.155 125.5,216.5C 126.945,214.937 128.611,213.604 130.5,212.5 Z"/></g>
<g><path style="opacity:0.294" fill="#c49bcf" d="M 264.5,128.5 C 263.167,128.833 263.167,129.167 264.5,129.5C 264.5,130.167 264.167,130.5 263.5,130.5C 261.655,131.995 261.322,133.662 262.5,135.5C 262.737,136.791 262.404,137.791 261.5,138.5C 261.631,137.624 261.298,136.957 260.5,136.5C 259.34,138.711 258.007,140.711 256.5,142.5C 259.379,135.072 262.546,127.738 266,120.5C 266.145,123.261 265.645,125.927 264.5,128.5 Z"/></g>
<g><path style="opacity:0.753" fill="#a967bc" d="M 335.5,219.5 C 335.628,221.655 335.128,223.655 334,225.5C 330.915,230.672 327.581,235.672 324,240.5C 319.825,235.814 316.992,230.481 315.5,224.5C 318.807,228.426 321.64,232.76 324,237.5C 328.091,231.594 331.924,225.594 335.5,219.5 Z"/></g>
<g><path style="opacity:0.22" fill="#c49cd0" d="M 104.5,228.5 C 102.216,232.073 100.216,235.74 98.5,239.5C 98.5,238.5 98.5,237.5 98.5,236.5C 99.5608,233.009 101.561,230.342 104.5,228.5 Z"/></g>
<g><path style="opacity:0.149" fill="#c49bcf" d="M 207.5,229.5 C 205.241,232.938 202.741,236.271 200,239.5C 198.223,241.79 196.056,243.457 193.5,244.5C 197.48,238.887 202.146,233.887 207.5,229.5 Z"/></g>
<g><path style="opacity:0.294" fill="#c49bcf" d="M 238.5,235.5 C 239.209,234.596 240.209,234.263 241.5,234.5C 241.175,242.352 241.508,250.018 242.5,257.5C 242.279,260.067 241.612,262.401 240.5,264.5C 241.14,254.442 240.473,244.775 238.5,235.5 Z"/></g>
<g><path style="opacity:1" fill="#a457bb" d="M 236.5,235.5 C 237.167,235.5 237.833,235.5 238.5,235.5C 240.473,244.775 241.14,254.442 240.5,264.5C 240.443,265.609 240.11,266.609 239.5,267.5C 238.262,269.214 237.595,271.214 237.5,273.5C 236.505,261.678 236.172,249.678 236.5,237.5C 236.5,236.833 236.5,236.167 236.5,235.5 Z"/></g>
<g><path style="opacity:0.859" fill="#d7c0dd" d="M 249.5,228.5 C 252.959,234.698 253.293,241.031 250.5,247.5C 250.653,241.131 250.32,234.797 249.5,228.5 Z"/></g>
<g><path style="opacity:0.737" fill="#ae74bf" d="M 236.5,237.5 C 236.172,249.678 236.505,261.678 237.5,273.5C 237.013,274.473 236.513,275.473 236,276.5C 235.173,263.327 235.34,250.327 236.5,237.5 Z"/></g>
<g><path style="opacity:0.939" fill="#aa6bbd" d="M 163.5,211.5 C 169.009,224.009 174.343,236.675 179.5,249.5C 179.715,251.179 179.048,252.179 177.5,252.5C 177.66,250.801 177.494,249.134 177,247.5C 172.976,238.432 169.143,229.265 165.5,220C 165.833,219.667 166.167,219.333 166.5,219C 163.2,217.26 162.2,214.76 163.5,211.5 Z"/></g>
<g><path style="opacity:1" fill="#a75ebc" d="M 104.5,239.5 C 120.5,239.5 136.5,239.5 152.5,239.5C 153.275,241.612 153.275,243.612 152.5,245.5C 151.833,244.5 151.167,243.5 150.5,242.5C 142.098,241.82 133.598,241.154 125,240.5C 118.985,240.218 112.818,240.551 106.5,241.5C 105.478,241.145 104.811,240.478 104.5,239.5 Z"/></g>
<g><path style="opacity:0.22" fill="#ccacd5" d="M 236.5,235.5 C 236.5,236.167 236.5,236.833 236.5,237.5C 235.34,250.327 235.173,263.327 236,276.5C 236.513,275.473 237.013,274.473 237.5,273.5C 237.595,271.214 238.262,269.214 239.5,267.5C 236.672,280.314 232.672,292.647 227.5,304.5C 228.751,296.913 230.917,289.58 234,282.5C 234.667,268.167 234.667,253.833 234,239.5C 233.329,240.252 232.496,240.586 231.5,240.5C 232.991,238.718 234.658,237.052 236.5,235.5 Z"/></g>
<g><path style="opacity:0.027" fill="#bf92cc" d="M 98.5,240.5 C 98.1583,248.145 100.825,254.478 106.5,259.5C 100.137,255.782 97.1373,250.115 97.5,242.5C 89.8333,242.5 82.1667,242.5 74.5,242.5C 76.5563,241.784 78.723,241.117 81,240.5C 86.8023,240.572 92.6356,240.572 98.5,240.5 Z"/></g>
<g><path style="opacity:0.027" fill="#bf92cc" d="M 104.5,237.5 C 104.5,238.167 104.5,238.833 104.5,239.5C 104.811,240.478 105.478,241.145 106.5,241.5C 112.818,240.551 118.985,240.218 125,240.5C 133.598,241.154 142.098,241.82 150.5,242.5C 134.922,242.824 119.422,242.491 104,241.5C 103.954,247.412 106.12,252.412 110.5,256.5C 108.284,255.797 106.451,254.464 105,252.5C 103.278,249.389 102.445,246.056 102.5,242.5C 102.556,240.36 103.223,238.694 104.5,237.5 Z"/></g>
<g><path style="opacity:0.027" fill="#bd90cb" d="M 189.5,248.5 C 188.738,250.262 187.404,251.262 185.5,251.5C 186.262,249.738 187.596,248.738 189.5,248.5 Z"/></g>
<g><path style="opacity:0.294" fill="#c7a2d1" d="M 219.5,244.5 C 216.585,247.959 213.252,250.959 209.5,253.5C 209.859,251.629 210.859,250.129 212.5,249C 214.734,247.25 217.068,245.75 219.5,244.5 Z"/></g>
<g><path style="opacity:0.939" fill="#a967bc" d="M 279.5,209.5 C 280.376,209.369 281.043,209.702 281.5,210.5C 290.532,225.035 299.365,239.702 308,254.5C 309.337,257.002 311.171,259.002 313.5,260.5C 315.029,260.471 316.196,259.804 317,258.5C 322.859,249.141 328.525,239.474 334,229.5C 334.671,228.748 335.504,228.414 336.5,228.5C 330.343,239.477 324.177,250.477 318,261.5C 315.599,262.602 313.099,262.769 310.5,262C 299.514,244.856 289.181,227.356 279.5,209.5 Z"/></g>
<g><path style="opacity:1" fill="#e8d3ec" d="M 184.5,247.5 C 183.521,249.145 182.188,250.479 180.5,251.5C 182.095,252.434 183.761,252.434 185.5,251.5C 184.833,252.833 183.833,253.833 182.5,254.5C 179.013,255.408 176.013,257.074 173.5,259.5C 169.849,260.659 166.515,262.326 163.5,264.5C 161.901,264.232 160.568,264.566 159.5,265.5C 156.63,266.634 153.63,267.3 150.5,267.5C 149.817,265.824 148.483,265.157 146.5,265.5C 150.385,264.51 154.385,263.51 158.5,262.5C 159.492,262.672 160.158,262.338 160.5,261.5C 166.615,259.277 172.281,256.277 177.5,252.5C 179.048,252.179 179.715,251.179 179.5,249.5C 181.167,248.833 182.833,248.167 184.5,247.5 Z"/></g>
<g><path style="opacity:0.071" fill="#c398cf" d="M 220.5,250.5 C 216.833,254.833 212.833,258.833 208.5,262.5C 211.5,257.5 215.5,253.5 220.5,250.5 Z"/></g>
<g><path style="opacity:0.027" fill="#c39acf" d="M 110.5,256.5 C 112.404,256.738 113.738,257.738 114.5,259.5C 112.596,259.262 111.262,258.262 110.5,256.5 Z"/></g>
<g><path style="opacity:0.463" fill="#b175c2" d="M 182.5,254.5 C 185.03,260.756 187.363,267.09 189.5,273.5C 188.833,273.167 188.167,272.833 187.5,272.5C 185.45,267.399 183.117,262.399 180.5,257.5C 178.199,258.325 175.865,258.992 173.5,259.5C 176.013,257.074 179.013,255.408 182.5,254.5 Z"/></g>
<g><path style="opacity:0.59" fill="#caa7d4" d="M 139.5,260.5 C 135.758,259.198 131.925,258.198 128,257.5C 123.833,258.234 119.667,258.9 115.5,259.5C 119.348,257.692 123.515,256.692 128,256.5C 132.402,256.577 136.236,257.91 139.5,260.5 Z"/></g>
<g><path style="opacity:1" fill="#aa53c4" d="M 187.5,272.5 C 187.539,273.583 187.873,274.583 188.5,275.5C 184.082,281.34 179.915,287.34 176,293.5C 172.696,290.56 170.696,286.893 170,282.5C 168.961,281.29 167.794,280.29 166.5,279.5C 166.5,279.167 166.5,278.833 166.5,278.5C 165.481,273.811 164.481,269.144 163.5,264.5C 166.515,262.326 169.849,260.659 173.5,259.5C 175.865,258.992 178.199,258.325 180.5,257.5C 183.117,262.399 185.45,267.399 187.5,272.5 Z"/></g>
<g><path style="opacity:0.463" fill="#ae71c0" d="M 152.5,245.5 C 154.335,246.122 155.502,247.456 156,249.5C 157.238,253.634 158.738,257.634 160.5,261.5C 160.158,262.338 159.492,262.672 158.5,262.5C 156.214,256.93 154.214,251.263 152.5,245.5 Z"/></g>
<g><path style="opacity:0.027" fill="#c196cd" d="M 135.5,263.5 C 130.836,261.43 126.17,261.097 121.5,262.5C 120.244,262.539 119.244,262.039 118.5,261C 123.136,259.212 127.802,259.212 132.5,261C 133.942,261.377 134.942,262.21 135.5,263.5 Z"/></g>
<g><path style="opacity:0.545" fill="#ccabd5" d="M 206.5,256.5 C 205.243,259.427 203.243,261.761 200.5,263.5C 201.757,260.573 203.757,258.239 206.5,256.5 Z"/></g>
<g><path style="opacity:0.988" fill="#dac2e0" d="M 106.5,259.5 C 108.662,259.897 109.995,261.231 110.5,263.5C 113.275,262.535 115.608,263.202 117.5,265.5C 114.887,264.565 112.221,264.398 109.5,265C 104.013,267.577 98.6794,270.41 93.5,273.5C 93.6309,272.624 93.2975,271.957 92.5,271.5C 89.6067,273.445 86.6067,275.111 83.5,276.5C 90.3021,270.59 97.9687,265.924 106.5,262.5C 107.562,261.575 107.562,260.575 106.5,259.5 Z"/></g>
<g><path style="opacity:0.59" fill="#c9a8d3" d="M 303.5,270.5 C 303.649,269.448 303.483,268.448 303,267.5C 302.329,268.252 301.496,268.586 300.5,268.5C 301.287,266.896 302.62,266.229 304.5,266.5C 304.768,268.099 304.434,269.432 303.5,270.5 Z"/></g>
<g><path style="opacity:0.22" fill="#c7a3d2" d="M 246.5,265.5 C 245.922,270.165 244.589,274.499 242.5,278.5C 242.654,273.711 243.987,269.378 246.5,265.5 Z"/></g>
<g><path style="opacity:0.463" fill="#ad6fbf" d="M 159.5,265.5 C 160.568,264.566 161.901,264.232 163.5,264.5C 164.481,269.144 165.481,273.811 166.5,278.5C 164.351,274.041 162.018,269.707 159.5,265.5 Z"/></g>
<g><path style="opacity:0.22" fill="#c7a4d1" d="M 205.5,265.5 C 204.243,268.427 202.243,270.761 199.5,272.5C 200.757,269.573 202.757,267.239 205.5,265.5 Z"/></g>
<g><path style="opacity:0.412" fill="#c297ce" d="M 138.5,268.5 C 140.006,271.356 140.672,274.523 140.5,278C 140.621,281.782 139.954,285.282 138.5,288.5C 139.833,281.833 139.833,275.167 138.5,268.5 Z"/></g>
<g><path style="opacity:0.545" fill="#c9a5d3" d="M 200.5,263.5 C 197.202,268.132 193.536,272.466 189.5,276.5C 189.5,275.833 189.5,275.167 189.5,274.5C 192.806,270.527 196.473,266.86 200.5,263.5 Z"/></g>
<g><path style="opacity:0.027" fill="#c5a0d0" d="M 303.5,271.5 C 303.58,274.781 302.913,277.781 301.5,280.5C 301.42,277.219 302.087,274.219 303.5,271.5 Z"/></g>
<g><path style="opacity:0.545" fill="#c7a2d1" d="M 83.5,276.5 C 81.0515,279.556 78.0515,281.889 74.5,283.5C 76.6367,280.027 79.6367,277.694 83.5,276.5 Z"/></g>
<g><path style="opacity:0.071" fill="#c298ce" d="M 93.5,273.5 C 89.0414,277.897 84.0414,281.564 78.5,284.5C 82.9586,280.103 87.9586,276.436 93.5,273.5 Z"/></g>
<g><path style="opacity:0.992" fill="#a869bb" d="M 62.5,269.5 C 60.3466,275.146 58.1799,280.812 56,286.5C 54.3603,292.056 53.527,297.722 53.5,303.5C 53.573,305.027 52.9063,306.027 51.5,306.5C 51.309,301.101 51.809,295.767 53,290.5C 55.1501,283.714 57.4834,277.047 60,270.5C 60.6708,269.748 61.5041,269.414 62.5,269.5 Z"/></g>
<g><path style="opacity:0.071" fill="#c195cd" d="M 196.5,276.5 C 196.262,278.404 195.262,279.738 193.5,280.5C 193.738,278.596 194.738,277.262 196.5,276.5 Z"/></g>
<g><path style="opacity:0.027" fill="#c39bcf" d="M 242.5,278.5 C 242.596,285.642 243.596,292.642 245.5,299.5C 243.22,295.581 241.887,291.247 241.5,286.5C 241.253,285.287 240.586,284.62 239.5,284.5C 240.522,282.456 241.522,280.456 242.5,278.5 Z"/></g>
<g><path style="opacity:1" fill="#ede2ef" d="M 376.5,280.5 C 377.449,283.304 376.616,285.637 374,287.5C 372.97,287.164 372.47,286.497 372.5,285.5C 372.197,282.412 373.53,280.746 376.5,280.5 Z"/></g>
<g><path style="opacity:0.149" fill="#c7a3d1" d="M 149.5,267.5 C 148.282,268.161 146.949,268.828 145.5,269.5C 146.995,279.088 146.328,288.421 143.5,297.5C 145.298,287.532 145.631,277.532 144.5,267.5C 146.167,267.5 147.833,267.5 149.5,267.5 Z"/></g>
<g><path style="opacity:0.027" fill="#c094cc" d="M 376.5,280.5 C 377.586,280.62 378.253,281.287 378.5,282.5C 378.257,287.013 375.924,289.013 371.5,288.5C 371.263,287.209 371.596,286.209 372.5,285.5C 372.47,286.497 372.97,287.164 374,287.5C 376.616,285.637 377.449,283.304 376.5,280.5 Z"/></g>
<g><path style="opacity:0.939" fill="#a968bc" d="M 57.5,267.5 C 57.8039,268.15 58.1373,268.817 58.5,269.5C 55.3117,278.24 51.645,286.74 47.5,295C 46.4843,297.176 44.8176,298.343 42.5,298.5C 48.4637,288.595 53.4637,278.262 57.5,267.5 Z"/></g>
<g><path style="opacity:1" fill="#aa52c4" d="M 190.5,284.5 C 192.456,285.122 193.789,286.455 194.5,288.5C 195.351,292.241 196.351,295.908 197.5,299.5C 198.552,299.351 199.552,299.517 200.5,300C 201.851,303.195 204.185,305.028 207.5,305.5C 207.5,306.5 207.5,307.5 207.5,308.5C 207.953,309.458 208.619,310.292 209.5,311C 198.152,311.832 186.819,311.666 175.5,310.5C 180.461,303.349 185.294,296.016 190,288.5C 190.49,287.207 190.657,285.873 190.5,284.5 Z"/></g>
<g><path style="opacity:0.149" fill="#c6a2d0" d="M 301.5,280.5 C 301.435,283.428 300.768,286.095 299.5,288.5C 299.111,285.447 299.777,282.78 301.5,280.5 Z"/></g>
<g><path style="opacity:0.8" fill="#c8a5d2" d="M 73.5,284.5 C 72.4154,286.587 70.7488,287.92 68.5,288.5C 69.5846,286.413 71.2512,285.08 73.5,284.5 Z"/></g>
<g><path style="opacity:1" fill="#a954c2" d="M 62.5,268.5 C 62.5,268.833 62.5,269.167 62.5,269.5C 61.5041,269.414 60.6708,269.748 60,270.5C 57.4834,277.047 55.1501,283.714 53,290.5C 51.809,295.767 51.309,301.101 51.5,306.5C 50.5514,308.777 49.2181,310.777 47.5,312.5C 41.8236,312.666 36.1569,312.499 30.5,312C 33.6584,309.834 36.8251,307.667 40,305.5C 41.4114,303.35 42.2447,301.016 42.5,298.5C 44.8176,298.343 46.4843,297.176 47.5,295C 51.645,286.74 55.3117,278.24 58.5,269.5C 58.1373,268.817 57.8039,268.15 57.5,267.5C 57.5,267.167 57.5,266.833 57.5,266.5C 59.1042,265.713 59.7709,264.38 59.5,262.5C 60.5,262.5 61.5,262.5 62.5,262.5C 62.0461,264.741 62.0461,266.741 62.5,268.5 Z"/></g>
<g><path style="opacity:0.516" fill="#d8c3dd" d="M 296.5,281.5 C 294.32,290.886 291.82,300.219 289,309.5C 288.578,311.426 287.411,312.426 285.5,312.5C 289.017,302.09 292.684,291.757 296.5,281.5 Z"/></g>
<g><path style="opacity:0.576" fill="#d3bcda" d="M 299.5,288.5 C 298.833,291.833 298.167,295.167 297.5,298.5C 296.365,297.324 296.199,295.324 297,292.5C 297.2,290.68 298.034,289.347 299.5,288.5 Z"/></g>
<g><path style="opacity:0.992" fill="#a966bd" d="M 383.5,286.5 C 383.47,287.497 383.97,288.164 385,288.5C 387.792,286.938 390.625,286.605 393.5,287.5C 391.79,291.21 389.123,293.877 385.5,295.5C 385.158,294.662 384.492,294.328 383.5,294.5C 384.153,293.193 384.82,291.86 385.5,290.5C 384.092,289.757 382.759,288.923 381.5,288C 382.044,287.283 382.711,286.783 383.5,286.5 Z"/></g>
<g><path style="opacity:1" fill="#a964be" d="M 187.5,272.5 C 188.167,272.833 188.833,273.167 189.5,273.5C 189.5,273.833 189.5,274.167 189.5,274.5C 189.5,275.167 189.5,275.833 189.5,276.5C 185.401,283.044 181.068,289.377 176.5,295.5C 175.298,296.405 173.964,296.405 172.5,295.5C 171.065,289.962 169.065,284.628 166.5,279.5C 167.794,280.29 168.961,281.29 170,282.5C 170.696,286.893 172.696,290.56 176,293.5C 179.915,287.34 184.082,281.34 188.5,275.5C 187.873,274.583 187.539,273.583 187.5,272.5 Z"/></g>
<g><path style="opacity:0.226" fill="#c197ce" d="M 75.5,287.5 C 71.1667,292.5 66.5,297.167 61.5,301.5C 65.1667,295.833 69.8333,291.167 75.5,287.5 Z"/></g>
<g><path style="opacity:1" fill="#a955c2" d="M 239.5,284.5 C 240.586,284.62 241.253,285.287 241.5,286.5C 241.887,291.247 243.22,295.581 245.5,299.5C 246.338,299.842 246.672,300.508 246.5,301.5C 247.811,304.811 250.145,307.145 253.5,308.5C 249.907,309.153 246.241,309.986 242.5,311C 239.167,311.667 235.833,311.667 232.5,311C 233.406,309.301 233.739,307.467 233.5,305.5C 233.5,304.5 233.5,303.5 233.5,302.5C 236.878,297.392 238.878,291.725 239.5,285.5C 239.5,285.167 239.5,284.833 239.5,284.5 Z"/></g>
<g><path style="opacity:1" fill="#f3eef4" d="M 361.5,291.5 C 363.167,291.5 364.833,291.5 366.5,291.5C 366.949,293.977 366.283,295.977 364.5,297.5C 363.614,296.675 363.281,295.675 363.5,294.5C 362.209,294.263 361.209,294.596 360.5,295.5C 360.5,296.167 360.167,296.5 359.5,296.5C 354.532,299.738 351.532,304.405 350.5,310.5C 349.791,311.404 348.791,311.737 347.5,311.5C 346.89,310.609 346.557,309.609 346.5,308.5C 346.604,306.297 347.27,304.297 348.5,302.5C 350.438,299.555 352.105,296.388 353.5,293C 355.035,292.504 356.535,292.67 358,293.5C 359.459,293.192 360.626,292.525 361.5,291.5 Z"/></g>
<g><path style="opacity:1" fill="#f4edf6" d="M 388.5,298.5 C 387.957,298.56 387.624,298.893 387.5,299.5C 391.122,300.325 394.789,300.825 398.5,301C 395.964,301.186 393.631,301.686 391.5,302.5C 387.922,302.549 384.589,303.215 381.5,304.5C 380.041,304.433 378.708,304.766 377.5,305.5C 375.847,305.66 374.514,306.326 373.5,307.5C 371.833,308.833 370.167,308.833 368.5,307.5C 367.298,301.973 368.465,296.973 372,292.5C 371.76,296.008 371.927,299.341 372.5,302.5C 372.435,302.938 372.601,303.272 373,303.5C 375.278,302.281 377.445,300.948 379.5,299.5C 381.491,297.389 383.491,296.056 385.5,295.5C 389.123,293.877 391.79,291.21 393.5,287.5C 390.625,286.605 387.792,286.938 385,288.5C 383.97,288.164 383.47,287.497 383.5,286.5C 388.037,283.662 392.87,282.995 398,284.5C 398.667,285.833 398.667,287.167 398,288.5C 394.685,291.65 391.518,294.983 388.5,298.5 Z"/></g>
<g><path style="opacity:0.294" fill="#c094cc" d="M 68.5,288.5 C 65.5,292.167 62.1667,295.5 58.5,298.5C 60.8333,294.167 64.1667,290.833 68.5,288.5 Z"/></g>
<g><path style="opacity:1" fill="#ae6ec0" d="M 193.5,280.5 C 196.34,289.846 201.007,298.179 207.5,305.5C 204.185,305.028 201.851,303.195 200.5,300C 199.552,299.517 198.552,299.351 197.5,299.5C 196.351,295.908 195.351,292.241 194.5,288.5C 193.789,286.455 192.456,285.122 190.5,284.5C 191.026,282.77 192.026,281.436 193.5,280.5 Z"/></g>
<g><path style="opacity:0.294" fill="#c093cd" d="M 361.5,291.5 C 363.265,290.539 365.265,290.205 367.5,290.5C 367.338,292.527 367.505,294.527 368,296.5C 368.582,292.749 370.749,291.082 374.5,291.5C 374.249,295.249 373.583,298.915 372.5,302.5C 371.927,299.341 371.76,296.008 372,292.5C 368.465,296.973 367.298,301.973 368.5,307.5C 367.883,307.389 367.383,307.056 367,306.5C 366.544,303.428 366.544,300.428 367,297.5C 365.644,298.38 364.144,298.714 362.5,298.5C 362.715,296.821 362.048,295.821 360.5,295.5C 361.209,294.596 362.209,294.263 363.5,294.5C 363.281,295.675 363.614,296.675 364.5,297.5C 366.283,295.977 366.949,293.977 366.5,291.5C 364.833,291.5 363.167,291.5 361.5,291.5 Z"/></g>
<g><path style="opacity:0.545" fill="#cfb1d7" d="M 157.5,316.5 C 158.444,308.177 158.944,299.844 159,291.5C 156.586,290.144 154.419,290.478 152.5,292.5C 156.168,286.868 159.168,287.368 161.5,294C 160.633,301.711 159.3,309.211 157.5,316.5 Z"/></g>
<g><path style="opacity:1" fill="#d5acdf" d="M 239.5,285.5 C 238.878,291.725 236.878,297.392 233.5,302.5C 234.745,296.423 236.745,290.757 239.5,285.5 Z"/></g>
<g><path style="opacity:0.635" fill="#c7a3d2" d="M 383.5,294.5 C 384.492,294.328 385.158,294.662 385.5,295.5C 383.491,296.056 381.491,297.389 379.5,299.5C 380.08,297.251 381.413,295.585 383.5,294.5 Z"/></g>
<g><path style="opacity:0.635" fill="#c398cf" d="M 438.5,302.5 C 438.5,300.833 438.5,299.167 438.5,297.5C 437.167,297.5 435.833,297.5 434.5,297.5C 435.751,295.78 437.251,295.447 439,296.5C 439.789,298.712 439.622,300.712 438.5,302.5 Z"/></g>
<g><path style="opacity:0.071" fill="#c59cd0" d="M 172.5,295.5 C 173.964,296.405 175.298,296.405 176.5,295.5C 175.521,299.461 173.521,302.794 170.5,305.5C 171.233,303.037 172.233,300.703 173.5,298.5C 173.315,297.416 172.982,296.416 172.5,295.5 Z"/></g>
<g><path style="opacity:1" fill="#e7d5ec" d="M 434.5,297.5 C 435.833,297.5 437.167,297.5 438.5,297.5C 438.5,299.167 438.5,300.833 438.5,302.5C 437.116,303.801 435.616,303.801 434,302.5C 433.22,300.613 433.387,298.946 434.5,297.5 Z"/></g>
<g><path style="opacity:1" fill="#d8c1de" d="M 138.5,289.5 C 138.665,292.85 138.498,296.183 138,299.5C 137.392,301.066 136.558,302.4 135.5,303.5C 136.01,298.609 137.01,293.942 138.5,289.5 Z"/></g>
<g><path style="opacity:0.071" fill="#c6a0d1" d="M 361.5,291.5 C 360.626,292.525 359.459,293.192 358,293.5C 356.535,292.67 355.035,292.504 353.5,293C 352.105,296.388 350.438,299.555 348.5,302.5C 347.432,301.566 346.099,301.232 344.5,301.5C 344.715,299.821 344.048,298.821 342.5,298.5C 343.209,297.596 344.209,297.263 345.5,297.5C 345.272,299.355 345.939,300.188 347.5,300C 348.406,298.301 348.739,296.467 348.5,294.5C 346.833,294.5 345.167,294.5 343.5,294.5C 345.265,293.539 347.265,293.205 349.5,293.5C 349.343,294.873 349.51,296.207 350,297.5C 350.516,294.966 351.683,292.8 353.5,291C 355.367,290.289 356.867,290.789 358,292.5C 359.011,291.663 360.178,291.33 361.5,291.5 Z"/></g>
<g><path style="opacity:1" fill="#e7c8ed" d="M 388.5,298.5 C 391.977,299.323 395.644,299.823 399.5,300C 400.412,301.625 399.745,302.459 397.5,302.5C 395.5,302.5 393.5,302.5 391.5,302.5C 393.631,301.686 395.964,301.186 398.5,301C 394.789,300.825 391.122,300.325 387.5,299.5C 387.624,298.893 387.957,298.56 388.5,298.5 Z"/></g>
<g><path style="opacity:0.516" fill="#dac7df" d="M 343.5,294.5 C 342.594,295.965 341.261,296.965 339.5,297.5C 338.468,295.96 337.135,295.46 335.5,296C 334.005,299.817 332.505,303.65 331,307.5C 330.184,308.823 329.017,309.489 327.5,309.5C 330.567,304.533 333.234,299.366 335.5,294C 337.256,293.86 338.922,294.36 340.5,295.5C 341.417,294.873 342.417,294.539 343.5,294.5 Z"/></g>
<g><path style="opacity:0.071" fill="#c39ace" d="M 152.5,309.5 C 152.5,307.5 152.5,305.5 152.5,303.5C 153.833,303.167 153.833,302.833 152.5,302.5C 152.783,301.711 153.283,301.044 154,300.5C 154.32,303.72 153.82,306.72 152.5,309.5 Z"/></g>
<g><path style="opacity:1" fill="#efe8f1" d="M 303.5,270.5 C 303.5,270.833 303.5,271.167 303.5,271.5C 302.087,274.219 301.42,277.219 301.5,280.5C 299.777,282.78 299.111,285.447 299.5,288.5C 298.034,289.347 297.2,290.68 297,292.5C 296.199,295.324 296.365,297.324 297.5,298.5C 299.402,297.489 301.402,297.322 303.5,298C 305.438,300.47 306.604,303.304 307,306.5C 310.251,302.578 314.084,299.412 318.5,297C 320.674,296.123 322.341,296.623 323.5,298.5C 323.5,299.5 323.5,300.5 323.5,301.5C 321.265,301.205 319.265,301.539 317.5,302.5C 314.327,305.186 312.493,308.52 312,312.5C 314.387,308.612 317.553,305.612 321.5,303.5C 322.442,303.608 323.275,303.941 324,304.5C 324.333,306.5 324.667,308.5 325,310.5C 325.671,309.748 326.504,309.414 327.5,309.5C 329.017,309.489 330.184,308.823 331,307.5C 332.505,303.65 334.005,299.817 335.5,296C 337.135,295.46 338.468,295.96 339.5,297.5C 341.261,296.965 342.594,295.965 343.5,294.5C 345.167,294.5 346.833,294.5 348.5,294.5C 348.739,296.467 348.406,298.301 347.5,300C 345.939,300.188 345.272,299.355 345.5,297.5C 344.209,297.263 343.209,297.596 342.5,298.5C 338.223,303.541 334.557,309.041 331.5,315C 329.018,314.277 326.518,314.444 324,315.5C 321.915,314.876 320.082,313.876 318.5,312.5C 317.167,313.167 316.167,314.167 315.5,315.5C 313.071,318.026 310.071,318.859 306.5,318C 305.299,317.097 304.465,315.931 304,314.5C 303.388,317.115 301.888,318.781 299.5,319.5C 295.5,319.5 291.5,319.5 287.5,319.5C 287.775,314.78 286.941,314.446 285,318.5C 284.302,317.309 283.469,316.309 282.5,315.5C 283.833,314.833 284.833,313.833 285.5,312.5C 287.411,312.426 288.578,311.426 289,309.5C 291.82,300.219 294.32,290.886 296.5,281.5C 297.078,276.835 298.411,272.501 300.5,268.5C 301.496,268.586 302.329,268.252 303,267.5C 303.483,268.448 303.649,269.448 303.5,270.5 Z M 298.5,302.5 C 299.5,302.5 300.5,302.5 301.5,302.5C 300.955,307.988 298.789,312.655 295,316.5C 292.799,315.038 292.133,313.038 293,310.5C 294.273,307.403 296.107,304.736 298.5,302.5 Z"/></g>
<g><path style="opacity:0.22" fill="#caaad3" d="M 323.5,298.5 C 324.434,299.568 324.768,300.901 324.5,302.5C 322.167,302.5 319.833,302.5 317.5,302.5C 319.265,301.539 321.265,301.205 323.5,301.5C 323.5,300.5 323.5,299.5 323.5,298.5 Z"/></g>
<g><path style="opacity:0.337" fill="#cfb1d7" d="M 359.5,296.5 C 355.988,300.863 352.988,305.53 350.5,310.5C 351.532,304.405 354.532,299.738 359.5,296.5 Z"/></g>
<g><path style="opacity:0.22" fill="#c9a6d3" d="M 135.5,303.5 C 135.37,307.525 134.37,311.191 132.5,314.5C 132.882,310.554 133.882,306.888 135.5,303.5 Z"/></g>
<g><path style="opacity:1" fill="#f0e8f2" d="M 272.5,309.5 C 274.012,307.683 276.012,306.683 278.5,306.5C 278.261,310.842 277.927,315.176 277.5,319.5C 279.483,319.157 280.817,319.824 281.5,321.5C 277.782,324.105 274.616,323.439 272,319.5C 269.656,322.011 267.156,324.344 264.5,326.5C 262.5,326.5 260.5,326.5 258.5,326.5C 258.372,322.119 258.705,317.785 259.5,313.5C 259.5,312.5 259.5,311.5 259.5,310.5C 259.5,310.167 259.5,309.833 259.5,309.5C 260.048,306.916 261.715,305.916 264.5,306.5C 264.309,311.923 263.809,317.257 263,322.5C 266.188,318.099 269.355,313.766 272.5,309.5 Z"/></g>
<g><path style="opacity:0.294" fill="#c5a0d0" d="M 377.5,305.5 C 376.713,307.104 375.38,307.771 373.5,307.5C 374.514,306.326 375.847,305.66 377.5,305.5 Z"/></g>
<g><path style="opacity:1" fill="#f4ecf6" d="M 93.5,273.5 C 87.9586,276.436 82.9586,280.103 78.5,284.5C 77.8333,285.833 76.8333,286.833 75.5,287.5C 69.8333,291.167 65.1667,295.833 61.5,301.5C 59.8333,303.5 58.1667,305.5 56.5,307.5C 55.0256,308.436 54.0256,309.77 53.5,311.5C 50.9193,314.32 49.0859,317.654 48,321.5C 46.8318,326.173 45.6651,330.839 44.5,335.5C 42.976,334.473 42.3094,332.973 42.5,331C 43.1051,327.143 43.7717,323.31 44.5,319.5C 46.2927,317.574 47.2927,315.241 47.5,312.5C 49.2181,310.777 50.5514,308.777 51.5,306.5C 52.9063,306.027 53.573,305.027 53.5,303.5C 55.3947,302.027 57.0613,300.36 58.5,298.5C 62.1667,295.5 65.5,292.167 68.5,288.5C 70.7488,287.92 72.4154,286.587 73.5,284.5C 73.5,283.833 73.8333,283.5 74.5,283.5C 78.0515,281.889 81.0515,279.556 83.5,276.5C 86.6067,275.111 89.6067,273.445 92.5,271.5C 93.2975,271.957 93.6309,272.624 93.5,273.5 Z"/></g>
<g><path style="opacity:0.455" fill="#c198cd" d="M 246.5,301.5 C 250.325,304.991 254.658,307.658 259.5,309.5C 259.5,309.833 259.5,310.167 259.5,310.5C 257.421,310.029 255.421,309.363 253.5,308.5C 250.145,307.145 247.811,304.811 246.5,301.5 Z"/></g>
<g><path style="opacity:1" fill="#a75bbd" d="M 190.5,284.5 C 190.657,285.873 190.49,287.207 190,288.5C 185.294,296.016 180.461,303.349 175.5,310.5C 186.819,311.666 198.152,311.832 209.5,311C 208.619,310.292 207.953,309.458 207.5,308.5C 210.797,308.632 212.463,310.298 212.5,313.5C 209.941,313.198 207.607,313.532 205.5,314.5C 205.167,314.5 204.833,314.5 204.5,314.5C 193.628,314.158 182.961,313.158 172.5,311.5C 177.769,301.947 183.769,292.947 190.5,284.5 Z"/></g>
<g><path style="opacity:1" fill="#a962be" d="M 233.5,305.5 C 233.739,307.467 233.406,309.301 232.5,311C 235.833,311.667 239.167,311.667 242.5,311C 246.241,309.986 249.907,309.153 253.5,308.5C 255.421,309.363 257.421,310.029 259.5,310.5C 259.5,311.5 259.5,312.5 259.5,313.5C 253.8,310.925 248.133,310.925 242.5,313.5C 238.298,313.817 234.298,313.483 230.5,312.5C 230.935,309.843 231.935,307.509 233.5,305.5 Z"/></g>
<g><path style="opacity:0.071" fill="#c095cc" d="M 346.5,308.5 C 346.557,309.609 346.89,310.609 347.5,311.5C 345.448,310.947 345.115,309.947 346.5,308.5 Z"/></g>
<g><path style="opacity:0.992" fill="#a762bb" d="M 56.5,307.5 C 59.9867,308.388 61.3201,310.721 60.5,314.5C 58.5,314.5 56.5,314.5 54.5,314.5C 53.8902,313.609 53.5569,312.609 53.5,311.5C 54.0256,309.77 55.0256,308.436 56.5,307.5 Z"/></g>
<g><path style="opacity:0.987" fill="#a664ba" d="M 391.5,302.5 C 393.5,302.5 395.5,302.5 397.5,302.5C 392.901,303.209 388.234,304.209 383.5,305.5C 381.774,308.227 379.441,310.227 376.5,311.5C 390.5,312.833 404.5,312.833 418.5,311.5C 417.388,310.735 416.721,309.735 416.5,308.5C 420.068,308.759 421.401,310.759 420.5,314.5C 405.167,314.5 389.833,314.5 374.5,314.5C 374.343,313.127 374.51,311.793 375,310.5C 377.664,309.002 379.83,307.002 381.5,304.5C 384.589,303.215 387.922,302.549 391.5,302.5 Z"/></g>
<g><path style="opacity:1" fill="#f4eef5" d="M 254.5,322.5 C 253.5,324.167 252.167,325.5 250.5,326.5C 246.894,326.789 243.394,326.456 240,325.5C 239.612,322.151 239.779,318.817 240.5,315.5C 241.5,315.167 242.167,314.5 242.5,313.5C 243.5,313.5 244.5,313.5 245.5,313.5C 245.5,314.5 245.5,315.5 245.5,316.5C 245.672,317.492 245.338,318.158 244.5,318.5C 242.06,320.573 241.894,322.906 244,325.5C 245.302,324.915 246.469,324.249 247.5,323.5C 248.512,322.128 249.512,320.795 250.5,319.5C 252.026,317.55 253.026,315.217 253.5,312.5C 254.833,313.167 255.833,314.167 256.5,315.5C 255.423,317.729 254.756,320.063 254.5,322.5 Z M 250.5,319.5 C 249.512,320.795 248.512,322.128 247.5,323.5C 246.167,323.5 244.833,323.5 243.5,323.5C 243.629,321.784 243.962,320.117 244.5,318.5C 245.338,318.158 245.672,317.492 245.5,316.5C 247.297,315.27 249.297,314.604 251.5,314.5C 251.371,316.216 251.038,317.883 250.5,319.5 Z"/></g>
<g><path style="opacity:0.463" fill="#ae6fc0" d="M 42.5,298.5 C 42.2447,301.016 41.4114,303.35 40,305.5C 36.8251,307.667 33.6584,309.834 30.5,312C 36.1569,312.499 41.8236,312.666 47.5,312.5C 47.2927,315.241 46.2927,317.574 44.5,319.5C 44.4208,318.07 44.7542,316.736 45.5,315.5C 39.8722,314.505 34.2055,314.171 28.5,314.5C 28.3398,312.801 28.5065,311.134 29,309.5C 34.6601,307.109 39.1601,303.442 42.5,298.5 Z"/></g>
<g><path style="opacity:0.412" fill="#c092ce" d="M 172.5,311.5 C 182.961,313.158 193.628,314.158 204.5,314.5C 193.167,314.5 181.833,314.5 170.5,314.5C 170.427,312.973 171.094,311.973 172.5,311.5 Z"/></g>
<g><path style="opacity:0.412" fill="#ba88c9" d="M 207.5,305.5 C 209.175,307.002 211.008,308.335 213,309.5C 213.494,311.134 213.66,312.801 213.5,314.5C 210.833,314.5 208.167,314.5 205.5,314.5C 207.607,313.532 209.941,313.198 212.5,313.5C 212.463,310.298 210.797,308.632 207.5,308.5C 207.5,307.5 207.5,306.5 207.5,305.5 Z"/></g>
<g><path style="opacity:0.412" fill="#c398cf" d="M 230.5,312.5 C 234.298,313.483 238.298,313.817 242.5,313.5C 242.167,314.5 241.5,315.167 240.5,315.5C 237.038,314.518 233.371,314.185 229.5,314.5C 229.328,313.508 229.662,312.842 230.5,312.5 Z"/></g>
<g><path style="opacity:0.027" fill="#c097cc" d="M 318.5,312.5 C 318.5,314.5 317.5,315.5 315.5,315.5C 316.167,314.167 317.167,313.167 318.5,312.5 Z"/></g>
<g><path style="opacity:0.718" fill="#d5bcdc" d="M 140.5,309.5 C 140.938,310.506 141.604,310.506 142.5,309.5C 141.189,312.122 139.855,314.789 138.5,317.5C 138.167,317 137.833,316.5 137.5,316C 137.838,313.391 138.838,311.224 140.5,309.5 Z"/></g>
<g><path style="opacity:0.718" fill="#d6bfdc" d="M 167.5,310.5 C 164.706,317.135 160.873,323.135 156,328.5C 155.235,326.934 155.402,325.601 156.5,324.5C 156.435,324.938 156.601,325.272 157,325.5C 160.522,320.434 164.022,315.434 167.5,310.5 Z"/></g>
<g><path style="opacity:1" fill="#dcc8e2" d="M 282.5,315.5 C 283.469,316.309 284.302,317.309 285,318.5C 286.941,314.446 287.775,314.78 287.5,319.5C 291.5,319.5 295.5,319.5 299.5,319.5C 298.376,320.809 296.876,321.475 295,321.5C 292.461,320.398 289.961,320.398 287.5,321.5C 286.522,321.023 285.689,320.357 285,319.5C 284.184,320.823 283.017,321.489 281.5,321.5C 280.817,319.824 279.483,319.157 277.5,319.5C 277.927,315.176 278.261,310.842 278.5,306.5C 276.012,306.683 274.012,307.683 272.5,309.5C 273.273,306.213 275.273,304.713 278.5,305C 279.416,309.451 279.583,313.951 279,318.5C 280.039,317.29 281.206,316.29 282.5,315.5 Z"/></g>
<g><path style="opacity:0.859" fill="#decae3" d="M 259.5,313.5 C 258.705,317.785 258.372,322.119 258.5,326.5C 260.5,326.5 262.5,326.5 264.5,326.5C 259.389,329.518 256.556,327.852 256,321.5C 255.617,322.056 255.117,322.389 254.5,322.5C 254.756,320.063 255.423,317.729 256.5,315.5C 255.833,314.167 254.833,313.167 253.5,312.5C 253.026,315.217 252.026,317.55 250.5,319.5C 251.038,317.883 251.371,316.216 251.5,314.5C 249.297,314.604 247.297,315.27 245.5,316.5C 245.5,315.5 245.5,314.5 245.5,313.5C 244.5,313.5 243.5,313.5 242.5,313.5C 248.133,310.925 253.8,310.925 259.5,313.5 Z"/></g>
<g><path style="opacity:0.969" fill="#dfcde3" d="M 240.5,315.5 C 239.779,318.817 239.612,322.151 240,325.5C 243.394,326.456 246.894,326.789 250.5,326.5C 246.151,329.419 241.984,329.086 238,325.5C 237.028,321.632 237.861,318.299 240.5,315.5 Z"/></g>
<g><path style="opacity:0.294" fill="#c298cd" d="M 227.5,320.5 C 227.072,323.785 226.072,326.785 224.5,329.5C 224.528,326.084 225.528,323.084 227.5,320.5 Z"/></g>
<g><path style="opacity:0.071" fill="#c298ce" d="M 244.5,318.5 C 243.962,320.117 243.629,321.784 243.5,323.5C 244.833,323.5 246.167,323.5 247.5,323.5C 246.469,324.249 245.302,324.915 244,325.5C 241.894,322.906 242.06,320.573 244.5,318.5 Z"/></g>
<g><path style="opacity:0.22" fill="#c59ed0" d="M 53.5,311.5 C 53.5569,312.609 53.8902,313.609 54.5,314.5C 51.9725,316.51 50.1392,319.177 49,322.5C 48.2287,325.859 47.3953,329.192 46.5,332.5C 47.8587,334.306 47.5254,335.806 45.5,337C 44.451,337.492 43.451,337.326 42.5,336.5C 41.6816,334.892 41.0149,333.225 40.5,331.5C 41.2364,327.186 42.5698,323.186 44.5,319.5C 43.7717,323.31 43.1051,327.143 42.5,331C 42.3094,332.973 42.976,334.473 44.5,335.5C 45.6651,330.839 46.8318,326.173 48,321.5C 49.0859,317.654 50.9193,314.32 53.5,311.5 Z"/></g>
<g><path style="opacity:0.22" fill="#c9a5d3" d="M 222.5,318.5 C 219.525,330.101 215.192,341.101 209.5,351.5C 213.263,340.199 217.596,329.199 222.5,318.5 Z"/></g>
<g><path style="opacity:0.455" fill="#d6c1dc" d="M 165.5,323.5 C 163.225,328.429 160.559,333.096 157.5,337.5C 158.662,331.826 161.329,327.16 165.5,323.5 Z"/></g>
<g><path style="opacity:0.071" fill="#c5a0d0" d="M 224.5,329.5 C 223.618,333.593 221.951,337.26 219.5,340.5C 220.221,336.311 221.887,332.645 224.5,329.5 Z"/></g>
<g><path style="opacity:0.516" fill="#d7c3dd" d="M 125.5,336.5 C 123.223,345.697 119.889,354.364 115.5,362.5C 117.87,353.378 121.204,344.711 125.5,336.5 Z"/></g>
<g><path style="opacity:0.412" fill="#c39acf" d="M 219.5,340.5 C 219.293,343.241 218.293,345.574 216.5,347.5C 216.707,344.759 217.707,342.426 219.5,340.5 Z"/></g>
<g><path style="opacity:0.337" fill="#cfb2d7" d="M 202.5,368.5 C 202.302,370.575 202.135,372.575 202,374.5C 202.333,374.833 202.667,375.167 203,375.5C 203.708,374.619 204.542,373.953 205.5,373.5C 205.001,376.389 203.501,377.056 201,375.5C 200.412,372.861 200.912,370.527 202.5,368.5 Z"/></g>
</svg>
