<?xml version="1.0" encoding="UTF-8"?>
<!DOCTYPE svg PUBLIC "-//W3C//DTD SVG 1.1//EN" "http://www.w3.org/Graphics/SVG/1.1/DTD/svg11.dtd">
<svg xmlns="http://www.w3.org/2000/svg" version="1.1" width="500px" height="500px" style="shape-rendering:geometricPrecision; text-rendering:geometricPrecision; image-rendering:optimizeQuality; fill-rule:evenodd; clip-rule:evenodd" xmlns:xlink="http://www.w3.org/1999/xlink">
<g><path style="opacity:0.875" fill="#fec6c6" d="M 287.5,171.5 C 298.552,170.857 309.219,171.524 319.5,173.5C 319.167,173.5 318.833,173.5 318.5,173.5C 308.167,172.833 297.833,172.167 287.5,171.5 Z"/></g>
<g><path style="opacity:0.855" fill="#fdabab" d="M 440.5,176.5 C 439.833,176.167 439.167,175.833 438.5,175.5C 437.01,173.72 435.01,173.054 432.5,173.5C 431.833,173.833 431.167,174.167 430.5,174.5C 430.5,173.5 430.5,172.5 430.5,171.5C 433.187,171.336 435.854,171.503 438.5,172C 439.582,173.33 440.249,174.83 440.5,176.5 Z"/></g>
<g><path style="opacity:1" fill="#fe9c9b" d="M 91.5,171.5 C 103.838,171.333 116.171,171.5 128.5,172C 131.187,173.049 133.52,174.549 135.5,176.5C 135.5,177.167 135.5,177.833 135.5,178.5C 132.784,176.533 129.784,175.033 126.5,174C 114.505,173.5 102.505,173.333 90.5,173.5C 90.8333,172.833 91.1667,172.167 91.5,171.5 Z"/></g>
<g><path style="opacity:1" fill="#fd9190" d="M 188.5,171.5 C 191.915,171.566 194.915,172.732 197.5,175C 199.439,175.908 200.439,177.408 200.5,179.5C 198.036,177.43 195.369,175.596 192.5,174C 178.837,173.5 165.171,173.333 151.5,173.5C 151.167,173.5 150.833,173.5 150.5,173.5C 163.167,172.833 175.833,172.167 188.5,171.5 Z"/></g>
<g><path style="opacity:1" fill="#fd8989" d="M 283.5,171.5 C 284.833,171.5 286.167,171.5 287.5,171.5C 297.833,172.167 308.167,172.833 318.5,173.5C 306.833,173.5 295.167,173.5 283.5,173.5C 283.5,172.833 283.5,172.167 283.5,171.5 Z"/></g>
<g><path style="opacity:1" fill="#fa1210" d="M 90.5,173.5 C 102.505,173.333 114.505,173.5 126.5,174C 129.784,175.033 132.784,176.533 135.5,178.5C 143.213,185.811 146.046,194.811 144,205.5C 143.996,208.792 142.83,211.458 140.5,213.5C 140.66,211.801 140.494,210.134 140,208.5C 138.245,207.33 137.245,205.663 137,203.5C 136.667,205.5 136.333,207.5 136,209.5C 135.617,208.944 135.117,208.611 134.5,208.5C 135.038,206.883 135.371,205.216 135.5,203.5C 135.5,203.167 135.5,202.833 135.5,202.5C 137.617,192.249 133.617,185.416 123.5,182C 113.833,181.333 104.167,181.333 94.5,182C 88.5315,183.298 84.3648,186.798 82,192.5C 81.1881,196.689 81.3547,200.689 82.5,204.5C 83.242,206.98 84.242,209.313 85.5,211.5C 83.4935,210.321 83.1602,210.821 84.5,213C 81.7854,213.875 80.4521,215.708 80.5,218.5C 76.8846,214.941 74.5512,210.607 73.5,205.5C 73.5,201.167 73.5,196.833 73.5,192.5C 74.3024,189.426 75.3024,186.426 76.5,183.5C 80.3499,178.977 85.0166,175.644 90.5,173.5 Z"/></g>
<g><path style="opacity:0.186" fill="#fda4a3" d="M 242.5,175.5 C 239.482,173.537 236.149,173.037 232.5,174C 231.512,176.167 230.179,178 228.5,179.5C 229.5,172.348 233.5,169.848 240.5,172C 241.823,172.816 242.489,173.983 242.5,175.5 Z"/></g>
<g><path style="opacity:0.337" fill="#fe9797" d="M 373.5,215.5 C 360.167,215.5 346.833,215.5 333.5,215.5C 332.504,201.677 332.171,187.677 332.5,173.5C 329.833,173.5 327.167,173.5 324.5,173.5C 324.333,189.837 324.5,206.17 325,222.5C 325.308,223.308 325.808,223.975 326.5,224.5C 340.455,225.649 354.455,225.816 368.5,225C 369.639,223.22 370.639,221.386 371.5,219.5C 372.167,219.5 372.5,219.167 372.5,218.5C 372.833,218.5 373.167,218.5 373.5,218.5C 372.828,221.343 371.495,223.843 369.5,226C 354.833,226.667 340.167,226.667 325.5,226C 324.299,225.097 323.465,223.931 323,222.5C 322.5,205.503 322.333,188.503 322.5,171.5C 326.5,171.5 330.5,171.5 334.5,171.5C 334.5,185.833 334.5,200.167 334.5,214.5C 347.677,214.171 360.677,214.505 373.5,215.5 Z"/></g>
<g><path style="opacity:1" fill="#feb9b8" d="M 188.5,171.5 C 175.833,172.167 163.167,172.833 150.5,173.5C 149.503,190.659 149.17,207.992 149.5,225.5C 148.169,217.193 147.502,208.527 147.5,199.5C 147.513,190.455 147.846,181.455 148.5,172.5C 161.817,171.501 175.15,171.167 188.5,171.5 Z"/></g>
<g><path style="opacity:1" fill="#fb3939" d="M 150.5,173.5 C 150.833,173.5 151.167,173.5 151.5,173.5C 151.5,173.833 151.5,174.167 151.5,174.5C 150.503,190.992 150.17,207.658 150.5,224.5C 152.833,224.5 155.167,224.5 157.5,224.5C 155.052,225.473 152.385,225.806 149.5,225.5C 149.17,207.992 149.503,190.659 150.5,173.5 Z"/></g>
<g><path style="opacity:1" fill="#f90809" d="M 151.5,174.5 C 164.504,174.333 177.504,174.5 190.5,175C 190.167,175.333 189.833,175.667 189.5,176C 190.207,178.543 191.54,180.709 193.5,182.5C 192.767,183.087 191.767,183.087 190.5,182.5C 179.637,181.198 168.803,181.198 158,182.5C 157.5,196.496 157.333,210.496 157.5,224.5C 155.167,224.5 152.833,224.5 150.5,224.5C 150.17,207.658 150.503,190.992 151.5,174.5 Z"/></g>
<g><path style="opacity:1" fill="#fa1512" d="M 333.5,215.5 C 333.5,216.167 333.833,216.5 334.5,216.5C 347.034,216.84 359.367,217.84 371.5,219.5C 370.639,221.386 369.639,223.22 368.5,225C 354.455,225.816 340.455,225.649 326.5,224.5C 325.808,223.975 325.308,223.308 325,222.5C 324.5,206.17 324.333,189.837 324.5,173.5C 327.167,173.5 329.833,173.5 332.5,173.5C 332.171,187.677 332.504,201.677 333.5,215.5 Z"/></g>
<g><path style="opacity:0.082" fill="#fdbcbd" d="M 430.5,174.5 C 429.659,176.379 429.325,178.379 429.5,180.5C 428.853,179.726 428.52,178.726 428.5,177.5C 428.64,175.97 429.307,174.97 430.5,174.5 Z"/></g>
<g><path style="opacity:1" fill="#fb4040" d="M 432.5,173.5 C 435.01,173.054 437.01,173.72 438.5,175.5C 437.502,175.587 436.335,175.92 435,176.5C 435.617,178.095 435.284,179.428 434,180.5C 433.51,179.207 433.343,177.873 433.5,176.5C 432.89,175.609 432.557,174.609 432.5,173.5 Z"/></g>
<g><path style="opacity:0.91" fill="#fda6a6" d="M 91.5,171.5 C 91.1667,172.167 90.8333,172.833 90.5,173.5C 85.0166,175.644 80.3499,178.977 76.5,183.5C 76.933,180.805 78.2663,178.638 80.5,177C 83.9522,174.607 87.6189,172.774 91.5,171.5 Z"/></g>
<g><path style="opacity:0.992" fill="#fe9998" d="M 390.5,184.5 C 389.833,184.5 389.167,184.5 388.5,184.5C 389.347,183.034 390.68,182.2 392.5,182C 402.342,181.83 412.009,181.33 421.5,180.5C 422.81,178.565 424.143,176.565 425.5,174.5C 412.846,173.334 400.18,173.167 387.5,174C 386.058,174.377 385.058,175.21 384.5,176.5C 379.044,179.696 375.21,184.363 373,190.5C 370.644,201.059 372.811,210.392 379.5,218.5C 378.833,218.5 378.167,218.5 377.5,218.5C 375.887,215.714 374.054,213.047 372,210.5C 367.097,193.489 372.263,180.655 387.5,172C 400.496,171.5 413.496,171.333 426.5,171.5C 426.591,176.146 424.924,179.98 421.5,183C 411.134,183.239 400.801,183.739 390.5,184.5 Z"/></g>
<g><path style="opacity:1" fill="#fa2926" d="M 421.5,180.5 C 421.261,178.533 421.594,176.699 422.5,175C 411.5,174.333 400.5,174.333 389.5,175C 387.846,175.608 386.179,176.108 384.5,176.5C 385.058,175.21 386.058,174.377 387.5,174C 400.18,173.167 412.846,173.334 425.5,174.5C 424.143,176.565 422.81,178.565 421.5,180.5 Z"/></g>
<g><path style="opacity:1" fill="#fe8180" d="M 438.5,175.5 C 439.167,175.833 439.833,176.167 440.5,176.5C 440.795,178.735 440.461,180.735 439.5,182.5C 439.167,182.5 438.833,182.5 438.5,182.5C 438.44,181.957 438.107,181.624 437.5,181.5C 434.475,184.063 432.475,183.23 431.5,179C 431.684,177.624 432.351,176.791 433.5,176.5C 433.343,177.873 433.51,179.207 434,180.5C 435.284,179.428 435.617,178.095 435,176.5C 436.335,175.92 437.502,175.587 438.5,175.5 Z"/></g>
<g><path style="opacity:0.192" fill="#fea5a5" d="M 318.5,173.5 C 318.833,173.5 319.167,173.5 319.5,173.5C 319.087,177.338 317.42,180.338 314.5,182.5C 314.5,182.167 314.5,181.833 314.5,181.5C 316.267,179.062 317.601,176.395 318.5,173.5 Z"/></g>
<g><path style="opacity:0.8" fill="#fcaeae" d="M 283.5,171.5 C 283.5,172.167 283.5,172.833 283.5,173.5C 274.522,176.478 268.522,182.478 265.5,191.5C 267.365,181.609 273.365,174.943 283.5,171.5 Z"/></g>
<g><path style="opacity:0.573" fill="#fbafaf" d="M 242.5,175.5 C 247.609,181.78 251.609,188.78 254.5,196.5C 253.272,195.694 252.272,194.694 251.5,193.5C 248.466,187.48 245.466,181.48 242.5,175.5 Z"/></g>
<g><path style="opacity:0.608" fill="#fd8f8d" d="M 314.5,181.5 C 314.5,181.833 314.5,182.167 314.5,182.5C 304.284,183.1 293.951,183.934 283.5,185C 278.187,188.72 275.187,193.887 274.5,200.5C 274.5,201.833 274.5,203.167 274.5,204.5C 272.07,195.637 274.737,188.47 282.5,183C 293.088,181.571 303.755,181.071 314.5,181.5 Z"/></g>
<g><path style="opacity:1" fill="#fc6160" d="M 432.5,173.5 C 432.557,174.609 432.89,175.609 433.5,176.5C 432.351,176.791 431.684,177.624 431.5,179C 432.475,183.23 434.475,184.063 437.5,181.5C 438.107,181.624 438.44,181.957 438.5,182.5C 437.866,183.947 436.699,184.613 435,184.5C 432.808,184.137 430.974,183.137 429.5,181.5C 429.5,181.167 429.5,180.833 429.5,180.5C 429.325,178.379 429.659,176.379 430.5,174.5C 431.167,174.167 431.833,173.833 432.5,173.5 Z"/></g>
<g><path style="opacity:0.343" fill="#fcbaba" d="M 76.5,183.5 C 75.3024,186.426 74.3024,189.426 73.5,192.5C 72.8333,192.5 72.1667,192.5 71.5,192.5C 72.3103,190.202 73.1436,187.868 74,185.5C 74.7083,184.619 75.5416,183.953 76.5,183.5 Z"/></g>
<g><path style="opacity:0.337" fill="#fe9291" d="M 135.5,202.5 C 136.011,193.742 132.011,187.575 123.5,184C 113.833,183.333 104.167,183.333 94.5,184C 92.0506,184.725 89.7173,185.725 87.5,187C 86.0753,189.553 84.5753,192.053 83,194.5C 82.502,197.482 82.3354,200.482 82.5,203.5C 82.5,203.833 82.5,204.167 82.5,204.5C 81.3547,200.689 81.1881,196.689 82,192.5C 84.3648,186.798 88.5315,183.298 94.5,182C 104.167,181.333 113.833,181.333 123.5,182C 133.617,185.416 137.617,192.249 135.5,202.5 Z"/></g>
<g><path style="opacity:0.192" fill="#fdb2b2" d="M 228.5,179.5 C 225.255,186.996 221.255,193.996 216.5,200.5C 219.22,192.721 223.22,185.721 228.5,179.5 Z"/></g>
<g><path style="opacity:0.337" fill="#fda6a6" d="M 429.5,181.5 C 430.974,183.137 432.808,184.137 435,184.5C 436.699,184.613 437.866,183.947 438.5,182.5C 438.833,182.5 439.167,182.5 439.5,182.5C 438.327,185.754 435.994,186.92 432.5,186C 431.167,184.667 429.833,183.333 428.5,182C 428.728,181.601 429.062,181.435 429.5,181.5 Z"/></g>
<g><path style="opacity:0.22" fill="#fd8686" d="M 190.5,182.5 C 191.167,183.5 191.833,184.5 192.5,185.5C 192.167,185.5 191.833,185.5 191.5,185.5C 190.527,185.013 189.527,184.513 188.5,184C 178.839,183.5 169.172,183.334 159.5,183.5C 159.5,197.833 159.5,212.167 159.5,226.5C 155.958,226.813 152.625,226.479 149.5,225.5C 152.385,225.806 155.052,225.473 157.5,224.5C 157.333,210.496 157.5,196.496 158,182.5C 168.803,181.198 179.637,181.198 190.5,182.5 Z"/></g>
<g><path style="opacity:1" fill="#fa1411" d="M 242.5,175.5 C 245.466,181.48 248.466,187.48 251.5,193.5C 247.718,192.212 245.551,189.545 245,185.5C 244.147,187.125 243.147,187.458 242,186.5C 241.506,188.134 241.34,189.801 241.5,191.5C 239.461,190.089 238.461,188.089 238.5,185.5C 237.178,185.33 236.011,185.663 235,186.5C 228.059,199.391 220.892,212.058 213.5,224.5C 210.302,225.036 207.635,224.369 205.5,222.5C 209.196,215.15 212.863,207.817 216.5,200.5C 221.255,193.996 225.255,186.996 228.5,179.5C 230.179,178 231.512,176.167 232.5,174C 236.149,173.037 239.482,173.537 242.5,175.5 Z"/></g>
<g><path style="opacity:1" fill="#fa1411" d="M 421.5,180.5 C 412.009,181.33 402.342,181.83 392.5,182C 390.68,182.2 389.347,183.034 388.5,184.5C 385.81,186.193 383.81,188.527 382.5,191.5C 381.596,192.209 381.263,193.209 381.5,194.5C 395.167,194.5 408.833,194.5 422.5,194.5C 421.602,197.466 420.269,200.3 418.5,203C 406.171,203.5 393.838,203.667 381.5,203.5C 381.263,204.791 381.596,205.791 382.5,206.5C 382.66,208.153 383.326,209.486 384.5,210.5C 386.63,213.737 389.63,215.737 393.5,216.5C 404.04,216.842 414.374,217.842 424.5,219.5C 423.737,221.368 422.737,223.035 421.5,224.5C 410.136,224.743 398.802,224.41 387.5,223.5C 384.296,222.617 381.629,220.95 379.5,218.5C 372.811,210.392 370.644,201.059 373,190.5C 375.21,184.363 379.044,179.696 384.5,176.5C 386.179,176.108 387.846,175.608 389.5,175C 400.5,174.333 411.5,174.333 422.5,175C 421.594,176.699 421.261,178.533 421.5,180.5 Z"/></g>
<g><path style="opacity:0.949" fill="#fd9b9c" d="M 382.5,191.5 C 395.635,193.16 408.969,194.16 422.5,194.5C 408.833,194.5 395.167,194.5 381.5,194.5C 381.263,193.209 381.596,192.209 382.5,191.5 Z"/></g>
<g><path style="opacity:0.878" fill="#fd9695" d="M 71.5,192.5 C 72.1667,192.5 72.8333,192.5 73.5,192.5C 73.5,196.833 73.5,201.167 73.5,205.5C 72.8333,204.833 72.1667,204.167 71.5,203.5C 71.5,199.833 71.5,196.167 71.5,192.5 Z"/></g>
<g><path style="opacity:0.992" fill="#fea0a0" d="M 265.5,192.5 C 265.5,197.167 265.5,201.833 265.5,206.5C 262.833,201.833 262.833,197.167 265.5,192.5 Z"/></g>
<g><path style="opacity:1" fill="#fc8686" d="M 189.5,198.5 C 181.167,199.167 172.833,199.833 164.5,200.5C 163.957,200.44 163.624,200.107 163.5,199.5C 172.141,198.502 180.808,198.169 189.5,198.5 Z"/></g>
<g><path style="opacity:0.251" fill="#fda5a5" d="M 200.5,179.5 C 202.136,180.749 203.303,182.416 204,184.5C 206.684,197.97 201.517,206.803 188.5,211C 192.704,215.036 196.704,219.202 200.5,223.5C 200.167,223.5 199.833,223.5 199.5,223.5C 194.521,219.188 189.854,214.521 185.5,209.5C 201.678,205.144 206.678,195.144 200.5,179.5 Z"/></g>
<g><path style="opacity:0.392" fill="#fdb4b4" d="M 254.5,196.5 C 256.588,198.336 257.921,200.669 258.5,203.5C 256.412,201.664 255.079,199.331 254.5,196.5 Z"/></g>
<g><path style="opacity:1" fill="#fa1513" d="M 151.5,174.5 C 151.5,174.167 151.5,173.833 151.5,173.5C 165.171,173.333 178.837,173.5 192.5,174C 195.369,175.596 198.036,177.43 200.5,179.5C 206.678,195.144 201.678,205.144 185.5,209.5C 189.854,214.521 194.521,219.188 199.5,223.5C 196.038,224.482 192.371,224.815 188.5,224.5C 180.167,216.833 172.167,208.833 164.5,200.5C 172.833,199.833 181.167,199.167 189.5,198.5C 191.752,198.084 193.252,196.751 194,194.5C 194.927,191.137 194.427,188.137 192.5,185.5C 191.833,184.5 191.167,183.5 190.5,182.5C 191.767,183.087 192.767,183.087 193.5,182.5C 191.54,180.709 190.207,178.543 189.5,176C 189.833,175.667 190.167,175.333 190.5,175C 177.504,174.5 164.504,174.333 151.5,174.5 Z"/></g>
<g><path style="opacity:1" fill="#fa1714" d="M 283.5,173.5 C 295.167,173.5 306.833,173.5 318.5,173.5C 317.601,176.395 316.267,179.062 314.5,181.5C 303.755,181.071 293.088,181.571 282.5,183C 274.737,188.47 272.07,195.637 274.5,204.5C 276.471,209.468 279.804,213.135 284.5,215.5C 295.654,216.495 306.988,216.828 318.5,216.5C 318.567,217.959 318.234,219.292 317.5,220.5C 316.058,221.82 315.392,223.486 315.5,225.5C 304.495,225.667 293.495,225.5 282.5,225C 280.713,223.681 278.713,222.848 276.5,222.5C 272.077,217.96 268.411,212.96 265.5,207.5C 265.5,207.167 265.5,206.833 265.5,206.5C 265.5,201.833 265.5,197.167 265.5,192.5C 265.5,192.167 265.5,191.833 265.5,191.5C 268.522,182.478 274.522,176.478 283.5,173.5 Z"/></g>
<g><path style="opacity:0.997" fill="#fdabab" d="M 388.5,184.5 C 389.167,184.5 389.833,184.5 390.5,184.5C 387.694,186.475 385.361,188.975 383.5,192C 397.163,192.5 410.829,192.667 424.5,192.5C 424.66,194.199 424.494,195.866 424,197.5C 422.185,199.1 421.018,201.1 420.5,203.5C 419.643,204.425 418.643,205.092 417.5,205.5C 411.843,204.834 406.01,204.501 400,204.5C 393.793,204.504 387.96,205.171 382.5,206.5C 381.596,205.791 381.263,204.791 381.5,203.5C 393.838,203.667 406.171,203.5 418.5,203C 420.269,200.3 421.602,197.466 422.5,194.5C 408.969,194.16 395.635,193.16 382.5,191.5C 383.81,188.527 385.81,186.193 388.5,184.5 Z"/></g>
<g><path style="opacity:1" fill="#fa1311" d="M 251.5,193.5 C 252.272,194.694 253.272,195.694 254.5,196.5C 255.079,199.331 256.412,201.664 258.5,203.5C 258.928,207.244 260.595,210.244 263.5,212.5C 265.425,216.693 267.092,221.026 268.5,225.5C 265.482,225.665 262.482,225.498 259.5,225C 257.933,222.021 256.266,219.188 254.5,216.5C 246.677,215.671 238.677,215.171 230.5,215C 229.014,212.525 227.681,210.025 226.5,207.5C 233.833,207.5 241.167,207.5 248.5,207.5C 248.737,206.209 248.404,205.209 247.5,204.5C 245.5,200.167 243.5,195.833 241.5,191.5C 241.34,189.801 241.506,188.134 242,186.5C 243.147,187.458 244.147,187.125 245,185.5C 245.551,189.545 247.718,192.212 251.5,193.5 Z"/></g>
<g><path style="opacity:0.2" fill="#fcc5c6" d="M 417.5,205.5 C 406.162,205.333 394.828,205.5 383.5,206C 384.582,207.33 385.249,208.83 385.5,210.5C 385.167,210.5 384.833,210.5 384.5,210.5C 383.326,209.486 382.66,208.153 382.5,206.5C 387.96,205.171 393.793,204.504 400,204.5C 406.01,204.501 411.843,204.834 417.5,205.5 Z"/></g>
<g><path style="opacity:0.2" fill="#fea1a0" d="M 241.5,191.5 C 243.5,195.833 245.5,200.167 247.5,204.5C 240.726,206.151 233.726,207.151 226.5,207.5C 227.681,210.025 229.014,212.525 230.5,215C 238.677,215.171 246.677,215.671 254.5,216.5C 246.5,216.5 238.5,216.5 230.5,216.5C 228.582,214.237 226.582,211.904 224.5,209.5C 222.007,215.157 219.007,220.49 215.5,225.5C 211.558,226.6 207.558,226.767 203.5,226C 202.2,224.421 202.534,223.255 204.5,222.5C 204.5,223.5 204.5,224.5 204.5,225.5C 207.713,225.81 210.713,225.477 213.5,224.5C 220.892,212.058 228.059,199.391 235,186.5C 236.011,185.663 237.178,185.33 238.5,185.5C 238.461,188.089 239.461,190.089 241.5,191.5 Z M 236.5,187.5 C 239.608,193.342 242.941,199.175 246.5,205C 239.833,205.667 233.167,205.667 226.5,205C 229.972,199.221 233.305,193.387 236.5,187.5 Z"/></g>
<g><path style="opacity:1" fill="#fc8282" d="M 247.5,204.5 C 248.404,205.209 248.737,206.209 248.5,207.5C 241.167,207.5 233.833,207.5 226.5,207.5C 233.726,207.151 240.726,206.151 247.5,204.5 Z"/></g>
<g><path style="opacity:0.055" fill="#fdabab" d="M 258.5,203.5 C 260.938,205.999 262.605,208.999 263.5,212.5C 260.595,210.244 258.928,207.244 258.5,203.5 Z"/></g>
<g><path style="opacity:0.392" fill="#fdb1b1" d="M 274.5,200.5 C 275.735,206.439 279.069,210.939 284.5,214C 296.495,214.5 308.495,214.667 320.5,214.5C 320.768,216.099 320.434,217.432 319.5,218.5C 319.5,217.5 319.5,216.5 319.5,215.5C 307.833,215.5 296.167,215.5 284.5,215.5C 279.804,213.135 276.471,209.468 274.5,204.5C 274.5,203.167 274.5,201.833 274.5,200.5 Z"/></g>
<g><path style="opacity:0.392" fill="#fdb6b5" d="M 394.5,214.5 C 405.5,214.5 416.5,214.5 427.5,214.5C 427.768,216.099 427.434,217.432 426.5,218.5C 426.5,217.5 426.5,216.5 426.5,215.5C 415.654,215.828 404.987,215.494 394.5,214.5 Z"/></g>
<g><path style="opacity:1" fill="#fca4a3" d="M 265.5,207.5 C 268.411,212.96 272.077,217.96 276.5,222.5C 270.793,219.448 266.793,214.782 264.5,208.5C 264.624,207.893 264.957,207.56 265.5,207.5 Z"/></g>
<g><path style="opacity:1" fill="#fc8282" d="M 284.5,215.5 C 296.167,215.5 307.833,215.5 319.5,215.5C 319.5,216.5 319.5,217.5 319.5,218.5C 319.5,219.167 319.5,219.833 319.5,220.5C 318.833,220.5 318.167,220.5 317.5,220.5C 318.234,219.292 318.567,217.959 318.5,216.5C 306.988,216.828 295.654,216.495 284.5,215.5 Z"/></g>
<g><path style="opacity:1" fill="#fc8686" d="M 333.5,215.5 C 346.833,215.5 360.167,215.5 373.5,215.5C 374.833,216.5 374.833,217.5 373.5,218.5C 373.167,218.5 372.833,218.5 372.5,218.5C 360.211,216.52 347.544,215.853 334.5,216.5C 333.833,216.5 333.5,216.167 333.5,215.5 Z"/></g>
<g><path style="opacity:1" fill="#fc8787" d="M 384.5,210.5 C 384.833,210.5 385.167,210.5 385.5,210.5C 388.122,212.644 391.122,213.977 394.5,214.5C 404.987,215.494 415.654,215.828 426.5,215.5C 426.5,216.5 426.5,217.5 426.5,218.5C 426.167,218.5 425.833,218.5 425.5,218.5C 415.219,216.524 404.552,215.857 393.5,216.5C 389.63,215.737 386.63,213.737 384.5,210.5 Z"/></g>
<g><path style="opacity:0.629" fill="#fd9f9f" d="M 191.5,185.5 C 191.833,185.5 192.167,185.5 192.5,185.5C 194.427,188.137 194.927,191.137 194,194.5C 193.252,196.751 191.752,198.084 189.5,198.5C 180.808,198.169 172.141,198.502 163.5,199.5C 163.624,200.107 163.957,200.44 164.5,200.5C 172.167,208.833 180.167,216.833 188.5,224.5C 190.304,225.162 192.304,225.495 194.5,225.5C 196.952,225.461 198.952,224.794 200.5,223.5C 201.404,224.209 201.737,225.209 201.5,226.5C 196.821,226.666 192.155,226.499 187.5,226C 178.625,217.292 169.958,208.459 161.5,199.5C 161.709,198.914 162.043,198.414 162.5,198C 171.5,197.667 180.5,197.333 189.5,197C 191.679,196.558 192.345,195.558 191.5,194C 192.574,193.261 193.241,192.261 193.5,191C 192.68,189.2 192.014,187.366 191.5,185.5 Z"/></g>
<g><path style="opacity:1" fill="#fb2e2f" d="M 334.5,216.5 C 347.544,215.853 360.211,216.52 372.5,218.5C 372.5,219.167 372.167,219.5 371.5,219.5C 359.367,217.84 347.034,216.84 334.5,216.5 Z"/></g>
<g><path style="opacity:1" fill="#fb2e2e" d="M 393.5,216.5 C 404.552,215.857 415.219,216.524 425.5,218.5C 425.5,219.167 425.167,219.5 424.5,219.5C 414.374,217.842 404.04,216.842 393.5,216.5 Z"/></g>
<g><path style="opacity:0.714" fill="#fdaaaa" d="M 216.5,200.5 C 212.863,207.817 209.196,215.15 205.5,222.5C 205.167,222.5 204.833,222.5 204.5,222.5C 207.482,214.53 211.482,207.196 216.5,200.5 Z"/></g>
<g><path style="opacity:0.055" fill="#fdafaf" d="M 263.5,212.5 C 266.874,216.581 269.207,221.247 270.5,226.5C 265.703,226.879 261.036,226.379 256.5,225C 256.833,224.667 257.167,224.333 257.5,224C 256.128,222.758 255.128,221.258 254.5,219.5C 246.855,218.669 239.188,218.169 231.5,218C 230.944,217.617 230.611,217.117 230.5,216.5C 238.5,216.5 246.5,216.5 254.5,216.5C 256.266,219.188 257.933,222.021 259.5,225C 262.482,225.498 265.482,225.665 268.5,225.5C 267.092,221.026 265.425,216.693 263.5,212.5 Z"/></g>
<g><path style="opacity:1" fill="#fb5353" d="M 199.5,223.5 C 199.833,223.5 200.167,223.5 200.5,223.5C 198.952,224.794 196.952,225.461 194.5,225.5C 192.304,225.495 190.304,225.162 188.5,224.5C 192.371,224.815 196.038,224.482 199.5,223.5 Z"/></g>
<g><path style="opacity:1" fill="#fb4e4f" d="M 204.5,222.5 C 204.833,222.5 205.167,222.5 205.5,222.5C 207.635,224.369 210.302,225.036 213.5,224.5C 210.713,225.477 207.713,225.81 204.5,225.5C 204.5,224.5 204.5,223.5 204.5,222.5 Z"/></g>
<g><path style="opacity:0.8" fill="#fcacac" d="M 135.5,176.5 C 143.435,182.351 147.102,190.018 146.5,199.5C 145.815,212.061 139.815,220.894 128.5,226C 115.167,226.667 101.833,226.667 88.5,226C 81.1667,222.667 75.8333,217.333 72.5,210C 72.8333,209.667 73.1667,209.333 73.5,209C 71.8078,207.599 71.1412,205.766 71.5,203.5C 72.1667,204.167 72.8333,204.833 73.5,205.5C 74.5512,210.607 76.8846,214.941 80.5,218.5C 83.2558,221.389 86.5891,223.556 90.5,225C 102.833,225.667 115.167,225.667 127.5,225C 133.267,222.73 137.601,218.896 140.5,213.5C 142.83,211.458 143.996,208.792 144,205.5C 146.046,194.811 143.213,185.811 135.5,178.5C 135.5,177.833 135.5,177.167 135.5,176.5 Z"/></g>
<g><path style="opacity:0.392" fill="#fda4a2" d="M 82.5,203.5 C 87.8856,213.96 96.5522,217.626 108.5,214.5C 113.833,214.333 119.167,214.167 124.5,214C 126.5,213 128.5,212 130.5,211C 132.267,208.456 133.934,205.956 135.5,203.5C 135.371,205.216 135.038,206.883 134.5,208.5C 131.981,211.447 128.981,213.947 125.5,216C 114.5,216.667 103.5,216.667 92.5,216C 89.7982,214.988 87.4649,213.488 85.5,211.5C 84.242,209.313 83.242,206.98 82.5,204.5C 82.5,204.167 82.5,203.833 82.5,203.5 Z"/></g>
<g><path style="opacity:1" fill="#fa1915" d="M 140.5,213.5 C 137.601,218.896 133.267,222.73 127.5,225C 115.167,225.667 102.833,225.667 90.5,225C 86.5891,223.556 83.2558,221.389 80.5,218.5C 80.4521,215.708 81.7854,213.875 84.5,213C 83.1602,210.821 83.4935,210.321 85.5,211.5C 87.4649,213.488 89.7982,214.988 92.5,216C 103.5,216.667 114.5,216.667 125.5,216C 128.981,213.947 131.981,211.447 134.5,208.5C 135.117,208.611 135.617,208.944 136,209.5C 136.333,207.5 136.667,205.5 137,203.5C 137.245,205.663 138.245,207.33 140,208.5C 140.494,210.134 140.66,211.801 140.5,213.5 Z"/></g>
<g><path style="opacity:0.8" fill="#fcacab" d="M 317.5,220.5 C 318.167,220.5 318.833,220.5 319.5,220.5C 318.952,222.394 317.952,224.06 316.5,225.5C 304.848,226.666 293.181,226.833 281.5,226C 279.416,225.303 277.749,224.136 276.5,222.5C 278.713,222.848 280.713,223.681 282.5,225C 293.495,225.5 304.495,225.667 315.5,225.5C 315.392,223.486 316.058,221.82 317.5,220.5 Z"/></g>
<g><path style="opacity:0.8" fill="#fdadad" d="M 377.5,218.5 C 378.167,218.5 378.833,218.5 379.5,218.5C 381.629,220.95 384.296,222.617 387.5,223.5C 387.918,224.222 388.584,224.722 389.5,225C 400.341,225.825 411.008,225.659 421.5,224.5C 422.737,223.035 423.737,221.368 424.5,219.5C 425.167,219.5 425.5,219.167 425.5,218.5C 425.833,218.5 426.167,218.5 426.5,218.5C 425.788,220.928 424.788,223.261 423.5,225.5C 411.514,226.666 399.514,226.833 387.5,226C 383.561,224.209 380.228,221.709 377.5,218.5 Z"/></g>
<g><path style="opacity:1" fill="#fb5252" d="M 387.5,223.5 C 398.802,224.41 410.136,224.743 421.5,224.5C 411.008,225.659 400.341,225.825 389.5,225C 388.584,224.722 387.918,224.222 387.5,223.5 Z"/></g>
<g><path style="opacity:0.2" fill="#d0d0d0" d="M 425.5,250.5 C 308.332,250.167 191.332,250.5 74.5,251.5C 73.596,252.209 73.2627,253.209 73.5,254.5C 70.8669,253.189 70.8669,251.689 73.5,250C 191.001,249.167 308.334,249.334 425.5,250.5 Z"/></g>
<g><path style="opacity:1" fill="#6c6c6a" d="M 74.5,251.5 C 191.5,251.5 308.5,251.5 425.5,251.5C 425.5,252.5 425.5,253.5 425.5,254.5C 308.167,254.5 190.833,254.5 73.5,254.5C 73.2627,253.209 73.596,252.209 74.5,251.5 Z"/></g>
<g><path style="opacity:1" fill="#c0c0c0" d="M 74.5,251.5 C 191.332,250.5 308.332,250.167 425.5,250.5C 428.017,252.077 428.017,253.91 425.5,256C 366.833,256.167 308.167,256.333 249.5,256.5C 190.496,256.5 131.83,255.833 73.5,254.5C 190.833,254.5 308.167,254.5 425.5,254.5C 425.5,253.5 425.5,252.5 425.5,251.5C 308.5,251.5 191.5,251.5 74.5,251.5 Z"/></g>
<g><path style="opacity:1" fill="#b5b5b5" d="M 167.5,278.5 C 175.889,278.197 184.222,278.53 192.5,279.5C 193.652,282.106 193.818,284.773 193,287.5C 190.333,288.167 187.667,288.833 185,289.5C 184.5,299.161 184.334,308.828 184.5,318.5C 181.552,318.777 178.719,318.444 176,317.5C 175.667,308.167 175.333,298.833 175,289.5C 165.935,290.009 163.435,286.342 167.5,278.5 Z"/></g>
<g><path style="opacity:0.944" fill="#b0adad" d="M 233.5,292.5 C 230.976,288.937 229.309,284.937 228.5,280.5C 226.143,280.337 223.81,280.503 221.5,281C 219.716,284.876 218.049,288.709 216.5,292.5C 216.196,291.85 215.863,291.183 215.5,290.5C 217.029,287.246 218.362,283.913 219.5,280.5C 223.035,277.872 226.535,277.872 230,280.5C 232.002,284.627 233.169,288.627 233.5,292.5 Z"/></g>
<g><path style="opacity:1" fill="#bfbfbf" d="M 412.5,288.5 C 416.833,287.833 421.167,287.167 425.5,286.5C 425.5,284.5 425.5,282.5 425.5,280.5C 418.646,280.176 411.979,280.509 405.5,281.5C 404.505,292.988 404.172,304.655 404.5,316.5C 403.34,304.674 403.174,292.674 404,280.5C 404.5,280 405,279.5 405.5,279C 412.167,278.333 418.833,278.333 425.5,279C 427.444,281.153 427.944,283.653 427,286.5C 422.482,288.407 417.648,289.074 412.5,288.5 Z"/></g>
<g><path style="opacity:1" fill="#111111" d="M 380.5,284.5 C 380.5,285.167 380.5,285.833 380.5,286.5C 380.5,287.833 380.5,289.167 380.5,290.5C 378.833,290.5 377.167,290.5 375.5,290.5C 372.927,284.822 369.427,284.155 365,288.5C 364.08,291.308 364.913,293.475 367.5,295C 370.827,295.61 374.161,296.11 377.5,296.5C 384.012,302.529 384.012,308.695 377.5,315C 372.254,316.506 366.921,316.839 361.5,316C 358.13,313.303 356.796,309.803 357.5,305.5C 359.5,305.5 361.5,305.5 363.5,305.5C 363.263,306.791 363.596,307.791 364.5,308.5C 367.208,312.118 370.375,312.452 374,309.5C 374.667,307.833 374.667,306.167 374,304.5C 371.242,302.357 368.076,301.19 364.5,301C 356.045,295.48 355.378,289.146 362.5,282C 369.08,279.451 375.08,280.284 380.5,284.5 Z"/></g>
<g><path style="opacity:1" fill="#0f0f0f" d="M 327.5,284.5 C 328.947,293.645 331.614,302.312 335.5,310.5C 335.5,311.5 335.5,312.5 335.5,313.5C 334.082,315.308 332.082,315.975 329.5,315.5C 329.405,313.214 328.738,311.214 327.5,309.5C 325.527,308.837 323.361,308.504 321,308.5C 318.39,308.533 316.223,309.2 314.5,310.5C 314.204,312.403 313.537,314.07 312.5,315.5C 310.833,315.5 309.167,315.5 307.5,315.5C 307.5,314.5 307.5,313.5 307.5,312.5C 310.502,302.138 313.835,291.805 317.5,281.5C 320.106,280.348 322.773,280.182 325.5,281C 326.085,282.302 326.751,283.469 327.5,284.5 Z M 320.5,294.5 C 322.141,296.203 323.141,298.37 323.5,301C 321.833,301.667 320.167,301.667 318.5,301C 319.397,298.913 320.064,296.746 320.5,294.5 Z"/></g>
<g><path style="opacity:0.973" fill="#b1b0b0" d="M 380.5,284.5 C 375.08,280.284 369.08,279.451 362.5,282C 355.378,289.146 356.045,295.48 364.5,301C 368.076,301.19 371.242,302.357 374,304.5C 374.667,306.167 374.667,307.833 374,309.5C 370.375,312.452 367.208,312.118 364.5,308.5C 364.5,307.833 364.5,307.167 364.5,306.5C 367.413,310.474 370.413,310.474 373.5,306.5C 369.944,303.891 365.944,302.058 361.5,301C 356.255,296.527 355.089,291.027 358,284.5C 362.618,278.947 368.451,277.114 375.5,279C 378.079,280.076 379.746,281.909 380.5,284.5 Z"/></g>
<g><path style="opacity:1" fill="#0b0b0b" d="M 425.5,286.5 C 420.833,286.5 416.167,286.5 411.5,286.5C 411.194,289.385 411.527,292.052 412.5,294.5C 416.298,295.483 420.298,295.817 424.5,295.5C 424.5,297.167 424.5,298.833 424.5,300.5C 420.167,300.5 415.833,300.5 411.5,300.5C 411.187,304.042 411.521,307.375 412.5,310.5C 416.634,311.485 420.968,311.818 425.5,311.5C 425.5,312.833 425.5,314.167 425.5,315.5C 418.833,315.5 412.167,315.5 405.5,315.5C 405.5,304.167 405.5,292.833 405.5,281.5C 411.979,280.509 418.646,280.176 425.5,280.5C 425.5,282.5 425.5,284.5 425.5,286.5 Z"/></g>
<g><path style="opacity:0.282" fill="#b0b0af" d="M 89.5,280.5 C 84.1667,280.5 78.8333,280.5 73.5,280.5C 73.5,292.5 73.5,304.5 73.5,316.5C 78.6946,316.821 83.6946,316.487 88.5,315.5C 94.4415,314.388 97.9415,310.722 99,304.5C 99.7718,299.096 99.4385,293.762 98,288.5C 97.0041,286.34 95.5041,284.673 93.5,283.5C 92.6935,282.272 91.6935,281.272 90.5,280.5C 95.0556,281.885 98.2223,284.885 100,289.5C 103.77,300.506 101.27,309.673 92.5,317C 85.8926,318.79 79.2259,318.957 72.5,317.5C 71.1667,304.833 71.1667,292.167 72.5,279.5C 78.3873,278.021 84.0539,278.354 89.5,280.5 Z M 90.5,306.5 C 88.1175,308.046 85.4509,308.713 82.5,308.5C 82.5,301.833 82.5,295.167 82.5,288.5C 84.861,288.674 87.1944,289.007 89.5,289.5C 89.8503,292.722 90.5169,295.888 91.5,299C 91.2275,301.151 90.5608,303.151 89.5,305C 90.056,305.383 90.3893,305.883 90.5,306.5 Z"/></g>
<g><path style="opacity:1" fill="#0e0e0e" d="M 93.5,283.5 C 95.5041,284.673 97.0041,286.34 98,288.5C 99.4385,293.762 99.7718,299.096 99,304.5C 97.9415,310.722 94.4415,314.388 88.5,315.5C 83.8333,315.5 79.1667,315.5 74.5,315.5C 74.5,304.167 74.5,292.833 74.5,281.5C 81.0148,281.021 87.3482,281.688 93.5,283.5 Z M 90.5,306.5 C 90.3893,305.883 90.056,305.383 89.5,305C 90.5608,303.151 91.2275,301.151 91.5,299C 90.5169,295.888 89.8503,292.722 89.5,289.5C 87.1944,289.007 84.861,288.674 82.5,288.5C 82.5,295.167 82.5,301.833 82.5,308.5C 85.4509,308.713 88.1175,308.046 90.5,306.5 Z"/></g>
<g><path style="opacity:1" fill="#0e0e0e" d="M 147.5,302.5 C 147.911,306.221 148.578,309.888 149.5,313.5C 148.448,315.256 146.781,315.923 144.5,315.5C 144.154,309.825 141.154,307.492 135.5,308.5C 133.5,308.667 131.5,308.833 129.5,309C 128.446,311.382 127.779,313.882 127.5,316.5C 125.5,316.5 123.5,316.5 121.5,316.5C 122.53,310.315 124.197,304.315 126.5,298.5C 127.537,297.07 128.204,295.403 128.5,293.5C 129.35,289.447 130.516,285.447 132,281.5C 134.401,280.398 136.901,280.231 139.5,281C 141.699,288.442 144.366,295.609 147.5,302.5 Z M 133.5,300.5 C 133.5,299.833 133.5,299.167 133.5,298.5C 134.966,297.653 135.8,296.32 136,294.5C 136.642,296.762 137.475,298.929 138.5,301C 136.613,301.78 134.946,301.613 133.5,300.5 Z"/></g>
<g><path style="opacity:1" fill="#0d0d0d" d="M 183.5,287.5 C 182.506,296.652 182.173,305.985 182.5,315.5C 180.833,315.5 179.167,315.5 177.5,315.5C 177.827,305.652 177.494,295.986 176.5,286.5C 173.5,286.5 170.5,286.5 167.5,286.5C 167.5,284.5 167.5,282.5 167.5,280.5C 175.507,280.334 183.507,280.5 191.5,281C 192.406,282.699 192.739,284.533 192.5,286.5C 189.287,286.19 186.287,286.523 183.5,287.5 Z"/></g>
<g><path style="opacity:1" fill="#101010" d="M 233.5,292.5 C 233.5,292.833 233.5,293.167 233.5,293.5C 234.88,299.921 236.546,306.254 238.5,312.5C 238.5,313.5 238.5,314.5 238.5,315.5C 236.833,315.5 235.167,315.5 233.5,315.5C 232.422,313.461 231.422,311.294 230.5,309C 226.5,308.333 222.5,308.333 218.5,309C 216.887,311.228 216.22,313.728 216.5,316.5C 214.5,316.5 212.5,316.5 210.5,316.5C 212.188,308.413 214.188,300.413 216.5,292.5C 218.049,288.709 219.716,284.876 221.5,281C 223.81,280.503 226.143,280.337 228.5,280.5C 229.309,284.937 230.976,288.937 233.5,292.5 Z M 226.5,298.5 C 226.5,298.833 226.5,299.167 226.5,299.5C 225.817,301.176 224.483,301.843 222.5,301.5C 222.687,299.436 223.187,297.436 224,295.5C 224.852,296.571 225.685,297.571 226.5,298.5 Z"/></g>
<g><path style="opacity:1" fill="#3c3c3c" d="M 89.5,280.5 C 89.8333,280.5 90.1667,280.5 90.5,280.5C 91.6935,281.272 92.6935,282.272 93.5,283.5C 87.3482,281.688 81.0148,281.021 74.5,281.5C 74.5,292.833 74.5,304.167 74.5,315.5C 79.1667,315.5 83.8333,315.5 88.5,315.5C 83.6946,316.487 78.6946,316.821 73.5,316.5C 73.5,304.5 73.5,292.5 73.5,280.5C 78.8333,280.5 84.1667,280.5 89.5,280.5 Z"/></g>
<g><path style="opacity:1" fill="#7f7f7f" d="M 167.5,286.5 C 170.5,286.5 173.5,286.5 176.5,286.5C 176.5,287.167 176.5,287.833 176.5,288.5C 173.39,287.912 170.39,287.245 167.5,286.5 Z"/></g>
<g><path style="opacity:1" fill="#808080" d="M 425.5,286.5 C 421.167,287.167 416.833,287.833 412.5,288.5C 412.5,288.833 412.5,289.167 412.5,289.5C 412.5,291.167 412.5,292.833 412.5,294.5C 411.527,292.052 411.194,289.385 411.5,286.5C 416.167,286.5 420.833,286.5 425.5,286.5 Z"/></g>
<g><path style="opacity:1" fill="#bebdbd" d="M 90.5,306.5 C 88.2176,310.091 84.8843,311.424 80.5,310.5C 80.5,302.5 80.5,294.5 80.5,286.5C 88.7721,285.622 92.7721,289.288 92.5,297.5C 92.6575,300.814 91.9908,303.814 90.5,306.5 Z M 90.5,306.5 C 90.3893,305.883 90.056,305.383 89.5,305C 90.5608,303.151 91.2275,301.151 91.5,299C 90.5169,295.888 89.8503,292.722 89.5,289.5C 87.1944,289.007 84.861,288.674 82.5,288.5C 82.5,295.167 82.5,301.833 82.5,308.5C 85.4509,308.713 88.1175,308.046 90.5,306.5 Z"/></g>
<g><path style="opacity:1" fill="#494949" d="M 176.5,286.5 C 177.494,295.986 177.827,305.652 177.5,315.5C 179.167,315.5 180.833,315.5 182.5,315.5C 182.173,305.985 182.506,296.652 183.5,287.5C 183.5,297.167 183.5,306.833 183.5,316.5C 181.167,316.5 178.833,316.5 176.5,316.5C 176.5,307.167 176.5,297.833 176.5,288.5C 176.5,287.833 176.5,287.167 176.5,286.5 Z"/></g>
<g><path style="opacity:0.282" fill="#afaeae" d="M 380.5,284.5 C 381.117,284.611 381.617,284.944 382,285.5C 382.497,287.81 382.663,290.143 382.5,292.5C 379.813,292.664 377.146,292.497 374.5,292C 372.963,290.89 372.297,289.39 372.5,287.5C 370.801,287.34 369.134,287.506 367.5,288C 366.483,289.049 366.316,290.216 367,291.5C 370.751,292.799 374.251,294.465 377.5,296.5C 374.161,296.11 370.827,295.61 367.5,295C 364.913,293.475 364.08,291.308 365,288.5C 369.427,284.155 372.927,284.822 375.5,290.5C 377.265,291.461 379.265,291.795 381.5,291.5C 381.784,289.585 381.451,287.919 380.5,286.5C 380.5,285.833 380.5,285.167 380.5,284.5 Z"/></g>
<g><path style="opacity:1" fill="#6c6c6c" d="M 380.5,286.5 C 381.451,287.919 381.784,289.585 381.5,291.5C 379.265,291.795 377.265,291.461 375.5,290.5C 377.167,290.5 378.833,290.5 380.5,290.5C 380.5,289.167 380.5,287.833 380.5,286.5 Z"/></g>
<g><path style="opacity:1" fill="#50504f" d="M 226.5,293.5 C 226.167,293.5 225.833,293.5 225.5,293.5C 225.649,292.448 225.483,291.448 225,290.5C 224.292,291.381 223.458,292.047 222.5,292.5C 222.694,290.088 224.027,289.088 226.5,289.5C 226.5,290.833 226.5,292.167 226.5,293.5 Z"/></g>
<g><path style="opacity:0.996" fill="#656565" d="M 128.5,293.5 C 128.204,295.403 127.537,297.07 126.5,298.5C 126.5,297.5 126.5,296.5 126.5,295.5C 126.5,295.167 126.5,294.833 126.5,294.5C 127.167,294.167 127.833,293.833 128.5,293.5 Z"/></g>
<g><path style="opacity:0.476" fill="#b6b5b5" d="M 225.5,293.5 C 225.833,293.5 226.167,293.5 226.5,293.5C 226.5,294.167 226.5,294.833 226.5,295.5C 226.5,296.5 226.5,297.5 226.5,298.5C 225.685,297.571 224.852,296.571 224,295.5C 223.187,297.436 222.687,299.436 222.5,301.5C 224.483,301.843 225.817,301.176 226.5,299.5C 227.404,300.209 227.737,301.209 227.5,302.5C 225.5,302.5 223.5,302.5 221.5,302.5C 221.5,301.5 221.5,300.5 221.5,299.5C 221.674,297.139 222.007,294.806 222.5,292.5C 223.458,292.047 224.292,291.381 225,290.5C 225.483,291.448 225.649,292.448 225.5,293.5 Z"/></g>
<g><path style="opacity:0.447" fill="#b6b2b2" d="M 147.5,302.5 C 144.366,295.609 141.699,288.442 139.5,281C 136.901,280.231 134.401,280.398 132,281.5C 130.516,285.447 129.35,289.447 128.5,293.5C 127.833,293.833 127.167,294.167 126.5,294.5C 127.391,289.283 129.057,284.283 131.5,279.5C 134.103,278.438 136.77,278.272 139.5,279C 141.809,281.43 143.475,284.263 144.5,287.5C 144.291,288.086 143.957,288.586 143.5,289C 145.02,293.101 146.686,297.101 148.5,301C 147.944,301.383 147.611,301.883 147.5,302.5 Z"/></g>
<g><path style="opacity:1" fill="#535353" d="M 137.5,291.5 C 136.883,291.389 136.383,291.056 136,290.5C 135.066,291.858 134.232,293.192 133.5,294.5C 133.01,292.052 133.843,290.385 136,289.5C 137.03,289.836 137.53,290.503 137.5,291.5 Z"/></g>
<g><path style="opacity:0.484" fill="#a7a5a5" d="M 320.5,289.5 C 321.497,289.47 322.164,289.97 322.5,291C 324.323,294.981 325.323,299.148 325.5,303.5C 322.833,303.5 320.167,303.5 317.5,303.5C 317.558,298.606 318.558,293.939 320.5,289.5 Z M 320.5,294.5 C 320.064,296.746 319.397,298.913 318.5,301C 320.167,301.667 321.833,301.667 323.5,301C 323.141,298.37 322.141,296.203 320.5,294.5 Z"/></g>
<g><path style="opacity:0.922" fill="#b7b2b1" d="M 327.5,284.5 C 329.596,288.033 331.262,291.867 332.5,296C 332.167,296.333 331.833,296.667 331.5,297C 332.983,301.126 334.65,305.126 336.5,309C 335.944,309.383 335.611,309.883 335.5,310.5C 331.614,302.312 328.947,293.645 327.5,284.5 Z"/></g>
<g><path style="opacity:0.251" fill="#b7b4b4" d="M 327.5,284.5 C 326.751,283.469 326.085,282.302 325.5,281C 322.773,280.182 320.106,280.348 317.5,281.5C 313.835,291.805 310.502,302.138 307.5,312.5C 307.167,312.5 306.833,312.5 306.5,312.5C 305.957,312.44 305.624,312.107 305.5,311.5C 308.992,301.53 312.492,291.197 316,280.5C 318.841,278.496 322.007,277.996 325.5,279C 327.192,280.401 327.859,282.234 327.5,284.5 Z"/></g>
<g><path style="opacity:1" fill="#787878" d="M 133.5,295.5 C 133.5,296.5 133.5,297.5 133.5,298.5C 133.5,299.167 133.5,299.833 133.5,300.5C 132.957,300.56 132.624,300.893 132.5,301.5C 134.743,302.474 137.076,302.808 139.5,302.5C 137.052,303.473 134.385,303.806 131.5,303.5C 131.294,300.505 131.96,297.838 133.5,295.5 Z"/></g>
<g><path style="opacity:0.204" fill="#b4b3b3" d="M 137.5,291.5 C 138.326,295.136 138.992,298.803 139.5,302.5C 137.076,302.808 134.743,302.474 132.5,301.5C 132.624,300.893 132.957,300.56 133.5,300.5C 134.946,301.613 136.613,301.78 138.5,301C 137.475,298.929 136.642,296.762 136,294.5C 135.8,296.32 134.966,297.653 133.5,298.5C 133.5,297.5 133.5,296.5 133.5,295.5C 133.5,295.167 133.5,294.833 133.5,294.5C 134.232,293.192 135.066,291.858 136,290.5C 136.383,291.056 136.883,291.389 137.5,291.5 Z"/></g>
<g><path style="opacity:0.998" fill="#7f7f7e" d="M 424.5,300.5 C 420.702,301.483 416.702,301.817 412.5,301.5C 412.5,304.5 412.5,307.5 412.5,310.5C 411.521,307.375 411.187,304.042 411.5,300.5C 415.833,300.5 420.167,300.5 424.5,300.5 Z"/></g>
<g><path style="opacity:1" fill="#717170" d="M 327.5,309.5 C 323.298,309.183 319.298,309.517 315.5,310.5C 315.167,310.5 314.833,310.5 314.5,310.5C 316.223,309.2 318.39,308.533 321,308.5C 323.361,308.504 325.527,308.837 327.5,309.5 Z"/></g>
<g><path style="opacity:0.878" fill="#b3b1b1" d="M 216.5,292.5 C 214.188,300.413 212.188,308.413 210.5,316.5C 212.5,316.5 214.5,316.5 216.5,316.5C 216.22,313.728 216.887,311.228 218.5,309C 222.5,308.333 226.5,308.333 230.5,309C 231.422,311.294 232.422,313.461 233.5,315.5C 235.265,316.461 237.265,316.795 239.5,316.5C 239.768,314.901 239.434,313.568 238.5,312.5C 236.546,306.254 234.88,299.921 233.5,293.5C 236.531,300.542 239.198,307.876 241.5,315.5C 241.167,316.167 240.833,316.833 240.5,317.5C 233.779,320.381 230.112,318.214 229.5,311C 222.521,308.886 218.188,311.219 216.5,318C 213.854,318.497 211.187,318.664 208.5,318.5C 208.512,313.297 209.846,308.464 212.5,304C 212.167,303.667 211.833,303.333 211.5,303C 212.535,299.1 214.202,295.6 216.5,292.5 Z M 226.5,298.5 C 226.5,298.833 226.5,299.167 226.5,299.5C 225.817,301.176 224.483,301.843 222.5,301.5C 222.687,299.436 223.187,297.436 224,295.5C 224.852,296.571 225.685,297.571 226.5,298.5 Z"/></g>
<g><path style="opacity:1" fill="#848484" d="M 226.5,295.5 C 228.04,297.838 228.706,300.505 228.5,303.5C 225.833,303.5 223.167,303.5 220.5,303.5C 220.232,301.901 220.566,300.568 221.5,299.5C 221.5,300.5 221.5,301.5 221.5,302.5C 223.5,302.5 225.5,302.5 227.5,302.5C 227.737,301.209 227.404,300.209 226.5,299.5C 226.5,299.167 226.5,298.833 226.5,298.5C 226.5,297.5 226.5,296.5 226.5,295.5 Z"/></g>
<g><path style="opacity:1" fill="#5e5e5e" d="M 238.5,312.5 C 239.434,313.568 239.768,314.901 239.5,316.5C 237.265,316.795 235.265,316.461 233.5,315.5C 235.167,315.5 236.833,315.5 238.5,315.5C 238.5,314.5 238.5,313.5 238.5,312.5 Z"/></g>
<g><path style="opacity:1" fill="#545454" d="M 306.5,312.5 C 306.833,312.5 307.167,312.5 307.5,312.5C 307.5,313.5 307.5,314.5 307.5,315.5C 309.167,315.5 310.833,315.5 312.5,315.5C 310.735,316.461 308.735,316.795 306.5,316.5C 306.5,315.5 306.5,314.5 306.5,313.5C 306.5,313.167 306.5,312.833 306.5,312.5 Z"/></g>
<g><path style="opacity:0.682" fill="#b5b5b5" d="M 315.5,310.5 C 319.298,309.517 323.298,309.183 327.5,309.5C 328.738,311.214 329.405,313.214 329.5,315.5C 331.607,316.468 333.941,316.802 336.5,316.5C 336.737,315.209 336.404,314.209 335.5,313.5C 335.5,312.5 335.5,311.5 335.5,310.5C 337.326,312.455 337.826,314.788 337,317.5C 330.1,319.975 326.6,317.809 326.5,311C 322.848,310.501 319.182,310.335 315.5,310.5 Z"/></g>
<g><path style="opacity:1" fill="#545454" d="M 335.5,313.5 C 336.404,314.209 336.737,315.209 336.5,316.5C 333.941,316.802 331.607,316.468 329.5,315.5C 332.082,315.975 334.082,315.308 335.5,313.5 Z"/></g>
<g><path style="opacity:1" fill="#4d4d4d" d="M 405.5,281.5 C 405.5,292.833 405.5,304.167 405.5,315.5C 412.167,315.5 418.833,315.5 425.5,315.5C 425.5,314.167 425.5,312.833 425.5,311.5C 420.968,311.818 416.634,311.485 412.5,310.5C 417.167,310.5 421.833,310.5 426.5,310.5C 426.5,312.5 426.5,314.5 426.5,316.5C 419.167,316.5 411.833,316.5 404.5,316.5C 404.172,304.655 404.505,292.988 405.5,281.5 Z"/></g>
<g><path style="opacity:0.473" fill="#b1b0b0" d="M 126.5,295.5 C 126.5,296.5 126.5,297.5 126.5,298.5C 124.197,304.315 122.53,310.315 121.5,316.5C 123.5,316.5 125.5,316.5 127.5,316.5C 127.779,313.882 128.446,311.382 129.5,309C 131.5,308.833 133.5,308.667 135.5,308.5C 141.154,307.492 144.154,309.825 144.5,315.5C 146.265,316.461 148.265,316.795 150.5,316.5C 150.737,315.209 150.404,314.209 149.5,313.5C 148.578,309.888 147.911,306.221 147.5,302.5C 149.072,306.026 150.572,309.693 152,313.5C 152.781,314.944 152.614,316.277 151.5,317.5C 148.897,318.562 146.23,318.728 143.5,318C 142.745,315.825 141.912,313.659 141,311.5C 137.927,310.383 134.76,310.216 131.5,311C 130.167,313.333 128.833,315.667 127.5,318C 125.167,318.667 122.833,318.667 120.5,318C 119.424,316.274 119.257,314.441 120,312.5C 121.488,306.518 123.654,300.851 126.5,295.5 Z"/></g>
<g><path style="opacity:1" fill="#484848" d="M 149.5,313.5 C 150.404,314.209 150.737,315.209 150.5,316.5C 148.265,316.795 146.265,316.461 144.5,315.5C 146.781,315.923 148.448,315.256 149.5,313.5 Z"/></g>
<g><path style="opacity:0.949" fill="#b1b0b0" d="M 261.5,278.5 C 268.361,277.965 275.028,278.798 281.5,281C 287.271,285.895 287.938,291.395 283.5,297.5C 285.226,299.228 286.559,301.228 287.5,303.5C 287.5,305.833 287.5,308.167 287.5,310.5C 285.338,313.494 282.672,315.994 279.5,318C 273.251,318.809 267.084,318.642 261,317.5C 260.187,304.425 260.354,291.425 261.5,278.5 Z M 270.5,302.5 C 273.881,301.888 276.214,303.054 277.5,306C 277.355,306.772 277.022,307.439 276.5,308C 274.527,308.495 272.527,308.662 270.5,308.5C 270.5,306.5 270.5,304.5 270.5,302.5 Z M 269.5,289.5 C 271.288,288.378 273.288,288.211 275.5,289C 276.337,290.011 276.67,291.178 276.5,292.5C 274.5,292.5 272.5,292.5 270.5,292.5C 270.737,291.209 270.404,290.209 269.5,289.5 Z"/></g>
<g><path style="opacity:1" fill="#373737" d="M 275.5,281.5 C 271.167,281.5 266.833,281.5 262.5,281.5C 262.5,292.833 262.5,304.167 262.5,315.5C 267.833,315.5 273.167,315.5 278.5,315.5C 273.025,316.489 267.358,316.822 261.5,316.5C 261.5,304.5 261.5,292.5 261.5,280.5C 266.363,280.181 271.03,280.514 275.5,281.5 Z"/></g>
<g><path style="opacity:1" fill="#0d0d0d" d="M 275.5,281.5 C 280.787,281.637 283.787,284.304 284.5,289.5C 284.101,292.797 282.768,295.63 280.5,298C 285.886,302.056 286.886,307.056 283.5,313C 281.922,314.094 280.255,314.928 278.5,315.5C 273.167,315.5 267.833,315.5 262.5,315.5C 262.5,304.167 262.5,292.833 262.5,281.5C 266.833,281.5 271.167,281.5 275.5,281.5 Z M 270.5,302.5 C 270.5,304.5 270.5,306.5 270.5,308.5C 272.527,308.662 274.527,308.495 276.5,308C 277.022,307.439 277.355,306.772 277.5,306C 276.214,303.054 273.881,301.888 270.5,302.5 Z M 269.5,289.5 C 270.404,290.209 270.737,291.209 270.5,292.5C 272.5,292.5 274.5,292.5 276.5,292.5C 276.67,291.178 276.337,290.011 275.5,289C 273.288,288.211 271.288,288.378 269.5,289.5 Z"/></g>
<g><path style="opacity:0.112" fill="#bababa" d="M 268.5,301.5 C 271.518,301.335 274.518,301.502 277.5,302C 279.466,309.532 276.466,312.365 268.5,310.5C 268.5,307.5 268.5,304.5 268.5,301.5 Z M 270.5,302.5 C 270.5,304.5 270.5,306.5 270.5,308.5C 272.527,308.662 274.527,308.495 276.5,308C 277.022,307.439 277.355,306.772 277.5,306C 276.214,303.054 273.881,301.888 270.5,302.5 Z"/></g>
<g><path style="opacity:0.055" fill="#b0b0b0" d="M 268.5,286.5 C 275.697,285.029 278.364,287.695 276.5,294.5C 273.914,295.48 271.247,295.813 268.5,295.5C 268.5,292.5 268.5,289.5 268.5,286.5 Z M 269.5,289.5 C 270.404,290.209 270.737,291.209 270.5,292.5C 272.5,292.5 274.5,292.5 276.5,292.5C 276.67,291.178 276.337,290.011 275.5,289C 273.288,288.211 271.288,288.378 269.5,289.5 Z"/></g>
<g><path style="opacity:0.122" fill="#bcbcbc" d="M 314.5,310.5 C 314.833,310.5 315.167,310.5 315.5,310.5C 315.757,317.393 312.424,320.06 305.5,318.5C 305.216,316.585 305.549,314.919 306.5,313.5C 306.5,314.5 306.5,315.5 306.5,316.5C 308.735,316.795 310.735,316.461 312.5,315.5C 313.537,314.07 314.204,312.403 314.5,310.5 Z"/></g>
<g><path style="opacity:0.122" fill="#afacac" d="M 377.5,296.5 C 381.88,297.885 383.88,300.885 383.5,305.5C 383.626,311.085 381.292,315.252 376.5,318C 365.425,321.678 358.092,318.178 354.5,307.5C 354.68,306.446 355.013,305.446 355.5,304.5C 358.309,303.2 360.976,303.2 363.5,304.5C 361.265,304.205 359.265,304.539 357.5,305.5C 356.796,309.803 358.13,313.303 361.5,316C 366.921,316.839 372.254,316.506 377.5,315C 384.012,308.695 384.012,302.529 377.5,296.5 Z"/></g>
<g><path style="opacity:1" fill="#7c7c7c" d="M 357.5,305.5 C 359.265,304.539 361.265,304.205 363.5,304.5C 364.338,304.842 364.672,305.508 364.5,306.5C 364.5,307.167 364.5,307.833 364.5,308.5C 363.596,307.791 363.263,306.791 363.5,305.5C 361.5,305.5 359.5,305.5 357.5,305.5 Z"/></g>
<g><path style="opacity:0.122" fill="#b5b5b5" d="M 412.5,289.5 C 413.29,290.609 413.79,291.942 414,293.5C 417.468,292.197 420.968,292.197 424.5,293.5C 426.633,296.128 426.966,298.961 425.5,302C 421.514,302.499 417.514,302.666 413.5,302.5C 413.5,304.5 413.5,306.5 413.5,308.5C 418.214,308.173 422.88,308.507 427.5,309.5C 428.577,312.474 428.577,315.474 427.5,318.5C 419.427,319.132 411.76,318.465 404.5,316.5C 411.833,316.5 419.167,316.5 426.5,316.5C 426.5,314.5 426.5,312.5 426.5,310.5C 421.833,310.5 417.167,310.5 412.5,310.5C 412.5,307.5 412.5,304.5 412.5,301.5C 416.702,301.817 420.702,301.483 424.5,300.5C 424.5,298.833 424.5,297.167 424.5,295.5C 420.298,295.817 416.298,295.483 412.5,294.5C 412.5,292.833 412.5,291.167 412.5,289.5 Z"/></g>
</svg>
