<?xml version="1.0" encoding="UTF-8"?>
<!DOCTYPE svg PUBLIC "-//W3C//DTD SVG 1.1//EN" "http://www.w3.org/Graphics/SVG/1.1/DTD/svg11.dtd">
<svg xmlns="http://www.w3.org/2000/svg" version="1.1" width="600px" height="520px" style="shape-rendering:geometricPrecision; text-rendering:geometricPrecision; image-rendering:optimizeQuality; fill-rule:evenodd; clip-rule:evenodd" xmlns:xlink="http://www.w3.org/1999/xlink">
<g><path style="opacity:0.975" fill="#6db33f" d="M 208.5,238.5 C 218.52,241.291 223.353,237.625 223,227.5C 221.2,223.765 218.2,222.098 214,222.5C 209.224,222.13 206.057,224.13 204.5,228.5C 203.377,230.688 203.377,233.021 204.5,235.5C 174.518,210.008 163.352,177.675 171,138.5C 180.808,105.025 201.641,81.1921 233.5,67C 280.605,49.4284 323.605,56.2617 362.5,87.5C 367.418,82.74 370.918,77.0734 373,70.5C 373.718,69.5494 374.551,69.3828 375.5,70C 379.858,81.4069 384.025,92.9069 388,104.5C 394.558,126.738 396.891,149.404 395,172.5C 392.472,193.31 384.139,211.31 370,226.5C 336.752,259.026 297.252,270.193 251.5,260C 235.41,255.955 221.077,248.789 208.5,238.5 Z"/></g>
<g><path style="opacity:1" fill="#fdfefd" d="M 381.5,103.5 C 381.41,106.152 382.076,108.485 383.5,110.5C 391.045,134.074 392.212,158.074 387,182.5C 376.798,210.676 356.631,226.176 326.5,229C 315.012,229.777 303.512,230.277 292,230.5C 274.138,229.571 256.305,229.405 238.5,230C 254.717,224.594 271.051,219.594 287.5,215C 322.764,200.971 347.764,176.471 362.5,141.5C 337.906,178.698 302.906,201.531 257.5,210C 246.414,212.584 235.247,214.751 224,216.5C 214.424,213.591 208.091,207.258 205,197.5C 199.517,172.956 207.35,153.79 228.5,140C 236.989,135.254 245.989,131.921 255.5,130C 273.549,128.819 291.549,127.152 309.5,125C 336.599,118.644 357.933,104.144 373.5,81.5C 377.151,88.4519 379.818,95.7853 381.5,103.5 Z"/></g>
<g><path style="opacity:1" fill="#cae3b8" d="M 381.5,103.5 C 382.924,105.515 383.59,107.848 383.5,110.5C 382.076,108.485 381.41,106.152 381.5,103.5 Z"/></g>
<g><path style="opacity:1" fill="#fcfdfb" d="M 208.5,238.5 C 207.833,238.167 207.167,237.833 206.5,237.5C 205.833,234.5 205.167,231.5 204.5,228.5C 206.057,224.13 209.224,222.13 214,222.5C 218.2,222.098 221.2,223.765 223,227.5C 223.353,237.625 218.52,241.291 208.5,238.5 Z"/></g>
<g><path style="opacity:1" fill="#bedca8" d="M 204.5,228.5 C 205.167,231.5 205.833,234.5 206.5,237.5C 205.5,237.167 204.833,236.5 204.5,235.5C 203.377,233.021 203.377,230.688 204.5,228.5 Z"/></g>
<g><path style="opacity:0.925" fill="#6cb33e" d="M 322.5,303.5 C 333.702,301.813 339.202,306.48 339,317.5C 335.218,326.874 328.718,329.374 319.5,325C 315.695,320.909 314.528,316.076 316,310.5C 317.694,307.642 319.861,305.309 322.5,303.5 Z"/></g>
<g><path style="opacity:0.957" fill="#6cb33e" d="M 187.5,341.5 C 215.836,341.24 233.003,354.907 239,382.5C 242.076,400.13 238.409,416.13 228,430.5C 209.696,448.302 189.529,450.802 167.5,438C 165,435.5 162.5,433 160,430.5C 159.667,443.167 159.333,455.833 159,468.5C 152.772,476.877 145.772,477.543 138,470.5C 137.027,468.608 136.36,466.608 136,464.5C 135.024,425.787 135.358,387.12 137,348.5C 138.167,346 140,344.167 142.5,343C 154.556,341.053 160.39,346.22 160,358.5C 167.037,349.279 176.204,343.612 187.5,341.5 Z M 182.5,362.5 C 199.738,361.913 210.572,369.913 215,386.5C 217.328,399.034 214.162,409.867 205.5,419C 190.427,428.917 176.927,427.084 165,413.5C 155.627,396.005 158.127,380.505 172.5,367C 175.893,365.38 179.226,363.88 182.5,362.5 Z"/></g>
<g><path style="opacity:0.958" fill="#6cb33e" d="M 487.5,341.5 C 504.016,339.717 517.182,345.384 527,358.5C 526.9,345.588 533.066,340.421 545.5,343C 548.135,344.961 549.969,347.461 551,350.5C 551.667,377.5 551.667,404.5 551,431.5C 549.746,452.748 538.913,466.248 518.5,472C 497.011,476.882 476.344,474.549 456.5,465C 449.592,458.555 449.926,452.555 457.5,447C 459,446.833 460.5,446.667 462,446.5C 469.652,449.4 477.485,451.9 485.5,454C 492.5,454.667 499.5,454.667 506.5,454C 518.489,451.026 524.989,443.526 526,431.5C 512.438,445.74 496.271,449.573 477.5,443C 457.015,432.984 447.015,416.484 447.5,393.5C 447.861,365.844 461.194,348.511 487.5,341.5 Z M 493.5,362.5 C 514.805,361.799 526.471,372.132 528.5,393.5C 527.165,411.831 517.498,422.498 499.5,425.5C 481.356,422.682 472.023,412.016 471.5,393.5C 471.909,378.113 479.243,367.779 493.5,362.5 Z"/></g>
<g><path style="opacity:0.953" fill="#6cb33e" d="M 79.5,342.5 C 94.7351,340.914 109.068,343.747 122.5,351C 129.268,360.298 127.102,366.464 116,369.5C 110.556,367.195 105.056,365.028 99.5,363C 93.9034,361.544 88.2367,361.211 82.5,362C 75.3065,364.67 73.6398,369.336 77.5,376C 90.881,381.463 104.214,387.13 117.5,393C 129.527,404.031 131.694,416.864 124,431.5C 118.736,438.89 111.569,443.39 102.5,445C 87.0472,447.361 72.3805,445.028 58.5,438C 54.734,436.231 51.5673,433.731 49,430.5C 46.8333,419.333 51.3333,414.833 62.5,417C 74.7747,426.077 88.108,428.41 102.5,424C 107.833,419.333 107.833,414.667 102.5,410C 89.7878,405.205 77.1211,400.205 64.5,395C 54.4708,387.251 50.9708,377.084 54,364.5C 58.3662,352.296 66.8662,344.962 79.5,342.5 Z"/></g>
<g><path style="opacity:0.963" fill="#6cb33e" d="M 254.5,342.5 C 264.545,340.435 270.378,344.435 272,354.5C 279.514,344.991 289.347,341.158 301.5,343C 307.046,346.732 308.879,351.899 307,358.5C 305.878,360.624 304.378,362.457 302.5,364C 285.416,366.752 275.249,376.585 272,393.5C 271.667,408.167 271.333,422.833 271,437.5C 267.046,445.504 260.88,447.671 252.5,444C 250.622,442.457 249.122,440.624 248,438.5C 247.333,408.833 247.333,379.167 248,349.5C 249.694,346.642 251.861,344.309 254.5,342.5 Z"/></g>
<g><path style="opacity:0.954" fill="#6cb33e" d="M 322.5,342.5 C 331.216,340.927 336.716,344.26 339,352.5C 339.667,380.167 339.667,407.833 339,435.5C 336.698,444.74 330.865,447.907 321.5,445C 318.619,443.749 316.786,441.583 316,438.5C 315.333,408.833 315.333,379.167 316,349.5C 317.694,346.642 319.861,344.309 322.5,342.5 Z"/></g>
<g><path style="opacity:0.966" fill="#6cb33e" d="M 356.5,342.5 C 367.525,340.692 373.358,345.359 374,356.5C 379.072,349.377 385.905,344.877 394.5,343C 412.661,339.177 426.494,345.01 436,360.5C 437.202,363.774 438.202,367.107 439,370.5C 439.667,393.5 439.667,416.5 439,439.5C 438.215,441.286 437.049,442.786 435.5,444C 431.289,445.534 426.956,445.867 422.5,445C 420.714,444.215 419.214,443.049 418,441.5C 416.95,420.886 415.95,400.219 415,379.5C 409.85,365.213 400.017,360.713 385.5,366C 379.392,369.446 375.559,374.613 374,381.5C 373.964,401.231 373.297,420.898 372,440.5C 367.86,445.211 362.694,446.711 356.5,445C 354.376,443.878 352.543,442.378 351,440.5C 349.357,410.561 349.024,380.561 350,350.5C 351.277,347.062 353.443,344.395 356.5,342.5 Z"/></g>
</svg>
